<svg width="186" height="137" viewBox="0 0 186 137" fill="none" xmlns="http://www.w3.org/2000/svg">
<g clip-path="url(#clip0_2_232)">
<path d="M167.363 127.63H155.042V127.723H167.363V127.63Z" fill="#EBEBEB"/>
<path d="M123.214 128.641H119.981V128.734H123.214V128.641Z" fill="#EBEBEB"/>
<path d="M154.67 124.183H147.531V124.276H154.67V124.183Z" fill="#EBEBEB"/>
<path d="M35.5818 124.807H19.5151V124.9H35.5818V124.807Z" fill="#EBEBEB"/>
<path d="M41.2511 124.807H38.8963V124.9H41.2511V124.807Z" fill="#EBEBEB"/>
<path d="M83.7558 126.375H48.9069V126.468H83.7558V126.375Z" fill="#EBEBEB"/>
<path d="M88.1677 105.083H16.3382C15.1664 105.083 14.2178 104.132 14.2141 102.962V2.12135C14.2141 0.951079 15.1664 0.00371515 16.3382 0H88.1714C89.3432 0 90.2918 0.951079 90.2955 2.12135V102.962C90.2918 104.132 89.3395 105.079 88.1677 105.083ZM16.3382 0.0928788C15.2185 0.0928788 14.3108 0.999376 14.3071 2.12135V102.962C14.3071 104.08 15.2148 104.987 16.3382 104.99H88.1714C89.2912 104.99 90.1988 104.08 90.2026 102.962V2.12135C90.2026 1.00309 89.2949 0.096594 88.1714 0.0928788H16.3382Z" fill="#EBEBEB"/>
<path d="M168.631 105.083H96.7981C95.6263 105.083 94.6777 104.132 94.674 102.962V2.12135C94.674 0.951079 95.6263 0.00371515 96.7981 0H168.631C169.803 0 170.752 0.951079 170.755 2.12135V102.962C170.755 104.132 169.803 105.079 168.631 105.083ZM96.7981 0.0928788C95.6784 0.0928788 94.7707 1.00309 94.767 2.12135V102.962C94.767 104.08 95.6747 104.987 96.7981 104.99H168.631C169.751 104.99 170.659 104.084 170.662 102.962V2.12135C170.662 1.00309 169.751 0.096594 168.631 0.0928788H96.7981Z" fill="#EBEBEB"/>
<path d="M117.076 43.4487H62.8754L66.1081 6.55725H120.309L117.076 43.4487Z" fill="#F5F5F5"/>
<path d="M98.6023 36.8803H69.1808V37.1701H98.6023V36.8803Z" fill="#E0E0E0"/>
<path d="M99.2347 31.5268H69.5566L69.5715 31.3708L71.3571 10.9671H101.035L101.02 11.1232L99.2347 31.5268ZM69.8728 31.237H98.9669L100.719 11.2569H71.6249L69.8728 31.237Z" fill="#E0E0E0"/>
<path d="M70.7656 41.2605H69.9658C69.3334 41.2716 68.8163 40.7664 68.8051 40.1385C68.8051 40.0939 68.8051 40.0456 68.8126 40.0011L68.8832 39.2023C68.9539 38.5076 69.5342 37.98 70.2299 37.9652H71.0297C71.6621 37.954 72.1792 38.4593 72.1903 39.0871C72.1903 39.1317 72.1903 39.18 72.1829 39.2246L72.1122 40.0233C72.0415 40.7181 71.4649 41.2493 70.7656 41.2605ZM70.2299 38.2549C69.683 38.2661 69.2292 38.6822 69.1734 39.2283L69.1027 40.0271C69.0506 40.4952 69.3854 40.915 69.8542 40.967C69.8914 40.9707 69.9286 40.9744 69.9695 40.9707H70.7693C71.3161 40.9596 71.77 40.5435 71.8258 39.9973L71.8964 39.1986C71.9225 38.9534 71.8406 38.7082 71.6769 38.5261C71.5095 38.3478 71.2752 38.2475 71.0334 38.2512L70.2299 38.2549Z" fill="#E0E0E0"/>
<path d="M84.2208 35.1788H69.2366L69.3743 33.5924H84.3584L84.2208 35.1788ZM69.5528 34.889H83.953L84.0422 33.8822H69.6421L69.5528 34.889Z" fill="#E0E0E0"/>
<path d="M98.4349 40.406H92.468L92.6057 38.8196H98.5763L98.4349 40.406ZM92.7842 40.1162H98.1708L98.2601 39.1094H92.8735L92.7842 40.1162Z" fill="#E0E0E0"/>
<path d="M98.9148 35.1788H97.3264L97.464 33.5924H99.0524L98.9148 35.1788ZM97.6388 34.889H98.6432L98.7325 33.8822H97.7281L97.6388 34.889Z" fill="#E0E0E0"/>
<path d="M96.7126 35.1788H95.1241L95.2618 33.5924H96.8502L96.7126 35.1788ZM95.4403 34.889H96.4447L96.534 33.8822H95.5296L95.4403 34.889Z" fill="#E0E0E0"/>
<path d="M94.514 35.1788H92.9256L93.0632 33.5924H94.6517L94.514 35.1788ZM93.2418 34.889H94.2462L94.3355 33.8822H93.3311L93.2418 34.889Z" fill="#E0E0E0"/>
<path d="M101.169 9.42905H78.838L78.9607 8.02101H101.292L101.169 9.42905ZM79.1542 9.13927H100.901L100.976 8.31451H79.2286L79.1542 9.13927Z" fill="#E0E0E0"/>
<path d="M77.3872 9.51822H71.4203L71.5579 7.93185H77.5285L77.3872 9.51822ZM71.7365 9.22844H77.123L77.2123 8.22164H71.8258L71.7365 9.22844Z" fill="#E0E0E0"/>
<path d="M115.19 17.6396H104.703L105.228 11.621H115.714L115.19 17.6396ZM105.019 17.3498H114.922L115.398 11.9145H105.495L105.019 17.3498Z" fill="#E0E0E0"/>
<path d="M114.2 28.9373H103.714L104.242 22.9188H114.729L114.2 28.9373ZM104.03 28.6475H113.932L114.409 23.2086H104.506L104.03 28.6475Z" fill="#E0E0E0"/>
<path d="M113.211 40.2351H102.724L103.252 34.2166H113.739L113.211 40.2351ZM103.04 39.9416H112.943L113.419 34.5026H103.516L103.04 39.9416Z" fill="#E0E0E0"/>
<path d="M115.493 11.6352L104.798 17.3691L104.935 17.6245L115.63 11.8905L115.493 11.6352Z" fill="#E0E0E0"/>
<path d="M114.981 17.621L105.291 11.8922L105.436 11.6433L115.13 17.3683L114.981 17.621Z" fill="#E0E0E0"/>
<path d="M114.504 22.9444L103.802 28.6638L103.939 28.9193L114.641 23.1999L114.504 22.9444Z" fill="#E0E0E0"/>
<path d="M104.45 22.9361L104.302 23.1855L113.997 28.9138L114.145 28.6644L104.45 22.9361Z" fill="#E0E0E0"/>
<path d="M102.713 40.3428L103.256 34.12L108.23 37.0587L113.505 34.2314L113.642 34.4878L108.52 37.2295L113.144 39.9639L112.995 40.2128L108.218 37.3893L102.713 40.3428ZM103.509 34.6029L103.051 39.8339L107.936 37.2184L103.509 34.6029Z" fill="#E0E0E0"/>
<path d="M100.795 10.9978L69.6304 31.2616L69.7887 31.5045L100.953 11.2407L100.795 10.9978Z" fill="#E0E0E0"/>
<path d="M71.5753 10.9951L71.4034 11.2286L99.0137 31.4994L99.1855 31.266L71.5753 10.9951Z" fill="#E0E0E0"/>
<path d="M138.563 121.857H108.736L112.943 73.8498H142.766L138.563 121.857Z" fill="#F5F5F5"/>
<path d="M118.489 119.713H111.224L111.671 114.612H118.936L118.489 119.713ZM111.548 119.416H118.218L118.612 114.906H111.938L111.548 119.416Z" fill="#E0E0E0"/>
<path d="M127.332 119.713H120.067L120.513 114.612H127.778L127.332 119.713ZM120.387 119.416H127.06L127.455 114.906H120.785L120.387 119.416Z" fill="#E0E0E0"/>
<path d="M136.171 119.713H128.905L129.352 114.612H136.617L136.171 119.713ZM129.229 119.416H135.899L136.293 114.906H129.62L129.229 119.416Z" fill="#E0E0E0"/>
<path d="M137.093 107.361H112.441V107.654H137.093V107.361Z" fill="#E0E0E0"/>
<path d="M129.248 100.487H112.939L113.103 98.6076H129.411L129.248 100.487ZM113.259 100.19H128.976L129.088 98.9011H113.371L113.259 100.19Z" fill="#E0E0E0"/>
<path d="M136.807 112.48H130.044L130.207 110.626H136.97L136.807 112.48ZM130.364 112.186H136.531L136.643 110.923H130.475L130.364 112.186Z" fill="#E0E0E0"/>
<path d="M137.443 105.228H134.872L135.096 102.665H137.666L137.443 105.228ZM135.192 104.931H137.168L137.342 102.954H135.367L135.192 104.931Z" fill="#E0E0E0"/>
<path d="M126.264 105.228H123.694L123.917 102.665H126.487L126.264 105.228ZM124.014 104.931H125.989L126.164 102.954H124.188L124.014 104.931Z" fill="#E0E0E0"/>
<path d="M115.086 105.228H112.515L112.738 102.665H115.309L115.086 105.228ZM112.835 104.931H114.81L114.985 102.954H113.01L112.835 104.931Z" fill="#E0E0E0"/>
<path d="M122.563 78.3154H114.881L115.056 76.3353H122.738L122.563 78.3154ZM115.205 78.0182H122.291L122.414 76.6288H115.327L115.205 78.0182Z" fill="#E0E0E0"/>
<path d="M114.286 112.996H113.639C112.742 113.011 112.005 112.298 111.991 111.403C111.991 111.336 111.994 111.269 111.998 111.202L112.054 110.556C112.158 109.564 112.984 108.806 113.981 108.787H114.624C115.521 108.772 116.257 109.486 116.272 110.381C116.272 110.448 116.269 110.515 116.265 110.582L116.209 111.228C116.109 112.22 115.283 112.978 114.286 112.996ZM113.985 109.084C113.14 109.099 112.441 109.742 112.351 110.582L112.296 111.228C112.214 111.956 112.738 112.61 113.467 112.692C113.527 112.699 113.583 112.699 113.642 112.699H114.29C115.134 112.684 115.833 112.042 115.919 111.202L115.975 110.556C116.057 109.827 115.532 109.174 114.803 109.092C114.743 109.084 114.688 109.084 114.628 109.084H113.985Z" fill="#E0E0E0"/>
<path d="M138.124 97.0361H113.226L113.241 96.8763L114.74 79.7718H139.638L139.623 79.9315L138.124 97.0361ZM113.549 96.7426H137.852L139.314 80.069H115.011L113.549 96.7426Z" fill="#E0E0E0"/>
<path d="M114.964 79.8017L114.788 80.0411L137.902 97.0113L138.079 96.7718L114.964 79.8017Z" fill="#E0E0E0"/>
<path d="M113.471 97.0138L113.307 96.7649L139.236 79.9464L139.396 80.1916L113.471 97.0138Z" fill="#E0E0E0"/>
<path d="M118.266 119.684L111.719 114.876L111.894 114.638L118.441 119.446L118.266 119.684Z" fill="#E0E0E0"/>
<path d="M118.688 114.633L111.297 119.439L111.459 119.688L118.85 114.882L118.688 114.633Z" fill="#E0E0E0"/>
<path d="M127.109 119.684L120.561 114.876L120.736 114.638L127.284 119.446L127.109 119.684Z" fill="#E0E0E0"/>
<path d="M127.534 114.631L120.144 119.439L120.306 119.688L127.696 114.88L127.534 114.631Z" fill="#E0E0E0"/>
<path d="M135.947 119.684L129.4 114.876L129.579 114.638L136.126 119.446L135.947 119.684Z" fill="#E0E0E0"/>
<path d="M136.376 114.63L128.986 119.438L129.148 119.687L136.539 114.879L136.376 114.63Z" fill="#E0E0E0"/>
<path d="M147.598 17.6395C147.598 16.8148 147.479 15.9937 147.238 15.2024L149.377 13.3225L148.03 10.9931L145.329 11.9071C144.195 10.6959 142.725 9.84515 141.103 9.46992L140.542 6.67984H137.848L137.29 9.46992C135.672 9.84515 134.199 10.6959 133.064 11.9071L130.364 10.9931L129.017 13.3225L131.156 15.2024C130.676 16.7925 130.676 18.4866 131.156 20.0767L129.017 21.9528L130.364 24.2822L133.064 23.3683C134.199 24.5794 135.672 25.4302 137.29 25.8092L137.848 28.5992H140.542L141.103 25.8092C142.722 25.4302 144.191 24.5832 145.329 23.3683L148.03 24.2822L149.377 21.9528L147.238 20.0767C147.476 19.2854 147.598 18.4643 147.598 17.6395ZM139.195 22.1683C136.784 22.1683 134.828 20.2141 134.828 17.8067C134.828 15.3993 136.784 13.4451 139.195 13.4451C141.606 13.4451 143.562 15.3993 143.562 17.8067C143.562 20.2141 141.609 22.1683 139.195 22.1683C139.199 22.1683 139.195 22.1683 139.195 22.1683Z" fill="#EBEBEB"/>
<path d="M55.3275 88.246C56.0343 86.916 56.5365 85.4894 56.8193 84.0145L61.871 82.7996L61.685 77.8993L56.5551 77.0746C55.7591 74.1545 54.1111 71.539 51.8196 69.5551L53.2927 64.5805L48.9477 62.292L45.6704 66.3155C42.7391 65.5465 39.644 65.6653 36.7833 66.6573L33.2084 62.8938L29.0532 65.5056L30.902 70.3539C28.7742 72.5086 27.3308 75.2393 26.7505 78.2114L21.7025 79.4226L21.8885 84.3228L27.0183 85.1476C27.8181 88.0677 29.4661 90.6869 31.7539 92.6708L30.2771 97.6417L34.622 99.9302L37.9031 95.9104C40.8344 96.6757 43.9257 96.5531 46.7901 95.5649L50.3651 99.3283L54.5203 96.7166L52.6715 91.872C53.7279 90.7983 54.6245 89.5798 55.3275 88.246ZM37.9254 88.4132C34.038 86.3662 32.55 81.5551 34.5997 77.6727C36.6494 73.7904 41.4668 72.3043 45.3542 74.3514C49.2416 76.3984 50.7296 81.2095 48.6799 85.0919C46.6302 88.9742 41.8165 90.4603 37.9254 88.4132C37.9291 88.4132 37.9291 88.4132 37.9254 88.4132Z" fill="#EBEBEB"/>
<path d="M147.305 75.191L150.221 76.8071C150.333 76.8628 150.429 76.9371 150.515 77.0263C150.567 77.0969 150.589 77.186 150.586 77.2715C150.586 77.3941 150.537 77.513 150.448 77.5984C150.366 77.6876 150.251 77.7359 150.132 77.7359C150.005 77.721 149.882 77.6727 149.775 77.6058L146.01 75.5142C145.831 75.4139 145.768 75.191 145.865 75.0127C145.898 74.9532 145.947 74.9012 146.01 74.8678L149.775 72.7761C149.882 72.7093 150.002 72.6647 150.124 72.6498C150.247 72.6498 150.362 72.6981 150.444 72.7873C150.533 72.8727 150.582 72.9879 150.582 73.1105C150.586 73.1997 150.56 73.2851 150.511 73.3557C150.429 73.4449 150.329 73.5229 150.217 73.5749L147.305 75.191Z" fill="#EBEBEB"/>
<path d="M154.812 72.1817L151.925 78.3972C151.88 78.5086 151.813 78.6126 151.728 78.7018C151.65 78.765 151.553 78.7984 151.452 78.7947C151.333 78.7947 151.218 78.7501 151.132 78.6647C151.047 78.5866 150.999 78.4789 150.999 78.3674C151.01 78.2448 151.047 78.1297 151.103 78.0219L153.997 71.8139C154.041 71.7025 154.108 71.5984 154.19 71.5093C154.369 71.3718 154.622 71.3904 154.782 71.5464C154.864 71.6207 154.912 71.7285 154.912 71.8436C154.905 71.9551 154.871 72.074 154.812 72.1817Z" fill="#EBEBEB"/>
<path d="M158.442 75.191L155.526 73.5749C155.414 73.5229 155.317 73.4449 155.232 73.3557C155.18 73.2851 155.158 73.1959 155.161 73.1105C155.161 72.9879 155.21 72.869 155.299 72.7873C155.381 72.6981 155.5 72.6498 155.619 72.6498C155.745 72.6647 155.864 72.7093 155.972 72.7761L159.737 74.8678C159.915 74.9681 159.979 75.191 159.882 75.3693C159.848 75.4288 159.8 75.4808 159.737 75.5142L155.972 77.6058C155.868 77.6764 155.745 77.721 155.619 77.7359C155.496 77.7359 155.377 77.6876 155.295 77.5947C155.21 77.5092 155.161 77.3904 155.161 77.2678C155.158 77.1786 155.184 77.0932 155.232 77.0226C155.314 76.9334 155.414 76.8554 155.526 76.8034L158.442 75.191Z" fill="#EBEBEB"/>
<path d="M91.207 137C131.042 137 163.334 135.117 163.334 132.794C163.334 130.472 131.042 128.589 91.207 128.589C51.3723 128.589 19.0799 130.472 19.0799 132.794C19.0799 135.117 51.3723 137 91.207 137Z" fill="#F5F5F5"/>
<path d="M42.2406 48.8134H28.4692C27.2899 48.832 26.319 47.8958 26.3004 46.7181C26.3004 46.6289 26.3041 46.5434 26.3116 46.4543L29.1909 13.5863C29.3248 12.2823 30.4147 11.2829 31.7279 11.2569H35.3065C35.6376 11.2532 35.9092 11.5133 35.9203 11.8402L35.9241 11.9516C35.9389 12.4123 36.3184 12.7727 36.7797 12.7653H40.1835C40.6819 12.7541 41.1097 12.4049 41.2176 11.9182L41.2437 11.8068C41.3143 11.4873 41.5933 11.2569 41.9244 11.2532H45.5031C46.6823 11.2346 47.6532 12.1708 47.6718 13.3485C47.6718 13.4377 47.6681 13.5232 47.6607 13.6123L44.7814 46.4803C44.64 47.788 43.5538 48.7874 42.2406 48.8134ZM31.7279 11.6284C30.6082 11.6507 29.6782 12.5015 29.5629 13.616L26.6836 46.484C26.5757 47.4499 27.2713 48.323 28.2385 48.4307C28.3167 48.4382 28.3911 48.4419 28.4692 48.4419H42.2369C43.3566 48.4196 44.2866 47.5688 44.4019 46.4543L47.2812 13.5863C47.3891 12.6204 46.6935 11.7473 45.7263 11.6396C45.6481 11.6321 45.5737 11.6284 45.4956 11.6284H41.917C41.7645 11.6321 41.6343 11.7399 41.6008 11.8885L41.5785 11.9999C41.4297 12.6538 40.8531 13.1256 40.1797 13.1368H36.7759C36.1138 13.1479 35.5669 12.6278 35.5483 11.9665L35.5446 11.8551C35.5409 11.725 35.4367 11.6247 35.3065 11.6284C35.3065 11.6284 35.3065 11.6284 35.3028 11.6284H31.7279Z" fill="#407BFF"/>
<path d="M47.2068 16.4173H29.1165V16.7888H47.2068V16.4173Z" fill="#407BFF"/>
<path d="M45.4956 11.2569H41.917V11.6284H45.4956V11.2569Z" fill="#407BFF"/>
<path d="M42.1327 31.7683H31.5754L32.4979 21.2247H43.0553L42.1327 31.7683ZM31.9809 31.3968H41.7905L42.6498 21.5962H32.8402L31.9809 31.3968Z" fill="#407BFF"/>
<path d="M42.2592 43.6791H29.321L29.6633 39.7707H42.6052L42.2592 43.6791ZM29.7265 43.3075H41.9207L42.1997 40.1422H30.0018L29.7265 43.3075Z" fill="#407BFF"/>
<path d="M33.7478 37.1924C33.1861 37.1998 32.7211 36.7503 32.7137 36.1893C32.7137 36.1484 32.7137 36.1076 32.7174 36.0667C32.7806 35.4537 33.294 34.9856 33.9078 34.9745C34.4695 34.967 34.9345 35.4166 34.942 35.9775C34.942 36.0184 34.942 36.0593 34.9382 36.1001C34.875 36.7131 34.3654 37.1813 33.7478 37.1924ZM33.9115 35.346C33.4874 35.3534 33.134 35.6766 33.0894 36.1001C33.0708 36.2859 33.1303 36.4754 33.2568 36.6128C33.3833 36.7503 33.5618 36.8246 33.7478 36.8209C34.1719 36.8135 34.5253 36.4902 34.57 36.0667C34.6109 35.7101 34.3579 35.3906 34.0008 35.3497C33.971 35.346 33.9413 35.346 33.9115 35.346Z" fill="#407BFF"/>
<path d="M36.4225 37.1924C35.8608 37.1998 35.3958 36.7503 35.3884 36.1893C35.3884 36.1484 35.3884 36.1076 35.3921 36.0667C35.4553 35.4537 35.9687 34.9856 36.5825 34.9745C37.1442 34.967 37.6092 35.4166 37.6166 35.9775C37.6166 36.0184 37.6166 36.0593 37.6129 36.1001C37.5534 36.7131 37.04 37.1813 36.4225 37.1924ZM36.5862 35.346C36.1621 35.3534 35.8087 35.6766 35.7641 36.1001C35.7455 36.2859 35.805 36.4754 35.9315 36.6128C36.058 36.7503 36.2365 36.8246 36.4225 36.8209C36.8466 36.8135 37.2 36.4902 37.2446 36.0667C37.2856 35.7101 37.0326 35.3906 36.6755 35.3497C36.6457 35.346 36.616 35.346 36.5862 35.346Z" fill="#407BFF"/>
<path d="M39.1009 37.1924C38.5392 37.1998 38.0742 36.7503 38.0668 36.1893C38.0668 36.1484 38.0668 36.1076 38.0742 36.0667C38.1375 35.4537 38.6508 34.9856 39.2646 34.9745C39.8263 34.967 40.2913 35.4166 40.2988 35.9775C40.2988 36.0184 40.2988 36.0593 40.2951 36.1001C40.2281 36.7131 39.7147 37.1813 39.1009 37.1924ZM39.2609 35.346C38.8368 35.3534 38.4834 35.6766 38.4388 36.1001C38.4202 36.2859 38.4797 36.4754 38.6062 36.6128C38.7327 36.7503 38.9112 36.8246 39.0972 36.8209C39.5213 36.8135 39.8747 36.4902 39.9193 36.0667C39.9603 35.7101 39.7073 35.3906 39.3502 35.3497C39.3204 35.346 39.2907 35.346 39.2609 35.346Z" fill="#407BFF"/>
<path d="M149.871 86.0392H131.781V86.4108H149.871V86.0392Z" fill="#407BFF"/>
<path d="M144.894 118.435H131.126C129.947 118.454 128.976 117.518 128.958 116.34C128.958 116.251 128.961 116.162 128.969 116.076L131.848 83.2083C131.982 81.9043 133.072 80.9049 134.385 80.8789H137.964C138.295 80.8715 138.566 81.1352 138.577 81.4622L138.581 81.5736C138.596 82.0343 138.975 82.3947 139.437 82.3872H142.841C143.339 82.3761 143.767 82.0269 143.875 81.5402L143.901 81.4287C143.971 81.1092 144.254 80.8826 144.582 80.8752H148.16C149.339 80.8566 150.31 81.7928 150.329 82.9705C150.329 83.0597 150.325 83.1488 150.318 83.2343L147.438 116.102C147.297 117.41 146.207 118.409 144.894 118.435ZM134.385 81.2504C133.265 81.2727 132.335 82.1235 132.22 83.238L129.341 116.106C129.233 117.072 129.928 117.945 130.896 118.053C130.974 118.06 131.048 118.064 131.126 118.064H144.894C146.014 118.042 146.944 117.187 147.059 116.076L149.938 83.2083C150.046 82.2423 149.351 81.3693 148.383 81.2615C148.305 81.2541 148.231 81.2504 148.153 81.2504H144.574C144.422 81.2541 144.291 81.3619 144.258 81.5105L144.236 81.6219C144.087 82.2758 143.51 82.7476 142.841 82.7588H139.437C138.775 82.7699 138.228 82.2498 138.209 81.5885L138.205 81.477C138.202 81.347 138.098 81.2467 137.967 81.2504C137.967 81.2504 137.967 81.2504 137.964 81.2504H134.385Z" fill="#407BFF"/>
<path d="M147.204 91.1996H133.611C133.068 91.207 132.622 90.7723 132.611 90.2299C132.611 90.1891 132.611 90.1519 132.614 90.111C132.674 89.5203 133.169 89.0671 133.764 89.0559H147.357C147.9 89.0485 148.346 89.4832 148.357 90.0256C148.357 90.0665 148.357 90.1036 148.354 90.1445C148.29 90.7389 147.799 91.1884 147.204 91.1996ZM133.764 89.4312C133.362 89.4386 133.027 89.747 132.986 90.1445C132.968 90.3228 133.024 90.4974 133.143 90.6274C133.262 90.7575 133.433 90.8281 133.608 90.8244H147.2C147.602 90.8169 147.937 90.5086 147.978 90.111C148.015 89.7767 147.777 89.472 147.439 89.4312C147.409 89.4275 147.383 89.4275 147.353 89.4275L133.764 89.4312Z" fill="#407BFF"/>
<path d="M146.895 94.7401H133.302C132.759 94.7476 132.313 94.3129 132.306 93.7705C132.306 93.7296 132.306 93.6925 132.309 93.6516C132.369 93.0609 132.864 92.6076 133.459 92.5965H147.052C147.595 92.5891 148.041 93.0237 148.049 93.5661C148.049 93.607 148.049 93.6442 148.045 93.685C147.982 94.2757 147.487 94.729 146.895 94.7401ZM133.455 92.9717C133.053 92.9791 132.718 93.2875 132.678 93.685C132.659 93.8633 132.715 94.038 132.834 94.168C132.953 94.298 133.124 94.3686 133.299 94.3649H146.892C147.293 94.3575 147.628 94.0491 147.669 93.6516C147.688 93.4733 147.632 93.2986 147.513 93.1649C147.394 93.0349 147.223 92.9643 147.048 92.968H133.455V92.9717Z" fill="#407BFF"/>
<path d="M146.583 98.277H132.99C132.447 98.2844 132 97.8497 131.989 97.3073C131.989 97.2664 131.989 97.2293 131.993 97.1884C132.053 96.5977 132.547 96.1445 133.143 96.1333H146.735C147.279 96.1259 147.725 96.5606 147.736 97.103C147.736 97.1438 147.736 97.181 147.732 97.2219C147.673 97.8126 147.178 98.2658 146.583 98.277ZM133.146 96.5085C132.744 96.516 132.41 96.8243 132.369 97.2219C132.35 97.4002 132.406 97.5748 132.525 97.7048C132.644 97.8349 132.815 97.9054 132.99 97.9017H146.583C146.985 97.8943 147.319 97.5859 147.36 97.1884C147.379 97.0101 147.323 96.8355 147.204 96.7054C147.085 96.5754 146.914 96.5048 146.739 96.5085H133.146Z" fill="#407BFF"/>
<path d="M145.735 107.97H132.142C131.599 107.977 131.152 107.543 131.141 107C131.141 106.959 131.141 106.922 131.145 106.881C131.204 106.291 131.699 105.837 132.294 105.826H145.887C146.43 105.819 146.877 106.253 146.888 106.796C146.888 106.837 146.888 106.874 146.884 106.915C146.821 107.509 146.33 107.962 145.735 107.97ZM132.294 106.201C131.893 106.209 131.558 106.517 131.517 106.915C131.476 107.249 131.718 107.554 132.056 107.595C132.086 107.598 132.112 107.598 132.142 107.598H145.735C146.136 107.591 146.471 107.282 146.512 106.885C146.531 106.707 146.475 106.532 146.356 106.402C146.237 106.272 146.066 106.201 145.891 106.205L132.294 106.201Z" fill="#407BFF"/>
<path d="M145.426 111.51H131.833C131.29 111.518 130.844 111.083 130.832 110.541C130.832 110.5 130.832 110.463 130.836 110.422C130.896 109.831 131.39 109.378 131.986 109.367H145.578C146.122 109.359 146.568 109.794 146.575 110.336C146.575 110.377 146.575 110.414 146.572 110.455C146.512 111.046 146.021 111.499 145.426 111.51ZM131.986 109.742C131.584 109.749 131.249 110.058 131.208 110.455C131.19 110.634 131.245 110.808 131.364 110.938C131.483 111.068 131.655 111.139 131.829 111.135H145.422C145.824 111.128 146.159 110.819 146.2 110.422C146.218 110.243 146.163 110.069 146.043 109.939C145.924 109.809 145.753 109.738 145.578 109.742H131.986Z" fill="#407BFF"/>
<path d="M145.113 115.047H131.521C130.977 115.055 130.531 114.62 130.52 114.078C130.52 114.037 130.52 113.999 130.524 113.959C130.583 113.368 131.078 112.915 131.673 112.904H145.266C145.809 112.896 146.256 113.331 146.267 113.873C146.267 113.914 146.267 113.951 146.263 113.992C146.203 114.586 145.709 115.036 145.113 115.047ZM131.677 113.279C131.275 113.286 130.94 113.595 130.899 113.992C130.858 114.326 131.1 114.631 131.439 114.672C131.468 114.676 131.495 114.676 131.524 114.676H145.117C145.519 114.668 145.854 114.36 145.895 113.962C145.913 113.784 145.857 113.609 145.738 113.479C145.619 113.349 145.448 113.279 145.273 113.282L131.677 113.279Z" fill="#407BFF"/>
<path d="M153.844 51.6221H140.077C138.897 51.6406 137.926 50.7044 137.908 49.5267C137.908 49.4375 137.912 49.3521 137.919 49.2629L140.798 16.395C140.932 15.091 142.022 14.0916 143.335 14.0656H146.914C147.245 14.0619 147.517 14.3219 147.528 14.6489L147.531 14.7603C147.546 15.221 147.926 15.5814 148.387 15.5739H151.791C152.289 15.5628 152.717 15.2136 152.825 14.7269L152.851 14.6154C152.922 14.2959 153.201 14.0656 153.532 14.0619H157.11C158.29 14.0433 159.261 14.9795 159.279 16.1572C159.279 16.2464 159.276 16.3318 159.268 16.421L156.389 49.2889C156.244 50.6004 155.157 51.5998 153.844 51.6221ZM143.332 14.4371C142.212 14.4594 141.282 15.3101 141.167 16.4247L138.287 49.2927C138.179 50.2586 138.875 51.1317 139.842 51.2394C139.92 51.2468 139.995 51.2505 140.073 51.2505H153.841C154.96 51.2282 155.89 50.3775 156.006 49.2629L158.885 16.395C158.993 15.429 158.297 14.556 157.33 14.4482C157.252 14.4408 157.177 14.4371 157.099 14.4371H153.521C153.368 14.4408 153.238 14.5485 153.204 14.6971L153.182 14.8086C153.033 15.4625 152.457 15.9343 151.783 15.9454H148.38C147.717 15.9566 147.171 15.4365 147.152 14.7752L147.148 14.6637C147.145 14.5337 147.04 14.4334 146.91 14.4371C146.91 14.4371 146.91 14.4371 146.907 14.4371H143.332Z" fill="#407BFF"/>
<path d="M158.807 19.2296H140.716V19.6011H158.807V19.2296Z" fill="#407BFF"/>
<path d="M154.722 47.7843H140.08L141.003 37.2444H155.645L154.722 47.7843ZM140.486 47.4128H154.38L155.239 37.6122H141.345L140.486 47.4128Z" fill="#407BFF"/>
<path d="M141.286 37.277L141.06 37.5727L154.437 47.7416L154.662 47.446L141.286 37.277Z" fill="#407BFF"/>
<path d="M155.339 37.2734L140.18 47.4427L140.388 47.7511L155.547 37.5818L155.339 37.2734Z" fill="#407BFF"/>
<path d="M156.638 25.9281H141.996L142.338 22.0197H156.98L156.638 25.9281ZM142.402 25.5565H156.296L156.575 22.3912H142.681L142.402 25.5565Z" fill="#407BFF"/>
<path d="M156.738 22.0222L142.16 25.5642L142.248 25.9252L156.826 22.3832L156.738 22.0222Z" fill="#407BFF"/>
<path d="M142.552 22.0171L142.461 22.3772L156.419 25.915L156.51 25.5549L142.552 22.0171Z" fill="#407BFF"/>
<path d="M156.192 31.0141H141.55L141.892 27.1058H156.534L156.192 31.0141ZM141.955 30.6426H155.849L156.128 27.4773H142.234L141.955 30.6426Z" fill="#407BFF"/>
<path d="M156.291 27.105L141.713 30.6455L141.801 31.0065L156.379 27.466L156.291 27.105Z" fill="#407BFF"/>
<path d="M142.108 27.1033L142.016 27.4634L155.974 31.0012L156.066 30.6411L142.108 27.1033Z" fill="#407BFF"/>
<path d="M155.745 36.0964H141.103L141.446 32.1881H156.087L155.745 36.0964ZM141.509 35.7249H155.403L155.682 32.5596H141.788L141.509 35.7249Z" fill="#407BFF"/>
<path d="M155.849 32.1906L141.271 35.7327L141.359 36.0937L155.937 32.5516L155.849 32.1906Z" fill="#407BFF"/>
<path d="M141.66 32.1886L141.568 32.5487L155.526 36.0865L155.618 35.7264L141.66 32.1886Z" fill="#407BFF"/>
<path d="M151.731 68.5186C148.447 68.5186 145.783 65.8585 145.783 62.578C145.783 59.2976 148.447 56.6375 151.731 56.6375C155.016 56.6375 157.68 59.2976 157.68 62.578C157.676 65.8585 155.012 68.5149 151.731 68.5186ZM151.731 57.009C148.651 57.009 146.155 59.5019 146.155 62.578C146.155 65.6542 148.651 68.1471 151.731 68.1471C154.812 68.1471 157.308 65.6542 157.308 62.578C157.304 59.5056 154.808 57.0127 151.731 57.009Z" fill="#407BFF"/>
<path d="M150.705 66.0183L147.93 62.3551L148.227 62.1322L150.556 65.2084C151.642 61.7607 153.829 58.7626 156.783 56.6747L157.613 56.0914L157.828 56.396L156.999 56.9793C154.012 59.0932 151.828 62.1545 150.809 65.6653L150.705 66.0183Z" fill="#407BFF"/>
<path d="M110.547 19.6309H100.886L91.1437 130.829H100.805C105.373 130.747 109.156 127.27 109.621 122.734L117.943 27.7299C118.385 23.7213 115.487 20.1176 111.474 19.6755C111.169 19.6383 110.856 19.6234 110.547 19.6309Z" fill="#263238"/>
<path d="M98.8292 130.829H59.0252C54.989 130.9 51.6559 127.694 51.5852 123.659C51.5815 123.351 51.5927 123.038 51.6261 122.73L59.9478 27.7262C60.4128 23.19 64.196 19.7126 68.7642 19.6309H108.564C112.601 19.5566 115.934 22.7665 116.004 26.7974C116.008 27.1058 115.997 27.4178 115.964 27.7262L107.642 122.73C107.181 127.27 103.394 130.747 98.8292 130.829Z" fill="#407BFF"/>
<path d="M108.405 21.4884H98.0592C97.3673 21.4996 96.7721 21.9863 96.6196 22.6624L96.5489 22.9857C96.1806 24.6352 94.7298 25.8203 93.0372 25.8537H83.2015C81.5796 25.8872 80.2367 24.6055 80.192 22.9857L80.1846 22.6624C80.166 22.0011 79.6154 21.4773 78.9533 21.4884H68.608C65.0888 21.5516 62.1724 24.2302 61.8152 27.7262L53.4936 122.73C53.1551 125.817 55.3871 128.596 58.4784 128.938C58.7165 128.964 58.9546 128.975 59.1964 128.972H98.9892C102.508 128.908 105.425 126.23 105.782 122.734L114.104 27.7299C114.442 24.6426 112.21 21.8637 109.119 21.5219C108.884 21.4959 108.646 21.4847 108.405 21.4884Z" fill="white"/>
<g opacity="0.2">
<path d="M86.0064 22.5398C85.9618 22.9819 85.5935 23.32 85.1471 23.3274C84.7528 23.3349 84.4291 23.0228 84.4217 22.629C84.4217 22.5993 84.4217 22.5696 84.4254 22.5398C84.47 22.0977 84.8383 21.7597 85.2847 21.7522C85.679 21.7448 86.0027 22.0569 86.0101 22.4507C86.0101 22.4804 86.0101 22.5101 86.0064 22.5398Z" fill="black"/>
<path d="M91.6794 21.7522H88.9675C88.5211 21.7597 88.1529 22.0977 88.1082 22.5398C88.0636 22.9299 88.3463 23.2829 88.7406 23.3237C88.7704 23.3275 88.8001 23.3275 88.8299 23.3275H91.5418C91.9882 23.32 92.3565 22.9819 92.4011 22.5398C92.4457 22.1497 92.163 21.7968 91.7687 21.7559C91.7389 21.7522 91.7092 21.7522 91.6794 21.7522Z" fill="black"/>
</g>
<path d="M66.309 25.8389H67.146L67.2204 25.003H66.3834L66.309 25.8389Z" fill="#263238"/>
<path d="M68.0574 25.003L67.983 25.8389H68.82L68.8944 25.003L68.9651 24.1671H68.1281L68.0574 25.003Z" fill="#263238"/>
<path d="M69.8765 23.3312L69.8021 24.1671L69.7314 25.003L69.657 25.8389H70.494L70.5684 25.003L70.6391 24.1671L70.7135 23.3312H69.8765Z" fill="#263238"/>
<path d="M105.864 23.3869L105.812 23.9999H105.402L105.295 25.2259H105.704L105.652 25.8389H109.335L109.55 23.3869H105.864ZM107.341 25.2259H106.113L106.221 23.9999H107.448L107.341 25.2259Z" fill="#263238"/>
<path opacity="0.8" d="M104.197 89.6467H50.3614L54.8923 37.9466H108.724L104.197 89.6467Z" fill="#263238"/>
<path d="M102.772 88.0863H48.9403L53.4675 36.3862H107.303L102.772 88.0863Z" fill="#407BFF"/>
<g opacity="0.8">
<path d="M102.772 88.0863H48.9403L53.4675 36.3862H107.303L102.772 88.0863Z" fill="white"/>
<path d="M102.944 88.272H48.7357L48.7543 88.0714L53.2964 36.2005H107.504L102.944 88.272ZM49.1412 87.9005H102.601L107.099 36.572H53.6387L49.1412 87.9005Z" fill="#407BFF"/>
</g>
<path opacity="0.8" d="M99.7778 73.8498H54.431L57.3289 40.7627H102.676L99.7778 73.8498Z" fill="white"/>
<path d="M99.949 74.0356H54.2302L57.1615 40.5769H102.88L99.949 74.0356ZM54.6319 73.6641H99.6067L102.471 40.9484H57.4963L54.6319 73.6641Z" fill="#407BFF"/>
<path d="M57.4431 40.6164L57.2142 40.9093L99.6618 73.9982L99.8907 73.7053L57.4431 40.6164Z" fill="#407BFF"/>
<path d="M102.573 40.5996L54.3353 73.7059L54.546 74.0122L102.784 40.9058L102.573 40.5996Z" fill="#407BFF"/>
<path d="M72.0117 78.6944C71.915 79.6529 71.1152 80.3848 70.1517 80.4033C69.2999 80.4182 68.5968 79.7421 68.5819 78.8913C68.5819 78.8244 68.5819 78.7613 68.5894 78.6944C68.6861 77.7359 69.4859 77.004 70.4494 76.9854C71.3012 76.9705 72.0043 77.6467 72.0192 78.4975C72.0192 78.5643 72.0192 78.6275 72.0117 78.6944Z" fill="#407BFF"/>
<path d="M78.3878 78.6944C78.2911 79.6529 77.4913 80.3848 76.5278 80.4033C75.676 80.4182 74.9729 79.7421 74.958 78.8913C74.958 78.8244 74.958 78.7613 74.9654 78.6944C75.0622 77.7359 75.862 77.004 76.8254 76.9854C77.6773 76.9705 78.3804 77.6467 78.3953 78.4975C78.399 78.5643 78.3953 78.6275 78.3878 78.6944Z" fill="#407BFF"/>
<path d="M84.7676 78.6944C84.6709 79.6529 83.8711 80.3848 82.9076 80.4033C82.0557 80.4182 81.3526 79.7421 81.3378 78.8913C81.3378 78.8244 81.3378 78.7613 81.3452 78.6944C81.4419 77.7359 82.2417 77.004 83.2052 76.9854C84.0571 76.9705 84.7602 77.6467 84.7751 78.4975C84.7788 78.5643 84.775 78.6275 84.7676 78.6944Z" fill="#407BFF"/>
<path d="M71.5951 117.209H46.3884L48.5088 93.0014H73.7155L71.5951 117.209Z" fill="#407BFF"/>
<g opacity="0.8">
<path d="M71.5951 117.209H46.3884L48.5088 93.0014H73.7155L71.5951 117.209Z" fill="white"/>
<path d="M71.7662 117.395H46.1875L48.3414 92.8157H73.9201L71.7662 117.395ZM46.593 117.024H71.424L73.5109 93.1872H48.6762L46.593 117.024Z" fill="#407BFF"/>
</g>
<path d="M70.1927 110.544H48.9589L50.3167 95.0522H71.5505L70.1927 110.544Z" fill="white"/>
<path d="M70.3638 110.73H48.7581L50.1493 94.8664H71.7551L70.3638 110.73ZM49.1635 110.359H70.0216L71.3459 95.238H50.4879L49.1635 110.359Z" fill="#407BFF"/>
<path d="M50.4306 94.9088L50.2017 95.2017L70.078 110.696L70.3069 110.403L50.4306 94.9088Z" fill="#407BFF"/>
<path d="M71.4497 94.8967L48.8623 110.399L49.073 110.705L71.6604 95.2029L71.4497 94.8967Z" fill="#407BFF"/>
<path d="M57.1913 112.811C57.1466 113.26 56.7709 113.602 56.3208 113.609C55.9227 113.617 55.5917 113.301 55.5842 112.9C55.5842 112.87 55.5842 112.84 55.5879 112.807C55.6326 112.357 56.0083 112.016 56.4584 112.008C56.8565 112.001 57.1875 112.317 57.195 112.718C57.195 112.751 57.195 112.781 57.1913 112.811Z" fill="#407BFF"/>
<path d="M60.1785 112.811C60.1338 113.26 59.7581 113.602 59.308 113.609C58.9099 113.617 58.5789 113.301 58.5714 112.9C58.5714 112.87 58.5714 112.84 58.5751 112.807C58.6198 112.357 58.9955 112.016 59.4456 112.008C59.8437 112.001 60.1747 112.317 60.1822 112.718C60.1822 112.751 60.1822 112.781 60.1785 112.811Z" fill="#407BFF"/>
<path d="M63.1656 112.811C63.1209 113.26 62.7452 113.602 62.2951 113.609C61.8971 113.617 61.566 113.301 61.5585 112.9C61.5585 112.87 61.5585 112.84 61.5623 112.807C61.6069 112.357 61.9826 112.016 62.4327 112.008C62.8308 112.001 63.1619 112.317 63.1693 112.718C63.1693 112.751 63.1693 112.781 63.1656 112.811Z" fill="#407BFF"/>
<path d="M100.221 117.209H75.0138L77.1342 93.0014H102.341L100.221 117.209Z" fill="#407BFF"/>
<g opacity="0.8">
<path d="M100.221 117.209H75.0138L77.1342 93.0014H102.341L100.221 117.209Z" fill="white"/>
<path d="M100.392 117.395H74.8129L76.9668 92.8157H102.546L100.392 117.395ZM75.2184 117.024H100.053L102.14 93.1872H77.3053L75.2184 117.024Z" fill="#407BFF"/>
</g>
<path d="M98.8181 110.544H77.5844L78.9422 95.0522H100.176L98.8181 110.544Z" fill="white"/>
<path d="M98.9892 110.73H77.3834L78.7747 94.8664H100.38L98.9892 110.73ZM77.7889 110.359H98.6469L99.9713 95.238H79.1132L77.7889 110.359Z" fill="#407BFF"/>
<path d="M79.0596 94.9073L78.8307 95.2002L98.707 110.694L98.9359 110.401L79.0596 94.9073Z" fill="#407BFF"/>
<path d="M100.077 94.8964L77.4893 110.398L77.7 110.705L100.287 95.2026L100.077 94.8964Z" fill="#407BFF"/>
<path d="M85.8167 112.811C85.7721 113.26 85.3963 113.602 84.9462 113.609C84.5482 113.617 84.2171 113.301 84.2097 112.9C84.2097 112.87 84.2097 112.84 84.2134 112.807C84.258 112.357 84.6337 112.016 85.0839 112.008C85.4819 112.001 85.813 112.317 85.8204 112.718C85.8241 112.751 85.8204 112.781 85.8167 112.811Z" fill="#407BFF"/>
<path d="M88.8038 112.811C88.7592 113.26 88.3835 113.602 87.9333 113.609C87.5353 113.617 87.2042 113.301 87.1968 112.9C87.1968 112.87 87.1968 112.84 87.2005 112.807C87.2451 112.357 87.6209 112.016 88.071 112.008C88.469 112.001 88.8001 112.317 88.8075 112.718C88.8075 112.751 88.8075 112.781 88.8038 112.811Z" fill="#407BFF"/>
<path d="M91.791 112.811C91.7464 113.26 91.3706 113.602 90.9205 113.609C90.5225 113.617 90.1914 113.301 90.184 112.9C90.184 112.87 90.184 112.84 90.1877 112.807C90.2323 112.357 90.608 112.016 91.0582 112.008C91.4562 112.001 91.7873 112.317 91.7947 112.718C91.7947 112.751 91.7947 112.781 91.791 112.811Z" fill="#407BFF"/>
<path d="M99.7704 34.2426H73.1277L73.4402 30.6797H100.083L99.7704 34.2426Z" fill="#407BFF"/>
<path d="M70.1852 33.4438H66.0672V33.8153H70.1852V33.4438Z" fill="#263238"/>
<path d="M70.3043 32.0581H66.1862V32.4296H70.3043V32.0581Z" fill="#263238"/>
<path d="M70.4271 30.6686H66.309V31.0401H70.4271V30.6686Z" fill="#263238"/>
<g opacity="0.2">
<path d="M83.235 25.8538L55.7591 127.883C56.7561 128.6 57.9576 128.983 59.1889 128.972H61.3354L89.1015 25.8538H83.235Z" fill="white"/>
<path d="M108.405 21.4885H98.0592C97.3673 21.4996 96.7721 21.9863 96.6196 22.6624L96.5489 22.9857C96.1918 24.5906 94.808 25.7572 93.1637 25.8463L65.3976 128.972H86.5793L114.107 26.7417C113.925 23.7473 111.41 21.429 108.405 21.4885Z" fill="white"/>
</g>
<path d="M113.992 28.5658H61.7148V29.1231H113.992V28.5658Z" fill="#407BFF"/>
<path d="M118.549 41.9664C118.612 41.7397 118.813 41.58 119.047 41.5688C119.791 41.3682 120.569 41.3422 121.324 41.4945C121.38 41.5057 121.432 41.5317 121.469 41.5763C121.495 41.6171 121.51 41.6654 121.514 41.7137C121.57 42.1336 121.629 42.5497 121.685 42.9695C121.744 43.1552 121.666 43.3596 121.503 43.4636C120.841 43.9726 120.13 44.4184 119.382 44.7899C119.018 44.8679 117.865 44.4964 117.519 44.3478C117.128 44.1732 118.214 42.6648 118.549 41.9664Z" fill="#CB7A63"/>
<path d="M110.183 54.7093C110.517 52.0604 116.443 44.9162 117.225 43.8834C117.66 43.3075 119.46 43.7348 119.817 44.827C118.199 47.071 117.306 48.962 116.202 51.4957C115.655 52.666 115.048 53.8066 114.383 54.9137C111.388 59.0895 110.038 55.861 110.183 54.7093Z" fill="#407BFF"/>
<g opacity="0.1">
<path d="M110.183 54.7093C110.517 52.0604 116.443 44.9162 117.225 43.8834C117.66 43.3075 119.46 43.7348 119.817 44.827C118.199 47.071 117.306 48.962 116.202 51.4957C115.655 52.666 115.048 53.8066 114.383 54.9137C111.388 59.0895 110.038 55.861 110.183 54.7093Z" fill="black"/>
</g>
<path d="M131.558 61.0251C131.558 61.0251 129.672 61.0511 129.088 61.5675L128.273 62.2883C128.113 62.4294 128.102 62.6746 128.243 62.8344C128.243 62.8344 128.243 62.8344 128.247 62.8381C128.686 63.3285 129.646 64.2944 130.721 64.6734C130.963 64.7588 131.234 64.7143 131.431 64.5471C131.431 64.5471 132.73 62.9198 132.525 62.5892L131.558 61.0251Z" fill="#CB7A63"/>
<path d="M136.528 61.2034C136.36 61.2963 136.185 61.3855 136.011 61.4784L133.351 62.4629C131.539 63.3471 131.402 61.118 131.402 61.118L132.127 60.4901L137.067 56.3923C137.067 56.3923 132.469 52.9892 129.493 50.1174C127.25 47.5391 127.544 45.8524 130.181 46.1348C132.075 46.3354 140.765 54.4419 141.52 55.3112C142.301 56.2066 140.556 58.9966 136.528 61.2034Z" fill="#407BFF"/>
<path opacity="0.1" d="M136.528 61.2034C136.36 61.2963 136.185 61.3855 136.011 61.4784L133.351 62.4629C131.539 63.3471 131.402 61.118 131.402 61.118L132.127 60.4901L137.067 56.3923C137.067 56.3923 132.469 52.9892 129.493 50.1174C127.25 47.5391 127.544 45.8524 130.181 46.1348C132.075 46.3354 140.765 54.4419 141.52 55.3112C142.301 56.2066 140.556 58.9966 136.528 61.2034Z" fill="black"/>
<path d="M137.95 52.2658C137.935 52.2506 137.919 52.2354 137.904 52.2202C137.908 52.2202 137.923 52.2316 137.95 52.2658Z" fill="#263238"/>
<path d="M120.755 35.6655C120.602 35.6395 120.442 35.8029 120.398 36.0333C120.353 36.2636 120.439 36.4791 120.591 36.5051C120.744 36.5311 120.904 36.3676 120.948 36.1373C121.004 35.8995 120.911 35.6915 120.755 35.6655Z" fill="#263238"/>
<path d="M120.346 38.7268C119.944 38.7528 119.553 38.5967 119.278 38.3069C119.851 37.7868 120.353 37.1924 120.766 36.5385L120.346 38.7268Z" fill="#B74D3C"/>
<path d="M121.949 34.9893C121.718 34.7181 121.372 34.5769 121.019 34.6067C121.004 34.6104 120.989 34.6141 120.974 34.6141C120.896 34.6141 120.833 34.5546 120.829 34.4766C120.829 34.3986 120.889 34.3355 120.967 34.3317C120.967 34.3317 120.967 34.3317 120.971 34.3317C121.413 34.2797 121.852 34.4469 122.15 34.7776C122.202 34.8333 122.198 34.9224 122.143 34.9745C122.116 34.9968 122.087 35.0116 122.053 35.0116C122.012 35.0228 121.975 35.0116 121.949 34.9893Z" fill="#263238"/>
<path d="M123.768 49.0177C127.745 48.9769 128.307 46.8035 128.307 46.8035C127.101 45.6741 126.997 43.5565 127.213 41.6617C126.904 42.115 126.51 42.5088 126.052 42.8134C125.211 43.4078 124.159 43.6196 123.154 43.393C123.136 43.393 123.121 43.3856 123.106 43.3781C123.117 43.4153 123.125 43.4561 123.128 43.4933C123.396 45.0017 123.221 46.6252 121.64 47.1342C121.64 47.1379 119.39 49.0623 123.768 49.0177Z" fill="#CB7A63"/>
<path d="M122.983 42.8283C123.028 43.0103 123.076 43.1924 123.106 43.3856C123.121 43.3967 123.139 43.4004 123.154 43.4004C124.159 43.627 125.215 43.4153 126.052 42.8209C126.51 42.5125 126.9 42.1224 127.213 41.6692C127.265 41.1899 127.343 40.7181 127.421 40.2871L123.143 42.7391L122.983 42.8283Z" fill="#CB7A63"/>
<path d="M128.719 46.6326C128.719 46.6326 128.121 44.9051 127.257 44.3738C126.394 43.8425 122.671 44.489 122.09 44.7305C121.51 44.9719 120.948 46.3317 120.948 46.3317L128.719 46.6326Z" fill="#407BFF"/>
<path opacity="0.8" d="M128.719 46.6326C128.719 46.6326 128.121 44.9051 127.257 44.3738C126.394 43.8425 122.671 44.489 122.09 44.7305C121.51 44.9719 120.948 46.3317 120.948 46.3317L128.719 46.6326Z" fill="white"/>
<path d="M123.839 132.044C123.467 132.044 123.132 131.996 123.017 131.832C122.957 131.747 122.957 131.632 123.02 131.546C123.065 131.468 123.143 131.412 123.236 131.394C123.701 131.268 124.676 131.821 124.728 131.843C124.75 131.858 124.761 131.884 124.758 131.91C124.754 131.94 124.732 131.962 124.706 131.966C124.419 132.014 124.129 132.04 123.839 132.044ZM123.4 131.502C123.359 131.494 123.314 131.494 123.273 131.502C123.218 131.513 123.169 131.546 123.143 131.594C123.098 131.676 123.113 131.713 123.143 131.739C123.273 131.918 123.98 131.921 124.497 131.847C124.159 131.658 123.787 131.539 123.4 131.49V131.502Z" fill="#407BFF"/>
<path d="M124.683 131.955H124.657C124.319 131.802 123.653 131.212 123.709 130.889C123.709 130.814 123.772 130.721 123.958 130.703C124.092 130.688 124.226 130.725 124.33 130.814C124.702 131.108 124.754 131.855 124.758 131.888C124.758 131.91 124.747 131.933 124.728 131.947C124.717 131.955 124.702 131.959 124.683 131.955ZM124.01 130.84H123.973C123.854 130.84 123.846 130.9 123.843 130.915C123.813 131.104 124.259 131.576 124.605 131.784C124.575 131.468 124.445 131.167 124.237 130.926C124.174 130.866 124.092 130.829 124.003 130.829L124.01 130.84Z" fill="#407BFF"/>
<path d="M127.51 125.472L124.732 125.476L124.966 131.888L127.76 131.884L127.51 125.472Z" fill="#CB7A63"/>
<path d="M124.308 131.784C122.407 132.95 121.823 133.002 119.624 133.482C119.144 133.586 119.449 134.749 120.599 134.749C122.503 134.745 122.701 134.656 124.322 134.652C125.714 134.648 127.306 134.711 128.414 134.73C128.448 134.73 128.481 134.726 128.515 134.719C128.731 134.667 128.868 134.448 128.816 134.232L128.277 131.754C128.251 131.643 128.154 131.565 128.039 131.565L124.985 131.568C124.743 131.576 124.508 131.65 124.308 131.784Z" fill="#263238"/>
<path opacity="0.2" d="M127.514 125.476L127.641 129.053L124.847 129.057L124.732 125.479L127.514 125.476Z" fill="black"/>
<path d="M148.264 130.889C148.231 130.502 148.246 130.157 148.402 130.019C148.488 129.949 148.61 129.937 148.703 129.997C148.785 130.038 148.852 130.112 148.882 130.201C149.06 130.669 148.584 131.728 148.562 131.78C148.551 131.806 148.525 131.825 148.495 131.821C148.465 131.817 148.443 131.799 148.435 131.773C148.35 131.479 148.294 131.186 148.264 130.889ZM148.785 130.38C148.789 130.335 148.785 130.29 148.774 130.25C148.759 130.194 148.718 130.146 148.666 130.123C148.577 130.082 148.536 130.101 148.514 130.134C148.339 130.283 148.406 131.011 148.536 131.542C148.692 131.175 148.778 130.781 148.785 130.38Z" fill="#407BFF"/>
<path d="M148.428 131.75C148.424 131.743 148.424 131.732 148.424 131.724C148.547 131.364 149.105 130.621 149.44 130.647C149.518 130.64 149.622 130.699 149.656 130.881C149.685 131.019 149.656 131.163 149.574 131.275C149.31 131.684 148.532 131.81 148.502 131.817C148.48 131.825 148.454 131.814 148.439 131.795C148.428 131.784 148.424 131.765 148.428 131.75ZM149.525 130.948L149.522 130.907C149.51 130.785 149.447 130.781 149.432 130.781C149.232 130.766 148.785 131.275 148.607 131.65C148.934 131.591 149.231 131.431 149.462 131.193C149.514 131.123 149.54 131.033 149.537 130.948H149.525Z" fill="#407BFF"/>
<path d="M146.449 125.431L143.737 125.628L145.337 132.092L148.067 131.895L146.449 125.431Z" fill="#CB7A63"/>
<path d="M148.726 131.372C149.574 132.211 150.02 132.646 152.308 133.17C152.814 133.281 152.483 134.489 151.281 134.477C149.295 134.455 150.381 134.377 148.692 134.359C147.245 134.344 145.98 134.362 144.831 134.37C144.593 134.381 144.396 134.195 144.384 133.957C144.384 133.92 144.384 133.883 144.396 133.85L144.976 131.275C145.002 131.16 145.106 131.078 145.225 131.082L148.008 131.145C148.268 131.119 148.525 131.204 148.726 131.372Z" fill="#263238"/>
<path opacity="0.2" d="M146.453 125.435L147.278 128.756L144.563 128.953L143.737 125.628L146.453 125.435Z" fill="black"/>
<path d="M131.744 69.1241C132.771 70.7551 133.634 72.4864 134.318 74.2919C135.806 78.3154 135.278 80.4182 135.776 83.1414C136.654 87.9377 137.964 91.612 138.882 95.2491C141.754 106.629 147.818 126.835 147.818 126.835L142.919 127.913C142.919 127.913 133.834 103.816 131.256 95.6801C128.931 88.3538 122.972 69.1093 122.972 69.1093L131.744 69.1241Z" fill="#407BFF"/>
<path opacity="0.4" d="M131.744 69.1241C132.771 70.7551 133.634 72.4864 134.318 74.2919C135.806 78.3154 135.278 80.4182 135.776 83.1414C136.654 87.9377 137.964 91.612 138.882 95.2491C141.754 106.629 147.818 126.835 147.818 126.835L142.919 127.913C142.919 127.913 133.834 103.816 131.256 95.6801C128.931 88.3538 122.972 69.1093 122.972 69.1093L131.744 69.1241Z" fill="black"/>
<path d="M148.391 125.929L148.443 127.671L142.543 128.31C142.543 128.31 142.018 126.408 142.041 126.408L148.391 125.929Z" fill="#407BFF"/>
<path opacity="0.8" d="M148.391 125.929L148.443 127.671L142.543 128.31C142.543 128.31 142.018 126.408 142.041 126.408L148.391 125.929Z" fill="white"/>
<path opacity="0.3" d="M125.721 77.9736C127.6 84.0145 129.981 91.6603 131.249 95.6726C131.309 95.8658 131.379 96.0664 131.442 96.2819C130.944 89.5798 129.627 78.3489 126.253 77.9365C126.075 77.9105 125.892 77.9216 125.721 77.9736Z" fill="black"/>
<path d="M127.228 69.0981C127.228 69.0981 128.66 87.5624 128.824 96.2893C128.972 104.426 128.373 128.128 128.373 128.128L123.653 128.136C123.653 128.136 121.398 103.935 120.561 95.6763C119.765 87.8559 117.701 69.2653 117.701 69.2653L127.228 69.0981Z" fill="#407BFF"/>
<path opacity="0.4" d="M127.228 69.0981C127.228 69.0981 128.66 87.5624 128.824 96.2893C128.972 104.426 128.373 128.128 128.373 128.128L123.653 128.136C123.653 128.136 121.398 103.935 120.561 95.6763C119.765 87.8559 117.701 69.2653 117.701 69.2653L127.228 69.0981Z" fill="black"/>
<path d="M129.073 126.475L128.913 128.206L123.169 128.214C123.169 128.214 122.898 126.274 122.92 126.274L129.073 126.475Z" fill="#407BFF"/>
<path opacity="0.8" d="M129.073 126.475L128.913 128.206L123.169 128.214C123.169 128.214 122.898 126.274 122.92 126.274L129.073 126.475Z" fill="white"/>
<path d="M136.383 74.9941L135.062 74.6151C132.945 74.0021 130.71 73.9353 128.559 74.422L127.016 70.9L127.488 74.6077L126.811 74.5928C124.862 74.5483 122.924 74.9421 121.146 75.7408C120.569 76.0306 119.974 76.2758 119.364 76.4801C119.364 76.3687 117.697 69.269 117.697 69.269C116.004 57.7521 116.283 51.923 116.789 49.0846C117.065 47.5614 118.251 46.3688 119.773 46.0828C120.349 45.9787 120.993 45.8747 121.651 45.8078C123.638 45.6741 125.632 45.6518 127.618 45.7484C127.637 45.7521 128.917 45.8487 128.935 45.8487C131.015 45.9564 133.146 47.7174 132.774 49.7645C131.524 56.5706 131.316 61.5489 131.402 64.8294L136.383 74.9941Z" fill="#407BFF"/>
<path opacity="0.2" d="M116.477 58.3948C116.477 58.3948 116.436 52.7217 116.492 51.6704L120.721 48.7651C118.891 51.7744 117.463 55.0103 116.477 58.3948Z" fill="black"/>
<path d="M120.067 39.6444C120.123 41.0339 120.889 42.2933 122.094 42.9843H122.102C122.105 42.988 122.113 42.9918 122.116 42.988C122.421 43.1701 122.756 43.3038 123.102 43.3818C123.117 43.393 123.136 43.3967 123.151 43.3967C124.155 43.6233 125.211 43.4116 126.048 42.8171C126.506 42.5088 126.897 42.1187 127.209 41.6654C127.964 40.5806 128.262 39.1503 128.775 37.1367C129.348 35.0265 128.094 32.8531 125.982 32.281C125.386 32.1212 124.761 32.0989 124.159 32.2215C121.153 32.8234 119.955 36.9658 120.067 39.6444Z" fill="#CB7A63"/>
<path opacity="0.2" d="M122.116 42.9918C122.421 43.1738 122.756 43.3075 123.102 43.3856C123.117 43.3967 122.957 41.6209 122.957 41.6209C122.972 41.5911 122.328 42.988 122.116 42.9918Z" fill="black"/>
<path d="M132.28 37.5899C131.96 38.006 131.539 38.4407 131.015 38.489C130.71 38.515 130.401 38.4667 130.114 38.3478C129.184 39.9565 127.213 41.6654 127.213 41.6654C126.194 42.0518 125.066 42.0407 124.051 41.6357C123.883 41.5689 123.764 41.5243 123.746 41.5206C123.601 41.4871 122.853 38.3478 121.808 37.8686L121.573 37.7571C121.644 37.4265 121.54 36.5088 121.864 36.1967C122.038 36.0258 121.558 35.5912 121.596 35.2605C121.599 35.2345 121.603 35.2048 121.611 35.1788C121.279 34.9707 121.257 34.5249 121.38 34.0494C121.696 32.8531 122.329 33.18 122.329 33.18C122.109 32.8642 122.031 32.4742 122.116 32.0989C122.247 31.4153 123.526 31.0735 123.526 31.0735C123.526 31.0735 123.697 31.1033 123.98 31.1627C124.274 30.9287 124.642 30.8135 125.014 30.8358C125.565 30.8841 126.067 31.1739 126.387 31.6271C127.06 31.0921 128.039 31.2036 128.571 31.876C128.708 32.0469 128.805 32.2438 128.861 32.4556C129.341 32.307 129.862 32.4444 130.2 32.8122C130.572 33.1689 130.721 33.7002 130.579 34.198C130.933 34.2983 131.19 34.6029 131.227 34.9707C131.242 35.3571 131.208 35.7472 131.13 36.1262C131.052 36.5088 131.104 36.9063 131.279 37.2556C131.48 37.6011 131.911 37.7497 132.28 37.5899Z" fill="#263238"/>
<path d="M122.927 35.9553C122.098 36.219 121.685 37.4562 121.666 38.2401C121.644 39.1057 122.232 39.637 122.972 39.0425C123.53 38.5856 123.921 37.9577 124.088 37.2556C124.278 36.4085 123.761 35.6952 122.927 35.9553Z" fill="#CB7A63"/>
<path d="M115.815 48.9843L110.566 54.936C109.84 56.6226 112.355 58.4802 114.133 56.8307L120.428 49.5899C120.881 48.6016 120.945 47.7843 120.275 47.1267C119.401 46.2648 117.857 45.7112 115.815 48.9843Z" fill="#407BFF"/>
<path d="M44.1229 60.3267C45.5923 61.965 47.1845 63.492 48.8808 64.8963C49.8592 65.6653 58.2292 60.5793 59.267 59.9997C59.267 59.9997 58.3333 59.0784 57.9427 59.1787C56.4808 59.5502 49.9633 61.7979 49.9633 61.7979C49.6583 61.705 46.6488 58.2536 46.6488 58.2536L44.1229 60.3267Z" fill="#B97964"/>
<path d="M60.3533 58.718L60.3272 58.6994L60.357 58.7254C60.357 58.7254 59.613 59.944 58.6012 60.2449L57.8348 59.4945L58.1808 57.2691L58.1994 57.1353L58.2812 57.0573L59.3303 56.0394C59.5423 55.8313 59.8846 55.8313 60.0966 56.0394L60.8815 56.7973C61.0564 56.9644 61.101 57.2245 60.9894 57.44L60.3533 58.718Z" fill="#B97964"/>
<path d="M48.6018 59.3347C46.4665 56.2957 42.7168 54.3118 41.6491 54.297C40.1091 54.271 39.6329 54.6276 40.2169 55.7979C41.2065 57.7818 42.8395 59.8028 45.0939 62.2177L48.6018 59.3347Z" fill="#263238"/>
<path d="M42.5308 54.4456C41.6715 54.1335 40.7973 53.8697 39.9082 53.658C38.2863 53.2679 36.6346 52.9967 34.9717 52.8443C34.0045 52.7403 33.0299 52.6883 32.059 52.6846C31.9585 52.6846 31.8618 52.6957 31.7651 52.718C31.0025 52.9075 30.5301 53.6654 30.6863 54.4307C32.3194 63.0536 32.3975 66.8765 32.1631 71.3198L42.103 71.6727C42.3634 71.6727 42.5903 71.487 42.6312 71.2269C43.0702 68.9867 44.4466 64.0158 44.4466 64.0158C45.849 63.0276 45.7895 61.887 45.4212 60.427C45.3059 59.97 45.0418 59.5316 43.9109 57.0648C43.9109 57.0685 43.0441 54.635 42.5308 54.4456Z" fill="#263238"/>
<path d="M36.2514 71.4647L39.8747 71.5947C40.4141 67.3 40.1425 64.0938 40.1239 59.2158C40.1388 63.7706 37.5274 69.2505 36.2514 71.4647Z" fill="white"/>
<path d="M40.0086 73.196C40.0086 73.196 44.4763 95.2677 44.2494 104.414C44.0076 114.051 42.1179 130.643 42.1179 130.643L39.7594 130.617C39.7594 130.617 37.6427 118.335 38.8554 104.86C32.6839 91.3519 31.0806 74.0616 31.0806 74.0616L40.0086 73.196Z" fill="#B97964"/>
<path d="M40.0086 73.196C40.0086 73.196 44.4763 95.2677 44.2494 104.414C44.0076 114.051 42.1179 130.643 42.1179 130.643L39.7594 130.617C39.7594 130.617 37.6427 118.335 38.8554 104.86C32.6839 91.3519 31.0806 74.0616 31.0806 74.0616L40.0086 73.196Z" fill="#A86955"/>
<path d="M38.0035 78.6386C38.0035 78.6386 39.1679 95.9104 37.9552 104.983C36.6755 114.538 33.0076 130.829 33.0076 130.829L30.6677 130.55C30.6677 130.55 29.8865 118.112 32.5463 104.845C27.8665 90.7538 29.0346 78.5383 29.0346 78.5383L38.0035 78.6386Z" fill="#B97964"/>
<path d="M38.0035 78.6386C38.0035 78.6386 39.1679 95.9104 37.9552 104.983C36.6755 114.538 33.0076 130.829 33.0076 130.829L30.6677 130.55C30.6677 130.55 29.8865 118.112 32.5463 104.845C27.8665 90.7538 29.0346 78.5383 29.0346 78.5383L38.0035 78.6386Z" fill="#B97964"/>
<path d="M29.1127 98.4999C31.5233 99.098 33.971 99.5252 36.4411 99.7779C36.5155 99.7816 36.5862 99.789 36.6643 99.7964C36.8205 99.815 36.9842 99.8225 37.1516 99.8336C38.1486 99.8856 44.8334 100.751 45.2947 98.0057C45.2947 98.0057 43.8551 91.1996 42.4712 83.643C41.6305 79.0622 42.315 72.6238 42.315 72.6238C39.4171 72.282 36.4932 72.1966 33.5804 72.3675L31.8841 72.4641C31.8841 72.4641 26.1553 78.126 27.5763 83.7321C29.7042 92.1172 29.1127 98.4999 29.1127 98.4999Z" fill="#407BFF"/>
<g opacity="0.4">
<path d="M29.1127 98.4999C31.5233 99.098 33.971 99.5252 36.4411 99.7779C36.5155 99.7816 36.5862 99.789 36.6643 99.7964C36.8205 99.815 36.9842 99.8225 37.1516 99.8336C38.1486 99.8856 44.8334 100.751 45.2947 98.0057C45.2947 98.0057 43.8551 91.1996 42.4712 83.643C41.6305 79.0622 42.315 72.6238 42.315 72.6238C39.4171 72.282 36.4932 72.1966 33.5804 72.3675L31.8841 72.4641C31.8841 72.4641 26.1553 78.126 27.5763 83.7321C29.7042 92.1172 29.1127 98.4999 29.1127 98.4999Z" fill="black"/>
</g>
<path opacity="0.1" d="M33.5469 52.7106C33.7813 53.5837 34.1719 54.4047 34.7039 55.1366C36.1435 57.1168 38.2676 59.2641 39.2051 59.5019C39.4729 58.8778 39.8895 57.6629 39.8895 57.6629C40.5033 57.9638 40.6745 58.8332 40.8791 59.4908C41.8649 57.8932 42.6163 55.144 42.3671 54.1447C42.3671 54.1447 41.1729 53.7917 40.5815 53.6468C38.9558 53.2679 37.3079 53.0041 35.645 52.8555C34.9457 52.7663 34.2463 52.7143 33.5469 52.7106Z" fill="black"/>
<path d="M33.5172 52.5285L33.8446 53.123C35.1131 55.4227 38.0519 58.3799 39.2014 58.6734C39.4171 58.1199 39.5994 57.5514 39.7445 56.9756C40.3583 57.2765 40.8121 58.1459 41.0167 58.8034C42.0025 57.2059 42.5866 54.9657 42.3373 53.97C41.7607 53.7954 41.1432 53.6171 40.5517 53.4722C38.9261 53.0933 37.2781 52.8295 35.6153 52.6809C34.9197 52.5843 34.2166 52.536 33.5172 52.5285Z" fill="white"/>
<path d="M32.1706 72.4603L37.2037 72.5941L37.6241 72.6052L38.7103 72.6312L39.127 72.6424L42.0806 72.7204C42.1736 72.713 42.2518 72.6758 42.2555 72.6164L42.3708 71.669C42.382 71.6059 42.3001 71.5464 42.196 71.5427L39.2758 71.4275L38.9261 71.4127L37.4827 71.357L37.1405 71.3421L32.2933 71.1526C32.2264 71.1452 32.1594 71.1749 32.1185 71.2269L31.9994 72.3006C31.966 72.3786 32.0515 72.4566 32.1706 72.4603Z" fill="#407BFF"/>
<path opacity="0.2" d="M32.1706 72.4603L37.2037 72.5941L37.6241 72.6052L38.7103 72.6312L39.127 72.6424L42.0806 72.7204C42.1736 72.713 42.2518 72.6758 42.2555 72.6164L42.3708 71.669C42.382 71.6059 42.3001 71.5464 42.196 71.5427L39.2758 71.4275L38.9261 71.4127L37.4827 71.357L37.1405 71.3421L32.2933 71.1526C32.2264 71.1452 32.1594 71.1749 32.1185 71.2269L31.9994 72.3006C31.966 72.3786 32.0515 72.4566 32.1706 72.4603Z" fill="white"/>
<path d="M40.6931 72.8133L40.3694 72.8096C40.3211 72.8207 40.2727 72.7873 40.2615 72.739C40.2615 72.7353 40.2615 72.7316 40.2615 72.7278L40.4438 71.3867C40.4401 71.3495 40.5071 71.3124 40.574 71.3124L40.8977 71.3198C40.946 71.3087 40.9944 71.3384 41.0055 71.3867C41.0055 71.3904 41.0055 71.3941 41.0055 71.3941L40.827 72.739C40.8009 72.791 40.7489 72.817 40.6931 72.8133Z" fill="#263238"/>
<path d="M35.0833 72.7316L34.7783 72.7241C34.7337 72.7353 34.6853 72.7056 34.6779 72.661C34.6779 72.6573 34.6779 72.6535 34.6779 72.6498L34.8601 71.3012C34.8564 71.2641 34.9234 71.2306 34.9829 71.2344L35.2879 71.2418C35.3512 71.2343 35.3958 71.2752 35.3921 71.3161L35.2098 72.6573C35.2024 72.7018 35.1466 72.7316 35.0833 72.7316Z" fill="#263238"/>
<path d="M45.7634 68.8046H38.1746L39.06 58.6697H46.6525L45.7634 68.8046Z" fill="#407BFF"/>
<path d="M32.2115 66.9173C32.5091 66.6276 32.6616 66.2189 32.6207 65.8065C32.6207 65.8065 32.6318 65.1898 32.643 64.2536C32.6765 61.5081 32.6988 56.0357 32.4086 55.3112C31.7837 53.7434 30.7123 52.8926 30.1506 53.8103C29.4959 54.8802 29.4475 63.009 29.4475 63.009C29.6 68.3811 31.5716 67.6678 32.2115 66.9173Z" fill="#B97964"/>
<path d="M42.6981 66.1L42.6832 66.0703L42.6981 66.1074C42.6981 66.1074 41.4668 66.8282 40.4289 66.6201L40.109 65.5985L41.4668 63.8003L41.5486 63.6926L41.6565 63.6592L43.0627 63.2579C43.3491 63.1762 43.6504 63.3359 43.7397 63.6183L44.0745 64.6585C44.1489 64.8889 44.0634 65.1378 43.8662 65.279L42.6981 66.1Z" fill="#B97964"/>
<path d="M30.5858 67.2146C31.4749 68.3068 40.5591 66.6907 40.6335 66.6573C40.9274 66.5235 40.9758 65.7471 40.6373 65.4647C40.4513 65.3087 31.1624 64.4653 30.5189 64.417C29.414 66.1037 30.132 66.6573 30.5858 67.2146Z" fill="#B97964"/>
<path d="M43.4608 41.9887C44.6958 43.4822 45.3394 44.6004 44.5917 49.5936C44.4503 50.5372 44.8595 52.7477 45.0381 52.77C40.1872 52.209 38.8033 51.414 36.5007 50.006C34.9606 49.066 33.7032 45.6629 34.105 43.9057C34.5365 42.011 36.6048 39.7967 38.6024 39.611C40.8419 39.3992 42.0583 40.2908 43.4608 41.9887Z" fill="#263238"/>
<path d="M40.1425 51.3954C39.6255 52.4171 39.313 53.5762 40.5629 54.6128C40.8344 54.8282 41.0204 55.1292 41.0948 55.4672C41.199 56.0097 40.9721 56.5929 39.0414 55.835C36.2477 54.7428 36.1844 53.0004 36.1844 53.0004C37.453 52.3725 37.7878 49.4227 37.8287 47.762L40.1425 51.3954Z" fill="#B97964"/>
<path opacity="0.2" d="M38.3718 50.1546C38.29 50.8716 39.1939 51.8487 39.8152 52.1942C39.9007 51.9193 40.0086 51.6518 40.1425 51.3954L38.7736 49.2444C38.5764 49.5156 38.4388 49.8276 38.3718 50.1546Z" fill="black"/>
<path d="M36.5601 43.6753C37.2669 41.8289 39.3427 40.9076 41.1915 41.6134C41.1953 41.6134 41.1953 41.6171 41.199 41.6171C43.8104 42.6054 44.2866 46.5063 43.7918 48.8988C43.2524 51.57 40.0495 52.4245 37.9849 50.4183C36.6048 49.0846 36.5676 47.9589 36.3369 45.3212C36.2849 44.7639 36.3593 44.1992 36.5601 43.6753Z" fill="#B97964"/>
<path d="M36.8801 48.1149C37.6129 47.2828 37.9477 46.1719 37.7915 45.0722C37.7915 45.0722 38.9968 43.8388 38.9373 42.5199C38.9373 42.5199 39.2944 43.5713 38.941 44.3218C38.941 44.3218 42.0695 44.0951 41.9951 42.5199C41.9951 42.5199 42.2629 43.8871 41.7942 44.2958C41.7942 44.2958 43.9518 44.1286 43.7807 42.65C43.5166 40.3763 41.5785 40.2574 41.5785 40.2574C41.5785 40.2574 39.5027 38.4964 36.6309 41.606C36.6309 41.606 33.2494 43.7125 35.6451 47.227L36.8801 48.1149Z" fill="#263238"/>
<path d="M42.2257 47.9701C42.4899 48.0295 42.7689 47.9701 42.9883 47.8066C42.6573 47.3942 42.3894 46.9372 42.1811 46.4468L42.2257 47.9701Z" fill="#B74D3C"/>
<path d="M40.2169 48.2078C40.1983 48.1781 40.2021 48.141 40.2318 48.1187C40.2616 48.1001 40.2988 48.1038 40.3211 48.1335C40.6596 48.5571 41.1841 48.7948 41.7273 48.7688C41.7607 48.7688 41.7868 48.7985 41.7905 48.832V48.8357C41.7905 48.8691 41.7645 48.8951 41.731 48.8951C41.6268 48.8989 41.5264 48.8951 41.4222 48.884C40.9498 48.832 40.5145 48.5868 40.2169 48.2078Z" fill="#263238"/>
<path d="M35.3437 46.915C35.3251 46.3763 35.7492 45.923 36.2886 45.9044C37.0326 45.8933 37.5274 46.8258 37.6352 47.4685C37.7431 48.1818 37.3116 48.7948 36.6048 48.5013C36.0728 48.271 35.6562 47.8437 35.4404 47.305C35.3809 47.1862 35.3512 47.0524 35.3437 46.915Z" fill="#B97964"/>
<path d="M40.4252 45.715C40.4178 45.9787 40.5517 46.1979 40.7265 46.2054C40.9014 46.2128 41.0465 46.001 41.0502 45.7335C41.0539 45.466 40.9237 45.2506 40.7526 45.2431C40.5815 45.2357 40.4327 45.4475 40.4252 45.715Z" fill="#263238"/>
<path d="M42.8879 45.9973C42.8804 46.2611 43.0143 46.4803 43.1892 46.4877C43.364 46.4951 43.5091 46.2834 43.5165 46.0159C43.524 45.7484 43.3901 45.5329 43.2152 45.5255C43.0404 45.5181 42.8916 45.7261 42.8879 45.9973Z" fill="#263238"/>
<path d="M43.1371 45.5366L43.777 45.3732C43.7807 45.3732 43.4385 45.8599 43.1371 45.5366Z" fill="#263238"/>
<path d="M39.6812 44.8419C39.6589 44.8345 39.6403 44.8233 39.6217 44.8085C39.5696 44.7602 39.5696 44.6784 39.618 44.6264V44.6227C39.9491 44.2586 40.4401 44.0803 40.9274 44.1472C40.9981 44.162 41.0427 44.2289 41.0279 44.2995C41.013 44.3701 40.9497 44.4147 40.8791 44.4035C40.4736 44.3552 40.0718 44.5075 39.8003 44.8085C39.7705 44.8382 39.7259 44.853 39.6812 44.8419Z" fill="#263238"/>
<path d="M43.8328 45.1614C43.8142 45.1503 43.7956 45.1354 43.7807 45.1168C43.5538 44.7787 43.1818 44.5707 42.7763 44.5521C42.7056 44.5558 42.6424 44.5001 42.6387 44.4295C42.6387 44.3589 42.6945 44.2995 42.7652 44.2958C43.2599 44.3106 43.7138 44.5633 43.9928 44.9719C44.0374 45.0277 44.0262 45.1094 43.9704 45.154C43.9332 45.1837 43.8774 45.1874 43.8328 45.1614Z" fill="#263238"/>
<path d="M40.6745 45.258L41.3143 45.0945C41.3143 45.0945 40.9758 45.5812 40.6745 45.258Z" fill="#263238"/>
<path d="M31.2294 52.8221C31.8655 52.6623 32.5388 52.8481 32.9964 53.3162C33.4949 53.866 33.8111 54.557 33.8966 55.2926C34.0417 56.4183 32.8253 60.4678 32.855 61.6121C31.6572 60.9545 29.8902 60.0592 28.2125 59.8957C28.4431 57.2319 28.7519 55.4561 29.2689 54.5756C29.5368 54.0518 29.8939 53.5799 30.3291 53.1824C30.6081 53.0041 30.9095 52.8815 31.2294 52.8221Z" fill="#263238"/>
<path d="M42.7279 130.937C43.5761 131.776 44.0225 132.211 46.3103 132.735C46.8162 132.846 46.4851 134.054 45.2835 134.043C43.2971 134.02 44.3833 133.942 42.6944 133.924C41.2473 133.909 39.9825 133.928 38.8331 133.935C38.595 133.946 38.3978 133.76 38.3867 133.523C38.3867 133.485 38.3867 133.448 38.3978 133.415L38.9781 130.84C39.0042 130.725 39.1083 130.643 39.2274 130.647L42.0099 130.71C42.2703 130.684 42.5307 130.766 42.7279 130.937Z" fill="#263238"/>
<path d="M33.852 131.119C34.3951 132.181 34.6853 132.731 36.6941 133.942C37.1367 134.206 36.4485 135.25 35.3102 134.864C33.4316 134.225 34.4881 134.485 32.8885 133.942C31.5195 133.474 30.3105 133.103 29.2169 132.75C28.9899 132.687 28.856 132.449 28.923 132.219C28.9341 132.181 28.949 132.148 28.9676 132.118L30.3254 129.852C30.3849 129.748 30.5114 129.703 30.623 129.744L33.2493 130.673C33.4949 130.736 33.7143 130.896 33.852 131.119Z" fill="#263238"/>
</g>
<defs>
<clipPath id="clip0_2_232">
<rect width="186" height="137" fill="white"/>
</clipPath>
</defs>
</svg>
