<svg width="547" height="656" viewBox="0 0 547 656" fill="none" xmlns="http://www.w3.org/2000/svg">
    <g clip-path="url(#clip0_9206_60955)">
        <path d="M273.705 566C396.145 566 495.409 466.575 495.409 343.5C495.409 220.424 396.145 121 273.705 121C151.264 121 52 220.424 52 343.5C52 466.575 151.264 566 273.705 566Z"
              fill="#EAEEF9"/>
        <path d="M135.616 219.805H405.944C416.817 219.805 425.065 228.067 425.065 238.957V410.579C425.065 421.469 416.817 429.731 405.944 429.731H135.616C124.742 429.731 116.494 421.469 116.494 410.579V238.957C116.494 228.067 125.492 219.805 135.616 219.805Z"
              fill="url(#paint0_linear_9206_60955)"/>
        <path d="M430.314 329.836V414.333C430.314 425.223 421.691 434.236 410.443 434.236H132.616C121.743 434.236 112.744 425.223 112.744 414.333V322.701" stroke="#1676EE"
              stroke-width="3.14602" stroke-linecap="round" stroke-linejoin="round"/>
        <path d="M406.693 282.518H318.959C310.335 282.518 302.087 285.522 295.713 290.779L272.842 309.556C266.468 314.814 258.219 317.818 249.596 317.818H150.612C140.489 317.818 132.24 326.08 132.24 336.22C132.24 336.971 132.24 338.097 132.615 338.849L150.987 435.738C152.487 444.751 159.986 451.51 169.359 451.51H381.197C390.196 451.51 398.07 445.126 399.569 436.113L425.065 303.548C426.94 293.408 420.191 284.395 410.068 282.518C408.568 282.518 407.443 282.518 406.693 282.518Z"
              fill="white"/>
        <g filter="url(#filter0_d_9206_60955)">
            <path d="M446.062 256.606H332.081C320.833 256.606 310.335 260.361 301.711 267.497L271.717 291.907C263.468 298.666 252.595 302.797 241.347 302.797H112.369C99.2458 302.797 88.7476 313.688 88.7476 326.456C88.7476 327.583 88.7476 328.71 89.1225 329.836L112.743 456.393C114.618 468.411 124.741 477.048 136.364 477.048H412.317C424.315 477.048 434.064 468.787 435.938 456.769L469.308 283.645C471.557 270.501 462.934 258.859 449.811 256.23C448.686 256.606 447.186 256.606 446.062 256.606Z"
                  fill="url(#paint1_linear_9206_60955)"/>
        </g>
        <path d="M225.6 387.67C232.349 387.67 237.973 382.037 237.973 375.278C237.973 368.518 232.349 362.885 225.6 362.885C218.851 362.885 213.227 368.518 213.227 375.278C213.227 382.037 218.851 387.67 225.6 387.67Z"
              fill="#989FB0"/>
        <path d="M321.959 387.293C328.708 387.293 334.332 381.66 334.332 374.901C334.332 368.141 328.708 362.508 321.959 362.508C315.21 362.508 309.586 368.141 309.586 374.901C309.586 382.036 315.21 387.293 321.959 387.293Z"
              fill="#989FB0"/>
        <path d="M258.594 298.665C245.096 272.377 242.097 240.832 251.095 212.291C259.719 183.75 280.34 159.34 305.836 145.445C313.71 141.314 322.708 137.934 331.707 137.559C340.705 137.183 350.453 140.187 356.452 147.698C362.451 154.458 363.576 165.724 358.702 173.235C353.453 180.37 342.955 183.374 334.331 181.121C320.459 178.492 309.21 167.602 305.836 154.458C302.462 141.314 306.961 125.917 317.459 117.279C324.208 111.271 333.581 107.891 342.205 105.262C384.197 92.8694 429.939 91.3672 472.682 100.756"
              stroke="#C9D4E2" stroke-width="2.09735" stroke-miterlimit="10" stroke-dasharray="4.19 4.19"/>
        <path d="M285.59 400.812H262.344V406.446H285.59V400.812Z" fill="#989FB0"/>
        <path d="M495.178 90.9925C494.803 96.6256 494.428 101.883 490.304 103.01C486.18 104.136 484.305 100.381 481.681 95.1235C479.056 90.2414 480.556 84.9839 485.055 83.8573C489.179 82.7307 495.928 84.2328 495.178 90.9925Z"
              fill="#DAE2EB"/>
        <path d="M490.679 118.032C491.804 111.272 492.929 107.516 489.179 105.639C485.055 103.761 482.43 107.141 477.931 111.647C474.182 115.778 476.432 121.787 480.181 123.665C484.68 125.918 489.554 123.665 490.679 118.032Z"
              fill="#DAE2EB"/>
        <path d="M495.928 105.639C495.553 108.268 493.679 110.146 491.054 110.522C489.929 110.522 488.804 110.522 487.305 110.522C482.055 109.77 477.931 106.391 478.306 103.011C478.681 99.6309 483.555 97.7532 489.554 98.5042C490.679 98.5042 491.804 98.8798 492.554 99.2553C494.803 100.006 496.303 102.635 495.928 105.639C495.928 105.264 495.928 105.639 495.928 105.639Z"
              fill="#989FB0"/>
        <path d="M77.4995 211.168C77.4995 204.783 77.4995 198.399 81.9988 196.522C86.8729 194.644 89.4975 199.15 93.2469 205.535C96.6213 211.168 95.1215 217.176 90.2474 219.054C86.1231 220.932 77.4995 219.805 77.4995 211.168Z"
              fill="#DAE2EB"/>
        <path d="M80.1236 179.622C79.3737 187.508 78.2489 192.014 83.1231 193.892C87.9973 195.77 90.6218 191.639 95.496 185.63C99.2454 180.373 96.6208 173.613 91.7466 171.735C86.8725 169.858 80.8735 173.237 80.1236 179.622Z"
              fill="#DAE2EB"/>
        <path d="M76 194.641C76 191.637 78.2496 189.384 80.8742 189.008C81.999 188.633 83.4987 188.633 84.9985 189.008C90.9975 189.384 96.2466 192.764 95.8716 196.519C95.4967 200.274 90.6225 202.903 84.2486 202.152C83.1238 202.152 81.999 201.777 80.8742 201.401C77.8747 201.025 76 198.021 76 194.641Z"
              fill="#989FB0"/>
        <path d="M101.496 195.77C140.865 195.77 213.602 218.677 214.727 302.798" stroke="#C9D4E2" stroke-width="2.09735" stroke-miterlimit="10" stroke-dasharray="4.19 4.19"/>
    </g>
    <defs>
        <filter id="filter0_d_9206_60955" x="65.6768" y="244.695" width="427.058" height="266.96" filterUnits="userSpaceOnUse" color-interpolation-filters="sRGB">
            <feFlood flood-opacity="0" result="BackgroundImageFix"/>
            <feColorMatrix in="SourceAlpha" type="matrix" values="0 0 0 0 0 0 0 0 0 0 0 0 0 0 0 0 0 0 127 0" result="hardAlpha"/>
            <feOffset dy="11.5354"/>
            <feGaussianBlur stdDeviation="11.5354"/>
            <feColorMatrix type="matrix" values="0 0 0 0 0.397708 0 0 0 0 0.47749 0 0 0 0 0.575 0 0 0 0.27 0"/>
            <feBlend mode="normal" in2="BackgroundImageFix" result="effect1_dropShadow_9206_60955"/>
            <feBlend mode="normal" in="SourceGraphic" in2="effect1_dropShadow_9206_60955" result="shape"/>
        </filter>
        <linearGradient id="paint0_linear_9206_60955" x1="270.805" y1="227.097" x2="270.805" y2="344.927" gradientUnits="userSpaceOnUse">
            <stop stop-color="#B0BACC"/>
            <stop offset="1" stop-color="#969EAE"/>
        </linearGradient>
        <linearGradient id="paint1_linear_9206_60955" x1="279.082" y1="251.123" x2="279.082" y2="479.429" gradientUnits="userSpaceOnUse">
            <stop stop-color="#FDFEFF"/>
            <stop offset="0.9964" stop-color="#ECF0F5"/>
        </linearGradient>
        <clipPath id="clip0_9206_60955">
            <rect width="547" height="656" fill="white"/>
        </clipPath>
    </defs>
</svg>
