<svg xmlns="http://www.w3.org/2000/svg" width="500" height="500" viewBox="0 0 500 500"><defs><style>.a{fill:#ebebeb;}.b{fill:#f5f5f5;}.c{fill:#e0e0e0;}.d{fill:#407bff;}.e,.h{fill:#263238;}.f,.j,.w{fill:#fff;}.g,.o,.r,.w{opacity:0.2;}.h,.i,.j{opacity:0.8;}.k{fill:#cb7a63;}.l,.m,.v{opacity:0.1;}.l,.m,.o,.q{isolation:isolate;}.n{fill:#b74d3c;}.p,.u{opacity:0.4;}.q{opacity:0.3;}.s{fill:#b97964;}.t{fill:#a86955;}</style></defs><rect class="a" x="416.7791" y="398.4944" width="33.1221" height="0.25"/><rect class="a" x="322.5269" y="401.208" width="8.6933" height="0.25"/><rect class="a" x="396.5858" y="389.2083" width="19.1924" height="0.25"/><rect class="a" x="52.459" y="390.8885" width="43.1934" height="0.25"/><rect class="a" x="104.5557" y="390.8885" width="6.333" height="0.25"/><rect class="a" x="131.4713" y="395.1107" width="93.6758" height="0.25"/><path class="a" d="M237.0137,337.8H43.915a5.7144,5.7144,0,0,1-5.708-5.708V60.66a5.7144,5.7144,0,0,1,5.708-5.7076H237.0137a5.7141,5.7141,0,0,1,5.707,5.7076V332.0918A5.7141,5.7141,0,0,1,237.0137,337.8ZM43.915,55.2026A5.4639,5.4639,0,0,0,38.457,60.66V332.0918a5.4639,5.4639,0,0,0,5.458,5.458H237.0137a5.4636,5.4636,0,0,0,5.457-5.458V60.66a5.4636,5.4636,0,0,0-5.457-5.4576Z"/><path class="a" d="M453.3105,337.8H260.2119a5.7141,5.7141,0,0,1-5.707-5.708V60.66a5.7141,5.7141,0,0,1,5.707-5.7076H453.3105a5.7144,5.7144,0,0,1,5.7081,5.7076V332.0918A5.7144,5.7144,0,0,1,453.3105,337.8ZM260.2119,55.2026a5.4636,5.4636,0,0,0-5.457,5.4576V332.0918a5.4636,5.4636,0,0,0,5.457,5.458H453.3105a5.4639,5.4639,0,0,0,5.4581-5.458V60.66a5.4639,5.4639,0,0,0-5.4581-5.4576Z"/><rect class="a" y="382.3984" width="500" height="0.25"/><polygon class="b" points="314.722 171.898 169.021 171.898 177.708 72.601 323.409 72.601 314.722 171.898"/><rect class="c" x="185.9745" y="154.2232" width="79.0935" height="0.7812"/><path class="c" d="M266.7557,139.8153H186.977l.0366-.4242,4.8036-54.92h79.7789l-.0366.4249Zm-78.9273-.7813h78.21l4.706-53.7814h-78.21Z"/><path class="c" d="M190.2332,166.014h-2.1515a3.0711,3.0711,0,0,1-3.1007-3.3966l.1876-2.15a3.7115,3.7115,0,0,1,3.6211-3.3295h2.1516a3.0711,3.0711,0,0,1,3.1006,3.3967l-.1876,2.15A3.7112,3.7112,0,0,1,190.2332,166.014Zm-1.4435-8.0949a2.9141,2.9141,0,0,0-2.8426,2.6154l-.1878,2.15a2.29,2.29,0,0,0,2.3224,2.5482h2.1515a2.9144,2.9144,0,0,0,2.8429-2.6154l.1877-2.15a2.3438,2.3438,0,0,0-.5891-1.81,2.3191,2.3191,0,0,0-1.7334-.7384Z"/><path class="c" d="M226.3979,149.6469H186.1163l.3724-4.2695H226.77Zm-39.43-.7813h38.7129l.2381-2.7069H187.2057Z"/><path class="c" d="M264.6149,163.71H248.57l.3724-4.268h16.0454Zm-15.1937-.7813h14.4765l.2381-2.7054H249.6592Z"/><path class="c" d="M265.8952,149.6469h-4.2728l.3724-4.2695h4.2726Zm-3.4212-.7813h2.704l.238-2.7069h-2.704Z"/><path class="c" d="M259.9836,149.6469H255.711l.3723-4.2695h4.2727Zm-3.421-.7813h2.7038l.2381-2.7069h-2.704Z"/><path class="c" d="M254.0722,149.6469h-4.2711l.3723-4.2695h4.2711Zm-3.42-.7813h2.7024l.2383-2.7069h-2.7026Z"/><path class="c" d="M271.9592,80.3345h-60.03l.3295-3.7874h60.03ZM212.78,79.5532H271.242l.1953-2.2248H212.9757Z"/><path class="c" d="M208.0348,80.5756H191.99l.3722-4.27h16.0454Zm-15.1937-.7813h14.4764l.2382-2.707H193.0791Z"/><path class="c" d="M309.6511,102.4323h-28.19l1.4146-16.197h28.1916Zm-27.3384-.7813h26.6215l1.2817-14.6344h-26.623Z"/><path class="c" d="M306.99,132.84H278.8l1.4162-16.1977h28.19Zm-27.3387-.7813h26.6214l1.2818-14.6352H280.9333Z"/><path class="c" d="M304.33,163.2475H276.14l1.416-16.1977h28.19Zm-27.3386-.7812h26.6214l1.2819-14.6352H278.2735Z"/><rect class="c" x="279.9511" y="93.9433" width="32.6263" height="0.7809" transform="translate(-9.3834 151.3501) rotate(-28.2287)"/><polygon class="c" points="309.094 102.378 283.036 86.962 283.433 86.289 309.491 101.705 309.094 102.378"/><rect class="c" x="277.2896" y="124.3505" width="32.6267" height="0.7818" transform="translate(-24.1203 153.2906) rotate(-28.1535)"/><rect class="c" x="293.2127" y="109.6035" width="0.7806" height="30.2759" transform="translate(36.7461 313.9177) rotate(-59.3907)"/><path class="c" d="M276.1143,163.5421l1.4649-16.7533,13.3732,7.912,14.1836-7.6052.3692.69-13.7669,7.38,12.4317,7.3565-.3967.6714-12.8392-7.5962Zm2.1362-15.45-1.2328,14.08,13.1306-7.0391Z"/><rect class="c" x="179.3011" y="111.7522" width="99.9707" height="0.7823" transform="translate(-24.0497 143.2753) rotate(-33.069)"/><rect class="c" x="228.8955" y="66.0838" width="0.7819" height="92.119" transform="translate(3.1238 230.46) rotate(-53.6794)"/><polygon class="b" points="372.475 382.948 292.305 382.948 303.61 253.731 383.78 253.731 372.475 382.948"/><path class="c" d="M318.5217,377.1805h-19.53l1.2-13.7323h19.5311Zm-18.6637-.7945h17.9344l1.0644-12.1433H300.921Z"/><path class="c" d="M342.2889,377.1805H322.7578l1.2011-13.7323h19.5295Zm-18.6653-.7945H341.56l1.0628-12.1433H324.6882Z"/><path class="c" d="M366.0545,377.1805h-19.53l1.2-13.7323h19.5311Zm-18.6637-.7945h17.9344l1.0644-12.1433H348.4538Z"/><rect class="c" x="302.263" y="343.9357" width="66.2664" height="0.7944"/><path class="c" d="M347.4389,325.43h-43.84l.4406-5.0553h43.84Zm-42.974-.7945H346.71l.3041-3.4664H304.769Z"/><path class="c" d="M367.7583,357.7161h-18.18l.436-4.9932h18.18Zm-17.3136-.7944H367.029l.3-3.4043H350.7441Z"/><path class="c" d="M369.4667,338.19h-6.91l.6035-6.905h6.9082Zm-6.0436-.7945h5.3143l.4654-5.3161H363.89Z"/><path class="c" d="M339.4152,338.19h-6.91l.6036-6.905h6.91Zm-6.0438-.7945h5.3144l.467-5.3161h-5.3145Z"/><path class="c" d="M309.3652,338.19h-6.91l.6021-6.905h6.91Zm-6.0438-.7945h5.3145l.4655-5.3161h-5.3146Z"/><path class="c" d="M329.4672,265.7507H308.8221l.4654-5.3309h20.6453Zm-19.7793-.7945h19.05l.3289-3.7419h-19.05Z"/><path class="c" d="M307.2208,359.1018h-1.7364a4.36,4.36,0,0,1-4.4069-4.8273l.1522-1.7364a5.3059,5.3059,0,0,1,5.1764-4.759h1.735a4.3624,4.3624,0,0,1,4.4081,4.8274l-.152,1.7363A5.306,5.306,0,0,1,307.2208,359.1018Zm-.8147-10.5282a4.4955,4.4955,0,0,0-4.3851,4.0329l-.1521,1.7363a3.5678,3.5678,0,0,0,3.6155,3.9646h1.7364a4.4941,4.4941,0,0,0,4.3849-4.0329l.1521-1.7364a3.5677,3.5677,0,0,0-3.6167-3.9645Z"/><path class="c" d="M371.3039,316.1464H304.3764l.0374-.4314,4.0281-46.0386h66.9258l-.0372.4322Zm-66.0617-.7944h65.3323l3.9274-44.8811H309.1712Z"/><rect class="c" x="339.4754" y="254.3539" width="0.795" height="77.1152" transform="translate(-97.4372 393.2639) rotate(-53.6799)"/><polygon class="c" points="305.027 316.083 304.592 315.416 374.285 270.138 374.719 270.804 305.027 316.083"/><polygon class="c" points="317.921 377.103 300.32 364.165 300.792 363.526 318.393 376.464 317.921 377.103"/><rect class="c" x="297.5041" y="369.9162" width="23.7066" height="0.7962" transform="translate(-151.9458 228.7725) rotate(-33.0673)"/><polygon class="c" points="341.688 377.103 324.088 364.165 324.56 363.526 342.16 376.464 341.688 377.103"/><rect class="c" x="321.2698" y="369.9162" width="23.7066" height="0.7962" transform="translate(-148.1235 241.841) rotate(-33.0794)"/><polygon class="c" points="365.454 377.103 347.853 364.165 348.325 363.526 365.926 376.464 365.454 377.103"/><rect class="c" x="345.037" y="369.9162" width="23.7066" height="0.7962" transform="translate(-144.2712 254.8131) rotate(-33.0794)"/><path class="a" d="M396.766,102.43a22.3956,22.3956,0,0,0-.9694-6.5567l5.7524-5.06-3.6219-6.2744-7.26,2.4554a22.5587,22.5587,0,0,0-11.3558-6.562l-1.5073-7.51h-7.2438l-1.502,7.51a22.5744,22.5744,0,0,0-11.3611,6.562l-7.26-2.4554-3.6218,6.2744,5.7524,5.06a22.6763,22.6763,0,0,0,0,13.1187l-5.7524,5.0547,3.6218,6.2744,7.26-2.4554a22.6211,22.6211,0,0,0,11.3611,6.5673l1.502,7.51h7.2438l1.5073-7.51a22.6054,22.6054,0,0,0,11.3558-6.5673l7.26,2.4554,3.6219-6.2744-5.7524-5.0547A22.4308,22.4308,0,0,0,396.766,102.43Zm-22.5836,12.1919a11.7392,11.7392,0,1,1,11.7392-11.7392A11.7363,11.7363,0,0,1,374.1824,114.6215Z"/><path class="a" d="M148.7262,292.481a40.8186,40.8186,0,0,0,4.0132-11.3941l13.5762-3.2651-.5029-13.1947-13.7912-2.2155a41.1146,41.1146,0,0,0-12.7255-20.2352l3.9567-13.3886-11.6773-6.16-8.808,10.8293a41.1425,41.1425,0,0,0-23.8949.9168l-9.615-10.132-11.1744,7.0345,4.97,13.0489a41.33,41.33,0,0,0-11.1563,21.148L58.3252,268.73l.5029,13.1947L72.6193,284.14a41.2286,41.2286,0,0,0,12.73,20.2484l-3.9654,13.384,11.6773,6.16,8.8166-10.8248a41.2,41.2,0,0,0,23.8909-.93l9.6149,10.1321,11.1745-7.0346-4.9747-13.04A40.8827,40.8827,0,0,0,148.7262,292.481Zm-46.7739.4487a21.3959,21.3959,0,1,1,28.9073-8.9411A21.3905,21.3905,0,0,1,101.9523,292.93Z"/><path class="a" d="M395.9807,257.347l7.8431,4.3464a2.6125,2.6125,0,0,1,.7853.5909,1.0722,1.0722,0,0,1,.1948.6613,1.2132,1.2132,0,0,1-.366.88,1.1593,1.1593,0,0,1-.8507.372,2.28,2.28,0,0,1-.9565-.3542l-10.1182-5.627a.9949.9949,0,0,1,0-1.7391l10.1182-5.627a2.3307,2.3307,0,0,1,.9447-.3428,1.18,1.18,0,0,1,.8625.3663,1.1942,1.1942,0,0,1,.366.8742,1.0719,1.0719,0,0,1-.1948.6614,2.6013,2.6013,0,0,1-.7853.59Z"/><path class="a" d="M416.1611,249.2441l-7.76,16.7254a2.4265,2.4265,0,0,1-.5319.8152,1.1467,1.1467,0,0,1-.7438.248,1.1791,1.1791,0,0,1-.8566-.3547,1.0979,1.0979,0,0,1-.36-.803,2.5035,2.5035,0,0,1,.2834-.9333l7.7841-16.7134a2.5717,2.5717,0,0,1,.52-.8151,1.2246,1.2246,0,0,1,1.5946.1,1.0874,1.0874,0,0,1,.3547.7973A2.4964,2.4964,0,0,1,416.1611,249.2441Z"/><path class="a" d="M425.92,257.347,418.0763,253a2.5966,2.5966,0,0,1-.7852-.59,1.0713,1.0713,0,0,1-.1949-.6614,1.1923,1.1923,0,0,1,.3661-.8742,1.1792,1.1792,0,0,1,.862-.3663,2.33,2.33,0,0,1,.9451.3428l10.1183,5.627a.995.995,0,0,1,0,1.7391l-10.1183,5.627a2.2813,2.2813,0,0,1-.9451.3542,1.1814,1.1814,0,0,1-.8708-.3751,1.24,1.24,0,0,1-.3573-.8779,1.0714,1.0714,0,0,1,.1949-.6605,2.6077,2.6077,0,0,1,.7852-.5909Z"/><ellipse class="b" cx="245.1781" cy="412.3909" rx="193.8892" ry="11.3234"/><path class="d" d="M113.549,186.3379H76.5349a5.7384,5.7384,0,0,1-5.8-6.353l7.74-88.4688A6.9852,6.9852,0,0,1,85.2912,85.25h9.6211a1.619,1.619,0,0,1,1.6455,1.5732l.0122.3013a2.26,2.26,0,0,0,2.3,2.19h9.146a2.91,2.91,0,0,0,2.7778-2.2758l.065-.3013a1.8839,1.8839,0,0,1,1.8262-1.4878h9.6206a5.7385,5.7385,0,0,1,5.8,6.353l-7.74,88.4688A6.9851,6.9851,0,0,1,113.549,186.3379ZM85.2912,86.25a5.9659,5.9659,0,0,0-5.82,5.353l-7.74,88.4688a4.7391,4.7391,0,0,0,4.8038,5.2661H113.549a5.9659,5.9659,0,0,0,5.82-5.353l7.74-88.4688a4.7387,4.7387,0,0,0-4.8037-5.2661h-9.6206a.902.902,0,0,0-.8487.6982l-.0649.3018a3.9281,3.9281,0,0,1-3.7554,3.0649H98.87a3.2452,3.2452,0,0,1-3.2988-3.15l-.0122-.3013a.6265.6265,0,0,0-.6465-.6133Z"/><rect class="d" x="78.2668" y="99.1431" width="48.6343" height="1"/><rect class="d" x="112.6833" y="85.25" width="9.6211" height="1"/><path class="d" d="M113.259,140.4663H84.88l2.4829-28.375h28.3789Zm-27.2876-1H112.343l2.3076-26.375H88.279Z"/><path class="d" d="M113.5993,172.5186H78.8151l.92-10.524h34.7852Zm-33.6933-1h32.7773l.7456-8.524H80.6516Z"/><path class="d" d="M90.72,155.0645a2.7431,2.7431,0,0,1-2.7681-3.0313,3.2823,3.2823,0,0,1,3.2032-2.9438,2.742,2.742,0,0,1,2.768,3.0307h0A3.2822,3.2822,0,0,1,90.72,155.0645Zm.4351-4.9751a2.2629,2.2629,0,0,0-2.2071,2.0307,1.7834,1.7834,0,0,0,.4488,1.3814,1.7655,1.7655,0,0,0,1.3232.563,2.2629,2.2629,0,0,0,2.207-2.0313h0a1.743,1.743,0,0,0-1.7719-1.9438Z"/><path class="d" d="M97.9133,155.0645a2.743,2.743,0,0,1-2.7681-3.0313,3.2822,3.2822,0,0,1,3.2031-2.9438,2.7421,2.7421,0,0,1,2.7681,3.0307A3.2822,3.2822,0,0,1,97.9133,155.0645Zm.435-4.9751a2.2628,2.2628,0,0,0-2.207,2.0307,1.7837,1.7837,0,0,0,.4487,1.3814,1.7658,1.7658,0,0,0,1.3233.563,2.2629,2.2629,0,0,0,2.207-2.0313h0a1.743,1.743,0,0,0-1.772-1.9438Z"/><path class="d" d="M105.1057,155.0645a2.7422,2.7422,0,0,1-2.7676-3.0318,3.2821,3.2821,0,0,1,3.2031-2.9433,2.7421,2.7421,0,0,1,2.7676,3.0307h0A3.2822,3.2822,0,0,1,105.1057,155.0645Zm.4355-4.9751a2.2628,2.2628,0,0,0-2.207,2.0307,1.7859,1.7859,0,0,0,.4482,1.3814,1.7671,1.7671,0,0,0,1.3233.563,2.263,2.263,0,0,0,2.207-2.0313v0a1.7424,1.7424,0,0,0-1.7715-1.9433Z"/><rect class="d" x="354.2487" y="286.5449" width="48.6343" height="1"/><path class="d" d="M389.5041,373.74H352.49a5.7379,5.7379,0,0,1-5.7993-6.3545l7.74-88.4677a6.9848,6.9848,0,0,1,6.8164-6.2657h9.6206a1.6187,1.6187,0,0,1,1.6455,1.5733l.0122.3008a2.2593,2.2593,0,0,0,2.3,2.19h9.1465a2.9088,2.9088,0,0,0,2.7773-2.2754l.065-.3018a1.9081,1.9081,0,0,1,1.8261-1.4873h9.6211a5.7372,5.7372,0,0,1,5.7993,6.3536l-7.74,88.4677A6.9848,6.9848,0,0,1,389.5041,373.74ZM361.2468,273.6523a5.966,5.966,0,0,0-5.82,5.3536l-7.74,88.4677A4.7389,4.7389,0,0,0,352.49,372.74h37.0142a5.9651,5.9651,0,0,0,5.82-5.3545l7.74-88.4677a4.7383,4.7383,0,0,0-4.8033-5.2657H388.64a.902.902,0,0,0-.8486.6983l-.0649.3017a3.9263,3.9263,0,0,1-3.7549,3.0645h-9.1465a3.245,3.245,0,0,1-3.2988-3.1494l-.0122-.3018a.6266.6266,0,0,0-.6465-.6133Z"/><path class="d" d="M395.71,300.4365h-36.543a2.6469,2.6469,0,0,1-2.6709-2.9248,3.1636,3.1636,0,0,1,3.0874-2.8369h36.543a2.6471,2.6471,0,0,1,2.6709,2.9238A3.1636,3.1636,0,0,1,395.71,300.4365Zm-36.1265-4.7617a2.1443,2.1443,0,0,0-2.0913,1.9248,1.686,1.686,0,0,0,.4238,1.3047,1.6687,1.6687,0,0,0,1.251.5322H395.71a2.1448,2.1448,0,0,0,2.0913-1.9248,1.648,1.648,0,0,0-1.6748-1.8369Z"/><path class="d" d="M394.8762,309.96h-36.543a2.6463,2.6463,0,0,1-2.67-2.9248,3.1628,3.1628,0,0,1,3.0874-2.837h36.543a2.6465,2.6465,0,0,1,2.67,2.9248A3.1625,3.1625,0,0,1,394.8762,309.96Zm-36.126-4.7618a2.144,2.144,0,0,0-2.0913,1.9248,1.6844,1.6844,0,0,0,.4233,1.3047,1.6669,1.6669,0,0,0,1.251.5323h36.543a2.144,2.144,0,0,0,2.0913-1.9239,1.687,1.687,0,0,0-.4234-1.3056,1.6682,1.6682,0,0,0-1.2509-.5323Z"/><path class="d" d="M394.0432,319.4844H357.5a2.6471,2.6471,0,0,1-2.6709-2.9248,3.1635,3.1635,0,0,1,3.0874-2.8369H394.46a2.6469,2.6469,0,0,1,2.6709,2.9238A3.1637,3.1637,0,0,1,394.0432,319.4844Zm-36.1265-4.7617a2.1443,2.1443,0,0,0-2.0913,1.9248,1.6858,1.6858,0,0,0,.4238,1.3046,1.6684,1.6684,0,0,0,1.251.5323h36.543a2.1448,2.1448,0,0,0,2.0913-1.9248,1.6852,1.6852,0,0,0-.4239-1.3047,1.668,1.668,0,0,0-1.2509-.5322Z"/><path class="d" d="M391.76,345.5771H355.2175a2.6462,2.6462,0,0,1-2.6709-2.9248,3.1628,3.1628,0,0,1,3.0874-2.8369h36.5429a2.6471,2.6471,0,0,1,2.6709,2.9248A3.1634,3.1634,0,0,1,391.76,345.5771Zm-36.1264-4.7617a2.1439,2.1439,0,0,0-2.0913,1.9248,1.6472,1.6472,0,0,0,1.6748,1.8369H391.76a2.1443,2.1443,0,0,0,2.0914-1.9248,1.6863,1.6863,0,0,0-.4239-1.3046,1.6683,1.6683,0,0,0-1.251-.5323Z"/><path class="d" d="M390.9269,355.1016H354.384a2.6471,2.6471,0,0,1-2.6709-2.9248,3.1636,3.1636,0,0,1,3.0874-2.837h36.5434a2.6465,2.6465,0,0,1,2.6705,2.9248A3.1629,3.1629,0,0,1,390.9269,355.1016ZM354.8005,350.34a2.1443,2.1443,0,0,0-2.0913,1.9248,1.686,1.686,0,0,0,.4238,1.3047,1.6684,1.6684,0,0,0,1.251.5323h36.5429a2.1441,2.1441,0,0,0,2.0914-1.9248,1.6849,1.6849,0,0,0-.4234-1.3047,1.6667,1.6667,0,0,0-1.251-.5323Z"/><path class="d" d="M390.0939,364.625H353.551A2.6462,2.6462,0,0,1,350.88,361.7a3.1628,3.1628,0,0,1,3.0874-2.8369H390.51a2.6469,2.6469,0,0,1,2.6709,2.9248A3.1635,3.1635,0,0,1,390.0939,364.625Zm-36.1264-4.7617a2.1439,2.1439,0,0,0-2.0913,1.9248,1.6472,1.6472,0,0,0,1.6748,1.8369h36.5429a2.1443,2.1443,0,0,0,2.0913-1.9248,1.686,1.686,0,0,0-.4238-1.3047,1.6686,1.6686,0,0,0-1.251-.5322Z"/><path class="d" d="M413.5578,193.9043H376.5436a5.7386,5.7386,0,0,1-5.8-6.353l7.74-88.4688A6.9851,6.9851,0,0,1,385.3,92.8164h9.6211a1.619,1.619,0,0,1,1.6455,1.5732l.0122.3018a2.2592,2.2592,0,0,0,2.3,2.19h9.146a2.91,2.91,0,0,0,2.7778-2.2753l.065-.3013a1.8839,1.8839,0,0,1,1.8262-1.4883h9.6206a5.7379,5.7379,0,0,1,5.8,6.353l-7.74,88.4688A6.9851,6.9851,0,0,1,413.5578,193.9043ZM385.3,93.8164a5.9659,5.9659,0,0,0-5.82,5.353l-7.74,88.4688a4.7391,4.7391,0,0,0,4.8037,5.2661h37.0142a5.9659,5.9659,0,0,0,5.82-5.353l7.74-88.4688a4.7389,4.7389,0,0,0-4.8037-5.2661h-9.6206a.9019.9019,0,0,0-.8487.6982l-.0649.3018a3.9275,3.9275,0,0,1-3.7554,3.0649h-9.146a3.2447,3.2447,0,0,1-3.2988-3.15l-.0122-.3017a.6266.6266,0,0,0-.6465-.6133Z"/><rect class="d" x="378.2746" y="106.71" width="48.6343" height="1"/><path class="d" d="M415.9206,183.5684H376.5617l2.4819-28.375H418.403Zm-38.2681-1h37.3521l2.3071-26.375H379.96Z"/><rect class="d" x="396.9821" y="146.7834" width="1" height="45.1949" transform="translate(21.9496 383.0563) rotate(-52.7201)"/><rect class="d" x="372.9365" y="168.8809" width="49.0917" height="1" transform="translate(-26.918 250.4146) rotate(-33.8903)"/><path class="d" d="M421.0676,124.74h-39.36l.9214-10.5239H421.988Zm-38.2681-1h37.3521l.7456-8.5239H383.5451Z"/><rect class="d" x="381.6833" y="118.9783" width="40.3296" height="1" transform="translate(-16.8544 98.379) rotate(-13.6736)"/><rect class="d" x="401.3481" y="100.1222" width="1.0005" height="38.7122" transform="translate(187.1803 479.5821) rotate(-75.758)"/><path class="d" d="M419.87,138.4277H380.5109l.92-10.5239h39.36Zm-38.268-1h37.352l.7456-8.5239h-37.352Z"/><rect class="d" x="380.486" y="132.6658" width="40.3296" height="1" transform="translate(-20.1205 98.4431) rotate(-13.668)"/><rect class="d" x="400.1504" y="113.8096" width="1.0005" height="38.7123" transform="translate(173.0106 488.7415) rotate(-75.758)"/><path class="d" d="M418.6726,152.1152h-39.36l.9214-10.5239H419.593Zm-38.2681-1h37.352l.7456-8.5239H381.15Z"/><rect class="d" x="379.2883" y="146.3533" width="40.3296" height="1" transform="translate(-23.3934 98.5887) rotate(-13.6736)"/><rect class="d" x="398.9531" y="127.4971" width="1.0005" height="38.7123" transform="translate(158.841 497.9011) rotate(-75.758)"/><path class="d" d="M407.8757,239.3867a15.99,15.99,0,1,1,15.9907-15.9907A16.009,16.009,0,0,1,407.8757,239.3867Zm0-30.9809a14.99,14.99,0,1,0,14.9907,14.99A15.0073,15.0073,0,0,0,407.8757,208.4058Z"/><path class="d" d="M405.1179,232.6514l-7.4551-9.8648.7978-.6025,6.26,8.2827a44.5579,44.5579,0,0,1,16.7412-22.9731l2.2261-1.5728.5771.8164-2.226,1.5728a43.5488,43.5488,0,0,0-16.6436,23.3823Z"/><path class="e" d="M297.1683,107.7909H271.2015l-26.1862,299.31h25.9668a24.2622,24.2622,0,0,0,23.7-21.7935L317.055,129.5844A19.651,19.651,0,0,0,297.1683,107.7909Z"/><path class="d" d="M265.6651,407.1009H158.674a19.6514,19.6514,0,0,1-19.887-21.7935L161.16,129.5845a24.2623,24.2623,0,0,1,23.7-21.7936H291.8513a19.6512,19.6512,0,0,1,19.8868,21.7936l-22.373,255.7229A24.2621,24.2621,0,0,1,265.6651,407.1009Z"/><path class="f" d="M291.4138,112.791H263.6044a4.0373,4.0373,0,0,0-3.8661,3.16l-.1874.8711a9.86,9.86,0,0,1-9.4417,7.7184h-26.438a7.9388,7.9388,0,0,1-8.091-7.7184l-.035-.8711a3.2508,3.2508,0,0,0-3.3131-3.16h-27.81A18.6957,18.6957,0,0,0,166.16,129.5845L143.7872,385.3071a15.1425,15.1425,0,0,0,15.3241,16.7935H266.1025a18.696,18.696,0,0,0,18.2628-16.7935l22.3728-255.7226A15.1427,15.1427,0,0,0,291.4138,112.791Z"/><g class="g"><path d="M231.1993,115.6244a2.3657,2.3657,0,0,1-2.3109,2.125,1.9162,1.9162,0,0,1-1.9391-2.125,2.3657,2.3657,0,0,1,2.3109-2.125A1.9161,1.9161,0,0,1,231.1993,115.6244Z"/><path d="M246.4521,113.4994H239.166a2.3657,2.3657,0,0,0-2.3109,2.125,1.9161,1.9161,0,0,0,1.9391,2.1249H246.08a2.3656,2.3656,0,0,0,2.311-2.1249A1.9161,1.9161,0,0,0,246.4521,113.4994Z"/></g><polygon class="e" points="178.25 124.499 180.5 124.499 180.697 122.249 178.447 122.249 178.25 124.499"/><polygon class="e" points="182.947 122.249 182.75 124.499 185 124.499 185.197 122.249 185.394 119.999 183.144 119.999 182.947 122.249"/><polygon class="e" points="187.841 117.749 187.644 119.999 187.447 122.249 187.25 124.499 189.5 124.499 189.697 122.249 189.894 119.999 190.091 117.749 187.841 117.749"/><path class="e" d="M284.5847,117.8993l-.1444,1.65h-1.1l-.2886,3.3h1.1l-.1444,1.65h9.9l.5774-6.6Zm3.967,4.95h-3.3l.2886-3.3h3.3Z"/><polygon class="h" points="280.097 296.248 135.384 296.248 147.559 157.088 292.272 157.088 280.097 296.248"/><polygon class="d" points="276.271 292.056 131.558 292.056 143.733 152.896 288.446 152.896 276.271 292.056"/><g class="i"><polygon class="f" points="276.271 292.056 131.558 292.056 143.733 152.896 288.446 152.896 276.271 292.056"/><path class="d" d="M276.7292,292.5557H131.0129l.0473-.544L143.2751,152.396H288.9914Zm-144.6255-1h143.71L287.9,153.396H144.1911Z"/></g><polygon class="j" points="268.218 253.731 146.317 253.731 154.109 164.668 276.01 164.668 268.218 253.731"/><path class="d" d="M268.676,254.2305H145.7717l7.8794-90.0625H276.5559Zm-121.813-1H267.76l7.7041-88.0625H154.5671Z"/><rect class="d" x="210.6634" y="136.8235" width="1.0002" height="144.7514" transform="translate(-83.6748 246.9446) rotate(-52.0276)"/><line class="f" x1="146.3172" y1="253.7308" x2="276.0102" y2="164.6682"/><rect class="d" x="132.4991" y="208.6992" width="157.3289" height="1.0001" transform="translate(-81.3511 156.3833) rotate(-34.4973)"/><path class="d" d="M193.5776,266.7712a5.1174,5.1174,0,0,1-4.9989,4.5967,4.1448,4.1448,0,0,1-4.1945-4.5967,5.1173,5.1173,0,0,1,4.9989-4.5966A4.1448,4.1448,0,0,1,193.5776,266.7712Z"/><path class="d" d="M210.7235,266.7712a5.1174,5.1174,0,0,1-4.9989,4.5967,4.1448,4.1448,0,0,1-4.1945-4.5967,5.1173,5.1173,0,0,1,4.9989-4.5966A4.1448,4.1448,0,0,1,210.7235,266.7712Z"/><path class="d" d="M227.8694,266.7712a5.1174,5.1174,0,0,1-4.9988,4.5967,4.1449,4.1449,0,0,1-4.1946-4.5967,5.1173,5.1173,0,0,1,4.9989-4.5966A4.1448,4.1448,0,0,1,227.8694,266.7712Z"/><polygon class="d" points="192.46 370.446 124.7 370.446 130.401 305.287 198.16 305.287 192.46 370.446"/><g class="i"><polygon class="f" points="192.46 370.446 124.7 370.446 130.401 305.287 198.16 305.287 192.46 370.446"/><path class="d" d="M192.9177,370.9463H124.1545l5.7881-66.16h68.7632Zm-67.6719-1h66.7559l5.6127-64.16H130.8586Z"/></g><polygon class="f" points="188.689 352.501 131.611 352.501 135.259 310.799 192.338 310.799 188.689 352.501"/><path class="d" d="M189.1472,353.001H131.0651l3.7359-42.7022h58.0825Zm-56.9908-1h56.0747l3.5606-40.7022H135.717Z"/><line class="f" x1="135.2591" y1="310.7988" x2="188.6891" y2="352.5011"/><rect class="d" x="161.4738" y="297.7609" width="1.0006" height="67.7779" transform="translate(-199.1282 255.2798) rotate(-52.028)"/><line class="f" x1="131.6106" y1="352.5011" x2="192.3375" y2="310.7988"/><rect class="d" x="125.1405" y="331.1499" width="73.6672" height="1.0001" transform="translate(-159.3531 150.0566) rotate(-34.4973)"/><path class="d" d="M153.74,358.6072a2.3961,2.3961,0,0,1-2.3406,2.1523,1.9407,1.9407,0,0,1-1.964-2.1523,2.3962,2.3962,0,0,1,2.3406-2.1524A1.9408,1.9408,0,0,1,153.74,358.6072Z"/><path class="d" d="M161.768,358.6072a2.3962,2.3962,0,0,1-2.3407,2.1523,1.9407,1.9407,0,0,1-1.964-2.1523,2.3963,2.3963,0,0,1,2.3406-2.1524A1.9409,1.9409,0,0,1,161.768,358.6072Z"/><path class="d" d="M169.7963,358.6072a2.3961,2.3961,0,0,1-2.3406,2.1523,1.9407,1.9407,0,0,1-1.964-2.1523,2.3961,2.3961,0,0,1,2.3406-2.1524A1.9408,1.9408,0,0,1,169.7963,358.6072Z"/><polygon class="d" points="269.413 370.446 201.653 370.446 207.354 305.287 275.114 305.287 269.413 370.446"/><g class="i"><polygon class="f" points="269.413 370.446 201.653 370.446 207.354 305.287 275.114 305.287 269.413 370.446"/><path class="d" d="M269.8708,370.9463H201.1076l5.7881-66.16h68.7632Zm-67.6719-1h66.7559l5.6128-64.16H207.8117Z"/></g><polygon class="f" points="265.642 352.501 208.564 352.501 212.212 310.799 269.291 310.799 265.642 352.501"/><path class="d" d="M266.1,353.001h-58.082l3.7358-42.7022h58.0825Zm-56.9907-1h56.0747l3.56-40.7022H212.67Z"/><line class="f" x1="212.2122" y1="310.7988" x2="265.6422" y2="352.5011"/><rect class="d" x="238.4269" y="297.7609" width="1.0006" height="67.778" transform="translate(-169.5225 315.9432) rotate(-52.0281)"/><line class="f" x1="208.5637" y1="352.5011" x2="269.2906" y2="310.7988"/><rect class="d" x="202.0936" y="331.1499" width="73.6671" height="1.0001" transform="translate(-145.8211 193.6403) rotate(-34.4973)"/><path class="d" d="M230.6927,358.6072a2.3961,2.3961,0,0,1-2.3406,2.1523,1.9407,1.9407,0,0,1-1.964-2.1523,2.3962,2.3962,0,0,1,2.3406-2.1524A1.9408,1.9408,0,0,1,230.6927,358.6072Z"/><path class="d" d="M238.7211,358.6072A2.3962,2.3962,0,0,1,236.38,360.76a1.9407,1.9407,0,0,1-1.964-2.1523,2.3963,2.3963,0,0,1,2.3407-2.1524A1.9408,1.9408,0,0,1,238.7211,358.6072Z"/><path class="d" d="M246.7494,358.6072a2.3961,2.3961,0,0,1-2.3406,2.1523,1.9407,1.9407,0,0,1-1.964-2.1523,2.3962,2.3962,0,0,1,2.3406-2.1524A1.9408,1.9408,0,0,1,246.7494,358.6072Z"/><polygon class="d" points="268.196 147.125 196.579 147.125 197.419 137.533 269.036 137.533 268.196 147.125"/><rect class="e" x="177.5964" y="144.9751" width="11.0718" height="1"/><rect class="e" x="177.923" y="141.2388" width="11.0718" height="1"/><rect class="e" x="178.2502" y="137.5024" width="11.0718" height="1"/><g class="g"><path class="f" d="M223.7493,124.5409,149.8928,399.1684a15.5322,15.5322,0,0,0,9.2186,2.9321h5.7744l74.645-277.56Z"/><path class="f" d="M291.4138,112.7909H263.6043a4.0377,4.0377,0,0,0-3.8661,3.1606l-.1873.8711a9.8683,9.8683,0,0,1-9.1,7.7026L175.8018,402.1005h56.9373l74.0014-275.17A15.0664,15.0664,0,0,0,291.4138,112.7909Z"/></g><rect class="d" x="165.8962" y="131.8472" width="140.5288" height="1.5"/><path class="k" d="M318.6807,167.9152a1.4729,1.4729,0,0,1,1.3432-1.0737,13.41,13.41,0,0,1,6.1179-.2027.7218.7218,0,0,1,.3939.2152.76.76,0,0,1,.1177.37q.2306,1.69.4608,3.3808a1.1584,1.1584,0,0,1-.4949,1.3268,34.5363,34.5363,0,0,1-5.6954,3.5669c-.9837.2054-4.0831-.7936-5.0066-1.19C314.8636,173.8567,317.7755,169.7911,318.6807,167.9152Z"/><path class="d" d="M296.188,202.2121c.8993-7.13,16.8333-26.36,18.9273-29.1436,1.1656-1.5493,6.0074-.4,6.9746,2.5424-4.3461,6.0364-6.7466,11.1315-9.7237,17.9483a100.616,100.616,0,0,1-4.8882,9.1959C299.431,214.0045,295.7969,205.3127,296.188,202.2121Z"/><g class="l"><path d="M296.188,202.2121c.8993-7.13,16.8333-26.36,18.9273-29.1436,1.1656-1.5493,6.0074-.4,6.9746,2.5424-4.3461,6.0364-6.7466,11.1315-9.7237,17.9483a100.616,100.616,0,0,1-4.8882,9.1959C299.431,214.0045,295.7969,205.3127,296.188,202.2121Z"/></g><path class="k" d="M353.6522,219.2081s-5.0664.07-6.6375,1.46l-2.1919,1.9389a1.0392,1.0392,0,0,0-.0727,1.474c1.1823,1.3239,3.7635,3.9154,6.6548,4.94a1.9482,1.9482,0,0,0,1.9075-.3352s3.4945-4.3751,2.94-5.2725Z"/><path class="d" d="M367.0121,219.69q-.6791.37-1.39.7356l-7.153,2.6494c-4.8669,2.3834-5.2377-3.622-5.2377-3.622l1.9516-1.6915,13.2758-11.0273s-12.358-9.1606-20.3619-16.8888c-6.0285-6.9411-5.2352-11.4776,1.8506-10.7164,5.0886.5358,28.4494,22.3575,30.4819,24.6955C382.529,206.2466,377.8442,213.7521,367.0121,219.69Z"/><path class="m" d="M367.0121,219.69q-.6791.37-1.39.7356l-7.153,2.6494c-4.8669,2.3834-5.2377-3.622-5.2377-3.622l1.9516-1.6915,13.2758-11.0273s-12.358-9.1606-20.3619-16.8888c-6.0285-6.9411-5.2352-11.4776,1.8506-10.7164,5.0886.5358,28.4494,22.3575,30.4819,24.6955C382.529,206.2466,377.8442,213.7521,367.0121,219.69Z"/><path class="e" d="M370.8348,195.6318a1.1858,1.1858,0,0,1-.1178-.1219S370.7568,195.5469,370.8348,195.6318Z"/><path class="e" d="M324.6149,150.956c-.4108-.07-.8377.3662-.9577.9879s.1067,1.198.5176,1.2675.8379-.3659.9577-.9876C325.2839,151.5806,325.026,151.0256,324.6149,150.956Z"/><path class="n" d="M323.5087,159.1929a3.6494,3.6494,0,0,1-2.8723-1.1284,22.9445,22.9445,0,0,0,4.0021-4.7631Z"/><path class="e" d="M327.8156,149.1358a2.9552,2.9552,0,0,0-2.5033-1.0268h0a.384.384,0,0,1-.1222.0222.3787.3787,0,1,1-.0113-.7573,3.6912,3.6912,0,0,1,3.1675,1.1991.3785.3785,0,0,1-.2671.6338A.3678.3678,0,0,1,327.8156,149.1358Z"/><path class="k" d="M332.7131,186.8969c10.6893-.1069,12.2044-5.9572,12.2044-5.9572-3.2376-3.0413-3.5169-8.74-2.9446-13.8387a11.7262,11.7262,0,0,1-3.1167,3.1048,9.7461,9.7461,0,0,1-7.7941,1.5627.2392.2392,0,0,1-.1341-.0433,2.3176,2.3176,0,0,1,.0623.3113c.7236,4.0612.2476,8.4312-4,9.7952C326.99,181.8317,320.9394,187.0145,332.7131,186.8969Z"/><path class="k" d="M330.6011,170.2289c.1238.4887.2473.9775.3269,1.4963a.2392.2392,0,0,0,.1341.0433,9.7461,9.7461,0,0,0,7.7941-1.5627,11.7262,11.7262,0,0,0,3.1167-3.1048c.1357-1.293.3456-2.5573.5572-3.7175l-11.5,6.6035Z"/><path class="d" d="M346.0236,180.4763s-1.6137-4.6478-3.9316-6.0784-12.3272.3119-13.8881.96-3.0723,4.3077-3.0723,4.3077Z"/><path class="j" d="M346.0236,180.4763s-1.6137-4.6478-3.9316-6.0784-12.3272.3119-13.8881.96-3.0723,4.3077-3.0723,4.3077Z"/><path class="d" d="M332.9029,410.3675c-1.0045.0015-1.8975-.1274-2.2052-.5679a.66.66,0,0,1,.0065-.7711.8645.8645,0,0,1,.5758-.4111c1.2476-.3424,3.8675,1.1456,4.0077,1.2055a.168.168,0,0,1,.0788.18.1718.1718,0,0,1-.1416.1506A13.6837,13.6837,0,0,1,332.9029,410.3675Zm-1.1836-1.4507a1.2316,1.2316,0,0,0-.3414.0006.4989.4989,0,0,0-.3536.2506c-.1222.2208-.0829.3207-.0031.3909.3476.48,2.2459.4873,3.6434.2949a7.9885,7.9885,0,0,0-2.9451-.957Z"/><path class="d" d="M335.1749,410.1335l-.07,0c-.9111-.4094-2.6965-1.9985-2.549-2.8692.0016-.2.1741-.45.666-.5008a1.3094,1.3094,0,0,1,1.0012.2983c.998.7887,1.1448,2.8008,1.1543,2.8912a.212.212,0,0,1-.0815.16A.1717.1717,0,0,1,335.1749,410.1335Zm-1.8156-3h-.1c-.3213,0-.3425.1607-.3529.2006-.0842.51,1.1211,1.78,2.051,2.3391a4.1794,4.1794,0,0,0-.9874-2.3106.9176.9176,0,0,0-.63-.2591Z"/><polygon class="k" points="342.766 392.68 335.296 392.691 335.93 409.952 343.443 409.941 342.766 392.68"/><path class="e" d="M334.1638,409.6741c-5.11,3.1364-6.68,3.2792-12.5868,4.5736-1.291.2834-.4723,3.4106,2.6194,3.4059,5.1158-.0073,5.6517-.25,10.0116-.2564,3.736-.0056,8.0248.1592,10.9954.2052a1.108,1.108,0,0,0,.2715-.03,1.093,1.093,0,0,0,.81-1.3106l-1.4549-6.6737a.658.658,0,0,0-.6409-.51l-8.214.0121A3.509,3.509,0,0,0,334.1638,409.6741Z"/><polygon class="o" points="342.776 392.69 343.117 402.318 335.615 402.329 335.296 392.701 342.776 392.69"/><path class="d" d="M398.5578,407.2605c-.094-1.038-.0524-1.971.3657-2.3375a.7021.7021,0,0,1,.8125-.0635.9752.9752,0,0,1,.48.5475c.4821,1.258-.8026,4.11-.8634,4.2507a.1655.1655,0,0,1-.1794.1082.1808.1808,0,0,1-.1592-.1343A13.9206,13.9206,0,0,1,398.5578,407.2605Zm1.3987-1.3634a1.2,1.2,0,0,0-.0323-.3525.5183.5183,0,0,0-.2935-.3427c-.24-.1066-.3513-.0563-.4065.0315-.4673.4021-.2894,2.3637.0607,3.7908a8.36,8.36,0,0,0,.6716-3.1269Z"/><path class="d" d="M398.9989,409.5805a.2659.2659,0,0,1-.0064-.0728c.3324-.9681,1.8311-2.9675,2.7294-2.9018.2085-.0162.4853.14.5832.6344a1.3179,1.3179,0,0,1-.2175,1.0631c-.7083,1.1021-2.8,1.4432-2.8828,1.46a.1693.1693,0,0,1-.1736-.06A.1583.1583,0,0,1,398.9989,409.5805Zm2.9555-2.156-.01-.1142c-.0306-.3324-.1993-.34-.241-.3367-.5394-.0418-1.738,1.3277-2.224,2.3392a4.35,4.35,0,0,0,2.3048-1.2264,1.0258,1.0258,0,0,0,.2018-.6642Z"/><polygon class="k" points="393.676 392.574 386.392 393.1 390.69 410.502 398.027 409.97 393.676 392.574"/><path class="e" d="M399.8007,408.5637c2.2781,2.2629,3.4792,3.4276,9.63,4.8378,1.3554.304.4714,3.5489-2.7567,3.5164-5.3365-.0579-2.417-.2748-6.9618-.32-3.89-.0439-7.29.0124-10.3837.0328a1.1543,1.1543,0,0,1-1.1746-1.4009l1.56-6.9344a.6617.6617,0,0,1,.6679-.5227l7.4819.1683A2.6736,2.6736,0,0,1,399.8007,408.5637Z"/><polygon class="o" points="393.686 392.584 395.914 401.52 388.608 402.049 386.392 393.1 393.686 392.584"/><path class="d" d="M354.1538,241.0077a77.7837,77.7837,0,0,1,6.9159,13.9077c3.9983,10.8295,2.58,16.4908,3.9176,23.8195,2.3556,12.9054,5.88,22.8029,8.3505,32.5921,7.7166,30.6324,24.0163,85.02,24.0163,85.02l-13.1713,2.9013s-24.4247-64.8561-31.3548-86.7646c-6.2478-19.7176-22.2744-71.5246-22.2744-71.5246Z"/><path class="p" d="M354.1538,241.0077a77.7837,77.7837,0,0,1,6.9159,13.9077c3.9983,10.8295,2.58,16.4908,3.9176,23.8195,2.3556,12.9054,5.88,22.8029,8.3505,32.5921,7.7166,30.6324,24.0163,85.02,24.0163,85.02l-13.1713,2.9013s-24.4247-64.8561-31.3548-86.7646c-6.2478-19.7176-22.2744-71.5246-22.2744-71.5246Z"/><path class="d" d="M398.8986,393.9137l.1381,4.6856-15.865,1.7151s-1.4063-5.1156-1.3462-5.1159Z"/><path class="j" d="M398.8986,393.9137l.1381,4.6856-15.865,1.7151s-1.4063-5.1156-1.3462-5.1159Z"/><path class="q" d="M337.9589,264.8332c5.0513,16.262,11.448,36.8431,14.8594,47.6411.1636.521.3466,1.061.52,1.6383-1.3425-18.0367-4.8811-48.2684-13.95-49.38A3.26,3.26,0,0,0,337.9589,264.8332Z"/><path class="d" d="M342.0051,240.9416s3.854,49.6969,4.29,73.1907c.4029,21.8963-1.2086,85.7015-1.2086,85.7015l-12.6935.019s-6.0607-65.1367-8.31-87.373c-2.1394-21.0537-7.6911-71.0945-7.6911-71.0945Z"/><path class="p" d="M342.0051,240.9416s3.854,49.6969,4.29,73.1907c.4029,21.8963-1.2086,85.7015-1.2086,85.7015l-12.6935.019s-6.0607-65.1367-8.31-87.373c-2.1394-21.0537-7.6911-71.0945-7.6911-71.0945Z"/><path class="d" d="M346.9722,395.38l-.4347,4.661-15.437.023s-.7262-5.2247-.6661-5.2247Z"/><path class="j" d="M346.9722,395.38l-.4347,4.661-15.437.023s-.7262-5.2247-.6661-5.2247Z"/><path class="d" d="M366.6163,256.8084l-3.5465-1.0241a34.9834,34.9834,0,0,0-17.4764-.5216L341.44,245.78l1.2705,9.9755-1.8206-.0379a35.09,35.09,0,0,0-15.2289,3.0913,35.6117,35.6117,0,0,1-4.7885,1.9913c0-.3034-4.4759-19.4106-4.4759-19.4106-4.5514-30.9982-3.8023-46.6917-2.4368-54.3346a10.0267,10.0267,0,0,1,8.022-8.0791c1.5456-.2845,3.281-.56,5.0543-.74a139.2978,139.2978,0,0,1,16.0443-.1612c.0475.0094,3.49.2655,3.5369.2655,5.5946.2939,11.3221,5.0257,10.3169,10.5445-3.3566,18.32-3.9162,31.7189-3.6886,40.5471Z"/><path class="o" d="M313.11,212.13s-.1092-15.2674.04-18.104l11.3724-7.8188A108.2747,108.2747,0,0,0,313.11,212.13Z"/><path class="k" d="M322.7649,161.6657a10.8413,10.8413,0,0,0,5.45,8.988l.0151,0a.0542.0542,0,0,0,.0446.0144,8.9362,8.9362,0,0,0,2.6537,1.0574.2392.2392,0,0,0,.1341.0433,9.7461,9.7461,0,0,0,7.7941-1.5627,11.7262,11.7262,0,0,0,3.1167-3.1048c2.0346-2.9158,2.8274-6.7691,4.2139-12.1878a10.6575,10.6575,0,0,0-12.4114-13.224C325.6845,143.3,322.4552,154.4527,322.7649,161.6657Z"/><path class="r" d="M328.2743,170.6678a8.9362,8.9362,0,0,0,2.6537,1.0574c.0448.0293-.389-4.7473-.389-4.7473C330.568,166.8977,328.8386,170.6622,328.2743,170.6678Z"/><path class="e" d="M355.5913,156.1329c-.8628,1.1189-1.9912,2.2947-3.4041,2.418a5.1387,5.1387,0,0,1-2.4181-.3792c-2.5032,4.3334-7.804,8.9324-7.804,8.9324a11.7339,11.7339,0,0,1-8.4963-.0758c-.4456-.18-.7681-.3035-.8156-.313-.3887-.0853-2.3991-8.5436-5.2059-9.8333l-.6257-.3035c.19-.8913-.0949-3.3567.7774-4.2007.4741-.4551-.8154-1.6309-.7205-2.5223a1.7083,1.7083,0,0,1,.038-.2181c-.8915-.56-.9541-1.7639-.6165-3.0439.85-3.2205,2.5507-2.3422,2.5507-2.3422a3.652,3.652,0,0,1-.5688-2.911c.3508-1.84,3.793-2.76,3.793-2.76s.4552.0759,1.2233.2371a4.0859,4.0859,0,0,1,2.7783-.8819,5.0578,5.0578,0,0,1,3.6886,2.1336,4.1787,4.1787,0,0,1,6.6472,2.2283,3.4951,3.4951,0,0,1,3.6034.9578,3.7583,3.7583,0,0,1,1.0242,3.7266,2.4112,2.4112,0,0,1,1.7446,2.0766,13.25,13.25,0,0,1-.256,3.11,4.777,4.777,0,0,0,.3984,3.0439A2.0905,2.0905,0,0,0,355.5913,156.1329Z"/><path class="k" d="M330.4521,151.736c-2.2336.706-3.3361,4.041-3.3888,6.1452-.0609,2.3254,1.5206,3.7611,3.5139,2.1633a8.8565,8.8565,0,0,0,3.0024-4.8055C334.0827,152.9514,332.6855,151.03,330.4521,151.736Z"/><path class="d" d="M311.3348,186.8071l-14.1065,16.0191c-1.9518,4.5379,4.8079,9.5364,9.5915,5.1023l16.9221-19.493c1.2232-2.6613,1.39-4.86-.4065-6.6283C320.9706,179.4793,316.8239,177.9949,311.3348,186.8071Z"/><path class="s" d="M118.6128,217.3318a118.5135,118.5135,0,0,0,12.7905,12.2994c2.63,2.0706,25.1322-11.622,27.9225-13.18,0,0-2.5136-2.4807-3.5563-2.215-3.9288,1.001-21.4549,7.047-21.4549,7.047-.8183-.2542-8.9056-9.5382-8.9056-9.5382Z"/><path class="s" d="M162.2411,213.0007l-.0693-.0489.0827.074s-1.9985,3.2769-4.7243,4.0927l-2.06-2.016.9326-5.9871.0535-.3622.2185-.214,2.8167-2.7387a1.4832,1.4832,0,0,1,2.0649-.0029l2.1126,2.0423a1.483,1.483,0,0,1,.2945,1.7323Z"/><path class="e" d="M130.6541,214.6645c-5.7365-8.18-15.82-13.5225-18.6917-13.5638-4.1382-.07-5.4188.89-3.8536,4.0377,2.6551,5.3388,7.051,10.7833,13.11,17.2849Z"/><path class="e" d="M114.3348,201.5055a63.3447,63.3447,0,0,0-7.0544-2.12,92.9377,92.9377,0,0,0-13.2695-2.1879,76.0491,76.0491,0,0,0-7.8349-.4328,3.5591,3.5591,0,0,0-.7906.0864,3.938,3.938,0,0,0-2.8985,4.6142c4.3928,23.2075,4.6026,33.5032,3.97,45.4566l26.7161.9536a1.43,1.43,0,0,0,1.42-1.1979c1.1808-6.0254,4.8823-19.4088,4.8823-19.4088,3.7678-2.6645,3.606-5.7285,2.6248-9.6567-.3069-1.23-1.0224-2.4085-4.0556-9.0455C118.0443,208.5668,115.7076,202.0077,114.3348,201.5055Z"/><path class="f" d="M97.448,247.31l9.7418.3546c1.4536-11.5619.7158-20.1914.6717-33.3175C107.9027,226.6031,100.8761,241.3523,97.448,247.31Z"/><path class="s" d="M107.5506,251.9732S119.558,311.38,118.946,336.0039c-.6494,25.9408-5.732,70.5956-5.732,70.5956l-6.3359-.0662s-5.6885-33.0617-2.431-69.3266C87.8533,300.849,83.5456,254.31,83.5456,254.31Z"/><path class="t" d="M107.5506,251.9732S119.558,311.38,118.946,336.0039c-.6494,25.9408-5.732,70.5956-5.732,70.5956l-6.3359-.0662s-5.6885-33.0617-2.431-69.3266C87.8533,300.849,83.5456,254.31,83.5456,254.31Z"/><path class="s" d="M102.1566,266.6233s3.1306,46.4947-.13,70.91c-3.4393,25.72-13.3015,69.5678-13.3015,69.5678l-6.2919-.7482s-2.095-33.4821,5.0492-69.1852C74.9009,299.234,78.04,266.3612,78.04,266.3612Z"/><path class="s" d="M102.1566,266.6233s3.1306,46.4947-.13,70.91c-3.4393,25.72-13.3015,69.5678-13.3015,69.5678l-6.2919-.7482s-2.095-33.4821,5.0492-69.1852C74.9009,299.234,78.04,266.3612,78.04,266.3612Z"/><path class="d" d="M78.2592,320.0782a141.448,141.448,0,0,0,19.698,3.4449c.197.013.3936.0347.5993.0483.4186.045.8556.0738,1.31.095,2.6845.1424,20.6467,2.4724,21.8879-4.9224,0,0-3.8657-18.3212-7.5886-38.6588-2.2562-12.3254-.4177-29.66-.4177-29.66h0a134.477,134.477,0,0,0-23.4844-.6942l-4.5572.2642S70.3044,265.2377,74.13,280.3267C79.8547,302.907,78.2592,320.0782,78.2592,320.0782Z"/><g class="u"><path d="M78.2592,320.0782a141.448,141.448,0,0,0,19.698,3.4449c.197.013.3936.0347.5993.0483.4186.045.8556.0738,1.31.095,2.6845.1424,20.6467,2.4724,21.8879-4.9224,0,0-3.8657-18.3212-7.5886-38.6588-2.2562-12.3254-.4177-29.66-.4177-29.66h0a134.477,134.477,0,0,0-23.4844-.6942l-4.5572.2642S70.3044,265.2377,74.13,280.3267C79.8547,302.907,78.2592,320.0782,78.2592,320.0782Z"/></g><path class="v" d="M90.1753,196.8282h0a20.0217,20.0217,0,0,0,3.105,6.5345c3.8736,5.3289,9.5825,11.1128,12.1,11.7513.7221-1.6757,1.8419-4.9471,1.8419-4.9471,1.6523.8149,2.1075,3.1454,2.658,4.924,2.65-4.3,4.6724-11.6979,4.003-14.3877,0,0-3.2138-.9506-4.7976-1.3429a96.4976,96.4976,0,0,0-13.2719-2.1314A45.4473,45.4473,0,0,0,90.1753,196.8282Z"/><path class="f" d="M90.098,196.3419l.8838,1.5958c3.4112,6.1908,11.3087,14.1544,14.3983,14.938a39.9267,39.9267,0,0,0,1.4626-4.5678c1.6523.8149,2.8661,3.1454,3.4166,4.9241,2.65-4.3,4.2159-10.3252,3.5464-13.015h0c-1.5548-.4719-3.2138-.9506-4.7976-1.343a96.5268,96.5268,0,0,0-13.2718-2.1315A45.4673,45.4673,0,0,0,90.098,196.3419Z"/><path class="d" d="M86.48,249.9948l13.5321.363,1.1325.0272,2.9244.074,1.1236.0349,7.941.2074c.2464-.0248.4646-.1185.4748-.2765l.312-2.5476c.0275-.1731-.1906-.33-.4671-.34l-7.854-.31-.9431-.0393-3.879-.1477-.9188-.0377-13.0284-.513a.5168.5168,0,0,0-.4712.2013l-.3224,2.89C85.9322,249.7737,86.1623,249.9816,86.48,249.9948Z"/><path class="w" d="M86.48,249.9948l13.5321.363,1.1325.0272,2.9244.074,1.1236.0349,7.941.2074c.2464-.0248.4646-.1185.4748-.2765l.312-2.5476c.0275-.1731-.1906-.33-.4671-.34l-7.854-.31-.9431-.0393-3.879-.1477-.9188-.0377-13.0284-.513a.5168.5168,0,0,0-.4712.2013l-.3224,2.89C85.9322,249.7737,86.1623,249.9816,86.48,249.9948Z"/><path class="e" d="M109.3908,250.94l-.8683-.0131a.2444.2444,0,0,1-.2953-.2188l.4857-3.6087c-.0106-.1047.1679-.2007.3467-.2007l.8682.0225a.2429.2429,0,0,1,.2943.209l-.4833,3.6183A.3442.3442,0,0,1,109.3908,250.94Z"/><path class="e" d="M94.3148,250.7216l-.8237-.0214a.2292.2292,0,0,1-.2783-.1983l.4853-3.6273c-.01-.0992.1686-.1912.33-.1811l.8227.0214c.1678-.018.2852.0879.2781.198l-.4856,3.6092C94.6285,250.6423,94.4844,250.7217,94.3148,250.7216Z"/><polygon class="d" points="123.022 240.156 102.616 240.156 105.003 212.875 125.408 212.875 123.022 240.156"/><path class="s" d="M86.5926,235.072a3.65,3.65,0,0,0,1.0969-2.9892s.0286-1.6595.0576-4.1849c.086-7.3918.1473-22.1224-.6262-24.071-1.682-4.2243-4.5633-6.5128-6.0736-4.0447-1.7642,2.8831-1.8928,24.7638-1.8928,24.7638C79.5683,239.016,84.8658,237.0913,86.5926,235.072Z"/><path class="s" d="M114.78,232.8721l-.038-.0759.038.1043s-3.31,1.9439-6.0975,1.375l-.8628-2.75L111.47,226.69l.2183-.294.2937-.0853,3.7763-1.0829a1.4834,1.4834,0,0,1,1.8214.973l.897,2.798a1.4833,1.4833,0,0,1-.559,1.666Z"/><path class="s" d="M82.22,235.8691c2.3947,2.9417,26.81-1.4085,27.0051-1.4978.7934-.358.9158-2.45.0051-3.2089-.5005-.418-25.4747-2.6857-27.2023-2.82C79.0732,232.8822,81,234.3713,82.22,235.8691Z"/><path class="e" d="M116.8252,167.9708c3.3156,4.0247,5.0539,7.026,3.0447,20.4656-.3792,2.5367.7188,8.4945,1.198,8.55-13.0429-1.5136-16.7629-3.6548-22.9536-7.436-4.1405-2.529-7.521-11.6888-6.4423-16.4168,1.1642-5.1018,6.7231-11.0585,12.0943-11.5633C109.7946,161.0038,113.06,163.4,116.8252,167.9708Z"/><path class="s" d="M107.9133,193.2947c-1.3905,2.7488-2.231,5.8746,1.1338,8.658a4,4,0,0,1,1.4266,2.2987c.2763,1.4606-.3292,3.027-5.52.9883-7.5074-2.9442-7.6837-7.629-7.6837-7.629,3.4113-1.69,4.3087-9.6323,4.4249-14.0971Z"/><path class="o" d="M103.147,189.95c-.2219,1.9348,2.2091,4.5639,3.8774,5.4931a12.526,12.526,0,0,1,.8812-2.151l-3.6823-5.7912A6.6048,6.6048,0,0,0,103.147,189.95Z"/><path class="s" d="M98.2822,172.5151a9.6368,9.6368,0,0,1,12.4672-5.5422c7.0214,2.6565,8.3043,13.1642,6.9711,19.6036-1.4477,7.1851-10.06,9.4888-15.61,4.09-3.7092-3.59-3.8141-6.6186-4.4276-13.7215A9.7142,9.7142,0,0,1,98.2822,172.5151Z"/><path class="e" d="M99.1358,184.4589a10.2356,10.2356,0,0,0,2.45-8.1875s3.24-3.3165,3.0819-6.8725c0,0,.9594,2.8318.0055,4.8533,0,0,8.41-.612,8.2126-4.8533,0,0,.7236,3.677-.5407,4.7834,0,0,5.8045-.4517,5.3427-4.4265-.7114-6.124-5.9177-6.4415-5.9177-6.4415s-5.5813-4.7412-13.2956,3.635c0,0-9.0863,5.6729-2.6452,15.1313Z"/><path class="n" d="M113.5119,184.0722a2.4907,2.4907,0,0,0,2.0488-.4388,15.5091,15.5091,0,0,1-2.1651-3.6563Z"/><path class="e" d="M108.1148,184.7144a.1708.1708,0,1,1,.28-.1957,4.5443,4.5443,0,0,0,3.7793,1.7093.1779.1779,0,0,1,.17.1663l0,.009a.16.16,0,0,1-.1574.1637,4.9989,4.9989,0,0,1-.8259-.0289A4.8254,4.8254,0,0,1,108.1148,184.7144Z"/><path class="s" d="M95.0146,181.2366a2.63,2.63,0,0,1,2.54-2.7169c2.0048-.0254,3.33,2.4763,3.6168,4.2095.29,1.9242-.8731,3.5725-2.7709,2.7787a5.9157,5.9157,0,0,1-3.1309-3.2166A2.6458,2.6458,0,0,1,95.0146,181.2366Z"/><path class="e" d="M108.6657,178.0062c-.0214.7109.3412,1.3017.8129,1.3208s.8573-.5483.871-1.271-.3414-1.3009-.8034-1.3178S108.6893,177.2861,108.6657,178.0062Z"/><path class="e" d="M115.29,178.7583c-.02.7115.3437,1.3026.8063,1.32s.8569-.5489.879-1.27-.3441-1.3019-.8064-1.3188S115.3026,178.0356,115.29,178.7583Z"/><path class="e" d="M115.9631,177.5217l1.7243-.4379S116.77,178.3932,115.9631,177.5217Z"/><path class="e" d="M106.6668,175.6537a.3971.3971,0,0,1-.1587-.0862.3491.3491,0,0,1-.0112-.4927l.0049-.005a4.0458,4.0458,0,0,1,3.5179-1.2844.36.36,0,0,1,.274.41.3462.3462,0,0,1-.3987.2754,3.3922,3.3922,0,0,0-2.9,1.0895A.3464.3464,0,0,1,106.6668,175.6537Z"/><path class="e" d="M117.8286,176.5173a.3966.3966,0,0,1-.1367-.1191,3.4211,3.4211,0,0,0-2.7-1.5192.35.35,0,0,1-.3655-.3313l0-.0046a.3554.3554,0,0,1,.3421-.3608,4.13,4.13,0,0,1,3.2979,1.8162.347.347,0,0,1-.4379.5188Z"/><path class="e" d="M109.3408,176.77l1.7237-.4377S110.1457,177.6413,109.3408,176.77Z"/><path class="e" d="M83.9522,197.1307a4.9634,4.9634,0,0,1,4.7535,1.3273,9.5882,9.5882,0,0,1,2.42,5.3214c.388,3.0347-2.8779,13.93-2.7953,17.0148-3.2241-1.7659-7.97-4.1809-12.4767-4.6235.622-7.175,1.4517-11.9493,2.8443-14.324a13.1559,13.1559,0,0,1,2.8505-3.7457A6.61,6.61,0,0,1,83.9522,197.1307Z"/><path class="e" d="M114.8636,407.3913c2.2781,2.2629,3.4792,3.4276,9.63,4.8378,1.3554.304.4714,3.5489-2.7567,3.5164-5.3365-.0579-2.417-.2748-6.9618-.32-3.89-.0439-7.29.0124-10.3837.0328a1.1543,1.1543,0,0,1-1.1746-1.4009l1.56-6.9344a.6617.6617,0,0,1,.6679-.5227l7.4819.1683A2.6736,2.6736,0,0,1,114.8636,407.3913Z"/><path class="e" d="M90.9993,407.8834c1.4577,2.8611,2.2352,4.3426,7.6383,7.6027,1.1927.7119-.66,3.5186-3.7168,2.48-5.0516-1.7211-2.21-1.0157-6.5137-2.478-3.6821-1.2564-6.9294-2.2643-9.8749-3.2108a1.1545,1.1545,0,0,1-.6785-1.6976l3.6472-6.1007a.6616.6616,0,0,1,.7977-.288l7.0553,2.4958A2.6737,2.6737,0,0,1,90.9993,407.8834Z"/></svg>