<svg xmlns="http://www.w3.org/2000/svg" width="750" height="500" viewBox="0 0 750 500"><defs><style>.a{fill:#edeef7;}.aa,.ad,.af,.ah,.aj,.ao,.aq,.ar,.au,.aw,.b,.ba,.bb,.c,.e,.h,.i,.o,.p,.r,.t,.v,.y{fill:none;}.b,.c,.j{stroke:#c5c8ef;}.aa,.ah,.ak,.aq,.b,.c,.d,.e,.i,.j,.r{stroke-linejoin:round;}.c,.i,.r{stroke-linecap:round;}.ak,.d,.j,.q{fill:#fff;}.d,.e{stroke:#7c8bd8;}.f{fill:#7c8bd8;}.al,.g{fill:#abb3ed;}.g,.h,.i{opacity:0.35;}.ak,.h,.i{stroke:#abb3ed;}.ad,.af,.aj,.ao,.ar,.au,.aw,.ba,.bb,.h,.o,.p,.t,.v,.y{stroke-miterlimit:10;}.i{stroke-width:2px;}.k{fill:#e5eaf9;}.l{fill:#ffcbc2;}.m{fill:#f9bbaf;}.n{fill:#212237;}.o,.p{stroke:#f7a794;}.aa,.ad,.af,.aj,.ao,.aq,.ar,.au,.aw,.bb,.o,.t,.v{stroke-width:0.75px;}.ah,.p,.r,.y{stroke-width:0.5px;}.r{stroke:#212237;}.s{fill:#011e3b;}.t{stroke:#2c79e8;}.u{fill:#1f2677;}.v{stroke:#3a53ce;}.w{fill:#b2d1ff;}.x{fill:#f7633a;}.y{stroke:#f7958b;}.z{fill:#f7958b;}.aa,.ad{stroke:#4152a5;}.ab{fill:#dcddef;}.ac{fill:#f2f5f9;}.ae{fill:#0f43aa;}.af{stroke:#0f1d49;}.ag{fill:#2c79e8;}.ah{stroke:#e88872;}.ai{fill:#28364c;}.aj{stroke:#28364c;}.am{fill:#995037;}.an{fill:#ffe1cc;}.ao{stroke:#a5634c;}.ap{fill:#2d1006;}.aq,.ar{stroke:#6d221d;}.as{fill:#6d221d;}.at{fill:#050c26;}.au{stroke:#102059;}.av{fill:#131c5e;}.aw{stroke:#30409e;}.ax{fill:#4a1a1a;}.ay{fill:#ccd2ed;}.az{fill:#b8c4e8;}.ba{stroke:#edeef7;}.bb{stroke:#aa260c;}</style></defs><path class="a" d="M143.1322,196.5533a45.5565,45.5565,0,0,0,16.437,13.4541l5.0058-8.337a35.7374,35.7374,0,0,0,9.182,2.7644l-.4449,9.7258a45.8821,45.8821,0,0,0,21.1372-2.1095l-2.3582-9.4459a35.7354,35.7354,0,0,0,8.4545-4.5246l6.5546,7.1835a45.5576,45.5576,0,0,0,13.454-16.437l-8.337-5.0057a35.7366,35.7366,0,0,0,2.7645-9.1822l9.7258.445a45.8812,45.8812,0,0,0-2.1094-21.137l-9.4459,2.3582a35.7477,35.7477,0,0,0-4.5247-8.4547l7.1833-6.5545a45.5544,45.5544,0,0,0-16.4369-13.4542l-5.0058,8.337a35.75,35.75,0,0,0-9.182-2.7646l.4449-9.7255a45.8765,45.8765,0,0,0-21.1369,2.1094l2.3581,9.4459a35.7407,35.7407,0,0,0-8.4548,4.5246l-6.5546-7.1833a45.56,45.56,0,0,0-13.4539,16.4369l8.337,5.0056a35.7355,35.7355,0,0,0-2.7644,9.1823l-9.7258-.4451a45.8775,45.8775,0,0,0,2.1094,21.1371l9.4459-2.3583a35.7347,35.7347,0,0,0,4.5245,8.4548Zm19.3162-41.5623a21.9986,21.9986,0,1,1,3.0894,30.957A21.9988,21.9988,0,0,1,162.4484,154.991Zm5.8212,4.7647a14.476,14.476,0,1,1,2.0329,20.3711A14.476,14.476,0,0,1,168.27,159.7557Z"/><path class="a" d="M382.2654,116.1784a57.38,57.38,0,0,0,10.1811,24.7427L402.98,134.67a45.0126,45.0126,0,0,0,8.5277,8.5541l-6.3073,10.5171a57.7929,57.7929,0,0,0,24.696,10.2972l3.0323-11.8825a45.0277,45.0277,0,0,0,12.0786.0376l2.9728,11.8826a57.3791,57.3791,0,0,0,24.7427-10.181l-6.2508-10.5338a45.019,45.019,0,0,0,8.5543-8.5276l10.5171,6.3073A57.792,57.792,0,0,0,495.84,116.4454l-11.8824-3.0323a45.0325,45.0325,0,0,0,.0378-12.0787l11.8824-2.9728a57.38,57.38,0,0,0-10.1808-24.7429L475.1635,79.87a45.0248,45.0248,0,0,0-8.5277-8.5542l6.3075-10.5169a57.7906,57.7906,0,0,0-24.6961-10.2972L445.215,62.3841a45.0085,45.0085,0,0,0-12.0788-.038l-2.973-11.8827A57.3892,57.3892,0,0,0,405.42,60.6445l6.2511,10.5338a45.01,45.01,0,0,0-8.5541,8.5277l-10.5169-6.3074a57.7851,57.7851,0,0,0-10.2973,24.6962l11.8827,3.0319a45.0112,45.0112,0,0,0-.038,12.0786Zm46.2623-34.5336a27.71,27.71,0,1,1-15.0809,36.1694A27.71,27.71,0,0,1,428.5277,81.6448Zm3.6056,8.7628a18.2341,18.2341,0,1,1-9.924,23.801A18.2341,18.2341,0,0,1,432.1333,90.4076Z"/><path class="a" d="M543.7265,161.4071a35.8469,35.8469,0,0,0,12.934,10.5866l3.9389-6.56a28.12,28.12,0,0,0,7.2252,2.1752l-.35,7.6531a36.1037,36.1037,0,0,0,16.6323-1.66l-1.8556-7.4328a28.12,28.12,0,0,0,6.6527-3.56l5.1576,5.6525a35.8471,35.8471,0,0,0,10.5867-12.9339l-6.56-3.9389a28.121,28.121,0,0,0,2.1753-7.2251l7.6531.35a36.1035,36.1035,0,0,0-1.66-16.6323l-7.4328,1.8556a28.1234,28.1234,0,0,0-3.56-6.6528l5.6523-5.1576A35.8457,35.8457,0,0,0,587.9819,107.34l-3.9389,6.56a28.1256,28.1256,0,0,0-7.2252-2.1753l.35-7.6529a36.1019,36.1019,0,0,0-16.6323,1.66l1.8556,7.4329a28.1206,28.1206,0,0,0-6.6529,3.56l-5.1577-5.6525a35.8509,35.8509,0,0,0-10.5866,12.9339l6.56,3.9389a28.1138,28.1138,0,0,0-2.1753,7.2252l-7.653-.35a36.1011,36.1011,0,0,0,1.66,16.6323l7.4328-1.8557a28.1211,28.1211,0,0,0,3.56,6.6528Zm15.2-32.7046a17.31,17.31,0,1,1,2.431,24.3594A17.31,17.31,0,0,1,558.926,128.7025Zm4.5806,3.7493a11.3909,11.3909,0,1,1,1.6,16.03A11.3907,11.3907,0,0,1,563.5066,132.4518Z"/><path class="a" d="M232.0969,107.5893a23.7009,23.7009,0,0,0,2.1883-10.83l-5.0511-.2738a18.5809,18.5809,0,0,0-.9624-4.8944l4.58-2.1611a23.8657,23.8657,0,0,0-6.1113-9.206l-3.77,3.382a18.5933,18.5933,0,0,0-4.137-2.787l1.7087-4.7611a23.6991,23.6991,0,0,0-10.83-2.1882l-.2738,5.051a18.5929,18.5929,0,0,0-4.8944.9623l-2.1611-4.58a23.8657,23.8657,0,0,0-9.206,6.1113l3.382,3.77a18.5914,18.5914,0,0,0-2.7869,4.1371l-4.7612-1.7087a23.6966,23.6966,0,0,0-2.1881,10.83l5.051.2738a18.592,18.592,0,0,0,.9622,4.8944l-4.58,2.161a23.8635,23.8635,0,0,0,6.1113,9.206l3.77-3.382a18.5858,18.5858,0,0,0,4.137,2.7871l-1.7087,4.7611a23.7,23.7,0,0,0,10.83,2.1883l.2738-5.0511a18.5889,18.5889,0,0,0,4.8945-.9624l2.161,4.58a23.8643,23.8643,0,0,0,9.206-6.1112l-3.3821-3.77a18.5881,18.5881,0,0,0,2.7871-4.137Zm-23.8092,1.2279a11.4433,11.4433,0,1,1,13.4829-8.9505A11.4432,11.4432,0,0,1,208.2877,108.8172Z"/><path class="a" d="M632.0663,199.4289a21.3871,21.3871,0,0,0,4.5287-8.8818l-4.3235-1.4631a16.7678,16.7678,0,0,0,.3508-4.4871l4.5048-.7672a21.5338,21.5338,0,0,0-3.0783-9.4831l-4.0965,2.0249a16.7713,16.7713,0,0,0-2.9194-3.4255l2.64-3.7235a21.3839,21.3839,0,0,0-8.8818-4.5287l-1.4631,4.3235a16.772,16.772,0,0,0-4.4871-.3509l-.7673-4.5048A21.533,21.533,0,0,0,604.59,167.24l2.025,4.0965a16.7723,16.7723,0,0,0-3.4256,2.9194l-3.7234-2.64a21.3871,21.3871,0,0,0-4.5287,8.8818l4.3234,1.4631a16.7722,16.7722,0,0,0-.3508,4.4871l-4.5048.7672a21.5322,21.5322,0,0,0,3.0784,9.4831l4.0964-2.0249a16.7755,16.7755,0,0,0,2.9195,3.4256l-2.64,3.7234a21.3855,21.3855,0,0,0,8.8818,4.5287l1.4631-4.3234a16.7673,16.7673,0,0,0,4.487.3507l.7673,4.5048a21.532,21.532,0,0,0,9.4831-3.0783l-2.025-4.0964a16.7754,16.7754,0,0,0,3.4256-2.9194Zm-20.99-4.7078a10.3253,10.3253,0,1,1,13.8889-4.5084A10.3252,10.3252,0,0,1,611.076,194.7211Z"/><rect class="a" x="45.5339" y="275.9914" width="5.5525" height="5.5525" rx="1.094"/><path class="a" d="M701.12,228.4183h3.3645a1.094,1.094,0,0,1,1.094,1.094v3.3645a1.094,1.094,0,0,1-1.094,1.094H701.12a1.094,1.094,0,0,1-1.094-1.094v-3.3644A1.0941,1.0941,0,0,1,701.12,228.4183Z"/><rect class="a" x="366.6717" y="58.9117" width="5.5525" height="5.5525" rx="1.094"/><rect class="a" x="583.0011" y="199.0603" width="5.5525" height="5.5525" rx="1.094"/><rect class="a" x="262.2251" y="105.097" width="5.5525" height="5.5525" rx="1.094"/><path class="b" d="M210.25,218.8181a4.6034,4.6034,0,1,1-4.6034-4.6034A4.6033,4.6033,0,0,1,210.25,218.8181Z"/><path class="b" d="M148.76,111.8733a4.6034,4.6034,0,1,1-4.6034-4.6034A4.6033,4.6033,0,0,1,148.76,111.8733Z"/><path class="b" d="M668.0487,162.9827a4.6034,4.6034,0,1,1-4.6034-4.6034A4.6033,4.6033,0,0,1,668.0487,162.9827Z"/><path class="b" d="M178.8865,107.0062A2.3865,2.3865,0,1,1,176.5,104.62,2.3866,2.3866,0,0,1,178.8865,107.0062Z"/><circle class="b" cx="60.1811" cy="222.7675" r="2.3865"/><path class="b" d="M282.8061,98.2331a2.3866,2.3866,0,1,1-2.3866-2.3865A2.3866,2.3866,0,0,1,282.8061,98.2331Z"/><circle class="b" cx="622.3476" cy="132.053" r="2.3865"/><circle class="b" cx="573.473" cy="285.9968" r="2.3865"/><line class="b" x1="103.3845" y1="151.6063" x2="115.6956" y2="151.6063"/><line class="b" x1="86.0234" y1="145.5303" x2="109.5401" y2="145.5303"/><line class="b" x1="312.2281" y1="71.8547" x2="329.5393" y2="71.8547"/><line class="b" x1="328.4243" y1="77.9276" x2="340.7355" y2="77.9276"/><line class="b" x1="667.5309" y1="206.1633" x2="683.116" y2="206.1633"/><line class="b" x1="687.8782" y1="206.1633" x2="695.4983" y2="206.1633"/><line class="b" x1="306.6873" y1="120.8588" x2="318.9985" y2="120.8588"/><line class="c" x1="108.5192" y1="185.4953" x2="108.5192" y2="190.4522"/><line class="c" x1="110.9977" y1="187.9738" x2="106.0407" y2="187.9738"/><line class="c" x1="519.5715" y1="106.9143" x2="519.5715" y2="111.8713"/><line class="c" x1="522.05" y1="109.3928" x2="517.093" y2="109.3928"/><line class="c" x1="351.6748" y1="102.7336" x2="351.6748" y2="107.6905"/><line class="c" x1="354.1533" y1="105.2121" x2="349.1964" y2="105.2121"/><line class="c" x1="695.4983" y1="316.5872" x2="695.4983" y2="321.5441"/><line class="c" x1="697.9767" y1="319.0657" x2="693.0198" y2="319.0657"/><rect class="d" x="272.1618" y="69.2762" width="205.6763" height="308.457" transform="translate(598.5046 -151.4953) rotate(90)"/><rect class="e" x="230.7712" y="130.6667" width="288.4576" height="185.6763"/><path class="d" d="M332.5151,223.5931a42.4849,42.4849,0,1,1,76.8237,25.0162h0c-6.0644,9.1383-21.8217,19.4557-21.8217,25.6371v7.0618a2.5523,2.5523,0,0,1-2.5523,2.5523h-19.93a2.5523,2.5523,0,0,1-2.5524-2.5523v-7.0618c0-6.1814-15.7574-16.4988-21.8215-25.6371h0A42.29,42.29,0,0,1,332.5151,223.5931Z"/><path class="f" d="M379.8244,283.1565a278.0424,278.0424,0,0,1,.5553-33.0655,47.8134,47.8134,0,0,1-10.7592,0,277.9559,277.9559,0,0,1,.5549,33.0655l-.7491-.035a284.8112,284.8112,0,0,0-.5959-33.1322c-12.6009-1.7523-18.2409-8.8906-19.2536-15.6278-.592-3.9375.7528-7.8564,3.1976-9.3183a6.42,6.42,0,0,1,5.1823-.5191c3.0008.8609,5.8528,3.4466,7.6292,6.9168,2.0508,4.0076,3.2634,10.6617,3.9626,17.8854a46.8274,46.8274,0,0,0,10.9029,0c.6993-7.2237,1.9121-13.8778,3.9631-17.8854,1.7762-3.47,4.6282-6.0559,7.629-6.9168a6.4225,6.4225,0,0,1,5.1825.5191c2.4444,1.4619,3.7893,5.3808,3.1972,9.3183-1.0127,6.7372-6.6531,13.8755-19.2538,15.6278a284.7387,284.7387,0,0,0-.5957,33.1322Zm14.3207-58.1914a6.8728,6.8728,0,0,0-1.8946.28c-2.8052.8047-5.4849,3.2486-7.1684,6.5375-1.9726,3.8543-3.1516,10.3455-3.84,17.4381,12.0708-1.74,17.4739-8.5454,18.44-14.9706.54-3.5907-.6814-7.2719-2.8405-8.5632A5.1887,5.1887,0,0,0,394.1451,224.9651Zm-38.29,0a5.188,5.188,0,0,0-2.6958.7218c-2.1591,1.2913-3.38,4.9725-2.8407,8.5632.9658,6.4252,6.3685,13.2305,18.4394,14.9706-.6885-7.0926-1.8671-13.584-3.84-17.4381-1.6835-3.2889-4.3632-5.7328-7.1681-6.5375A6.8733,6.8733,0,0,0,355.8549,224.9651Z"/><path class="a" d="M410.4118,226.0307a2.4377,2.4377,0,0,1-2.4377-2.4376A32.9307,32.9307,0,0,0,383.12,191.6257a2.4376,2.4376,0,1,1,1.1963-4.7262,37.8014,37.8014,0,0,1,28.5331,36.6936A2.4376,2.4376,0,0,1,410.4118,226.0307Z"/><circle class="a" cx="376.6189" cy="188.1146" r="2.4375"/><path class="d" d="M388.5211,277.2618H361.479V290.15a11.0882,11.0882,0,0,0,1.7267,5.9425h0a11.6219,11.6219,0,0,0,9.8122,5.3936h3.9644a11.6219,11.6219,0,0,0,9.8122-5.3936h0a11.09,11.09,0,0,0,1.7266-5.9425Z"/><path class="d" d="M387.4434,297.6906a1.6647,1.6647,0,0,1-.2339-.0042l-25.6324-2.209a1.5885,1.5885,0,0,1-1.44-1.8279A1.7961,1.7961,0,0,1,362.04,292.11l25.6326,2.2091a1.5881,1.5881,0,0,1,1.44,1.8278A1.8027,1.8027,0,0,1,387.4434,297.6906Z"/><path class="d" d="M388.5235,286.1873a1.6827,1.6827,0,0,1-.2341-.0041l-27.0421-2.33a1.5883,1.5883,0,0,1-1.44-1.8278,1.7959,1.7959,0,0,1,1.9032-1.5394l27.0425,2.33a1.5881,1.5881,0,0,1,1.44,1.8278A1.8024,1.8024,0,0,1,388.5235,286.1873Z"/><path class="d" d="M388.5235,292.086a1.6676,1.6676,0,0,1-.2341-.0042l-27.0421-2.33a1.5882,1.5882,0,0,1-1.44-1.8278,1.7972,1.7972,0,0,1,1.9032-1.5394l27.0425,2.33a1.5881,1.5881,0,0,1,1.44,1.8277A1.8023,1.8023,0,0,1,388.5235,292.086Z"/><line class="e" x1="375.0765" y1="159.9247" x2="375.0765" y2="174.5734"/><line class="e" x1="420.3055" y1="178.7225" x2="409.9473" y2="189.0807"/><line class="e" x1="329.8027" y1="178.6143" x2="340.1609" y2="188.9725"/><line class="e" x1="350.5808" y1="164.7667" x2="356.1866" y2="178.3004"/><line class="e" x1="399.5606" y1="164.8253" x2="393.9548" y2="178.3589"/><line class="e" x1="434.1531" y1="199.5006" x2="420.6194" y2="205.1064"/><line class="e" x1="315.9055" y1="199.3592" x2="329.4391" y2="204.965"/><rect class="g" x="246.7908" y="176.334" width="18.7895" height="15.135"/><line class="h" x1="274.2139" y1="176.334" x2="287.2034" y2="176.334"/><line class="h" x1="274.2139" y1="191.469" x2="300.4832" y2="191.469"/><line class="h" x1="274.2139" y1="186.5994" x2="300.4832" y2="186.5994"/><line class="h" x1="274.2139" y1="181.8563" x2="300.4832" y2="181.8563"/><rect class="g" x="246.7908" y="206.4665" width="18.7895" height="15.135"/><line class="h" x1="274.2139" y1="206.4665" x2="287.2034" y2="206.4665"/><line class="h" x1="274.2139" y1="221.6015" x2="300.4832" y2="221.6015"/><line class="h" x1="274.2139" y1="216.7319" x2="300.4832" y2="216.7319"/><line class="h" x1="274.2139" y1="211.9888" x2="300.4832" y2="211.9888"/><rect class="g" x="246.7908" y="236.5989" width="18.7895" height="15.135"/><line class="h" x1="274.2139" y1="236.5989" x2="287.2034" y2="236.5989"/><line class="h" x1="274.2139" y1="251.7339" x2="300.4832" y2="251.7339"/><line class="h" x1="274.2139" y1="246.8643" x2="300.4832" y2="246.8643"/><line class="h" x1="274.2139" y1="242.1213" x2="300.4832" y2="242.1213"/><rect class="g" x="246.7908" y="266.7314" width="18.7895" height="15.135"/><line class="h" x1="274.2139" y1="266.7314" x2="287.2034" y2="266.7314"/><line class="h" x1="274.2139" y1="281.8664" x2="300.4832" y2="281.8664"/><line class="h" x1="274.2139" y1="276.9968" x2="300.4832" y2="276.9968"/><line class="h" x1="274.2139" y1="272.2538" x2="300.4832" y2="272.2538"/><rect class="g" x="449.5168" y="176.334" width="18.7895" height="15.135"/><line class="h" x1="476.9398" y1="176.334" x2="489.9294" y2="176.334"/><line class="h" x1="476.9398" y1="191.469" x2="503.2092" y2="191.469"/><line class="h" x1="476.9398" y1="186.5994" x2="503.2092" y2="186.5994"/><line class="h" x1="476.9398" y1="181.8563" x2="503.2092" y2="181.8563"/><rect class="g" x="449.5168" y="206.4665" width="18.7895" height="15.135"/><line class="h" x1="476.9398" y1="206.4665" x2="489.9294" y2="206.4665"/><line class="h" x1="476.9398" y1="221.6015" x2="503.2092" y2="221.6015"/><line class="h" x1="476.9398" y1="216.7319" x2="503.2092" y2="216.7319"/><line class="h" x1="476.9398" y1="211.9888" x2="503.2092" y2="211.9888"/><rect class="g" x="449.5168" y="236.5989" width="18.7895" height="15.135"/><line class="h" x1="476.9398" y1="236.5989" x2="489.9294" y2="236.5989"/><line class="h" x1="476.9398" y1="251.7339" x2="503.2092" y2="251.7339"/><line class="h" x1="476.9398" y1="246.8643" x2="503.2092" y2="246.8643"/><line class="h" x1="476.9398" y1="242.1213" x2="503.2092" y2="242.1213"/><rect class="g" x="449.5168" y="266.7314" width="18.7895" height="15.135"/><line class="h" x1="476.9398" y1="266.7314" x2="489.9294" y2="266.7314"/><line class="h" x1="476.9398" y1="281.8664" x2="503.2092" y2="281.8664"/><line class="h" x1="476.9398" y1="276.9968" x2="503.2092" y2="276.9968"/><line class="h" x1="476.9398" y1="272.2538" x2="503.2092" y2="272.2538"/><line class="e" x1="501.9263" y1="120.6665" x2="501.9263" y2="85.08"/><circle class="e" cx="501.9263" cy="82.2441" r="2.8359"/><line class="e" x1="248.0737" y1="120.6665" x2="248.0737" y2="85.08"/><circle class="e" cx="248.0737" cy="82.2441" r="2.8359"/><line class="i" x1="333.2014" y1="140.2791" x2="416.7986" y2="140.2791"/><line class="i" x1="309.1815" y1="149.3793" x2="440.8185" y2="149.3793"/><path class="j" d="M589.2983,385.1043c-5.8292-16.2016-20.2289-51.1864-7.0525-101.8054,22.8689,28.2731,24.3327,69.1088,21.9863,105.9752"/><path class="b" d="M582.2458,283.2989s4.9352,64.4382,13.9457,105.1116"/><path class="b" d="M582.2458,283.2989s-5.2988,46.0111,9.7776,104.2857"/><path class="b" d="M598.8726,387.89s-6.71-80.7948-16.6268-104.5912"/><path class="b" d="M601.3661,388.0013s.938-76.0211-19.12-104.7024"/><path class="j" d="M577.489,392.8406c-8.7052-11.5406-29.2905-36.203-25.5318-76.7191,27.7133,18.3352,36.6083,49.3024,41.0211,77.7806"/><path class="b" d="M551.9572,316.1215s9.4766,48.3973,29.0316,76.6262"/><path class="b" d="M584.7236,393.9021s-24.6512-66.8324-32.7664-77.7806"/><path class="b" d="M589.3381,393.9021s-14.7211-60.1786-37.3809-77.7806"/><path class="j" d="M617.7205,384.2722c7.4448-16.7319,25.55-52.7846,13.6683-106.3934-27.2065,28.6592-31.1609,71.3931-30.6243,110.1291"/><path class="b" d="M631.3888,277.8788s-9.179,67.3222-21.5733,109.5656"/><path class="b" d="M631.3888,277.8788s3.3236,48.4451-16.86,108.877"/><path class="b" d="M606.8434,386.7851s12.0934-84.3886,24.5454-108.9063"/><path class="b" d="M604.0454,386.7958s3.26-79.7106,27.3434-108.917"/><path class="j" d="M622.3207,404.5021c9.11-13.361,30.3645-41.7528,31.4336-91.4487-26.9791,20.1-38.3963,57.127-45.5025,91.4844"/><path class="b" d="M653.7543,313.0534s-13.8576,58.228-34.5759,91.0512"/><path class="b" d="M615.6873,405.2084s29.5533-79.468,38.067-92.155"/><path class="b" d="M611.5307,404.8335s19.8771-72.1636,42.2236-91.78"/><path class="k" d="M637.71,384.17v15.314c0,33.9033-13.8057,55.7219-13.8057,55.7219h-42.75s-13.8056-21.8186-13.8056-55.7219V384.17Z"/><path class="j" d="M79.2289,383.8231c-5.1411-22.7673-18.0682-71.86-2.5129-144.1889C98.4768,278.8813,98.11,336.77,94.0837,389.171"/><path class="b" d="M76.716,239.6342s2.0653,91.2471,9.3074,148.6178"/><path class="b" d="M76.716,239.6342s-7.4124,65.49,5.1461,147.6046"/><path class="b" d="M88.7475,387.4113S85.6322,273.0226,76.716,239.6342"/><path class="b" d="M91.2542,387.4742s4.3732-107.9065-14.5382-147.84"/><path class="j" d="M68.3209,392.5876c-8.7053-14.291-29.2906-44.831-25.5318-95.0031C70.5024,320.29,79.3973,358.6368,83.81,393.9021"/><path class="b" d="M42.7891,297.5845s9.4766,59.9315,29.0316,94.8881"/><path class="b" d="M75.5555,393.9021s-24.6512-82.76-32.7664-96.3176"/><path class="b" d="M80.17,393.9021s-14.7212-74.5206-37.3809-96.3176"/><path class="j" d="M109.9512,383.54c7.0263-20.0337,24.1393-63.1917,12.48-127.543C96.5742,290.2454,93.03,341.4814,93.7579,387.9428"/><path class="b" d="M122.4313,255.9967s-8.404,80.7025-20.0215,131.3116"/><path class="b" d="M122.4313,255.9967s3.4468,58.119-15.5183,130.5072"/><path class="b" d="M99.564,386.5039S110.66,285.3457,122.4313,255.9967"/><path class="b" d="M96.8886,386.5039s2.6754-95.5879,25.5427-130.5072"/><path class="j" d="M115.1525,404.5021c9.11-13.361,30.3645-41.7528,31.4337-91.4487-26.9792,20.1-38.3964,57.127-45.5026,91.4844"/><path class="b" d="M146.5862,313.0534s-13.8576,58.228-34.5759,91.0512"/><path class="b" d="M108.5192,405.2084s29.5533-79.468,38.067-92.155"/><path class="b" d="M104.3626,404.8335s19.8771-72.1636,42.2236-91.78"/><path class="k" d="M130.5419,384.17v15.314c0,33.9033-13.8057,55.7219-13.8057,55.7219H73.9867s-13.8056-21.8186-13.8056-55.7219V384.17Z"/><path class="j" d="M472.29,404.8928c-3.4937-11.79-12.5218-37.4766,2.2628-70.38,16.8163,23.9716,14.4669,50.2253,9.6353,75.0979"/><path class="b" d="M474.5526,334.5125s-5.71,31.1207,2.0338,72.79"/><path class="b" d="M477.6478,407.6187s3.1458-55.6192-3.0952-73.1062"/><path class="b" d="M479.6807,408.007s9.0307-51.4022-5.1281-73.4945"/><path class="j" d="M460.6536,412.71c-7.0156-6.2712-23.311-19.3014-25.3784-47.7475,20.2726,7.3627,29.5889,26.9,35.68,45.5726"/><path class="b" d="M435.2752,364.9624s7.1027,23.9731,28.6115,48.1906"/><path class="b" d="M467.2812,411.3705s-23.7055-34.3393-32.006-46.4081"/><path class="b" d="M468.8811,410.7216s-16.3957-34.5077-33.6059-45.7592"/><path class="j" d="M467.3159,405.6816c-5.5658-8.19-21.8112-32.8378-16.8457-59.0049,18.7553,14.0575,26.2985,41.9408,27.8456,60.8647"/><path class="b" d="M450.47,346.6767s6.9769,39.3061,19.35,59.208"/><path class="b" d="M472.4218,406.92s-16.7737-52.4842-21.9516-60.2429"/><path class="b" d="M475.7166,407.2672s-10.0581-47.3923-25.2464-60.5905"/><path class="j" d="M494.1262,405.2186c4.7618-10.6095,16.36-33.4653,8.4579-67.5448-17.5238,18.1376-19.9258,45.2714-19.4325,69.8766"/><path class="b" d="M502.5841,337.6738s-8.2815,39.4353-14.4677,68.7721"/><path class="b" d="M502.5841,337.6738s1.8827,30.779-10.97,69.1147"/><path class="b" d="M485.2733,406.7885s3.5785-46.23,17.3108-69.1147"/><path class="j" d="M494.6512,416.32c6.1742-7.0758,22.0335-24.7382,23.3032-48.43-18.2843,10.6445-26.022,30.2536-30.838,48.4487"/><path class="b" d="M517.9544,367.89s-11.3533,30.0006-25.3945,47.3833"/><path class="b" d="M489.1565,415.2735s17.0815-35.9788,28.7979-47.3833"/><path class="k" d="M508.4773,403.2564v11.1994c0,24.7941-12.0433,40.75-12.0433,40.75H459.1417s-12.0431-15.9564-12.0431-40.75V403.2564Z"/><line class="e" x1="47.198" y1="455.8382" x2="702.802" y2="455.8382"/><path class="l" d="M652.8385,207.8052l1.3931,11.9422a16.5733,16.5733,0,0,1-11.2065,4.8188c-6.7464,0-6.7464-4.4976-6.7464-4.4976l1.285-10.28,10.3725-10.8851,4.9023,8.902"/><path class="m" d="M634.2429,199.9074c-.027-.4321-.5558-.6634-.9848-.605a1.9427,1.9427,0,0,0-1.3984,1.096,4.2429,4.2429,0,0,0-.37,1.7959,3.41,3.41,0,0,0,.282,1.6758,2.0866,2.0866,0,0,0,2.6184.905"/><path class="l" d="M634.7726,191.7978s-3.5651,13.5961-1.6063,16.3842c2.9341,4.1763,9.9135,4.4976,12.8551,2.57,2.4673-1.6168,4.4929-10.28,4.4929-12.5291C650.5143,192.119,637.9852,188.5852,634.7726,191.7978Z"/><path class="n" d="M654.9883,202.0384a12.76,12.76,0,0,1,.3935-1.3453c.3825-1.0657.9672-2.0074,1.3852-3.0551a5.434,5.434,0,0,0-1.6259-6.0982,9.1317,9.1317,0,0,1-.9363-.7511,7.6808,7.6808,0,0,1-1.2059-2.3958,3.342,3.342,0,0,0-1.3785-1.6695c-1.4908-.7945-3.4759.2827-4.9659-.5131a6.9886,6.9886,0,0,1-.8874-.6423c-2.1369-1.6159-4.5615-1.2393-6.891-.3973a7.337,7.337,0,0,0-2.3547,1.53c-.991.7713-2.3633.7194-3.36,1.4747a4.388,4.388,0,0,0-1.32,3.56,3.2228,3.2228,0,0,0,.22,1.3972,2.6232,2.6232,0,0,0,1.3409,1.1942,8.5627,8.5627,0,0,0,4.2535.2669c1.3837-.1044,2.9909-1.0792,4.3444-.5738,1.32.4929,1.6576,2.1123,3.2831,2.2385.6408.05,1.42-.0673,1.8026.4489.4321.5829.2045,1.5415.546,2.2163a15.9249,15.9249,0,0,0,1.2986,1.7964c.8213,1.1659,1.9856,1.9661,1.5693,3.4871-.2894,1.0574-1.4647,2.7556-.98,3.8762.32.7382,1.9452.7259,3.175-.21,1.2669-.9637,1.6441-2.8011,1.9542-4.2648C654.7622,203.0725,654.8648,202.5529,654.9883,202.0384Z"/><path class="o" d="M637.35,211.4973s4.6806.9228,7.905-.8076a8.2708,8.2708,0,0,0,3.4588-4.5264"/><path class="l" d="M647.1263,201.7218a2.6062,2.6062,0,0,1,1.83-1.094,2.3,2.3,0,0,1,1.4217.813c1.7848,2.0084-.1579,5.8414-2.8934,5.4177-1.0041-.1555-.73-1.4841-.73-1.4841"/><path class="p" d="M637.0587,198.9032s-2.08,3.2016-1.8834,4.0922,2.3156.9952,2.3156.9952"/><path class="q" d="M635.17,205.0871l5.7823.8069a3.71,3.71,0,0,1-4.2465,2.3235C634.4625,207.7461,635.17,205.0871,635.17,205.0871Z"/><path class="n" d="M634.7384,197.824c-.0352.0828-.0734.1652-.1056.2491-.0241.063-.0442.1279-.0662.1916a3.8372,3.8372,0,0,0-.1206.3787.4159.4159,0,0,0,.04.304.3946.3946,0,0,0,.54.1416.4276.4276,0,0,0,.1813-.2358,3.78,3.78,0,0,0,.09-.3792c.0273-.1283.0509-.2553.0694-.3851a.2611.2611,0,0,0,.0061-.1371.2566.2566,0,0,0-.0408-.1278.3558.3558,0,0,0-.1644-.1406.3374.3374,0,0,0-.4292.1406Z"/><path class="r" d="M636.56,196.5348a1.5049,1.5049,0,0,0-2.17-.2557"/><path class="n" d="M641.2865,199.4433c-.0441.1228-.0824.2456-.1179.3711a3.7586,3.7586,0,0,0-.0966.3769.3.3,0,0,0-.007.1573.2942.2942,0,0,0,.0468.1467.3946.3946,0,0,0,.54.1416.4075.4075,0,0,0,.1813-.2358,3.87,3.87,0,0,0,.07-.392c.0243-.1579.0455-.3152.0589-.4744a.343.343,0,0,0-.1007-.2431.3535.3535,0,0,0-.1974-.0945.3282.3282,0,0,0-.2192.0408.3846.3846,0,0,0-.158.2054Z"/><path class="r" d="M641.0049,197.198s1.414-.484,2.8829,1.1865"/><path class="l" d="M632.0132,415.959l-2.7486,27.5855.2324,8.6761L595.48,452.047a1.5042,1.5042,0,0,1-1.4959-1.5118h0a1.5044,1.5044,0,0,1,.971-1.3986l14.6708-6.7461,1.4076-28.7024"/><path class="s" d="M592.4959,451.6807a4.6264,4.6264,0,0,1,1.6293-2.59l15.5557-6.6995c8.5744,3.4755,19.6731.819,19.6731.819l1.98,11.7118a.702.702,0,0,1-.7056.6982H592.7564C591.9946,455.6159,592.485,451.7151,592.4959,451.6807Z"/><path class="t" d="M606.3141,443.0614a18.3514,18.3514,0,0,1,2.193,3.6825"/><path class="t" d="M604.3555,444.2323a16.131,16.131,0,0,1,1.8029,3.1313"/><path class="t" d="M602.7,445.087a22.9483,22.9483,0,0,1,1.69,2.8733"/><line class="t" x1="631.1337" y1="453.0917" x2="592.3359" y2="452.8929"/><path class="t" d="M630.0561,447.3636s-9.1143.1849-9.8983,5.676"/><path class="t" d="M597.3134,447.7173a29.4919,29.4919,0,0,1,3.0085,5.2178"/><path class="u" d="M616.0983,297.4963c-5.8474,42.0106-11.0869,141.2513-11.0869,141.2513H634.299s6.0406-62.0394,11.1714-106.92c12.8882-21.3271,11.8853-44.4274,13.3389-47.4965"/><path class="v" d="M630.299,438.7476s7.2411-68.5242,12.372-113.4046"/><path class="l" d="M679.0577,415.959l1.2513,27.5855.2325,8.6761-34.0169-.1736a1.5042,1.5042,0,0,1-1.4959-1.5118h0a1.5044,1.5044,0,0,1,.971-1.3986l14.6708-6.7461-2.5924-28.7024"/><path class="s" d="M643.54,451.6807a4.6269,4.6269,0,0,1,1.6292-2.59l15.5558-6.6995c8.5743,3.4755,19.6731.819,19.6731.819l1.98,11.7118a.702.702,0,0,1-.7056.6982H643.8008C643.039,455.6159,643.53,451.7151,643.54,451.6807Z"/><path class="t" d="M657.3586,443.0614a18.3514,18.3514,0,0,1,2.193,3.6825"/><path class="t" d="M655.4,444.2323a16.13,16.13,0,0,1,1.8028,3.1313"/><path class="t" d="M653.7446,445.087a22.949,22.949,0,0,1,1.6905,2.8733"/><line class="t" x1="682.1782" y1="453.0917" x2="643.3804" y2="452.8929"/><path class="t" d="M681.1006,447.3636s-9.1144.1849-9.8983,5.676"/><path class="t" d="M648.3579,447.7173a29.4983,29.4983,0,0,1,3.0085,5.2178"/><path class="u" d="M678.16,293.6071a164.0545,164.0545,0,0,1-.7286,32.83c2.5,50.5841,5.9586,112.3108,5.9586,112.3108H654.11s-14.1018-112.0257-14.76-145.98"/><path class="v" d="M673.16,293.6071a164.0545,164.0545,0,0,1-.7286,32.83c2.5,50.5841,5.9586,112.3108,5.9586,112.3108"/><path class="v" d="M643.6824,347.8041s-4.0658-35.1317-4.4186-48.0264"/><line class="v" x1="683.0676" y1="432.9543" x2="653.3898" y2="432.9543"/><line class="v" x1="634.876" y1="432.8712" x2="605.3909" y2="432.8712"/><path class="v" d="M673.4862,313.9431s-8.4172.6549-13.0643-11.2772"/><path class="v" d="M640.56,313.95s-2.9352-.8347-3.21-1.7523-1.0714-11.7879-1.0714-11.7879"/><path class="v" d="M625.5333,302.6659A12.6748,12.6748,0,0,1,614.12,313.95"/><path class="l" d="M585.8572,237.6373s-13.9157-14.7255-14.7723-14.59,1.0344,2.8647.31,2.8448-5.0948-6.0816-5.9142-5.718c-1.1107.4932,3.0081,5.8476,3.0081,5.8476s-1.09-.9744-1.93-.2679c-.5949.5005.2285,2.1879.2285,2.1879s-1.0857-.5215-1.6922.0108c-.6016.5283.1657,1.974.1657,1.974s-1.1149-1.1332-1.7323-.0671c-.5781.9979,3.507,9.3743,10.1775,18.3542"/><path class="w" d="M636.61,217.4181c-6.9676.6264-14.4827,4.0171-19.0889,9.9655-7.7551,10.0147-17.5907,22.6908-17.5907,22.6908l-16.1234-16.48-15.1776,12.6466s21.0126,29.6323,31.4313,29.7016c9.3672.0624,25.1889-13.3786,29.7739-20.6166C639.0582,240.7651,636.61,217.4181,636.61,217.4181Z"/><path class="x" d="M653.784,215.96s-1.94,2.8585-9.79,3.6672c-5.9323.6112-7.3841-2.2087-7.3841-2.2087s-14.3226,7.63-18.5712,39.2347-4.663,48.1495-4.663,48.1495h67.2467s.2263-24.0418-1.7409-44.7116C676.8591,238.84,672.3943,220.88,653.784,215.96Z"/><path class="y" d="M572.3568,227.2444a35.519,35.519,0,0,0,1.89,5.6138"/><path class="z" d="M563.979,231.8352c.5835.67,1.1866,1.3237,1.8263,1.9361a10.8225,10.8225,0,0,0,.9978.8649,3.3251,3.3251,0,0,0,.54.3441c.1842.1173.3884.1149.4417.0543a.8323.8323,0,0,0-.0333-.53,4.9712,4.9712,0,0,0-.2264-.6034c-.1775-.3981-.384-.7873-.6005-1.1709-.4325-.7675-.9157-1.5122-1.3983-2.2479l.3528-.2435c.5884.8,1.2072,1.5882,1.8631,2.3308a11.1036,11.1036,0,0,0,1.034,1.0444,2.2923,2.2923,0,0,0,.5548.3745.243.243,0,0,0,.1339.0292c-.02.0271.0216-.0382.0117-.1406a9.8878,9.8878,0,0,0-.9871-2.7071c-.4333-.895-.9039-1.7792-1.395-2.6444l.3808-.2333c.55.8567,1.143,1.6942,1.7561,2.5058a12.2164,12.2164,0,0,0,.9816,1.1547,2.9862,2.9862,0,0,0,.5569.46.4173.4173,0,0,0,.2459.0707c.0357-.0012.0665-.05.0776-.1632a4.3754,4.3754,0,0,0-.3393-1.4287q-.2609-.7174-.5709-1.4227c-.4109-.939-.8585-1.8642-1.33-2.7768.522.8851,1.021,1.7844,1.486,2.7036a8.5139,8.5139,0,0,1,1.0566,2.9469.4509.4509,0,0,1-.2941.4442.6876.6876,0,0,1-.4877-.0862,3.2724,3.2724,0,0,1-.6458-.4956,12.5719,12.5719,0,0,1-1.05-1.1588c-.6569-.8032-1.2435-1.65-1.818-2.5122l.3808-.2333c.5076.873.9887,1.7547,1.4385,2.66.224.4525.4385.9109.6327,1.3828a4.7212,4.7212,0,0,1,.4158,1.5343.6226.6226,0,0,1-.2271.542.614.614,0,0,1-.5878.018,2.6823,2.6823,0,0,1-.6861-.4629,11.5373,11.5373,0,0,1-1.07-1.1013c-.6633-.7672-1.2757-1.5642-1.8664-2.3849l.3528-.2435c.4915.75.9359,1.5226,1.3568,2.3137.2078.3968.406.8.5775,1.2188a5.2615,5.2615,0,0,1,.2207.6508.9923.9923,0,0,1-.0291.7666.6165.6165,0,0,1-.78.0131,3.11,3.11,0,0,1-.5631-.3979,10.985,10.985,0,0,1-.9654-.935C565.0909,233.2236,564.5246,232.5367,563.979,231.8352Z"/><path class="w" d="M636.61,217.4181c-13.7838,26.4882-14.7007,91.7546-14.7007,91.7546H611.3657s.4917-42.3086,8.4612-69.9022c3.3859-11.7236,12.0835-21.0166,16.7831-21.8524"/><path class="aa" d="M614.0144,270.3005s2.3429-25.6066,6.9342-34.3525"/><path class="aa" d="M626.65,253.1243l-2.1058-20.2661,3.5339-1.9017-3.5339-2.2189s3.0757-5.9259,5.7544-10.0141"/><path class="w" d="M653.5305,215.9545c-8.2753,17.8289-.9386,93.2182-.9386,93.2182h32.0137s-1.5155-27.618-2.8415-38.3383-10.04-45.1025-10.04-45.1025Z"/><path class="ab" d="M673.5663,287.3451l-30.8968.4334.0265,1.89,32.6273-.4576h0A1.8157,1.8157,0,0,0,673.5663,287.3451Z"/><path class="ab" d="M605.046,290.1967l43.4092-.6089-8.7087-29.0148a3.3182,3.3182,0,0,0-3.1589-2.4674l-39.2461.55a1.394,1.394,0,0,0-1.2079,1.8475Z"/><path class="ac" d="M603.096,290.224l43.4093-.6089L637.7964,260.6a3.318,3.318,0,0,0-3.1588-2.4673l-39.2461.55a1.3939,1.3939,0,0,0-1.2079,1.8474Z"/><path class="ab" d="M615.6869,274.6987a3.4113,3.4113,0,0,0,3.4036,2.4142c1.6062-.0225,2.6867-1.14,2.4133-2.4958a3.4112,3.4112,0,0,0-3.4036-2.4142C616.4939,272.2254,615.4134,273.3428,615.6869,274.6987Z"/><path class="l" d="M665.1532,254.0184s8.488,14.8743,7.9922,18.3085c-.374,2.5907-23.5112,8.5308-23.5112,8.5308l1.0447,14.5706s38.709-3.2894,43.2068-11.053c6.1566-10.6266-10.8919-38.1347-10.8919-38.1347"/><path class="l" d="M654.1267,279.982c-3.1745.5578-19.8877,3.95-19.688,4.7956.1928.814,5.1.655,4.954,1.1185-.2076.6581-3.8393,1.5385-5.92,1.8442-1.8561.2728-4.7922,1.0146-4.7784,1.8375.0268,1.5656,10.1921-.06,10.1921-.06s-11.2578-.296-11.37,1.016c-.1632,1.8912,11.7633,1.7568,12.1826,2.17,0,0-10.3733-2.7543-10.4939-1.3547s9.0811,4.0891,11.9238,3.8913c-2.3625-.2763-9.5715-3.7858-9.6258-2.4963s6.1873,3.1093,7.1862,3.185a57.1827,57.1827,0,0,0,15.645-1.1594"/><path class="z" d="M629.8346,290.1806a34.0756,34.0756,0,0,1,3.9808-.4425c1.3305-.0709,2.657-.1153,4.0025-.0624a15.8724,15.8724,0,0,1-1.9775.3709c-.6629.0963-1.3293.1447-1.9955.19A25.3928,25.3928,0,0,1,629.8346,290.1806Z"/><path class="z" d="M631.0337,291.9215c2.9215-.0134,5.7665.3063,8.6676.4254a10.7788,10.7788,0,0,1-2.1731.2674,20.3985,20.3985,0,0,1-2.1844-.033A23.6216,23.6216,0,0,1,631.0337,291.9215Z"/><path class="z" d="M632.8881,293.5829c1.3047.0252,2.5831.1728,3.8609.3253,1.2774.168,2.5416.3523,3.8252.576a11.48,11.48,0,0,1-1.95.0763c-.65-.0123-1.2951-.0816-1.9383-.1566A21.0587,21.0587,0,0,1,632.8881,293.5829Z"/><path class="w" d="M653.5305,215.9545c9.0443,1.4636,20.2883,4.2847,24.86,10.2462,7.0135,9.1465,25.7284,47.4367,18.7982,56.8259-5.8929,7.9839-38.5919,14.0333-38.5919,14.0333l-8.8123-18.032,22.3514-8.338L658.23,240.3567"/><polyline class="ad" points="649.784 279.028 672.135 270.69 660.927 246.241"/><line class="ad" x1="658.5964" y1="297.0599" x2="683.3901" y2="291.0105"/><line class="ad" x1="652.6787" y1="277.9481" x2="661.97" y2="296.2368"/><path class="aa" d="M649.6342,254c1.4322-9.4022,7.485-17.0614,7.485-17.0614l-3.7425-4.08,5.22-1.9017s2.4151-9.9664,4.146-13.0605"/><path class="l" d="M555.4758,241.21s5.195,11.8042,6.5356,20.6491-10.9485,33.8165-10.9485,33.8165l-10.522-6.1787s3.2044-18.6131,3.2044-25.2386-6.0329-15.8424-6.0329-15.8424"/><path class="l" d="M541.06,288.1021c-1.3522,4.0927-7.2157,15.3074-6.615,15.954s2.7156-3.2716,3.11-2.6488-2.4511,6.8712-1.6784,7.3565c1.0473.658,3.6189-5.8971,3.6189-5.8971s-2.4587,7.32-1.3852,7.6278c.7608.218,2.8936-5.2823,3.9726-7.2822-.8933,2.3156-1.896,6.24-1.102,6.45.7877.2078,2.32-3.5056,3.6453-6.2885-.6648,1.8143-1.6969,5.18-.9721,5.4084.7226.2276,5.0782-8.5436,8.8535-16.9622"/><path class="l" d="M534.0052,340.7609c-1.2743,29.616,6.875,103.7212,6.875,103.7212l-9.1493,5.8248s28.1449,1.3081,28.9623.4849-1.0316-6.4638-1.0316-6.4638.8182-87.5381,1.6351-100.5026S535.2794,311.145,534.0052,340.7609Z"/><path class="s" d="M553.6882,450.7205l6.744-3.6818-.53-1.9336-8.7541,5.6247-2.77.01-9.76-4.8183-10.5953,6.6324a1.4354,1.4354,0,0,0,.7667,2.6521l14.2413-.0515,4.5449-3.1619,1.2906-.0048.0111,3.1451,12.2745-.0337-.0161-4.395Z"/><path class="l" d="M496.4415,345.8165c-2.0329,41.6172-1.2822,98.6236-1.2822,98.6236l-9.1289,5.8565s28.1493,1.2209,28.9638.3949-1.0541-6.46-1.0541-6.46,7.8238-72.2458,10.6347-99.2643S498.4744,304.1993,496.4415,345.8165Z"/><path class="s" d="M507.989,450.6341l6.7311-3.6948-.5363-1.9318-8.7344,5.6447-2.77.02-9.7764-4.7844-10.5723,6.6692a1.4354,1.4354,0,0,0,.776,2.6494l14.2411-.101,4.5338-3.1777,1.2906-.0092.022,3.145,12.2744-.0658-.0313-4.395Z"/><path class="ae" d="M547.414,277.8788c2.4193,1.6734,7.8438,9.365,10.09,16.9325,5.2785,17.7861,5.3578,57.0972,5.3578,57.0972H494.9786s.3987-37.7746,3.0372-54.2326a51.3939,51.3939,0,0,1,7.6293-19.7278"/><path class="af" d="M509.4516,277.3892c-2.0355,1.7144-5.4585,8.0851-6.4275,15.3034-3.274,24.3878-2.5826,59.2159-2.5826,59.2159"/><path class="ag" d="M530.85,216.3414c20.3095,1.2905,27.03,26.66,27.03,26.66l-14.3462,9.9037"/><line class="af" x1="549.6663" y1="244.5046" x2="556.7914" y2="239.7415"/><path class="l" d="M493.8782,228.5082s-15.1531,11.6812-17.5807,11.736c-2.51.0566-22.0617-18.1763-22.0617-18.1763l-10.2827,11.9967s20.6208,28.1136,31.6769,28.1136c14.6771,0,30.2965-16.1065,30.2965-16.1065"/><path class="ag" d="M515.8943,216.3845s2.3489,1.7872,6.8985,1.2527a65.3518,65.3518,0,0,0,8.2171-1.51c.0445.1157,18.3186,8.4885,18.9031,19.062.6523,11.7985.6125,18.81-2.4652,42.7586H505.6452s-6.4977-29.31-6.4977-40.5343S515.8943,216.3845,515.8943,216.3845Z"/><path class="ag" d="M515.8943,216.3845a24.405,24.405,0,0,0-11.5438,2.7422,81.2438,81.2438,0,0,0-16.8532,13.378L499.6682,254l12.7835-9.0419"/><path class="af" d="M550.25,248.2683a73.8344,73.8344,0,0,0-1.2017-16.6476"/><line class="af" x1="490.5737" y1="229.4821" x2="503.0241" y2="252.149"/><line class="af" x1="500.9474" y1="253.6227" x2="511.6401" y2="246.035"/><path class="l" d="M461.7054,228.846s-17.29-15.9822-18.36-15.6095,1.9936,3.4457,1.0572,3.5879-7.8015-7.1209-8.7718-6.4634c-1.3147.8915,4.6069,6.9089,4.6069,6.9089s-1.565-1.0581-2.4817.0451c-.6493.7815,1.1942,3.2123,1.1942,3.2123s-1.8008-1.1949-2.4576-.37c-.6516.8188.9534,3.2759.9534,3.2759s-1.2807-.9472-1.7056-.0691c-.6768,1.3988,7.8729,11.3877,15.819,20.1776"/><path class="l" d="M529.98,205.5965l1.5521,11.6343s-7.577,7.8067-15.6373-.8463l-.4514-6.5247Z"/><path class="l" d="M517.27,190.3752s-10.94,12.3728-6.939,17.4842c2.0794,2.6569,11.0511,5.913,14.2851,3.8926,2.4-1.4993,6.91-11.9736,5.8845-14.019C526.5851,189.9168,517.27,190.3752,517.27,190.3752Z"/><path class="s" d="M517.7632,192.618c-.679,7.2047,1.45,10.8727,1.45,10.8727s-4.763,15.0711-3.7224,16.5078,16.4483,3.6686,23.9483.4642c0,0,1.191-22.7676-5.6918-28.5478-6.5468-5.498-15.0156-5.0039-19.6374-2.131a3.7269,3.7269,0,0,0,2.0782,2.0984c.8186.36,1.7367.7674,1.7367.7674"/><path class="l" d="M517.7317,201.66c1.3361-1.6936,2.4177-1.4244,3.0081-.4944.7874,1.24-.7914,3.8181-1.5268,4.2584-1.49.8915-2.6964.7979-2.8109-.4123"/><path class="ah" d="M515.49,210.98a2.2214,2.2214,0,0,0,2.0812-1.3216"/><path class="ai" d="M514.3934,197.3716c-.458.3815-.8872,1.0737-.6344,1.5822a.355.355,0,0,0,.3675.1973C515.1545,199.05,515.35,196.5748,514.3934,197.3716Z"/><path class="aj" d="M514.5218,195.4886a3.8049,3.8049,0,0,1,2.0608,1.62"/><path class="q" d="M513.1692,202.9716l-2.252-1.2045s-1.4789,2.7664-.43,3.35C511.6455,205.7628,513.1692,202.9716,513.1692,202.9716Z"/><path class="s" d="M529.9106,189.7735a2.2861,2.2861,0,0,1-1.6115-2.25,2.894,2.894,0,0,1,1.5614-2.3868,3.9761,3.9761,0,0,1,2.9068-.2458,3.1249,3.1249,0,0,1,1.03.4746c1.246.9217,1.2139,2.9141.3308,4.1877a2.621,2.621,0,0,1-1.4805,1.1228,1.4618,1.4618,0,0,1-1.6306-.6654"/><path class="ak" d="M373.861,422.3038c-18.5655-5.61-30.859-11.9578-41.0062-22.0631-10.7819-10.7373-14.5958-21.1717-17.5191-35.7792-4.0747-20.3608-8.4944-52.8423-30.5335-60.6143-20.49-7.2258-38.7324,9.0664-49.1814,25.7859-13.4321,21.4927-17.498,43.01-17.52,68.2642-.0179,20.4364,5.2394,57.9409,69.8468,57.9409h76.7688C407.1375,455.8382,400.53,430.362,373.861,422.3038Z"/><path class="a" d="M368.1452,420.9315c-3.8034-7.8063-19.9455-5.462-37.3675-23.7179-10.09-10.5728-14.2845-19.7083-17.1454-33.4666-2.42-11.6356-11.48-50.5111-27.5907-52.0414-6.49-.6164-13.124.1983-18.8365,3.3346-7.9241,4.3507-14.0809,11.4641-18.4385,19.377s-7.0328,16.6352-9.2039,25.4017c-3.0141,12.1706-5.1208,20.7829-3.5918,33.2269,2.5962,21.1288,15.866,39.7718,36.5117,44.712,20.8094,4.9792,39.6127,3.2555,64.23,3.0257C346.1293,440.6956,376.0037,437.06,368.1452,420.9315Z"/><path class="al" d="M260.7559,319.11a60.0326,60.0326,0,0,0-10.6731,12.2514,86.814,86.814,0,0,0-8.2622,15.8149,101.196,101.196,0,0,0-5.3622,17.98,95.7555,95.7555,0,0,0-1.9211,18.7014,76.08,76.08,0,0,0,2.0674,18.1063,54.9225,54.9225,0,0,0,6.54,15.955,44.1186,44.1186,0,0,0,11.5541,12.4722c6.0657,4.3922,13.29,7.03,20.5072,8.8241a126.5473,126.5473,0,0,0,27.5251,3.3053c4.6711.1113,9.3431.0173,14.0117-.1562,4.5359-.1686,9.0779-.3724,13.6-.7613,2.1164-.182,4.2487-.37,6.3689-.49.4159-.0235.4186-.6736,0-.65-4.3737.2469-8.7646.3161-13.1422.5055-4.5477.1968-9.0975.332-13.65.357a157.4538,157.4538,0,0,1-27.6284-1.8939c-7.9965-1.3794-16.1569-3.6066-23.2365-7.6738a41.9577,41.9577,0,0,1-12.6086-11.1356,50.63,50.63,0,0,1-7.6291-15.0119,69.5341,69.5341,0,0,1-3.097-17.4382,91.4111,91.4111,0,0,1,.9071-18.41,101.7408,101.7408,0,0,1,4.4251-18.106,91.0264,91.0264,0,0,1,7.4521-16.3724,66.768,66.768,0,0,1,9.9158-13.1887q1.3209-1.3411,2.7372-2.583c.2765-.2423-.1262-.6389-.4022-.4022Z"/><path class="am" d="M376.0189,424.9813l26.1755,19.5144,4.9185,7.5513,28.1085-19.16a1.5041,1.5041,0,0,0,.3951-2.09h0a1.5041,1.5041,0,0,0-1.5869-.6169l-15.9355,2.6075-25.9492-21.4176"/><path class="an" d="M437.4909,430.9153a4.626,4.626,0,0,0-2.7989-1.237l-16.6433,3.1408c-5.1666,7.675-15.8543,11.6766-15.8543,11.6766L407.1,455.3134a.7021.7021,0,0,0,.9755.1845l31.4018-21.1708C440.1064,433.8979,437.5192,430.9377,437.4909,430.9153Z"/><path class="ao" d="M421.2152,431.493a18.3517,18.3517,0,0,0,.24,4.2793"/><path class="ao" d="M423.4937,431.369a16.1222,16.1222,0,0,0,.2556,3.6041"/><path class="ao" d="M425.344,431.1523a22.9658,22.9658,0,0,0,.2046,3.3275"/><line class="ao" x1="406.2429" y1="453.6842" x2="438.3012" y2="431.831"/><path class="ao" d="M403.9342,448.3323s7.6607-4.9417,11.38-.827"/><path class="ao" d="M431.2809,430.322a29.4907,29.4907,0,0,0,.4223,6.0082"/><path class="am" d="M338.1732,415.959,349.3651,443.21l-.1431,9.0107,34.017-.1736a1.504,1.504,0,0,0,1.4958-1.5118h0a1.5042,1.5042,0,0,0-.9709-1.3986l-14.6708-6.7461-9.94-28.7024"/><path class="an" d="M386.2232,451.6807a4.627,4.627,0,0,0-1.6293-2.59l-15.5557-6.6995c-8.5744,3.4755-19.6731.819-19.6731.819l-1.98,11.7118a.7021.7021,0,0,0,.7057.6982h37.8718C386.7245,455.6159,386.2341,451.7151,386.2232,451.6807Z"/><path class="ao" d="M372.405,443.0614a18.3518,18.3518,0,0,0-2.1931,3.6825"/><path class="ao" d="M374.3636,444.2323a16.1258,16.1258,0,0,0-1.8029,3.1313"/><path class="ao" d="M376.0189,445.087a22.9483,22.9483,0,0,0-1.69,2.8733"/><line class="ao" x1="347.5854" y1="453.0917" x2="386.3831" y2="452.8929"/><path class="ao" d="M348.6629,447.3636s9.1144.1849,9.8984,5.676"/><path class="ao" d="M381.4057,447.7173a29.4919,29.4919,0,0,0-3.0085,5.2178"/><path class="am" d="M289.6424,301.6426s7.4134,11.6921,4.25,16.7307c-1.6446,2.6187-7.8249,4.3865-10.9642,2.8506-2.33-1.14-7.432-10.2625-6.6912-12.224C279.0673,301.5036,289.6424,301.6426,289.6424,301.6426Z"/><path class="am" d="M275.653,318.0584l-.7011,9.06s5.7673,14.4054,16.1987,1.4272l-.4615-9.9984Z"/><path class="ap" d="M272.4694,315.3463c-1.0729-2.6067-1.9707-3.9637-2.4175-7.1464a3.8,3.8,0,0,1,2.2434-4.296s-.4621.3755.9992-2.5089c1.38-2.7238,6.01-2.6015,8.796-3.0468,3.6584-.5849,9.0707-3.8365,11.2336-2.394.9428.6286.94,6.2786-2.04,7.9387-1.7032.9489-4.5.4126-6.4676.7237-3.6684.58-4.5227,1.3535-4.9727,3.6938-.25,1.2984-2.6645,1.0642-1.2971,3.7288a4.2116,4.2116,0,0,1,.3319,1.0936l-1.457,1.0434c-1.8568,1.2586,2.1858,4.5061,1.8855,6.065-.1576.8168-1.8,1.1692-3.2517.5009S273.6361,318.1813,272.4694,315.3463Z"/><path class="am" d="M278.359,314.3217c-1.6519-1.6991-2.8034-1.2822-3.3433-.1989-.72,1.4445,1.298,4.0823,2.1516,4.48,1.7293.8052,3.0368.5662,3.025-.7691"/><path class="aq" d="M290.8166,321.2c-5.5891,1.2419-8.4737-.3817-8.4737-.3817"/><path class="ar" d="M288.9283,308.6621s2.677,2.8945,2.6328,3.8354-2.1825,1.418-2.1825,1.418"/><path class="q" d="M292.6062,314.2811l-5.7437,1.8329a3.8317,3.8317,0,0,0,4.7285,1.6218C293.7913,316.8635,292.6062,314.2811,292.6062,314.2811Z"/><path class="n" d="M290.4978,307.4777c.042.1289.0889.2542.1395.38.0615.1532.1186.3089.195.4553a.3946.3946,0,0,0,.7211-.0942l.0141-.1049a.3922.3922,0,0,0-.0538-.1991c-.0524-.1235-.12-.2391-.1842-.3567s-.1311-.2322-.2034-.3454a.346.346,0,0,0-.4292-.1406.3418.3418,0,0,0-.1991.4055Z"/><path class="r" d="M289.0213,306.1645a1.5539,1.5539,0,0,1,2.1639-.64"/><path class="n" d="M284.0671,310.194c.0347.1319.0746.26.1182.39l.0638.19c.0315.0938.07.1842.11.2744a.3917.3917,0,0,0,.2358.1813.4086.4086,0,0,0,.2569-.02.3774.3774,0,0,0,.1887-.1615.3907.3907,0,0,0,.04-.304,4.8749,4.8749,0,0,0-.2-.4534c-.0584-.1229-.1189-.2427-.1855-.3613a.3443.3443,0,0,0-.6283.2649Z"/><path class="r" d="M284.6136,307.6172s-1.5237-.2451-2.7264,1.712"/><path class="am" d="M317.9783,346.8641s8.88,17.1337,11.4608,17.4637c3.1154.3984,27.6869-17.7624,27.6869-17.7624l9.9231,12.0206s-22.9983,27.9179-38.4745,27.9179-29.86-27.9249-29.86-27.9249"/><path class="an" d="M274.9519,327.1184s2.2518,4.059,8.876,3.7588c5.0508-.2289,7.3227-2.3316,7.3227-2.3316s15.12,3.9357,18.0715,23.8409c2.7491,18.5423,6.2023,50.2211,6.2023,50.2211l-57.4258,3.8576a327.5476,327.5476,0,0,1,.7173-45.0389C260.3,343.3138,274.9519,327.1184,274.9519,327.1184Z"/><path class="ab" d="M273.6037,389.7184l30.8968.4334-.0265,1.89-32.6274-.4576h0A1.8159,1.8159,0,0,1,273.6037,389.7184Z"/><path class="ab" d="M342.124,392.57l-43.4093-.6089,8.7088-29.0148a3.3181,3.3181,0,0,1,3.1589-2.4674l39.2461.55a1.3939,1.3939,0,0,1,1.2078,1.8475Z"/><path class="ac" d="M344.0739,392.5973l-43.4092-.6089,8.7089-29.0148a3.3179,3.3179,0,0,1,3.1587-2.4673l39.2462.55a1.3939,1.3939,0,0,1,1.2079,1.8474Z"/><path class="ab" d="M331.4831,375.2559A3.4113,3.4113,0,0,1,328.08,377.67c-1.6063-.0226-2.6867-1.14-2.4133-2.4958A3.4112,3.4112,0,0,1,329.07,372.76C330.6761,372.7826,331.7566,373.9,331.4831,375.2559Z"/><path class="an" d="M291.1506,328.5456c5.7144-.3839,13.0618,1.0468,17.11,3.6759,10.7324,6.9711,15.2353,21.8978,15.2353,21.8978l-14.7914,3.7632"/><path class="am" d="M269.8244,361.0219s-4.3419,15.2487-3.3387,18.57c.7567,2.5058,22.6921,5.65,22.6921,5.65l1.1431,14.5632s-38.7661,2.5286-44.3729-4.4761c-7.6746-9.588,1.0559-38.7268,1.0559-38.7268"/><path class="am" d="M284.605,385.0475c3.2221.0775,20.2545.9353,20.1834,1.8014-.0692.8337-4.9453,1.4095-4.7314,1.8459.3035.62,4.026.9479,6.1292.9393,1.8761-.0074,4.89.2875,4.9993,1.1033.2074,1.5519-10.0867,1.4628-10.0867,1.4628s11.0873-1.9741,11.3945-.6936c.4438,1.8457-11.369,3.494-11.722,3.965,0,0,9.8457-4.2726,10.174-2.9068s-8.3686,5.4-11.2089,5.6285c2.2947-.626,8.8987-5.1729,9.145-3.9059s-5.6536,3.9984-6.63,4.2225a57.1859,57.1859,0,0,1-15.6427,1.19"/><path class="as" d="M310.1477,391.5037a25.4039,25.4039,0,0,1-3.9569.6547c-.6655.0544-1.3316.1059-2.0015.11a15.8738,15.8738,0,0,1-2.0107-.0714c1.3225-.2532,2.6407-.4075,3.9668-.5361A34.08,34.08,0,0,1,310.1477,391.5037Z"/><path class="as" d="M309.2221,393.4042a23.6326,23.6326,0,0,1-4.1633,1.2962,20.4163,20.4163,0,0,1-2.1549.3589,10.7822,10.7822,0,0,1-2.1887.06C303.566,394.5684,306.3313,393.8274,309.2221,393.4042Z"/><path class="as" d="M307.6366,395.3239a21.0515,21.0515,0,0,1-3.6328,1.379c-.6248.17-1.2519.3351-1.8931.4444a11.4811,11.4811,0,0,1-1.9393.2157c1.2358-.4129,2.4583-.7839,3.6962-1.1409C305.1083,395.8806,306.35,395.5437,307.6366,395.3239Z"/><path class="an" d="M274.9519,327.1184s-11.6178.78-16.0388,4.1086c-11.8341,8.9086-14.5458,26.3353-14.5458,26.3353l25.9555,6.7655,4.6639-14.327"/><path class="ao" d="M269.2731,364.3984a75.4471,75.4471,0,0,1,3.55-12.0119"/><path class="ao" d="M310.0524,357.4423a98.6517,98.6517,0,0,0-4.2793-16.0472"/><line class="ao" x1="245.2853" y1="353.5153" x2="270.099" y2="360.8454"/><line class="ao" x1="322.1905" y1="350.6057" x2="309.3611" y2="354.0553"/><path class="ao" d="M272.4747,327.3593s3.1094,6.0832,12.1814,5.4738,9.4547-4.3386,9.4547-4.3386"/><path class="am" d="M350.5594,351.5969s17.1354-13.31,17.9965-13.0392-1.5043,2.7908-.7556,2.8814,6.1782-5.48,6.966-4.98c1.068.6782-4.5169,5.9907-4.5169,5.9907s6.493-5.4555,7.2491-4.5993c.5357.6065-5.8337,6.6978-5.8337,6.6978s6.44-4.7026,6.9824-4.0616c.5384.6362-5.1505,6.0469-5.1505,6.0469s4.4676-3.922,5.1865-3.2642-8.7766,12.8-17.0214,21.0225"/><path class="aq" d="M366.5891,342.1837a36.9711,36.9711,0,0,1-2.8074,5.49"/><path class="aq" d="M365.8779,349.1257c1.8273-1.8657,4.2557-2.1922,6.5364-2.0856"/><path class="at" d="M283.0809,428.6s-1.55,9.2945,7.8934,8.66c22.9572-1.5422,59.5522-28.8941,59.5522-28.8941l44.4762,34.4255,18.2955-19.5174s-30.1079-25.1289-38.96-31.92c-3.6917-2.8323-11.335-9.2387-19.8987-8.6635s-57.0062,19.4474-57.0062,19.4474"/><path class="au" d="M290.6391,432.2714c19.7949-1.33,49.66-22.8719,57.5864-27.6822a3.3683,3.3683,0,0,1,3.8141.2188l45.3628,35.4236"/><path class="av" d="M259.9918,406.3327s-3.8557,33.9931,24.4411,32.0922c19.9447-1.34,45.0061-29.7262,45.0061-29.7262l15.401,34.8485,26.1938-7.7634s-12.8824-32.3535-17.3-43.3386c-3.759-9.3485-10.5451-16.6939-17.3136-17.5786s-13.9128,2.21-22.3632,7.111c-6.8152,3.9524-28.03,22.6061-28.03,22.6061"/><path class="aw" d="M267.492,405.8288s-1.68,28.0989,18.563,26.7391c12.1326-.815,35.98-24.9119,42.737-30.7423a1.7618,1.7618,0,0,1,2.7639.6293l17.5065,39.8409"/><path class="aw" d="M267.7229,412.8494s8.03-.9882,8.65-7.6172"/><line class="aw" x1="342.7004" y1="438.7059" x2="369.0419" y2="430.7829"/><line class="au" x1="390.7446" y1="439.4957" x2="409.106" y2="419.7827"/><path class="m" d="M171.3356,199.9074c.027-.4321.5558-.6634.9848-.605a1.9427,1.9427,0,0,1,1.3984,1.096,4.2429,4.2429,0,0,1,.37,1.7959,3.41,3.41,0,0,1-.282,1.6758,2.0866,2.0866,0,0,1-2.6184.905"/><path class="l" d="M170.8059,191.7978s3.5651,13.5961,1.6063,16.3842c-2.9341,4.1763-9.9135,4.4976-12.8551,2.57-2.4673-1.6168-4.4929-10.28-4.4929-12.5291C155.0642,192.119,167.5933,188.5852,170.8059,191.7978Z"/><path class="l" d="M152.74,207.8052l-1.3931,11.9422a16.5733,16.5733,0,0,0,11.2065,4.8188c6.7464,0,6.7464-4.4976,6.7464-4.4976l-1.285-10.28-10.3724-10.8851-4.9024,8.902"/><path class="ax" d="M159.0183,197.83q-.02-1.1721-.0519-2.3438a6.9935,6.9935,0,0,0-.2354-1.8623,39.18,39.18,0,0,0,10.1454.6813,6.3977,6.3977,0,0,0,3.1126-.7851c.8244-.5335.6515-8.3151-9.2476-8.691a10.7626,10.7626,0,0,0-5.5266.8746c-1.6694.8917-4.23,2.6048-4.2723,4.4968-2.4268.8139-5.0168,5.622-3.6129,10.7127.7894,2.8624,1.3063,5.8179,3.41,6.8918,2.6767-1.0919,4.5048-4.099,4.97-4.7486A9.3037,9.3037,0,0,0,159.0183,197.83Z"/><path class="o" d="M168.2284,211.4973s-4.6806.9228-7.905-.8076a8.2708,8.2708,0,0,1-3.4588-4.5264"/><path class="l" d="M158.4522,201.7218a2.6062,2.6062,0,0,0-1.83-1.094,2.3,2.3,0,0,0-1.4217.813c-1.7848,2.0084.1579,5.8414,2.8934,5.4177,1.0041-.1555.73-1.4841.73-1.4841"/><path class="p" d="M168.52,198.9032s2.08,3.2016,1.8834,4.0922-2.3156.9952-2.3156.9952"/><path class="q" d="M170.4088,205.0871l-5.7823.8069a3.71,3.71,0,0,0,4.2465,2.3235C171.116,207.7461,170.4088,205.0871,170.4088,205.0871Z"/><path class="n" d="M170.2118,198.0889c.0185.13.0421.2569.0694.3851a3.78,3.78,0,0,0,.09.3792.4156.4156,0,0,0,.1813.2358.3946.3946,0,0,0,.5795-.4456,3.8366,3.8366,0,0,0-.12-.3787c-.0212-.0614-.0412-.1235-.0638-.1845-.0321-.0865-.0719-.1712-.108-.2562a.34.34,0,0,0-.2054-.158.3557.3557,0,0,0-.2238.0174.3274.3274,0,0,0-.1644.1406l-.0347.0821a.3478.3478,0,0,0,0,.1828Z"/><path class="r" d="M169.0183,196.5348a1.5049,1.5049,0,0,1,2.17-.2557"/><path class="n" d="M163.6168,199.5347c.0133.1592.0345.3165.0588.4744a3.87,3.87,0,0,0,.07.392.3946.3946,0,0,0,.4853.2755.3991.3991,0,0,0,.2358-.1813l.04-.0942a.3973.3973,0,0,0,0-.21,3.7312,3.7312,0,0,0-.0965-.3769c-.0355-.1255-.0738-.2483-.1179-.3711a.361.361,0,0,0-.158-.2054.3541.3541,0,0,0-.2192-.0408.327.327,0,0,0-.1974.0945.3374.3374,0,0,0-.1006.2431Z"/><path class="r" d="M164.5736,197.198s-1.414-.484-2.8829,1.1865"/><path class="l" d="M173.5653,415.959l2.7487,27.5855-.2325,8.6761,34.017-.1736a1.5042,1.5042,0,0,0,1.4958-1.5118h0a1.5044,1.5044,0,0,0-.971-1.3986l-14.6708-6.7461-1.4076-28.7024"/><path class="s" d="M213.0826,451.6807a4.6269,4.6269,0,0,0-1.6292-2.59l-15.5558-6.6995c-8.5743,3.4755-19.6731.819-19.6731.819l-1.98,11.7118a.702.702,0,0,0,.7056.6982h37.8719C213.584,455.6159,213.0935,451.7151,213.0826,451.6807Z"/><path class="t" d="M199.2644,443.0614a18.3514,18.3514,0,0,0-2.193,3.6825"/><path class="t" d="M201.223,444.2323a16.13,16.13,0,0,0-1.8028,3.1313"/><path class="t" d="M202.8784,445.087a22.949,22.949,0,0,0-1.69,2.8733"/><line class="t" x1="174.4448" y1="453.0917" x2="213.2426" y2="452.8929"/><path class="t" d="M175.5224,447.3636s9.1144.1849,9.8984,5.676"/><path class="t" d="M208.2651,447.7173a29.4983,29.4983,0,0,0-3.0085,5.2178"/><path class="ag" d="M189.48,297.4963c5.8474,42.0106,11.0869,141.2513,11.0869,141.2513H171.28s-6.0405-62.0394-11.1714-106.92c-12.8882-21.3271-11.8853-44.4274-13.3389-47.4965"/><path class="af" d="M175.28,438.7476s-7.2411-68.5242-12.3719-113.4046"/><path class="l" d="M126.5208,415.959,125.27,443.5445l-.2325,8.6761,34.017-.1736a1.5042,1.5042,0,0,0,1.4958-1.5118h0a1.5044,1.5044,0,0,0-.971-1.3986l-14.6707-6.7461L147.5,413.6881"/><path class="s" d="M162.0381,451.6807a4.6269,4.6269,0,0,0-1.6292-2.59l-15.5558-6.6995c-8.5743,3.4755-19.673.819-19.673.819l-1.98,11.7118a.7021.7021,0,0,0,.7057.6982h37.8718C162.54,455.6159,162.049,451.7151,162.0381,451.6807Z"/><path class="t" d="M148.22,443.0614a18.3514,18.3514,0,0,0-2.193,3.6825"/><path class="t" d="M150.1785,444.2323a16.13,16.13,0,0,0-1.8028,3.1313"/><path class="t" d="M151.8339,445.087a22.949,22.949,0,0,0-1.69,2.8733"/><line class="t" x1="123.4003" y1="453.0917" x2="162.1981" y2="452.8929"/><path class="t" d="M124.4779,447.3636s9.1144.1849,9.8984,5.676"/><path class="t" d="M157.2206,447.7173a29.4983,29.4983,0,0,0-3.0085,5.2178"/><path class="ag" d="M127.4184,293.6071a164.0545,164.0545,0,0,0,.7286,32.83c-2.5,50.5841-5.9586,112.3108-5.9586,112.3108h29.28s14.1018-112.0257,14.76-145.98"/><path class="af" d="M132.4184,293.6071a164.0545,164.0545,0,0,0,.7286,32.83c-2.5,50.5841-5.9586,112.3108-5.9586,112.3108"/><path class="af" d="M161.8961,347.8041s4.0658-35.1317,4.4186-48.0264"/><line class="af" x1="122.5109" y1="432.9543" x2="152.1887" y2="432.9543"/><line class="af" x1="170.7025" y1="432.8712" x2="200.1876" y2="432.8712"/><path class="af" d="M132.0923,313.9431s8.4172.6549,13.0643-11.2772"/><path class="af" d="M165.0189,313.95s2.9352-.8347,3.2095-1.7523S169.3,300.4093,169.3,300.4093"/><path class="af" d="M180.0452,302.6659A12.6749,12.6749,0,0,0,191.4581,313.95"/><path class="l" d="M196.5231,241.1672s6.7911,9.524,8.9769,9.9541,21.1116-20.7019,21.1116-20.7019l11.5285,8.8991S220.98,274,204.868,274.9293C190.9635,275.7314,177.5,254,177.5,254"/><path class="x" d="M151.7945,215.96s1.94,2.8585,9.79,3.6672c5.9323.6112,7.3841-2.2087,7.3841-2.2087s14.3226,7.63,18.5712,39.2347,4.663,48.1495,4.663,48.1495H124.956s-.2262-24.0418,1.7409-44.7116C128.7194,238.84,133.1842,220.88,151.7945,215.96Z"/><polygon class="a" points="173.641 311.007 142.689 305.05 141.689 304.05 152.769 258.173 185.72 266.131 186.72 267.131 173.641 311.007"/><polygon class="ay" points="173.641 311.007 142.689 305.05 141.689 304.05 152.769 258.173 153.769 259.173 173.641 311.007"/><rect class="az" x="147.7554" y="262.4924" width="33.8987" height="47.1956" transform="translate(71.7621 -30.6698) rotate(13.5769)"/><path class="q" d="M175.955,313.95l-32.9513-7.9577s7.0858-29.9037,8.3365-34.52c0,0,2.1155-5.26,6.0257-7.2175a14.9409,14.9409,0,0,1,7.6535-1.4982l22.0148,5.3166Z"/><line class="ba" x1="172.7348" y1="309.0402" x2="148.125" y2="303.3557"/><line class="ba" x1="173.4035" y1="306.3564" x2="148.7936" y2="300.6719"/><line class="ba" x1="174.0721" y1="303.6726" x2="149.4623" y2="297.9881"/><line class="ba" x1="174.7408" y1="300.9889" x2="150.131" y2="295.3043"/><line class="ba" x1="175.4095" y1="298.3051" x2="150.7996" y2="292.6206"/><line class="ba" x1="176.0781" y1="295.6213" x2="151.4683" y2="289.9368"/><line class="ba" x1="176.7468" y1="292.9375" x2="152.137" y2="287.253"/><line class="ba" x1="177.4155" y1="290.2537" x2="152.8056" y2="284.5692"/><line class="ba" x1="178.0842" y1="287.5699" x2="153.4743" y2="281.8854"/><line class="ba" x1="178.7528" y1="284.8861" x2="154.143" y2="279.2016"/><line class="ba" x1="179.4215" y1="282.2024" x2="154.8116" y2="276.5178"/><line class="ba" x1="180.0902" y1="279.5186" x2="155.4803" y2="273.8341"/><line class="ba" x1="180.7588" y1="276.8348" x2="156.149" y2="271.1503"/><line class="ba" x1="181.4275" y1="274.151" x2="156.8177" y2="268.4665"/><line class="ba" x1="177.5384" y1="269.0315" x2="164.1132" y2="265.9998"/><path class="a" d="M157.3659,264.2545c-3.91,1.957-6.0257,7.2175-6.0257,7.2175s4.9232-5.0053,9.773-4.6649c.0851-2.5526,3.9062-4.0508,3.9062-4.0508A14.9409,14.9409,0,0,0,157.3659,264.2545Z"/><path class="x" d="M168.9685,217.4181c6.9676.6264,14.6692,3.2821,18.6766,8.3138a164.2915,164.2915,0,0,1,13.922,21.03l-18.8838,13.3285Z"/><path class="bb" d="M187.6451,256.4426c-1.1131-8.8538-3.5288-20.1913-3.5288-20.1913"/><line class="bb" x1="187.0306" y1="252.0887" x2="199.7827" y2="243.2581"/><path class="l" d="M136.529,258.3678s-6.5705,14.4292-6.0748,17.8634c.3741,2.5907,21.5938,8.9759,21.5938,8.9759l-1.0447,14.5706s-38.7089-3.2894-43.2067-11.053c-6.1566-10.6266,6.8278-38.1347,6.8278-38.1347"/><path class="l" d="M147.5556,284.3314c3.1745.5578,19.8877,3.95,19.688,4.7956-.1929.814-5.1.6551-4.954,1.1185.2075.6581,3.8393,1.5385,5.92,1.8442,1.8562.2728,4.7923,1.0146,4.7784,1.8376-.0267,1.5655-10.192-.06-10.192-.06s11.2577-.296,11.37,1.016c.1632,1.8912-11.7633,1.7568-12.1827,2.17,0,0,10.3734-2.7543,10.4939-1.3547s-9.0811,4.0891-11.9237,3.8913c2.3624-.2762,9.5715-3.7858,9.6257-2.4962s-6.1873,3.1092-7.1861,3.1849a57.1827,57.1827,0,0,1-15.645-1.1594"/><path class="z" d="M171.8476,294.53a25.4035,25.4035,0,0,1-4.01.0563c-.6662-.0456-1.3326-.0941-1.9955-.19a15.8724,15.8724,0,0,1-1.9775-.3709c1.3454-.0529,2.6719-.0085,4.0024.0624A34.0756,34.0756,0,0,1,171.8476,294.53Z"/><path class="z" d="M170.6486,296.2709a23.63,23.63,0,0,1-4.31.66,20.4246,20.4246,0,0,1-2.1844.033,10.7781,10.7781,0,0,1-2.1731-.2675C164.8821,296.5773,167.727,296.2576,170.6486,296.2709Z"/><path class="z" d="M168.7941,297.9323a21.052,21.052,0,0,1-3.798.821c-.6432.0749-1.2879.1443-1.9383.1566a11.4687,11.4687,0,0,1-1.95-.0763c1.2836-.2237,2.5478-.408,3.8252-.576C166.211,298.1051,167.4894,297.9575,168.7941,297.9323Z"/><path class="x" d="M152.048,215.9545c-7.9289-.1271-15.6586,1.358-20.6073,5.0343-9.2523,6.8734-18.0948,29.6012-18.0948,29.6012l25.6984,9.9477,11.1913-21.7758"/><line class="bb" x1="137.2612" y1="260.0907" x2="145.9217" y2="245.0825"/><line class="bb" x1="139.7044" y1="255.8568" x2="115.5988" y2="245.8391"/><path class="bb" d="M148.626,215.9739a16.927,16.927,0,0,0,13.0647,5.6883c8.7173,0,9.6591-3.9516,9.6591-3.9516"/><path class="l" d="M221.7715,235.9992s12.6271-15.8443,13.492-15.7813-.79,2.9416-.07,2.8609,4.565-6.4889,5.4121-6.1955c1.1483.398-2.5053,6.08-2.5053,6.08s1.0041-1.0626,1.9-.4293c.6349.4487-.0436,2.1993-.0436,2.1993s1.0379-.6109,1.6871-.1316c.644.4758.001,1.981.001,1.981s1.0156-1.2231,1.7205-.2127c.66.9457-2.7056,9.6362-8.5968,19.1455"/><path class="y" d="M234.3494,224.5071a35.523,35.523,0,0,1-1.4114,5.7529"/><path class="z" d="M243.0838,228.3765c-.4847.7449-.9911,1.477-1.5432,2.1778a10.9785,10.9785,0,0,1-.8833,1.0129,3.104,3.104,0,0,1-.5276.4439.6166.6166,0,0,1-.7789.0527.9923.9923,0,0,1-.0935-.7614,5.2583,5.2583,0,0,1,.1652-.667c.1356-.4321.2992-.85.4728-1.2631.3529-.8237.7307-1.631,1.1574-2.42l.3719.213c-.5195.8675-1.0626,1.7132-1.659,2.5335a11.543,11.543,0,0,1-.973,1.1875,2.6872,2.6872,0,0,1-.6447.519.6149.6149,0,0,1-.5873.0316.6232.6232,0,0,1-.272-.5211,4.7229,4.7229,0,0,1,.2852-1.5638c.1538-.4865.329-.9613.5141-1.4312.3721-.9394.7773-1.8584,1.21-2.771l.3991.2c-.5.9072-1.0132,1.8006-1.6,2.6563a12.5623,12.5623,0,0,1-.9492,1.243,3.27,3.27,0,0,1-.6019.5482.6878.6878,0,0,1-.4787.127.4511.4511,0,0,1-.33-.418,8.5166,8.5166,0,0,1,.8049-3.0254c.3861-.955.8076-1.8931,1.2533-2.819-.3932.9491-.7613,1.9086-1.0917,2.8789-.1654.4849-.3162.9744-.4492,1.4657a4.3749,4.3749,0,0,0-.2179,1.4521c.02.1115.0554.158.091.1562a.4173.4173,0,0,0,.239-.0911,2.99,2.99,0,0,0,.5163-.5053,12.22,12.22,0,0,0,.881-1.2332c.5426-.86,1.0627-1.7447,1.539-2.6446l.3991.2c-.4165.9034-.8111,1.8241-1.1675,2.7524a9.8869,9.8869,0,0,0-.7558,2.7805c-.0012.1029.0461.1644.0235.1392a.2457.2457,0,0,0,.131-.0405,2.2922,2.2922,0,0,0,.5213-.42,11.1051,11.1051,0,0,0,.9424-1.1277c.5911-.7952,1.1413-1.6325,1.66-2.4794l.372.213c-.4189.7737-.8377,1.5564-1.2041,2.3576-.1834.4-.3564.8056-.5,1.2172a4.957,4.957,0,0,0-.1748.62.8322.8322,0,0,0,.0114.53c.0581.0559.2619.0411.4356-.0913a3.332,3.332,0,0,0,.509-.3884,10.8258,10.8258,0,0,0,.9214-.9458C242.0128,229.7954,242.5588,229.0932,243.0838,228.3765Z"/></svg>