<?xml version="1.0" encoding="utf-8"?>
<!-- Generator: Adobe Illustrator 24.3.0, SVG Export Plug-In . SVG Version: 6.00 Build 0)  -->
<svg version="1.1" id="Capa_1" xmlns="http://www.w3.org/2000/svg" xmlns:xlink="http://www.w3.org/1999/xlink" x="0px" y="0px"
	 viewBox="0 0 512 512" style="enable-background:new 0 0 512 512;" xml:space="preserve">
<style type="text/css">
	.st0{fill:#0052CC;}
</style>
<g>
	<g>
		<path class="st0" d="M495.7,20.9C481.5,6.7,460.2,1.2,441,6.6l-66.2,18.7c-21.5,6.1-41.2,17.7-57,33.4l-0.2,0.2
			c-3.9,3.9-3.9,10.2,0,14.1s10.2,3.9,14.1,0l0.2-0.2c13.4-13.4,30.1-23.2,48.3-28.4l66.2-18.7c12.4-3.5,26,0.1,35.1,9.1
			c9.2,9.2,12.7,22.6,9.1,35.1l-18.7,66.2c-5.2,18.2-15,35-28.4,48.4l-179,179l-30.3-30.3l50.5-50.5c13.9-13.9,13.9-37.2,0-51.2
			c-14.1-14.1-37.1-14.1-51.2,0L183,282l-30.2-30l117.1-117.1c3.9-3.9,3.9-10.2,0-14.1s-10.2-3.9-14.1,0l-44.5,44.5l-71.6-10
			c-27.4-3.8-55.4,5.6-75,25.1l-31.8,31.8c-3.8,3.8-3.8,10.3,0,14.1L65.5,259c10.7,10.7,25,16.6,40.2,16.6c11.8,0,23-3.6,32.5-10.2
			l30.9,30.9l-26,26c-3.9,3.9-3.9,10.2,0,14.1l37,37c3.8,3.8,10.3,3.8,14.1,0l26-26l30.9,30.9c-6.6,9.5-10.2,20.7-10.2,32.5
			c0,15.2,5.9,29.4,16.6,40.2l32.6,32.6c3.8,3.8,10.3,3.8,14.1,0l31.8-31.8c19.6-19.6,29-47.6,25.1-75l-10-71.6l106.4-106.4
			c15.8-15.8,27.4-35.5,33.5-57.1l18.7-66.2C515.4,56.1,509.9,35.1,495.7,20.9L495.7,20.9z M79.6,244.9l-25.5-25.5l24.8-24.8
			c15.2-15.2,36.9-22.4,58.1-19.5l56.6,7.9l-61.9,61.9c-6.9,6.9-16.2,10.8-26,10.8S86.5,251.8,79.6,244.9L79.6,244.9z M187,352.3
			l-22.9-22.9l25.9-25.9c0,0,0.1,0,0.1-0.1l57.6-57.6c6.3-6.3,16.6-6.3,22.9,0c6.2,6.2,6.2,16.7,0,22.9L187,352.3z M341.4,379.6
			c3,21.2-4.3,42.9-19.5,58.1l-24.8,24.8L271.6,437c-6.9-6.9-10.8-16.2-10.8-26s3.8-19,10.7-26l0,0l61.9-61.9L341.4,379.6z"/>
		<path class="st0" d="M369.8,191.6c12,0,23.3-4.7,31.7-13.1c17.5-17.5,17.5-46,0-63.5c-17.3-17.3-46.2-17.3-63.5,0
			s-17.3,46.2,0,63.5C346.5,187,357.8,191.6,369.8,191.6z M352.2,129.1c9.6-9.6,25.6-9.6,35.2,0c9.7,9.7,9.7,25.5,0,35.2
			c-9.6,9.6-25.6,9.6-35.2,0S342.6,138.7,352.2,129.1z"/>
		<path class="st0" d="M103.1,325.8c3.9-3.9,3.9-10.2,0-14.1s-10.2-3.9-14.1,0l-86,86c-3.9,3.9-3.9,10.2,0,14.1s10.3,3.9,14.1,0
			L103.1,325.8z"/>
		<path class="st0" d="M127.1,392.3c-3.9-3.9-10.2-3.9-14.1,0l-98.2,98.2c-3.9,3.9-3.9,10.2,0,14.1s10.3,3.9,14.1,0l98.2-98.2
			C131,402.5,131,396.2,127.1,392.3z"/>
		<path class="st0" d="M202.3,395.6l-48.6,48.6c-3.9,3.9-3.9,10.2,0,14.1c2,2,4.5,2.9,7.1,2.9s5.1-1,7.1-2.9l48.6-48.6
			c3.9-3.9,3.9-10.2,0-14.1C212.5,391.7,206.2,391.7,202.3,395.6L202.3,395.6z"/>
		<path class="st0" d="M136.6,482.6c-2.1-5-8-7.5-13.1-5.4c-5,2.1-7.5,8-5.4,13.1c2.1,5,8,7.5,13.1,5.4
			C136.2,493.6,138.7,487.7,136.6,482.6z"/>
		<path class="st0" d="M284.1,101.2c3.4,8.1,15.4,8,18.6-0.2c1.5-4,0.3-8.6-3-11.3c-3.3-2.6-7.9-3-11.5-0.8
			C284,91.3,282.2,96.7,284.1,101.2z"/>
	</g>
</g>
</svg>
