<?xml version="1.0" encoding="utf-8"?>
<!-- Generator: Adobe Illustrator 24.3.0, SVG Export Plug-In . SVG Version: 6.00 Build 0)  -->
<svg version="1.1" id="Capa_1" xmlns="http://www.w3.org/2000/svg" xmlns:xlink="http://www.w3.org/1999/xlink" x="0px" y="0px"
	 viewBox="0 0 498.8 498.8" style="enable-background:new 0 0 498.8 498.8;" xml:space="preserve">
<style type="text/css">
	.st0{fill:#00B8D9;}
</style>
<g>
	<g>
		<path class="st0" d="M480.1,435.2c-6.1-20.3-22.8-35.2-43.6-39l-52.5-9.6v-4.1c19.6-11.4,34-30.8,38.5-53.8
			c14.5-3,25.5-15.9,25.5-31.3v-79c0-22.3-14.6-41.8-35.8-48.1l-4-4c-18.6-18.6-43.3-28.8-69.7-28.8c-54.3,0-98.5,44.2-98.5,98.5
			v61.5c0,15.4,11,28.3,25.5,31.3c4.5,23,18.9,42.4,38.5,53.8v4.1l-52.5,9.5c-20.8,3.8-37.5,18.7-43.6,39l-18.6,62.1h309.5
			L480.1,435.2z M424,311.2v-27.6c4.8,2.8,8,7.9,8,13.8S428.8,308.4,424,311.2z M264,311.2c-4.8-2.8-8-7.9-8-13.8s3.2-11,8-13.8
			V311.2z M264,257.4v9.1c-2.8,0.7-5.5,1.9-8,3.3v-33.9c0-45.5,37-82.5,82.5-82.5c22,0,42.8,8.6,58.3,24.2l7.1,7.1l2.2,0.5
			c15.3,3.8,25.9,17.5,25.9,33.2v51.5c-2.5-1.4-5.2-2.6-8-3.3v-9.1h-25.4c-21.7,0-42.4-10.4-55.4-27.7l-6.4-8.5L321,237.1
			c-13.1,13.1-30.5,20.3-49,20.3H264z M280,313.4V273c19.8-1.8,38.1-10.4,52.3-24.6l3.1-3.1c16,17.7,39.1,28.1,63.2,28.1h9.4v40
			c0,35.3-28.7,64-64,64C308.7,377.4,280,348.7,280,313.4z M320.7,389.9c7.4,2.3,15.2,3.5,23.3,3.5s15.9-1.2,23.3-3.5L344,407.4
			L320.7,389.9z M331.8,418.2l-16.3,16.3l-10.6-31.8l5.1-0.9L331.8,418.2z M378,401.9l5.1,0.9l-10.6,31.8l-16.3-16.3L378,401.9z
			 M210.8,481.4l12.5-41.5c4.3-14.5,16.3-25.2,31.2-27.9l34.6-6.3l19.5,58.5l35.5-35.5l35.5,35.5l19.5-58.5l34.6,6.3
			c14.9,2.7,26.8,13.4,31.2,27.9l12.5,41.5L210.8,481.4L210.8,481.4z"/>
	</g>
</g>
<g>
	<g>
		<path class="st0" d="M208,130.7V80l-21.7-5.8c-0.6-1.7-1.3-3.3-2.1-5l11.3-19.5l-35.8-35.8l-19.5,11.3c-1.7-0.8-3.3-1.5-5-2.1
			l-5.8-21.7H78.7l-5.8,21.7c-1.7,0.6-3.3,1.3-5,2.1L48.4,13.9L12.5,49.8l11.3,19.5c-0.8,1.7-1.5,3.3-2.1,5L0,80v50.7l21.7,5.8
			c0.6,1.7,1.3,3.3,2.1,5L12.5,161l35.8,35.8l19.5-11.3c1.7,0.8,3.3,1.5,5,2.1l5.8,21.7h50.7l5.8-21.7c1.7-0.6,3.3-1.3,5-2.1
			l19.5,11.3l35.8-35.8l-11.3-19.5c0.8-1.7,1.5-3.3,2.1-5L208,130.7z M175.5,158.4L157,176.8l-16.3-9.4l-3.9,2
			c-3.6,1.8-7.2,3.4-10.8,4.5l-4.2,1.3l-4.8,18.1H90.9l-4.8-18.1l-4.2-1.3c-3.6-1.2-7.2-2.7-10.8-4.5l-3.9-2L51,176.8l-18.5-18.5
			l9.4-16.3l-2-3.9c-1.8-3.6-3.4-7.2-4.5-10.8l-1.3-4.2L16,118.4V92.3l18.1-4.8l1.3-4.2c1.1-3.6,2.7-7.2,4.5-10.8l2-3.9l-9.4-16.3
			L51,33.9l16.3,9.4l3.9-2c3.6-1.8,7.2-3.4,10.8-4.5l4.2-1.3l4.8-18.1h26.1l4.8,18.1l4.2,1.3c3.6,1.2,7.2,2.7,10.8,4.5l3.9,2
			l16.3-9.4l18.5,18.5L166,68.7l2,3.9c1.8,3.6,3.4,7.2,4.5,10.8l1.3,4.2l18.1,4.8v26.1l-18.1,4.8l-1.3,4.2
			c-1.1,3.6-2.7,7.2-4.5,10.8l-2,3.9L175.5,158.4z"/>
	</g>
</g>
<g>
	<g>
		<path class="st0" d="M148.9,138.8c7.2-9.7,11.1-21.3,11.1-33.4c0-30.9-25.1-56-56-56s-56,25.1-56,56s25.1,56,56,56
			c12.5,0,24.3-4,34.1-11.6l-9.8-12.7c-7,5.4-15.5,8.3-24.4,8.3c-22.1,0-40-17.9-40-40s17.9-40,40-40s40,17.9,40,40
			c0,8.7-2.7,16.9-7.9,23.9L148.9,138.8z"/>
	</g>
</g>
<g>
	<g>
		<path class="st0" d="M482.3,99.7L472,110.1V81.4c0-44.1-35.9-80-80-80h-48v16h48c35.3,0,64,28.7,64,64v28.7l-10.3-10.3L434.3,111
			l29.7,29.7l29.7-29.7L482.3,99.7z"/>
	</g>
</g>
<g>
	<g>
		<path class="st0" d="M40,417.4v-28.7L50.3,399l11.3-11.3L32,358.1L2.3,387.7L13.7,399L24,388.7v28.7c0,44.1,35.9,80,80,80v-16
			C68.7,481.4,40,452.7,40,417.4z"/>
	</g>
</g>
<g>
	<g>
		<rect y="241.4" class="st0" width="208" height="16"/>
	</g>
</g>
<g>
	<g>
		<rect y="305.4" class="st0" width="208" height="16"/>
	</g>
</g>
<g>
	<g>
		<rect y="273.4" class="st0" width="96" height="16"/>
	</g>
</g>
<g>
	<g>
		<polygon class="st0" points="158,273.4 120,273.4 112,273.4 112,289.4 120,289.4 158,289.4 208,289.4 208,273.4 		"/>
	</g>
</g>
<g>
	<g>
		<rect x="312" y="1.4" class="st0" width="16" height="16"/>
	</g>
</g>
<g>
	<g>
		<rect x="280" y="1.4" class="st0" width="16" height="16"/>
	</g>
</g>
<g>
	<g>
		<rect x="120" y="481.4" class="st0" width="16" height="16"/>
	</g>
</g>
<g>
	<g>
		<rect x="152" y="481.4" class="st0" width="16" height="16"/>
	</g>
</g>
</svg>
