<?xml version="1.0" encoding="utf-8"?>
<!-- Generator: Adobe Illustrator 24.3.0, SVG Export Plug-In . SVG Version: 6.00 Build 0)  -->
<svg version="1.1" id="Layer_1" xmlns="http://www.w3.org/2000/svg" xmlns:xlink="http://www.w3.org/1999/xlink" x="0px" y="0px"
	 viewBox="0 0 750 500" style="enable-background:new 0 0 750 500;" xml:space="preserve">
<style type="text/css">
	.st0{opacity:0.8;}
	.st1{opacity:0.5;}
	.st2{fill:#CED3E6;}
	.st3{fill:#FFFFFF;}
	.st4{fill:#39393B;}
	.st5{fill:#DF615C;}
	.st6{fill:#21B573;}
	.st7{fill:#D2DCEC;}
	.st8{fill:none;}
	.st9{fill:#EA9B7A;}
	.st10{fill:#D46A43;}
	.st11{fill:#217C58;}
	.st12{fill:#585859;}
	.st13{fill:#A92F4B;}
	.st14{fill:#FAAF3A;}
	.st15{fill:#C77E2E;}
	.st16{fill:#084FC7;}
	.st17{fill:#0875F7;}
	.st18{fill:#EBB12B;}
	.st19{fill:#243434;}
	.st20{fill:#564C54;}
	.st21{fill:#DD615C;}
</style>
<g class="st0">
	<g class="st1">
		<path class="st2" d="M378.57,168.79c-24.18-3.67-47.05-13.36-66.5-28.18c-29.38-22.17-90.85-59.9-149.49-41.11
			c-80.89,25.92-81.25,100.91-60.18,141.64s170.47,160,364.16,141c173.33-17,207.1-211.39,114.66-246.57
			C501.05,105.09,473.69,182.84,378.57,168.79z"/>
	</g>
	<g class="st1">
		<ellipse class="st2" cx="628.1" cy="140.02" rx="7.52" ry="8.09"/>
	</g>
	<path class="st2" d="M137.42,86.73c2.3-0.44,4.59,0.82,5.46,3c1.38,3.76-2.25,8-7.13,6.08l0,0
		C131.54,92.74,133.38,87.48,137.42,86.73z"/>
	
		<ellipse transform="matrix(0.7071 -0.7071 0.7071 0.7071 130.0696 449.4585)" class="st2" cx="607.58" cy="67.72" rx="9.79" ry="9.79"/>
	<g class="st0">
		<path class="st2" d="M167.1,79c1.48,5.26-1.59,10.72-6.85,12.2c-5.26,1.48-10.72-1.59-12.2-6.85c-1.48-5.26,1.59-10.72,6.85-12.2
			c0,0,0,0,0.01,0c5.25-1.48,10.71,1.58,12.19,6.84C167.1,78.99,167.1,79,167.1,79z"/>
	</g>
	<path class="st2" d="M558.41,373.66c2.2-0.85,4.69-0.01,5.92,2c2.06,3.43-0.72,8.24-5.87,7.29l0,0
		C553.75,380.65,554.57,375.14,558.41,373.66z"/>
	<path class="st2" d="M586.13,360.55c2.43,4.89,0.44,10.83-4.46,13.26c-4.89,2.43-10.83,0.44-13.26-4.46s-0.44-10.83,4.46-13.26
		c0,0,0.01,0,0.01,0C577.77,353.67,583.7,355.66,586.13,360.55z"/>
	<path class="st2" d="M595.16,52.73c0,3.31-2.69,6-6,6s-6-2.69-6-6s2.69-6,6-6S595.16,49.42,595.16,52.73z"/>
</g>
<g class="st0">
	<path class="st2" d="M611.2,161.84c0-53.8-44.81-112.76-100.56-116.32l-3-0.17c-79.93-3.72-86,93.77-158.34,104.76
		s-127.55-44.51-214.08-8.29c-77.69,32.52-98.74,215.29,129.61,222.62C447.53,370.3,611.22,322.37,611.2,161.84z"/>
</g>
<ellipse class="st2" cx="390.66" cy="420.91" rx="183.75" ry="9.48"/>
<path class="st3" d="M282.25,394.37h212c8.79,0,15.92,7.13,15.92,15.92v0v10.56l0,0H266.33l0,0V410.3
	c-0.01-8.79,7.12-15.92,15.91-15.93C282.24,394.37,282.25,394.37,282.25,394.37z"/>
<rect x="343.37" y="337.63" class="st3" width="88.39" height="56.74"/>
<polygon class="st2" points="343.37,355.05 431.75,347.98 431.77,337.63 343.38,337.73 "/>
<path class="st3" d="M576.68,103.31v222.52c0,6.52-5.29,11.81-11.81,11.81H202.49c-6.52,0-11.81-5.29-11.81-11.81V103.31
	c0-6.52,5.29-11.81,11.81-11.81h362.9h0.39l0,0h0.28h0.45h0.3h0.14l0.29,0.06C572.8,92.7,576.77,97.63,576.68,103.31z"/>
<circle class="st2" cx="387.51" cy="321.64" r="8.16"/>
<path class="st4" d="M567.25,91.74l-0.29-0.06h-0.14h-0.3h-0.45h-0.28l0,0h-0.39H202.49c-6.52,0-11.81,5.29-11.81,11.81v205.89h386
	V103.31C576.68,97.7,572.74,92.87,567.25,91.74z M561.37,288.79c0,1.77-1.44,3.21-3.21,3.22h-349c-1.77-0.01-3.21-1.45-3.21-3.22
	V110c0-1.77,1.44-3.21,3.21-3.21l0,0h349c1.77,0,3.21,1.44,3.21,3.21c0,0,0,0,0,0V288.79z"/>
<path class="st2" d="M209.2,106.81h348.96c1.77,0,3.21,1.44,3.21,3.21V288.8c0,1.77-1.44,3.21-3.21,3.21H209.2
	c-1.77,0-3.21-1.44-3.21-3.21V110.02C205.99,108.25,207.43,106.81,209.2,106.81z"/>
<path class="st3" d="M561.37,110v16.87H206V110c0-1.77,1.44-3.21,3.21-3.21l0,0h349C559.96,106.82,561.37,108.25,561.37,110z"/>
<path class="st5" d="M533.84,116.58c0,1.51-1.22,2.73-2.73,2.73c-1.51,0-2.73-1.22-2.73-2.73s1.22-2.73,2.73-2.73l0,0
	C532.62,113.85,533.84,115.07,533.84,116.58z"/>
<path class="st6" d="M542.69,116.58c0,1.51-1.22,2.73-2.73,2.73c-1.51,0-2.73-1.22-2.73-2.73s1.22-2.73,2.73-2.73l0,0
	C541.47,113.85,542.69,115.07,542.69,116.58z"/>
<path class="st7" d="M239.45,113.69h277.86c1.34,0,2.43,1.09,2.43,2.43v0.91c0,1.34-1.09,2.43-2.43,2.43H239.45
	c-1.34,0-2.43-1.09-2.43-2.43v-0.91C237.02,114.78,238.11,113.69,239.45,113.69z"/>
<path d="M218.82,116.58v2.67c0,0.27-0.21,0.49-0.48,0.5c-0.09,0-0.18-0.02-0.26-0.07l-2.31-1.34l-2.31-1.34
	c-0.23-0.13-0.32-0.43-0.18-0.67c0.04-0.08,0.11-0.14,0.18-0.18l2.31-1.34l2.31-1.34c0.24-0.13,0.55-0.04,0.68,0.2
	c0.04,0.07,0.06,0.15,0.06,0.23V116.58z"/>
<path d="M222.89,116.58v2.67c0,0.27,0.22,0.49,0.49,0.49c0.09,0,0.17-0.02,0.24-0.06l2.32-1.34l2.31-1.33
	c0.23-0.13,0.32-0.43,0.18-0.67c-0.04-0.08-0.11-0.14-0.18-0.18l-2.31-1.34l-2.32-1.34c-0.24-0.13-0.53-0.05-0.67,0.19
	c-0.04,0.07-0.06,0.16-0.06,0.24V116.58z"/>
<path class="st4" d="M546.2,117.78l3.71-3.71c0.25-0.25,0.67-0.25,0.92,0l0.17,0.17c0.25,0.25,0.25,0.67,0,0.92l-3.71,3.71
	c-0.25,0.25-0.67,0.25-0.92,0l-0.17-0.17C545.95,118.44,545.95,118.03,546.2,117.78z"/>
<path class="st4" d="M546.23,114.27l0.17-0.17c0.25-0.25,0.67-0.25,0.92,0l3.71,3.71c0.25,0.25,0.25,0.67,0,0.92l-0.17,0.17
	c-0.25,0.25-0.67,0.25-0.92,0l-3.71-3.71C545.98,114.94,545.98,114.53,546.23,114.27z"/>
<path class="st3" d="M252.58,130.96h261.25c3.55,0,6.42,2.87,6.42,6.42v141.01c0,3.55-2.87,6.42-6.42,6.42H252.58
	c-3.55,0-6.42-2.87-6.42-6.42V137.38C246.16,133.83,249.03,130.96,252.58,130.96z"/>
<path class="st2" d="M258.32,205.25h63.46c1.66,0,3.01,1.35,3.01,3.01v32.98c0,1.66-1.35,3.01-3.01,3.01h-63.46
	c-1.66,0-3.01-1.35-3.01-3.01v-32.98C255.31,206.6,256.66,205.25,258.32,205.25z"/>
<path class="st2" d="M443.3,140.12h63.46c1.66,0,3.01,1.35,3.01,3.01v32.98c0,1.66-1.35,3.01-3.01,3.01H443.3
	c-1.66,0-3.01-1.35-3.01-3.01v-32.98C440.29,141.47,441.64,140.12,443.3,140.12z"/>
<path class="st2" d="M256.81,173.25h66.38c0.88,0,1.6,0.72,1.6,1.6v0.14c0,0.88-0.72,1.6-1.6,1.6h-66.38c-0.88,0-1.6-0.72-1.6-1.6
	v-0.14C255.21,173.97,255.93,173.25,256.81,173.25z"/>
<path class="st2" d="M256.81,159.13h66.38c0.88,0,1.6,0.72,1.6,1.6v0.14c0,0.88-0.72,1.6-1.6,1.6h-66.38c-0.88,0-1.6-0.72-1.6-1.6
	v-0.14C255.21,159.85,255.93,159.13,256.81,159.13z"/>
<path class="st2" d="M256.81,187.37h66.38c0.88,0,1.6,0.72,1.6,1.6v0.14c0,0.88-0.72,1.6-1.6,1.6h-66.38c-0.88,0-1.6-0.72-1.6-1.6
	v-0.14C255.21,188.09,255.93,187.37,256.81,187.37z"/>
<path class="st2" d="M441.89,206.34h66.28c0.88,0,1.6,0.72,1.6,1.6v0.14c0,0.88-0.72,1.6-1.6,1.6h-66.28c-0.88,0-1.6-0.72-1.6-1.6
	v-0.14C440.29,207.06,441.01,206.34,441.89,206.34z"/>
<path class="st2" d="M441.89,192.22h66.28c0.88,0,1.6,0.72,1.6,1.6v0.14c0,0.88-0.72,1.6-1.6,1.6h-66.28c-0.88,0-1.6-0.72-1.6-1.6
	v-0.14C440.29,192.94,441.01,192.22,441.89,192.22z"/>
<path class="st2" d="M441.89,220.47h66.28c0.88,0,1.6,0.72,1.6,1.6v0.14c0,0.88-0.72,1.6-1.6,1.6h-66.28c-0.88,0-1.6-0.72-1.6-1.6
	v-0.14C440.29,221.19,441.01,220.47,441.89,220.47z"/>
<path class="st4" d="M246.16,260.92h274.09v22.47c0,0.78-0.64,1.42-1.42,1.42c0,0-0.01,0-0.01,0H247.58c-0.78,0-1.42-0.64-1.42-1.42
	l0,0V260.92z"/>
<path class="st3" d="M500.59,269.78v-2h2.54V266h-3.44c-0.5,0-0.9,0.4-0.9,0.9v2.93L500.59,269.78z"/>
<path class="st3" d="M500.59,273.38h-1.8v3.08c0,0.5,0.4,0.9,0.9,0.9h3.44v-1.8h-2.54V273.38z"/>
<path class="st3" d="M508.4,269.78h1.81v-2.93c0-0.5-0.4-0.9-0.9-0.9H506v1.8h2.4V269.78z"/>
<path class="st3" d="M508.4,273.38v2.18H506v1.8h3.31c0.5,0,0.9-0.4,0.9-0.9v-3.08H508.4z"/>
<rect x="246.16" y="256.43" class="st2" width="274.09" height="4.49"/>
<path class="st4" d="M266.07,135.66h3.09v6.77h4.14v2.4h-7.23V135.66z"/>
<path class="st4" d="M274.15,135.66h3.1v9.17h-3.1V135.66z"/>
<path class="st4" d="M288.54,135.66l-3.88,9.17h-3l-3.88-9.17h3.33l2.19,5.35l2.24-5.35H288.54z"/>
<path class="st4" d="M296.47,142.49v2.34h-7.63v-9.17h7.46V138h-4.42v1.07h3.88v2.23h-3.88v1.2L296.47,142.49z"/>
<path class="st5" d="M261,140.17c0,2.08-1.69,3.77-3.77,3.77c-2.08,0-3.77-1.69-3.77-3.77c0-2.08,1.69-3.77,3.77-3.77l0,0
	C259.31,136.4,261,138.09,261,140.17z"/>
<path class="st5" d="M484.53,241.2c-0.01,1.83-1.49,3.31-3.32,3.3c-1.83-0.01-3.31-1.49-3.3-3.32c0.01-1.82,1.49-3.3,3.31-3.3
	c1.83,0,3.31,1.48,3.31,3.31C484.53,241.19,484.53,241.2,484.53,241.2z"/>
<path class="st5" d="M487.41,249.58H475c1.02-2.45,3.44-4.02,6.09-3.94h0.19C483.94,245.55,486.38,247.12,487.41,249.58z"/>
<path class="st4" d="M498.83,239.19v2.08l-3.33,7.95h-3.7l3.18-7.41h-1.93v1.46h-2.8v-4.08H498.83z"/>
<path class="st4" d="M507.63,246.6v2.62h-8v-2.08l3.63-3.35c0.69-0.64,0.79-1,0.79-1.37s-0.33-0.79-1-0.79
	c-0.63,0-1.2,0.36-1.47,0.93l-2.58-1.28c0.88-1.55,2.57-2.45,4.34-2.32c2.37,0,4,1.23,4,3.14c0,1-0.26,1.88-1.72,3.2l-1.43,1.3
	L507.63,246.6z"/>
<path class="st8" d="M256.66,256.73c-1.37,4.22-1.37,4.95-1.37,4.22V140.56c0-0.73,0-0.62,0-87.79H526v204L256.66,256.73z"/>
<path class="st9" d="M457.74,167.93c0,0,2.46,7.95,8.65,8.57c5,0.5,8.91-4.78,10.23-6.83c0.32-0.49,0.49-0.8,0.49-0.8
	c0.3-0.01,0.6-0.04,0.9-0.09c1.25-0.19,3.46-0.76,4.12-2.44c0.94-2.38-3.82-3.25-3.82-3.25s2.05-2.41,1.25-3.85s-4-1.28-4-1.28
	s3.07-2.66,1.67-4.41c-2.09-2.63-5.14,1-5.39,1.22c0.18-0.28,8-12.22,5.53-12.7c-2.18-0.42-9.4,9.22-11.34,11.86l-0.47,0.66
	l-0.41-0.21c-1.24-0.6-5-2.13-6.93,0C455.9,157,457.74,167.93,457.74,167.93z"/>
<path class="st10" d="M473,164.54c-0.89,0.63-1.56,1.53-1.9,2.57c-0.13,0.51,0.02,1.05,0.39,1.42c0.33,0.28,0.72,0.49,1.14,0.61
	c1.3,0.35,2.65,0.53,4,0.53c0.32-0.49,0.48-0.8,0.48-0.8c0.3-0.01,0.61-0.04,0.91-0.09c-0.08-0.05-0.17-0.07-0.26-0.07
	c-1.79,0-4.89-0.15-5.59-0.86c-0.14-0.15-0.19-0.36-0.13-0.55c0.2-1,1.74-2.4,3.17-3c0.25-0.07,0.4-0.33,0.33-0.58
	c-0.07-0.25-0.33-0.4-0.58-0.33l0,0c-1.17,0.18-4.43,0.43-5.45-0.6c-0.15-0.15-0.13-0.24-0.12-0.29c0.13-0.31,0.35-0.58,0.63-0.76
	c0.82-0.6,1.72-1.08,2.67-1.45c0.24-0.1,0.37-0.37,0.27-0.62c-0.1-0.25-0.37-0.37-0.62-0.27c0,0-0.01,0-0.01,0
	c-0.95,0.36-1.85,0.84-2.68,1.42c-0.35,0.24-0.65,0.53-0.91,0.87c-0.14,0.18-0.24,0.39-0.29,0.61c-0.09,0.43,0.06,0.87,0.38,1.17
	C469.72,164.41,471.54,164.58,473,164.54z"/>
<path class="st10" d="M468.35,157.57c0.14,0.14,0.19,0.35,0.11,0.53c-0.23,0.47-0.34,0.99-0.31,1.51c0.01,0.2,0.13,0.39,0.31,0.48
	c0.27,0.1,0.55,0.13,0.83,0.1c1.11-0.1,2.2-0.34,3.26-0.7c-0.05,0.08-0.13,0.15-0.22,0.18c-0.95,0.36-1.85,0.85-2.67,1.45h-0.33
	c-0.32,0.01-0.64-0.01-0.95-0.07l-0.33-0.11c-0.47-0.23-0.8-0.69-0.85-1.21c-0.05-0.69,0.08-1.38,0.38-2
	c0.1-0.24,0.37-0.35,0.61-0.26c0.05,0.02,0.1,0.05,0.15,0.1L468.35,157.57z"/>
<path class="st10" d="M459.77,159.17c1.06,0.69,2.21,1.25,3.41,1.66c0.9,0.35,1.89,0.45,2.84,0.28c0.68-0.16,1.26-0.6,1.59-1.21
	c1.22-2.24-0.44-4.7-1.54-6l-0.47,0.66l-0.41-0.21c0.94,1,2.57,3.24,1.58,5.05c-0.21,0.39-0.57,0.66-1,0.75
	c-1.65,0.41-4.52-1.17-5.49-1.81c-0.22-0.14-0.52-0.08-0.67,0.14c-0.15,0.22-0.09,0.52,0.12,0.67
	C459.75,159.16,459.76,159.16,459.77,159.17z"/>
<path class="st10" d="M464.68,172.05c0.25,0.08,0.52-0.06,0.6-0.31c0.05-0.16,0.02-0.33-0.09-0.46c-0.91-0.91-1.35-2.18-1.22-3.46
	c0.36-3.16,4.14-5.83,4.18-5.86c0.21-0.15,0.27-0.45,0.12-0.67c-0.15-0.22-0.45-0.26-0.67-0.11c0,0,0,0,0,0
	c-0.17,0.11-4.17,2.95-4.59,6.53c-0.16,1.55,0.38,3.09,1.46,4.21C464.53,171.98,464.6,172.03,464.68,172.05z"/>
<path class="st6" d="M404.88,132.68l4.87,12.32c0.73,2.07,1.47,4.12,2.22,6.17s1.48,4.09,2.24,6.12s1.52,4.05,2.3,6
	s1.56,4,2.37,5.87s1.61,3.78,2.42,5.45c0.4,0.82,0.8,1.6,1.14,2.2l0.23,0.4l0.1,0.16c0.01,0.02,0.01,0.05,0,0.07
	c0.01,0.06,0.01,0.12,0,0.18c0,0.08,0,0.12,0,0.2s0.15,0.18,0.41,0.3c0.97,0.31,1.99,0.41,3,0.32c1.6-0.1,3.18-0.35,4.73-0.77
	c1.81-0.47,3.59-1.03,5.34-1.7c3.78-1.46,7.47-3.16,11.05-5.08c3.69-2,6.4-3.52,10-5.77c1.2,5.42,5.12,9.83,10.36,11.67
	c-3.5,3.18-7.17,6.16-11,8.94c-3.94,2.88-8.09,5.48-12.4,7.77c-2.3,1.21-4.67,2.29-7.1,3.21c-2.67,1.03-5.44,1.8-8.26,2.31
	c-1.6,0.28-3.22,0.43-4.85,0.46c-1.83,0.04-3.67-0.12-5.47-0.46c-2.04-0.4-4.01-1.07-5.87-2c-1.96-0.97-3.77-2.23-5.37-3.72
	c-0.77-0.73-1.5-1.51-2.17-2.33l-0.47-0.6l-0.39-0.52l-0.36-0.5l-0.33-0.49c-0.87-1.28-1.57-2.44-2.23-3.57
	c-1.31-2.26-2.42-4.41-3.5-6.55s-2-4.26-3-6.38s-1.9-4.22-2.78-6.34s-1.78-4.22-2.63-6.33s-1.68-4.24-2.49-6.36
	s-1.61-4.25-2.38-6.38l-1.15-3.21L383,142.2c-0.19-0.54-0.37-1.06-0.56-1.65L404.88,132.68z"/>
<path class="st11" d="M418.14,183.94c0.19,0,0.37-0.1,0.49-0.25c1.28-1.71,2.76-3.25,4.41-4.6c0.28-0.2,0.34-0.58,0.14-0.85
	c-0.2-0.28-0.58-0.34-0.85-0.15c-1.76,1.42-3.33,3.05-4.68,4.86c-0.2,0.27-0.15,0.65,0.11,0.86c0,0,0,0,0.01,0
	C417.87,183.89,418.01,183.94,418.14,183.94z"/>
<path class="st11" d="M422.32,184.55h0.13c0.33-0.08,0.54-0.41,0.47-0.74c-0.33-1.52-0.33-3.09,0-4.61
	c0.07-0.33-0.14-0.67-0.47-0.74c-0.31-0.07-0.61,0.1-0.72,0.4c-0.37,1.72-0.37,3.5,0,5.22
	C421.79,184.36,422.04,184.55,422.32,184.55z"/>
<path class="st4" d="M416.61,250.21c-11.38,6.56-38.89,9.93-56.83,2.8c-6.59-2.61-7.74-4.22-7.24-16l0.06-1.32
	c0-0.93,0.11-1.85,0.17-2.78c0-0.44,0.07-0.89,0.11-1.33c0.13-1.65,0.29-3.26,0.47-4.82c0-0.43,0.09-0.85,0.14-1.27
	c0.37-3.03,0.92-6.04,1.67-9c0.11-0.44,0.22-0.85,0.33-1.24c0.63-2.36,1.15-3.77,1.15-3.77c2.94,0.46,5.9,0.75,8.87,0.86h1.27
	c15.52,0.41,31.31-3.11,38.63-5l1.23-0.32c1.9-0.51,3-0.85,3-0.85s0.67,1.18,1.62,3.11l0.54,1.15c1.93,4.06,3.43,8.31,4.47,12.68
	c0,0.06,0,0.12,0,0.18c0.09,0.42,0.19,0.84,0.28,1.26c0.01,0.08,0.03,0.17,0.05,0.25c0.74,3.52,1.42,7.2,1.88,10.72l0,0
	c0.06,0.46,0.11,0.91,0.17,1.35C419.55,244.62,419.69,248.44,416.61,250.21z"/>
<path class="st12" d="M416.61,224.82h-0.09c-2.45-1.4-4.54-3.35-6.1-5.7c-0.23-0.34-0.47-0.69-0.69-1.06l0,0
	c-1.95-3.32-3.4-6.91-4.31-10.66l1.23-0.32c0.88,3.66,2.3,7.17,4.23,10.41c0.23,0.37,0.47,0.73,0.71,1.07
	c1.24,1.83,2.82,3.39,4.66,4.61c0,0.06,0,0.12,0,0.18c0.09,0.42,0.19,0.84,0.28,1.26C416.55,224.68,416.58,224.75,416.61,224.82z"/>
<path class="st12" d="M366.78,212.37c-0.37,3.91-1.38,7.72-3,11.3c-0.2,0.4-0.4,0.8-0.61,1.17c-1.09,2.05-2.59,3.85-4.4,5.3
	c-1.75,1.39-3.81,2.33-6,2.73c0-0.44,0.07-0.89,0.11-1.33c1.89-0.39,3.66-1.22,5.17-2.42c1.56-1.25,2.86-2.79,3.84-4.53
	c0.22-0.37,0.43-0.76,0.63-1.16c1.63-3.5,2.65-7.26,3-11.1L366.78,212.37z"/>
<path class="st12" d="M411.77,210.45c-0.88,0.39-1.82,0.79-2.83,1.2c-0.39,0.16-0.79,0.32-1.2,0.47c-6.99,2.79-14.32,4.64-21.8,5.49
	l-1,0.1c-7.14,0.57-14.32,0.5-21.45-0.22l-1.34-0.13c-2.66-0.28-5-0.59-7-0.88c0.11-0.44,0.22-0.85,0.33-1.24
	c2,0.3,4.49,0.62,7.22,0.9l1.31,0.12c7.24,0.71,14.54,0.74,21.79,0.09c7.31-0.84,14.49-2.64,21.33-5.35l0,0l1.19-0.48
	c1-0.41,2-0.83,2.91-1.23L411.77,210.45z"/>
<path class="st4" d="M429.44,304.27c-1.66-25.66-5.43-49.44-10.95-68.73L388,249.75c0.94,23.36,5.64,39.53,11,54.52H429.44z"/>
<path class="st12" d="M404,304.27c-5.3-14.92-8.8-30.42-10.42-46.17c-0.06-0.35-0.39-0.58-0.74-0.52c-0.3,0.05-0.52,0.31-0.53,0.61
	c1.62,15.71,5.1,31.18,10.35,46.08L404,304.27z"/>
<path class="st4" d="M381.91,304.27c1.89-18.22,4.06-40.61,4.33-49.28l-33.7-18c0,0-5.94,20.51-2.05,67.3L381.91,304.27z"/>
<path class="st12" d="M378.83,304.27l5.65-46.67c0.01-0.4-0.32-0.73-0.72-0.74c-0.34,0-0.64,0.23-0.72,0.56l-5.67,46.85H378.83z"/>
<path class="st12" d="M389.17,250.85c0.05,0.35,0.36,0.6,0.71,0.56l0,0c0.35-0.05,0.6-0.36,0.56-0.71c-0.29-2.37-0.56-4.8-0.82-7.23
	c0-0.42-0.09-0.85-0.13-1.28c-0.82-7.94-1.49-15.75-1.93-21.28c0-0.44-0.07-0.88-0.11-1.29c-0.09-1.21-0.17-2.29-0.24-3.2
	c-0.43,0-0.86,0-1.28,0c0.07,0.91,0.15,2,0.25,3.23c0,0.41,0.07,0.85,0.1,1.29c0.44,5.48,1.1,13.23,1.92,21.12
	c0,0.43,0.09,0.87,0.13,1.3C388.6,245.88,388.88,248.4,389.17,250.85z"/>
<path class="st12" d="M386,242.87c0.76,0.22,1.54,0.39,2.33,0.49c0.43,0.06,0.86,0.1,1.29,0.11c0.41,0.03,0.81,0.03,1.22,0
	c0.71-0.07,1.4-0.31,2-0.7c0.71-0.52,1.12-1.35,1.1-2.23c0-2.5-0.68-12.67-1.22-19.86c0-0.44-0.07-0.87-0.1-1.29l-0.24-3.08h-1.27
	c0.07,0.9,0.15,2,0.24,3.12c0,0.42,0.06,0.85,0.1,1.29c0.54,7.17,1.26,17.32,1.21,19.74c0.03,0.48-0.19,0.94-0.57,1.23
	c-0.81,0.44-1.73,0.61-2.64,0.49c-0.44,0-0.88-0.07-1.29-0.13c-0.62-0.1-1.24-0.24-1.84-0.41c-0.33-0.14-0.7,0.02-0.84,0.34
	c-0.14,0.33,0.02,0.7,0.34,0.84c0.04,0.02,0.09,0.03,0.14,0.04L386,242.87z"/>
<path class="st4" d="M347.6,143l48.64-1.26c-1.51-2.11-1.37-22.26-2.05-26.43s-0.16-12.81,0.49-19.77
	c1.14-12.15-7.78-22.93-19.93-24.08c-1.02-0.1-2.05-0.12-3.07-0.07h-0.61c-20.45,1.3-21.95,18.82-20.05,29.42
	C352.75,110.54,354,136.87,347.6,143z"/>
<path class="st3" d="M358.15,206.2l3.93,16.44c9.79-0.78,21.39-2.2,30.12-6.71c0,0,11.63,3.91,17.53,2.09l-4.32-11.82L358.15,206.2z
	"/>
<path class="st6" d="M415.73,218.37c-11.3-0.07-18.09-1.54-24.25-6.58c-11.55,12-40.11,12.46-40.11,12.46
	c2.86-9.22,3.79-25.52,3.79-25.52c-0.22-1.7-0.34-3.46-0.52-5.24c-0.16-1.81-0.45-3.61-0.88-5.38c-2.82-8.13-6.12-14-9.05-22.36
	c-0.19-0.55-0.38-1.09-0.58-1.63c-0.12-0.36-0.25-0.71-0.39-1.07c-1-2.62-2-5.24-3.08-7.77c-4.73-11-5.49-23.43,5.88-27.21
	c0.83-0.28,1.64-0.54,2.43-0.79c5.38-1.7,9.86-2.82,11.11-3.12l0.34-0.09l23.87,2l2.27,0.19c3.34,0.37,6.87,0.28,9.11,0.77
	c2,0.43,3.15,0.33,5.15,0.92c4.7,1.39,4.57,7.71,6,15.57c0,0.14,0,0.27,0.08,0.41v0.14c0.25,1.33,0.56,2.65,0.9,4
	c0.39,1.46,0.82,2.91,1.27,4.31c2.75,8.63,6.07,12.6,5.5,18c-0.51,4.92-5.53,11.63-6.86,13.06c-0.31,0.33-0.49,0.5-0.49,0.5
	c0,0.03,0,0.05,0,0.08c0,0.19,0,0.4,0.07,0.62c0.1,0.83,0.25,1.81,0.43,2.93c0.41,4.15,1,7.91,1.66,11.27
	c0.36,1.8,0.75,3.49,1.14,5.06C411.7,208.91,413.45,213.76,415.73,218.37z"/>
<path class="st11" d="M410.59,203.87c-3.22,1.71-5.83,2.85-5.83,2.85l-2.41-4.54c2.46-0.93,4.83-2.05,7.1-3.37
	C410.11,200.42,410.5,202.13,410.59,203.87z"/>
<path class="st11" d="M358.51,199.61c0,0,10.87,4.61,18.9,5.39l-1.23,5c0,0-13.16-2.18-18.44-5.93L358.51,199.61z"/>
<path class="st11" d="M409.23,182.68c0.17,0,0.33-0.07,0.44-0.19c0.3-0.31,7.19-7.66,4.79-14.38c-0.67-1.86-1.45-3.75-2.27-5.74
	c-2.5-6.06-5.33-12.92-6.05-21.83c-0.03-0.33-0.32-0.58-0.66-0.56c-0.34,0.03-0.59,0.32-0.57,0.66c0.74,9.1,3.61,16.06,6.15,22.2
	c0.81,2,1.58,3.85,2.24,5.69c2.15,6-4.45,13.05-4.52,13.12c-0.24,0.24-0.24,0.62,0,0.86C408.9,182.63,409.06,182.69,409.23,182.68z"
	/>
<path class="st11" d="M389.17,156.45c0,0.74-0.6,1.34-1.34,1.34c-0.74,0-1.34-0.6-1.34-1.34c0-0.74,0.6-1.34,1.34-1.34l0,0
	C388.57,155.11,389.17,155.71,389.17,156.45z"/>
<path class="st11" d="M391.17,168.32c0,0.74-0.6,1.34-1.34,1.34c-0.74,0-1.34-0.6-1.34-1.34c0-0.74,0.6-1.34,1.34-1.34l0,0
	C390.57,166.98,391.17,167.58,391.17,168.32z"/>
<path class="st11" d="M392.36,180.38c-0.02,0.74-0.64,1.32-1.38,1.3c-0.74-0.02-1.32-0.64-1.3-1.38c0.02-0.72,0.6-1.29,1.32-1.3
	c0.73-0.02,1.34,0.56,1.36,1.3C392.36,180.33,392.36,180.35,392.36,180.38z"/>
<path class="st11" d="M392.88,192.79c0,0.74-0.6,1.34-1.34,1.34c-0.74,0-1.34-0.6-1.34-1.34c0-0.74,0.6-1.34,1.34-1.34l0,0
	C392.28,191.45,392.88,192.05,392.88,192.79z"/>
<path class="st11" d="M392.82,205.69c0,0.74-0.6,1.34-1.34,1.34c-0.74,0-1.34-0.6-1.34-1.34c0-0.74,0.6-1.34,1.34-1.34l0,0
	C392.22,204.35,392.82,204.95,392.82,205.69z"/>
<path class="st11" d="M381.55,126c2.95-0.26,5.92-0.09,8.82,0.49l-0.4,13.62l-3.09,0.66l2.61,2.57l-3.13,9.14
	C386.36,152.48,382.08,137.31,381.55,126z"/>
<path class="st11" d="M360.42,124.07l-9.48,2.6l11.14,14.8l8.35-0.67l-2.93,6.39l18.86,5.32c0,0-21.85-20.74-23.59-28.24
	L360.42,124.07z"/>
<path class="st3" d="M362.08,125.18c0,0,5.44,11.6,24.28,27.33c-0.85-8.67-2.46-17.24-4.8-25.63
	C381.56,126.88,370.47,130.74,362.08,125.18z"/>
<path class="st11" d="M389,162.22c-6.2,0-18.86-8.89-19.39-9.26c-0.23-0.16-0.29-0.47-0.13-0.69c0-0.01,0.01-0.01,0.01-0.02
	c0.16-0.23,0.48-0.29,0.71-0.13c0,0,0,0,0,0c0.12,0.1,12.92,9.08,18.8,9.08c5.63,0,6.88-6.15,6.89-6.21
	c0.07-0.27,0.35-0.44,0.62-0.37c0.25,0.06,0.41,0.3,0.38,0.56C396.86,155.25,395.44,162.22,389,162.22z"/>
<path class="st9" d="M381.55,126l0.26,3.21c0.47,6-3.79,7.69-10,4.52c-4.9-2.51-9.06-6.26-9.74-8.58L381.55,126z"/>
<path class="st11" d="M372.67,187.22c0.16,0.26,0.49,0.35,0.75,0.2c6.16-3.15,13.18-4.2,20-3c4.59,1.01,9.34,1.06,13.95,0.16
	c0-0.22-0.05-0.43-0.07-0.62v-0.08c0,0,0.18-0.17,0.49-0.5c-4.66,1.03-9.49,1.03-14.15,0c-7.07-1.3-14.37-0.21-20.75,3.09
	C372.63,186.62,372.53,186.95,372.67,187.22z"/>
<path class="st4" d="M391.78,86c0,0,2.76,10.81,1,12.7s-4.37-2.16-4.37-2.16S389.69,86.47,391.78,86z"/>
<path class="st10" d="M388.75,100.35c0,0,2.84-3.37,4.45,0s0.37,10.16-4,9.05L388.75,100.35z"/>
<path class="st3" d="M386.25,108.71c-2.31,1.1-3.29,3.87-2.19,6.19c1.1,2.31,3.87,3.29,6.19,2.19s3.29-3.87,2.19-6.19
	c-0.46-0.96-1.23-1.73-2.19-2.19c-0.54-0.27-1.14-0.42-1.74-0.45c-0.11-0.29-0.21-0.58-0.33-0.86h0.05c3.04-0.01,5.5,2.45,5.51,5.49
	c0.01,3.04-2.45,5.5-5.49,5.51c-3.04,0.01-5.5-2.45-5.51-5.49c0-1.98,1.06-3.81,2.78-4.79L386.25,108.71z"/>
<path class="st9" d="M381.56,117.6v9.28c0,0-4.89,8-19.48-1.7c2.76-3.08,2.84-9.05,1.73-12.6c0.9,0.58,1.85,1.08,2.83,1.5
	c0.37,0.17,0.75,0.34,1.17,0.51C371.45,116.12,376.94,118,381.56,117.6z"/>
<path class="st4" d="M381.56,117.6v4.34c-4-0.88-10.92-3-14.92-7.86c0.37,0.17,0.75,0.34,1.17,0.51
	C371.45,116.12,376.94,118,381.56,117.6z"/>
<path class="st9" d="M389.49,114.57c-7.8,8.06-25.09-1.56-25.64-1.87l0,0c-0.16-0.72-0.3-1.44-0.43-2.15
	c-1.03-5.56-1.22-11.24-0.56-16.85c-0.33-5.59,3.02-10.73,8.26-12.7c5.44-2,10.31,0.41,13.24,1.32c4.43,1.36,7.21,7.08,7.23,15.22
	C391.62,107.54,391.42,112.57,389.49,114.57z"/>
<path class="st4" d="M390.67,88.25c-1.8,0.25-3.65,0.44-5.55,0.59l-1-5l-0.34,5.08c-3.5,0.23-7.13,0.33-10.86,0.33l-0.5-5.25
	l-1,5.24c-2.76,0-5.56-0.07-8.38-0.15c-2.26-10.44,9.07-15,18.59-12.82S390.67,88.25,390.67,88.25z"/>
<path class="st4" d="M370.25,86c0,0-3.51,4.68-1.59,9s0.58,8.61-0.34,11.78c0,0-2-7-6.67-8.3S359.38,84.4,370.25,86z"/>
<path class="st10" d="M382.8,110.17c0.64,0.1,1.29,0.05,1.91-0.14c0.17-0.05,0.27-0.23,0.22-0.4c0-0.01,0-0.02-0.01-0.02
	c-0.06-0.17-0.25-0.26-0.42-0.21l0,0c-1.02,0.31-2.12,0.14-3-0.45c-0.15-0.11-0.36-0.07-0.47,0.08c-0.1,0.15-0.07,0.35,0.08,0.46
	c0,0,0,0,0,0C381.61,109.86,382.19,110.09,382.8,110.17z"/>
<path class="st3" d="M387.75,105c0,0-5.41,1.89-9.49-0.79c0,0,1.43,3.66,4.94,4S387.75,105,387.75,105z"/>
<path class="st4" d="M379.12,90.13c0,0,1.62,0.16,1.05,1.65s-3.81-0.16-6.13,2.58C374,94.36,373.05,90.8,379.12,90.13z"/>
<path class="st4" d="M386.45,90.13c0,0-1.62,0.16-1.05,1.65s3.81-0.16,6.13,2.58C391.53,94.36,392.52,90.8,386.45,90.13z"/>
<g class="st0">
	<path class="st10" d="M378.24,101.12c0,0.75-1.55,1.37-3.47,1.37s-3.47-0.62-3.47-1.37s1.56-1.37,3.47-1.37
		S378.24,100.37,378.24,101.12z"/>
</g>
<path class="st10" d="M392.38,102.45c-0.27,0-0.55,0-0.83,0c-1.92,0-3.47-0.62-3.47-1.37s1.55-1.37,3.47-1.37c0.25,0,0.51,0,0.75,0
	L392.38,102.45z"/>
<path class="st4" d="M378.64,97.54c0,1-0.47,1.88-1.05,1.88s-1-0.84-1-1.88s0.47-1.87,1-1.87S378.64,96.51,378.64,97.54z"/>
<path class="st4" d="M388.89,97.54c0,1-0.47,1.88-1.05,1.88s-1-0.84-1-1.88s0.47-1.87,1-1.87S388.89,96.51,388.89,97.54z"/>
<path class="st4" d="M384.87,101.49c0.29,0.01,0.58-0.03,0.86-0.09c0.23-0.06,0.37-0.29,0.31-0.52c0-0.01,0-0.02-0.01-0.03
	l-1.58-4.52c-0.07-0.22-0.31-0.34-0.53-0.26c0,0,0,0-0.01,0c-0.22,0.08-0.34,0.32-0.27,0.54l1.41,4c-0.61,0.03-1.21-0.1-1.75-0.38
	c-0.21-0.11-0.46-0.03-0.58,0.17c-0.11,0.21-0.03,0.47,0.18,0.58C383.5,101.31,384.18,101.49,384.87,101.49z"/>
<path class="st4" d="M367.22,108.5c-0.05,0.11-1.42,3.27-3.37,4.2l0,0c-0.16-0.72-0.3-1.44-0.43-2.15
	C364.85,110.23,366.17,109.52,367.22,108.5z"/>
<path class="st9" d="M365.32,101.3c0,0-4.14-5.56-7.18-1.19c-2.5,3.6,2.21,13.2,7.27,9.69L365.32,101.3z"/>
<path class="st3" d="M361,109.86c-2.32,1.1-3.3,3.88-2.2,6.2c1.1,2.32,3.88,3.3,6.2,2.2c2.32-1.1,3.3-3.88,2.2-6.2
	c-0.46-0.96-1.23-1.74-2.2-2.2c-0.54-0.26-1.14-0.42-1.74-0.45c-0.11-0.29-0.2-0.58-0.33-0.86H363c3.03,0,5.49,2.46,5.49,5.49
	c0,3.03-2.46,5.49-5.49,5.49c-3.03,0-5.49-2.46-5.49-5.49v0c0.01-1.98,1.08-3.81,2.8-4.8C360.52,109.47,360.75,109.67,361,109.86z"
	/>
<path class="st4" d="M364.75,108.21h0.05c0.23-0.03,0.4-0.24,0.38-0.47c-0.3-2.82-2.08-5.27-4.67-6.44
	c-0.21-0.12-0.47-0.05-0.59,0.16c-0.12,0.21-0.05,0.47,0.16,0.59c0.03,0.02,0.07,0.03,0.11,0.04c2.3,1.04,3.88,3.23,4.14,5.74
	C364.35,108.05,364.53,108.21,364.75,108.21z"/>
<path class="st4" d="M360.77,105.63c0.1,0,0.19-0.04,0.27-0.1l0,0c0.37-0.3,1.5-1,2.23-0.85c0.22,0.08,0.47-0.04,0.55-0.26
	c0.08-0.22-0.04-0.47-0.26-0.55c-0.03-0.01-0.05-0.02-0.08-0.02c-1.28-0.32-2.8,0.88-3,1c-0.18,0.15-0.21,0.41-0.07,0.6
	C360.49,105.56,360.63,105.63,360.77,105.63z"/>
<path class="st11" d="M332.48,189.38c0,0,1.36,2.93-0.21,9.35c-0.85,3.68-2.27,7.2-4.2,10.44
	C328.07,209.17,321.48,199.18,332.48,189.38z"/>
<path class="st9" d="M303.44,183.24c0,0.32,0,0.65,0.07,1s0.09,0.63,0.14,0.94c0,0.16,0.05,0.32,0.09,0.47l0.1,0.45
	c0.28,1.14,0.68,2.25,1.2,3.31c0.24,0.48,0.5,0.94,0.78,1.39l0.41,0.64l0.42,0.59c1.02,1.37,2.21,2.61,3.52,3.7
	c1.11,0.92,2.28,1.77,3.5,2.53c0.57,0.37,1.14,0.7,1.7,1s1.13,0.63,1.69,0.93c1.12,0.58,2.22,1.13,3.32,1.63
	c2.2,1,4.38,1.85,6.56,2.63s4.34,1.46,6.51,2.08s4.33,1.22,6.5,1.76s4.34,1,6.53,1.47c0.99,0.18,1.99,0.3,3,0.36
	c1.74,0.13,3.63,0.22,4.87,0.43c0.3-1.79-1.22-3.25-0.92-5.05c0.35-2.1,0.7-4.2,1.08-6.3l-0.87-1.88c-1.32-0.32-2.64-0.66-4-1h-0.12
	c-1.92-0.52-3.84-1.1-5.74-1.72s-3.85-1.28-5.73-2s-3.72-1.48-5.51-2.28s-3.52-1.66-5.13-2.57c-0.81-0.45-1.59-0.91-2.32-1.4
	c-0.35-0.25-0.71-0.49-1-0.74s-0.66-0.5-0.95-0.75c-0.43-0.35-0.84-0.74-1.22-1.15l-0.28-0.32l0,0l0.31-0.43l0.55-0.76
	c0.29-0.4,0.57-0.79,0.89-1.2c0.62-0.8,1.22-1.61,1.85-2.42l1.91-2.42c1.3-1.61,2.58-3.24,3.91-4.85l1-1.22l1-1.21l1.4-1.7l0.6-0.72
	l0.73-0.88l1.29-1.54l2-2.42c1.36-1.61,2.71-3.23,4.08-4.83l8.17-9.64v-0.06c3.47-4.04,3.01-10.12-1.02-13.59
	c-4.04-3.47-10.12-3.01-13.6,1.02l0,0l-2.15,2.46l-2.1,2.46c-0.7,0.81-1.39,1.64-2.08,2.47l-2.08,2.48c-1.37,1.66-2.73,3.33-4.1,5
	l-2,2.53l-0.27,0.33l-1.75,2.21l-2,2.56l-1,1.29l-0.44,0.59l-0.55,0.71c-1.33,1.73-2.64,3.48-3.93,5.25l-1.94,2.69l-1.92,2.76
	c-0.32,0.45-0.64,0.93-1,1.41l-0.95,1.44l-0.24,0.36l-0.06,0.09l0,0l-0.05,0.08l-0.2,0.32l-0.39,0.65l-0.18,0.35l-0.19,0.35
	c-0.12,0.24-0.24,0.47-0.35,0.73l-0.33,0.78l-0.15,0.4c-0.05,0.14-0.1,0.28-0.14,0.42c-0.1,0.28-0.18,0.56-0.27,0.85
	s-0.14,0.6-0.21,0.9s-0.13,0.6-0.17,0.92s-0.08,0.63-0.11,0.95s0,0.64-0.05,1v0.49C303.43,182.92,303.44,183.08,303.44,183.24z"/>
<path d="M345.62,195.12c-0.94-0.88-2.22-1.29-3.49-1.13c0,0-4.53,7.7-2.18,14.3c0.95,0.67,2.12,0.94,3.26,0.76
	C343.21,209.05,341,201.12,345.62,195.12z"/>
<path d="M336.81,201.84c0.15,2.53,2.31,4.45,4.84,4.31c2.53-0.15,4.45-2.31,4.31-4.84c-0.15-2.52-2.3-4.45-4.82-4.31
	c-2.53,0.14-4.46,2.3-4.32,4.83C336.81,201.83,336.81,201.84,336.81,201.84z"/>
<path class="st3" d="M341.58,205c1.89-0.11,3.34-1.73,3.23-3.62s-1.73-3.34-3.62-3.23c-1.89,0.11-3.34,1.73-3.23,3.62
	C338.07,203.66,339.69,205.1,341.58,205z"/>
<path class="st10" d="M349.48,209.88c1.74,0.13,3.63,0.23,4.87,0.44c0.29-1.8-1.22-3.26-0.92-5c0.35-2.11,0.7-4.21,1.08-6.31
	l-0.87-1.88c-1.32-0.31-2.65-0.65-4-1h-0.12C349,199,348.17,205.29,349.48,209.88z"/>
<path class="st6" d="M353.75,138.2c0.92,3.01,0.23,6.28-1.84,8.65c-3.86,4.46-11.24,13.08-15.33,18.49c-5.72,7.57-12.95,17-12.95,17
	c2.82,2.49,5.78,4.82,8.85,7c-5.4,5.06-7.15,12.91-4.41,19.79c0,0-16-8.81-24.14-17.27c-5.93-6.18-4.28-13.89,1.13-21.27
	c2.73-3.72,23.79-27.73,31.28-36.12c2.73-3.12,7.06-4.3,11-3C350.48,132.49,352.89,135.02,353.75,138.2z"/>
<path class="st9" d="M349.85,198.32c0,0,0.63-3.67,1.58-7.2c0.79-2.93,2.39-3.84,2.39-3.84c0.55,2.24,0.85,4.54,0.9,6.85
	c0.71-0.55,1.64-0.73,2.51-0.5c1.62,0.32,7.2,1.51,7.27,2.8c0.17,2.95-6.83,1.55-6.83,1.55s7.49,1.41,7.3,3.47
	c-0.15,1.67-6.93,2-6.93,2s6.53,0.06,5.75,2.41s-6.9,0.92-6.9,0.92s4.37,2.1,3.95,3c-0.61,1.26-3.2,1.62-7.38,0.6
	S349.85,198.32,349.85,198.32z"/>
<path class="st11" d="M342.13,160c-0.16,0.02-0.33-0.02-0.46-0.13c-0.25-0.21-0.28-0.57-0.07-0.82c0,0,0,0,0,0l9.68-11.48
	c0.19-0.24,0.54-0.28,0.79-0.09c0.01,0.01,0.02,0.01,0.02,0.02c0.24,0.2,0.28,0.56,0.08,0.8c0,0,0,0.01-0.01,0.01l-9.68,11.49
	C342.39,159.91,342.27,159.98,342.13,160z"/>
<path class="st11" d="M352.65,151.43L349,152c-0.31,0.08-0.63-0.1-0.71-0.41c-0.08-0.31,0.1-0.63,0.41-0.71
	c0.04-0.01,0.09-0.02,0.13-0.02l3.65-0.56c0.32-0.02,0.59,0.23,0.61,0.55c0.02,0.28-0.16,0.52-0.43,0.59L352.65,151.43z"/>
<path class="st11" d="M313.26,184.88c0.06,0.08,0.14,0.13,0.24,0.15c0.1,0.01,0.2-0.01,0.29-0.07c2.76-2.05,7.67-2.27,10.1-2.24
	l-0.27-0.32l0,0l0.31-0.43c-0.22,0-0.46,0-0.72,0c-1.52-1.47-5.62-2.89-5.8-3c-0.2-0.07-0.41,0.04-0.48,0.24
	c-0.06,0.19,0.04,0.4,0.23,0.47c0,0,0,0,0.01,0c1.68,0.61,3.3,1.39,4.83,2.32c-2.67,0.11-6.33,0.62-8.68,2.36
	C313.16,184.49,313.14,184.72,313.26,184.88z"/>
<ellipse class="st2" cx="159.06" cy="455.91" rx="127.36" ry="7.77"/>
<path class="st9" d="M177.65,213l0.16,0.75l0.12,0.61l0.21,1.15c0.13,0.75,0.25,1.48,0.36,2.21c0.21,1.46,0.39,2.89,0.55,4.32
	c0.31,2.86,0.54,5.7,0.67,8.53s0.18,5.66,0.14,8.49c-0.04,2.83-0.16,5.66-0.35,8.48c-0.2,2.82-0.49,5.63-0.85,8.44
	c-0.2,1.41-0.37,2.81-0.61,4.21c-0.11,0.7-0.22,1.4-0.34,2.1l-0.39,2.09c-0.12,0.7-0.28,1.39-0.42,2.09s-0.28,1.39-0.45,2.08
	c-0.32,1.38-0.63,2.77-1,4.14c-0.18,0.69-0.35,1.38-0.54,2.07l-0.58,2.05l-0.15,0.52l-0.07,0.25l-0.16,0.53
	c-0.14,0.49-0.3,0.91-0.46,1.34s-0.34,0.82-0.51,1.17s-0.34,0.71-0.52,1l-0.27,0.48l-0.26,0.45l-0.27,0.44l-0.27,0.4
	c-0.17,0.28-0.35,0.52-0.52,0.77c-0.64,0.89-1.33,1.74-2.06,2.55c-0.67,0.75-1.33,1.41-2,2c-1.29,1.24-2.54,2.29-3.77,3.28
	c-2.47,1.95-4.88,3.61-7.28,5.15c-4.81,3.07-9.57,5.72-14.38,8.21s-9.61,4.79-14.45,7c-2.43,1.09-4.86,2.16-7.3,3.2l-3.63,1.66
	l-1.86,0.76l-1.91,0.76l-8.38-18.94l1.62-0.83l1.67-0.87l3.36-1.75c2.23-1.17,4.45-2.37,6.66-3.58c4.42-2.42,8.79-4.9,13-7.44
	c2.12-1.28,4.21-2.58,6.25-3.89s4-2.66,5.91-4s3.66-2.74,5.19-4.08c0.76-0.67,1.45-1.33,2-1.91c0.38-0.4,0.71-0.83,1-1.3l0,0l0,0
	l0,0l0,0v0.05c-0.04,0.05-0.08,0.12-0.1,0.18c0,0.06-0.09,0.17-0.13,0.27c-0.06,0.14-0.11,0.28-0.16,0.43v0.12l0,0v-0.05l0.05-0.22
	l0.1-0.42l0.39-1.7c0.13-0.57,0.23-1.15,0.35-1.72c0.25-1.14,0.44-2.29,0.65-3.44c0.11-0.57,0.19-1.15,0.28-1.73
	s0.19-1.15,0.27-1.73c0.33-2.31,0.59-4.64,0.81-7s0.33-4.68,0.43-7s0.1-4.7,0.06-7s-0.13-4.69-0.29-7s-0.36-4.66-0.64-6.94
	c-0.14-1.14-0.3-2.27-0.48-3.37c-0.08-0.56-0.17-1.1-0.26-1.63l-0.14-0.75l-0.1-0.54L177.65,213z"/>
<path class="st13" d="M149.78,219.49L145,255.6c7.11,4,13.85,6.83,20,8L149.78,219.49z"/>
<path class="st10" d="M159.89,275.3c-0.11,0-0.21-0.03-0.3-0.08c-2.85-1.46-5.8-2.7-8.84-3.72c-0.33-0.11-0.51-0.47-0.4-0.8
	c0.11-0.33,0.47-0.51,0.8-0.4c3.09,1.04,6.1,2.31,9,3.81c0.3,0.16,0.42,0.53,0.27,0.83c0,0.01-0.01,0.01-0.01,0.02
	C160.31,275.16,160.11,275.29,159.89,275.3z"/>
<path class="st10" d="M151.3,271.65c-0.35,0.02-0.65-0.25-0.67-0.6s0.25-0.65,0.6-0.67c2.63-0.29,6.08-0.31,6.22-0.31l0,0
	c0.35,0,0.63,0.28,0.64,0.63c0,0.35-0.28,0.63-0.63,0.64c0,0-3.53,0-6.09,0.3H151.3z"/>
<polygon class="st9" points="82.83,419.86 76.26,430.58 63.75,425.05 69.43,413.52 "/>
<path class="st14" d="M24.14,431.14l47.31,20.94c0.75-0.65,1.36-1.45,1.79-2.35c2.06-3.87,3.62-10.82,4.77-15.13
	c0.13-0.5,0.26-1,0.39-1.39c0.16-0.58,0.36-1.15,0.6-1.71c1.45-3.28-1.71-4-1.71-4c-6.86,2.58-9.17-6.86-13.35-5.95
	c0,0-1.8,0.37-7,2.09s-12.63,1.12-19.07,1c-8.32-0.18-11.61,1.87-12.89,3.72C24.36,429.15,24.06,430.14,24.14,431.14z"/>
<path class="st15" d="M24.14,431.14l47.31,20.94c0.75-0.65,1.36-1.45,1.79-2.35l-48.32-21.39
	C24.32,429.14,24.04,430.14,24.14,431.14z"/>
<path class="st15" d="M66.62,449.94l1.41,0.63c-0.9-2.89-0.61-6.02,0.81-8.7c1.91-3.59,5.23-6.23,9.16-7.27
	c0.13-0.5,0.26-1,0.39-1.39c-4.58,0.99-8.48,3.96-10.66,8.1C66.34,443.96,65.95,447.02,66.62,449.94z"/>
<path class="st3" d="M56.44,426.77c0.43,0.2,0.93,0.02,1.13-0.41c0.17-0.36,0.06-0.8-0.26-1.04l-2.63-2
	c-0.42-0.22-0.93-0.06-1.15,0.36c-0.17,0.33-0.11,0.73,0.15,0.99l2.63,2C56.35,426.71,56.39,426.74,56.44,426.77z"/>
<path class="st3" d="M60.47,425.61c0.43,0.2,0.93,0.02,1.13-0.41c0.17-0.36,0.06-0.8-0.26-1.04l-2.63-2
	c-0.34-0.33-0.89-0.32-1.22,0.02c-0.33,0.34-0.32,0.89,0.02,1.22c0.04,0.04,0.09,0.08,0.14,0.11l2.63,2
	C60.35,425.55,60.41,425.58,60.47,425.61z"/>
<path class="st3" d="M52.73,427.18c0.43,0.2,0.93,0.02,1.13-0.41c0.17-0.36,0.06-0.8-0.26-1.04l-2.63-2
	c-0.31-0.36-0.86-0.4-1.21-0.08c-0.36,0.31-0.4,0.86-0.08,1.21c0.08,0.09,0.18,0.17,0.3,0.22l2.63,2
	C52.64,427.12,52.68,427.15,52.73,427.18z"/>
<path class="st3" d="M49,427.53c0.44,0.18,0.94-0.04,1.12-0.48c0.14-0.35,0.04-0.74-0.25-0.98l-2.63-2
	c-0.4-0.25-0.93-0.13-1.18,0.28c-0.21,0.34-0.16,0.79,0.13,1.07l2.63,2L49,427.53z"/>
<path class="st3" d="M45.14,427.63c0.35,0.15,0.76,0.04,1-0.26c0.29-0.36,0.23-0.89-0.14-1.18c0,0-0.01-0.01-0.01-0.01l-2.63-2.05
	c-0.33-0.33-0.87-0.34-1.2-0.01s-0.34,0.87-0.01,1.2c0.06,0.06,0.13,0.11,0.21,0.15l2.63,2C45.03,427.54,45.08,427.59,45.14,427.63z
	"/>
<path class="st3" d="M41.07,427.38c0.43,0.2,0.93,0.02,1.13-0.41c0.17-0.36,0.06-0.8-0.26-1.04l-2.63-2
	c-0.37-0.29-0.91-0.22-1.2,0.15c-0.28,0.38-0.22,0.91,0.15,1.2l2.64,2C40.95,427.32,41.01,427.36,41.07,427.38z"/>
<path class="st4" d="M112.2,316.39c4.39-4.32,39-14,62-7.56c4.64,9.62,3.81,20.98-2.2,29.81c-30.24,4.94-47.11,15.11-47.11,15.11
	s-10.72,24.77-17.09,33.86s-21,38-21,38l-22-9.4C64.8,416.21,100.25,328.16,112.2,316.39z"/>
<path class="st12" d="M89.16,420.13c-0.08,0-0.16-0.02-0.24-0.05l-21.54-8.95c-0.32-0.14-0.47-0.51-0.34-0.83
	c0.12-0.32,0.48-0.48,0.8-0.35c0.01,0,0.02,0.01,0.03,0.01l21.53,9c0.32,0.13,0.48,0.49,0.36,0.82c0,0,0,0.01-0.01,0.01
	C89.63,420.01,89.41,420.14,89.16,420.13z"/>
<path class="st12" d="M85.54,418.32c-0.08,0-0.16-0.02-0.23-0.05c-0.32-0.12-0.49-0.49-0.36-0.81c0,0,0,0,0-0.01
	c0-0.11,4.55-11.36,15.06-27.31s21.36-42.62,21.47-42.89c0.17-0.31,0.56-0.42,0.87-0.25c0.26,0.14,0.38,0.44,0.31,0.72
	c-0.11,0.27-11.08,27.17-21.59,43.12s-14.9,27-14.94,27.08C86.03,418.16,85.8,418.32,85.54,418.32z"/>
<polygon class="st9" points="138.37,421.75 136.71,434.21 123.03,434.21 123.56,421.38 "/>
<path class="st14" d="M89.28,455.82H141c0.43-0.9,0.66-1.88,0.69-2.88c0.32-4.37-1.08-11.36-1.76-15.76c-0.08-0.51-0.15-1-0.21-1.43
	c-0.09-0.6-0.14-1.2-0.15-1.8c0-3.59-3.18-3-3.18-3c-5.24,5.14-11.17-2.56-14.63,0c0,0-1.49,1.07-5.6,4.77s-11.09,6.13-17,8.62
	c-7.67,3.21-9.85,6.42-10.28,8.62C88.66,453.93,88.8,454.95,89.28,455.82z"/>
<path class="st15" d="M89.28,455.82H141c0.43-0.9,0.66-1.88,0.69-2.88H88.85C88.63,453.92,88.79,454.95,89.28,455.82z"/>
<path class="st15" d="M135.74,455.82h1.53c-2-2.28-3-5.27-2.78-8.29c0.29-4.06,2.27-7.81,5.45-10.35c-0.08-0.51-0.15-1-0.21-1.43
	c-3.78,2.76-6.15,7.05-6.47,11.72C133.07,450.46,133.94,453.42,135.74,455.82z"/>
<path class="st3" d="M117.05,438.75c0.47,0.01,0.86-0.36,0.87-0.83c0.01-0.41-0.27-0.76-0.67-0.85l-3.23-0.8
	c-0.46-0.11-0.92,0.16-1.03,0.62s0.16,0.92,0.62,1.03l3.23,0.81L117.05,438.75z"/>
<path class="st3" d="M120.26,436.06c0.47,0.02,0.86-0.35,0.88-0.82c0.01-0.41-0.27-0.77-0.67-0.86l-3.24-0.8
	c-0.45-0.1-0.89,0.18-1,0.62c-0.09,0.45,0.18,0.89,0.62,1l3.23,0.8C120.14,436.03,120.2,436.05,120.26,436.06z"/>
<path class="st3" d="M113.82,440.63c0.46-0.07,0.78-0.51,0.71-0.97c-0.05-0.3-0.25-0.55-0.53-0.66l-3.23-0.8
	c-0.46-0.11-0.92,0.16-1.03,0.62s0.16,0.92,0.62,1.03l3.23,0.8L113.82,440.63z"/>
<path class="st3" d="M110.59,442.44c0.47,0.01,0.86-0.36,0.87-0.83c0.01-0.41-0.27-0.76-0.67-0.85l-3.23-0.81
	c-0.46-0.11-0.92,0.17-1.04,0.62s0.17,0.92,0.62,1.04l0,0l3.23,0.8L110.59,442.44z"/>
<path class="st3" d="M107.06,444.11c0.39,0,0.73-0.27,0.83-0.65c0.09-0.45-0.18-0.89-0.62-1l-3.24-0.81
	c-0.46-0.11-0.92,0.17-1.04,0.62s0.17,0.92,0.62,1.04l3.24,0.8C106.93,444.12,106.99,444.12,107.06,444.11z"/>
<path class="st3" d="M103.24,445.53c0.47,0.01,0.86-0.36,0.87-0.83c0.01-0.41-0.27-0.76-0.67-0.85l-3.23-0.8
	c-0.45-0.1-0.89,0.18-1,0.62c-0.09,0.45,0.18,0.89,0.62,1l3.23,0.8L103.24,445.53z"/>
<path class="st5" d="M242,318.64c0,0.21-0.05,0.41-0.08,0.6s-0.21,0.16-0.31,0.24c-8.03,6.02-17.22,10.31-27,12.59l-1,0.24
	c-1.65,0.37-3.3,0.7-4.94,1c-2.23,0.37-4.46,0.66-6.68,0.85c-2,0.17-3.9,0.27-5.82,0.31c-7.7,0.22-15.39-0.81-22.77-3.05l-0.76-0.24
	c-1.71-0.57-3.37-1.23-5-2l-0.71-0.33c-1-0.48-1.9-1-2.78-1.52c0.13-3.19,0.17-7,0.14-11.09c0-0.34,0-0.68,0-1
	c-0.05-5.68-0.23-11.81-0.45-17.41c0-0.27,0-0.53,0-0.79c-0.12-2.93-0.26-5.71-0.38-8.19c0-0.26,0-0.53-0.05-0.78
	c-0.11-2.09-0.22-4-0.32-5.48c0-0.39,0-0.78-0.08-1.16l-0.06-0.89l0,0c-0.08-1.08-0.17-2.13-0.26-3.17
	c-0.14-1.66-0.3-3.27-0.47-4.83c-0.2-1.79-0.41-3.52-0.63-5.2s-0.5-3.53-0.77-5.21s-0.6-3.51-0.91-5.16
	c-1.11-5.83-2.36-10.82-3.61-15.14c-0.09-0.29-0.18-0.58-0.26-0.87c-0.51-1.72-1-3.31-1.51-4.81c-0.11-0.33-0.22-0.65-0.32-1
	c-2.78-8.25-5.08-13.23-5.12-16.57c-0.08-6.95,5-9.18,10.3-12l0.75-0.4c0.89-0.48,1.78-1,2.65-1.54c0.37-0.22,0.73-0.46,1.08-0.72
	c0.25-0.17,0.49-0.35,0.72-0.52c2.27-1.68,4.04-3.93,5.14-6.53l20-4.22c1.65,0.78,3.36,1.4,5.13,1.85l0.94,0.24
	c0.37,0.09,0.77,0.18,1.18,0.25c0.25,0.06,0.51,0.1,0.78,0.15l0.62,0.11c2.2,0.34,4.42,0.49,6.65,0.44h0.77h0.54
	c1.65-0.09,3.3,0.13,4.88,0.63l0,0c0.3,0.1,0.6,0.2,0.89,0.32c6.5,2.6,11.62,10.38,14.94,22.33c0.92,3.32,1.83,6.55,2.71,9.72
	l0.28,1c0.2,0.69,0.38,1.38,0.57,2.07l0,0c0.07,0.25,0.13,0.5,0.2,0.75c0.68,2.46,1.34,4.87,2,7.26l0,0
	c0.06,0.25,0.13,0.51,0.2,0.76l0,0c0,0.14,0.08,0.27,0.11,0.4l0.36,1.4c2.23,8.26,3.98,16.64,5.26,25.1
	c0.25,1.72,0.47,3.46,0.66,5.2c0,0.42,0.09,0.89,0.14,1.42c0,0.09,0,0.19,0,0.29s0,0.36,0.05,0.55v0.28
	c0.32,3.15,0.74,7.52,1.14,12.32c0,0.25,0,0.51,0.07,0.77C241.86,299.46,242.69,312.78,242,318.64z"/>
<path class="st13" d="M181.07,208.66c8-1.69,12.32-11.7,12.51-12.13c0.09-0.31-0.09-0.63-0.4-0.72c-0.26-0.07-0.53,0.04-0.66,0.27
	c0,0.11-4.43,10.29-12.15,11.54s-10.61-4.35-10.73-4.59c-0.15-0.28-0.49-0.39-0.77-0.24c0,0,0,0,0,0c-0.28,0.15-0.39,0.49-0.25,0.77
	c2.47,4.09,7.26,6.17,11.94,5.19L181.07,208.66z"/>
<path class="st13" d="M189.18,315.1c7.53-1.59,15.3-5.45,23.06-11.52c6.66-5.26,12.63-11.34,17.76-18.09
	c0.18-0.26,0.12-0.61-0.13-0.8c-0.26-0.18-0.61-0.12-0.8,0.13c-5.06,6.67-10.95,12.68-17.52,17.88c-9.67,7.54-24.44,15.5-40,10.54
	c-0.3-0.1-0.62,0.07-0.72,0.37s0.07,0.62,0.37,0.72C177.02,316.16,183.22,316.43,189.18,315.1z"/>
<path class="st13" d="M184.68,309.36L184.68,309.36c11.71-2.67,18-20.35,18.27-21.1c0.11-0.3-0.05-0.62-0.35-0.73c0,0,0,0,0,0
	c-0.29-0.11-0.61,0.04-0.72,0.33c0,0.01-0.01,0.02-0.01,0.02c-0.06,0.18-6.35,17.83-17.44,20.36c-0.31,0.07-0.51,0.37-0.44,0.68
	C184.06,309.23,184.36,309.43,184.68,309.36L184.68,309.36z"/>
<path class="st13" d="M163.05,281.4c1.48-1.01,2.79-2.24,3.9-3.65c2.61-3.4,3-6.88,1-9.8l-1.1-1.61c-4-5.88-4.45-6.49-4.1-16.16
	c0.11-3-0.74-5.44-2.54-7.11c-1.18-1.04-2.59-1.78-4.11-2.15c0.09,0.29,0.17,0.58,0.26,0.87c1.24,0.36,2.37,0.99,3.33,1.85
	c1.71,1.71,2.55,4.1,2.3,6.51c-0.36,9.92,0.16,10.68,4.23,16.62l1.1,1.61c2.4,3.53,0.43,7.1-1,8.91c-0.95,1.22-2.07,2.3-3.32,3.21
	l0,0C163,280.8,163,281.1,163.05,281.4z"/>
<path class="st13" d="M239.72,275.17c-1.4,0.84-2.92,1.44-4.51,1.79c-3.37,0.83-6.93-0.13-9.43-2.54c-3-2.82-3.23-7.51-0.51-10.61
	c3-3.41,1.7-5.23,0.08-7.52s-3.59-5.08-1.52-10c0.94-2.59,2.91-4.69,5.44-5.78c1.15-0.45,2.37-0.7,3.6-0.72
	c0.06,0.25,0.13,0.51,0.2,0.76c-1.2,0-2.4,0.23-3.52,0.67c-2.33,1.03-4.14,2.97-5,5.37c-1.9,4.55-0.2,7,1.45,9.29
	s3.25,4.6-0.13,8.46c-2.49,2.78-2.28,7.05,0.47,9.57c2.81,2.83,7.79,3.8,13.32,0.46c0,0.18,0,0.36,0.05,0.55L239.72,275.17z"/>
<path class="st13" d="M187.48,278.05c2.07,3.37,6.15,4.92,9.94,3.79c0.61-0.18,1.21-0.4,1.8-0.65c4.91-2.1,10.57-7.05,12.74-12.81
	c1.68-4.36,1.13-9.27-1.49-13.14c-3.92-6.14-6.19-11.85-6.57-16.49c-0.27-3.33-3.19-5.81-6.52-5.54c-2.07,0.17-3.91,1.38-4.87,3.22
	l-0.21,0.39c-3.3,6.44-1.33,11.1,0.41,15.21c1.83,4.29,3.4,8-1.58,12.83C186.6,269.25,185.24,274.18,187.48,278.05z M191.66,265.41
	c5.36-5.19,3.6-9.32,1.75-13.68c-1.75-4.15-3.57-8.44-0.43-14.56l0.2-0.39c1.08-2.11,3.44-3.22,5.75-2.72
	c2.32,0.44,4.05,2.39,4.21,4.75c0.32,3.06,1.12,6.05,2.39,8.85c1.21,2.78,2.65,5.45,4.3,8c2.51,3.66,3.04,8.34,1.41,12.47
	c-2.35,6.25-9,11.52-14,13c-3.43,1.01-7.12-0.4-9-3.45C186.09,274.12,187.4,269.54,191.66,265.41L191.66,265.41z"/>
<path class="st13" d="M154.25,235.14c0.11,0.32,0.21,0.64,0.32,1c2.25,0.91,4.73,1.12,7.1,0.61c0.88-0.19,1.74-0.46,2.57-0.82
	c4.89-2.11,8.21-6.64,8.13-9.38c0.03-0.94-0.56-1.8-1.45-2.11c-5.26-1.92-7.41-5.39-8.21-13.28c-0.11-1.93-1.02-3.73-2.53-4.95
	l-0.75,0.4l0.19,0.13c1.4,1.07,2.27,2.7,2.38,4.46c0.84,8.25,3.11,11.89,8.7,13.93c0.62,0.18,1.03,0.76,1,1.41
	c0.07,2.49-3.19,6.72-7.67,8.66C160.92,236.61,157.35,236.59,154.25,235.14z"/>
<path class="st13" d="M181.4,236.4c1.04,1.05,2.57,1.46,4,1.09c0.52-0.11,1.01-0.29,1.47-0.55c2.42-1.34,3.32-4.14,2.41-7.48
	s0.86-5.15,2.61-6.76c1.53-1.41,3.12-2.88,1.87-5.38c-0.94-1.91-3.02-2.97-5.12-2.6c-2.85,0.3-5.34,2.04-6.59,4.62
	C179.78,223.77,177.63,232.32,181.4,236.4z M182.7,219.68c1.03-2.07,2.94-3.57,5.2-4.08c0.26-0.05,0.52-0.09,0.78-0.11
	c1.78-0.35,3.57,0.54,4.37,2.17c1,2-0.14,3-1.71,4.48c-1.74,1.6-3.9,3.59-2.82,7.52c0.81,3,0,5.45-2,6.61
	c-1.42,0.89-3.26,0.73-4.52-0.38C178.46,232.09,180.55,223.93,182.7,219.68z"/>
<path class="st13" d="M170.15,263.47c0.42,2,1.24,3.66,2.64,4.48c1.67,1.12,3.68,1.61,5.68,1.39c0.62-0.11,1.19-0.42,1.63-0.87
	c1.23-1.33,0.83-3.72-1.13-6.55c-2.26-3.29-0.27-5.38,1.83-7.6c1.8-1.89,3.65-3.84,2.61-6.51c-0.75-1.92-2.47-2.81-5-2.59
	c-4.28,0.45-7.7,3.78-8.25,8.05C169.62,256.65,169.61,260.09,170.15,263.47z M170.94,253.37c0.23-1.76,1-3.4,2.2-4.71
	c1.17-1.28,2.71-2.17,4.41-2.54c0.31-0.06,0.63-0.11,0.95-0.14c2.19-0.19,3.57,0.49,4.19,2.11c0.87,2.22-0.73,3.91-2.44,5.71
	c-2.12,2.22-4.52,4.76-1.91,8.55c1.74,2.52,2.17,4.56,1.19,5.6s-3.7,0.9-6.35-0.66C170.74,265.86,169.94,260.91,170.94,253.37
	L170.94,253.37z"/>
<path class="st13" d="M163.91,297.8c3.07-1.11,4.1,0.43,5.59,2.65c1.34,2,3,4.47,6.74,5.35c1.19,0.29,2.43,0.3,3.63,0.05
	c2.93-0.69,5.38-2.68,6.65-5.4c1.59-3.39,0.89-6.78-1.84-8.83c-0.96-0.58-1.65-1.51-1.92-2.59c-0.16-1.2,0.74-2.36,1.7-3.59
	c1.33-1.71,2.83-3.65,1.68-6.12c-0.86-1.91-2.72-3.18-4.82-3.27c-3.66-0.27-7.76,2.21-10.45,6.3c-1.71,2.73-4.34,4.75-7.42,5.69
	c0,0.26,0,0.52,0.05,0.78c3.31-0.97,6.16-3.13,8-6.05c1.73-2.85,4.49-4.93,7.71-5.81c0.67-0.15,1.36-0.2,2.05-0.15
	c1.82,0.08,3.44,1.17,4.18,2.83c1,2.05-0.28,3.64-1.59,5.33c-1,1.3-2.06,2.64-1.86,4.16c0.3,1.29,1.1,2.4,2.22,3.1
	c2.9,2.18,2.73,5.51,1.61,7.9c-1.5,3.19-5.22,5.92-9.42,4.93c-3.44-0.81-4.94-3.05-6.27-5c-1.49-2.22-2.8-4.17-6.26-3L163.91,297.8z
	"/>
<path class="st13" d="M202.79,288.53c0.17,1.22,1.04,2.23,2.23,2.56c0.68,0.16,1.4,0.16,2.08,0c1.91-0.5,3.62-1.58,4.9-3.09
	c1.52-1.72,3-1.51,5.14-1.2c2.63,0.56,5.36,0.27,7.82-0.82c2.95-1.15,4.42-4.48,3.27-7.43c-0.01-0.02-0.02-0.05-0.03-0.07
	c-0.88-2.62-3.71-4.03-6.33-3.15c-0.02,0.01-0.04,0.01-0.06,0.02c-1.83,0.65-3.52,1.63-5,2.89c-2,1.54-3.69,2.87-7.59,2.63
	c-1.69-0.2-3.38,0.37-4.61,1.55c-2.16,2.21-1.87,5.95-1.86,6.11C202.76,288.53,202.78,288.53,202.79,288.53z M203.54,288.41
	c0-0.29-0.19-3.61,1.65-5.5c1.07-1.02,2.54-1.5,4-1.31c4.19,0.25,6.09-1.23,8.1-2.8c1.41-1.21,3.03-2.15,4.78-2.77
	c2.24-0.76,4.67,0.43,5.43,2.66c0,0.01,0,0.01,0.01,0.02c1.03,2.56-0.2,5.47-2.76,6.51c-0.03,0.01-0.05,0.02-0.08,0.03
	c-2.32,1.04-4.92,1.3-7.4,0.75c-1.09-0.23-2.2-0.26-3.3-0.1c-0.99,0.22-1.88,0.76-2.52,1.55c-1.93,2.18-4.5,3.38-6.25,2.91
	C204.31,290.1,203.66,289.33,203.54,288.41z"/>
<path class="st13" d="M236.27,306.93c-2.63,4.34-1.52,9.17,1.07,11.34c1.19,1.01,2.76,1.46,4.3,1.21c0.11-0.07,0.21-0.15,0.31-0.24
	c0-0.19,0.06-0.39,0.08-0.6c-1.48,0.38-3.05,0.01-4.2-1c-2.34-2-3.32-6.37-0.91-10.35s0.52-5.29-1.52-6.61
	c-1.88-1.22-3.82-2.48-3.53-6.1c0.08-1.67,0.87-3.22,2.16-4.28c1.17-0.87,2.53-1.45,3.97-1.7c0.99-0.2,1.99-0.31,3-0.34
	c0-0.26,0-0.52-0.07-0.77c-2.17,0.08-5.19,0.53-7.31,2.26c-1.46,1.18-2.35,2.93-2.44,4.8c-0.33,4.09,2,5.59,3.87,6.81
	C237,302.66,238.33,303.53,236.27,306.93z"/>
<path class="st13" d="M172.7,331.15l0.76,0.25c-0.02-2,0.72-3.92,2.06-5.4c1.46-1.42,3.64-2,6.47-1.66c2.67,0.22,5.16,1.42,7,3.36
	c2.53,2.32,4.28,3.42,10.89-0.89c2.08-1.42,4.41-2.43,6.87-3c3.28-0.69,5.8,0,7.12,1.34c1.63,1.68,1.54,4.32-0.19,7.19l1-0.24
	c1.57-2.94,1.49-5.67-0.27-7.48c-2.35-2.42-8-2.95-15,1.57c-6.43,4.21-7.76,3-9.95,1c-1.96-2.05-4.6-3.31-7.42-3.56
	c-3.08-0.34-5.47,0.29-7.1,1.87C173.53,327.05,172.73,329.06,172.7,331.15z"/>
<path class="st13" d="M215.63,318.85c1,2,4.11,3.74,7.06,3.12l0.39-0.09c4.5-1.28,7.09-4.92,7.29-10.27c0.15-4.14-0.23-8.2-4.07-10
	h-0.06c-0.18,0-4.42-1.07-7.06,0.72c-1.14,0.77-1.87,2.01-2,3.38c-0.27,1.86,0.08,3.76,1,5.4c0.72,1.44,1,2.1-1.16,3.6
	C215.45,315.84,214.92,317.35,215.63,318.85z M217.51,315.36c2.62-1.79,2.24-2.9,1.42-4.57c-0.89-1.51-1.24-3.27-1-5
	c0.1-1.14,0.7-2.19,1.64-2.85c2.25-1.52,6-0.71,6.41-0.62c2.74,1.27,3.78,3.95,3.58,9.22c-0.13,3.53-1.4,8.06-6.73,9.56
	c-2.65,0.75-5.7-0.79-6.55-2.61C215.77,317.36,216.18,316.27,217.51,315.36L217.51,315.36z"/>
<path class="st13" d="M167,328.83l0.71,0.34c1.51-1.61,2.22-3.81,1.94-6c-0.49-3.46-3.39-6.36-5.3-7.92c0,0.34,0,0.68,0,1
	c1.79,1.57,4.12,4.11,4.54,7c0.25,2.02-0.42,4.05-1.83,5.52L167,328.83z"/>
<path class="st4" d="M152.28,162.43c0,0-11.35-2.4-11.62-6.73c-0.24-4,4.48-3.58,4.48-3.58s-5.51-9-2.35-10.81s7.15,3.29,7.15,3.29
	s-2.89-10.72,1-9.95s4.36,6.66,4.36,6.66s12.83-4.57,20.12-2.38c2.96,0.94,5.27,3.29,6.14,6.28c0,0,2.95-1.76,5.05-0.68
	s0.18,4.76,0.18,4.76c1.9,1.55,2.77,4.05,2.25,6.45c-1,4-3.82,11.78-3.82,11.78L152.28,162.43z"/>
<path class="st9" d="M168.3,193.93l1.1,5.22c0.68,0.35,1.39,0.65,2.12,0.9c10.2,3.53,18.55-5.26,18.55-5.26l-3.81-18.08
	l-15.82,15.17L168.3,193.93z"/>
<path class="st4" d="M168.3,193.93l1.1,5.22c0.68,0.35,1.39,0.65,2.12,0.9c7.06-4.68,11-14,11-14l-12.05,5.78L168.3,193.93z"/>
<path class="st4" d="M158.26,151.7c0,0-12.35,3.84-5,16.06C153.23,167.76,159.27,155.08,158.26,151.7z"/>
<path class="st10" d="M156.91,172.19c0,0-3.7-2.87-4.64,1s1.85,10.66,6.11,8.55L156.91,172.19z"/>
<path class="st9" d="M156.34,185.13c0,0,2.25,10.79,13.46,8.4s16.9-12.73,17.2-13.21l0,0l-0.36-2.29l-1.84-11.89l-1-6.36
	c0,0-1-11.62-12.15-11.42c-8.18,0.15-15.28,3-18.13,7.89c-1.1,1.87-1.54,4.05-1.27,6.2l2,11.36l0.5,2.79L156.34,185.13z"/>
<path class="st4" d="M179.21,167.52c0,0-1.65,6.63-5.3,6.32s-7.71,0.1-10.52,2.22c0,0-5.65-0.85-8.32,2
	c-1.79,1.88,2.42,15.94,10.23,16.45s17.2-4.18,18.13-11.64c0.56-4.45,0.41-8.95-0.47-13.35L179.21,167.52z"/>
<path class="st3" d="M161.09,179.21c0,0,6.31-0.64,9.4-2.41c0,0,1.39,6.16-4,6.69C162.26,183.91,161.09,179.21,161.09,179.21z"/>
<path class="st10" d="M169.23,172.1c0.17,0.78,1.92,1.08,3.91,0.66s3.48-1.4,3.31-2.18s-1.91-1.08-3.91-0.66
	S169.07,171.31,169.23,172.1z"/>
<path class="st10" d="M154.81,176.58c0.28,0,0.58-0.08,0.88-0.14c2-0.42,3.47-1.4,3.31-2.19s-1.92-1.08-3.91-0.66l-0.78,0.2
	L154.81,176.58z"/>
<path class="st4" d="M168.44,167.75c0.23,1.08,0.9,1.85,1.5,1.72s0.91-1.1,0.68-2.18s-0.9-1.85-1.5-1.72
	S168.21,166.67,168.44,167.75z"/>
<path class="st4" d="M157.77,170c0.23,1.08,0.9,1.85,1.51,1.72s0.9-1.1,0.68-2.18s-0.9-1.85-1.51-1.72S157.54,168.92,157.77,170z"/>
<path class="st4" d="M164.4,174.27c0.24-0.05,0.4-0.29,0.35-0.54s-0.29-0.4-0.54-0.35c-1.02,0.28-2.11,0.03-2.9-0.68
	c1-4,2-8.07,2-8.11c0.06-0.24-0.09-0.49-0.33-0.55c-0.24-0.06-0.49,0.08-0.55,0.33c0,0,0,0.01,0,0.01c0,0-1,4.24-2,8.34
	c-0.04,0.13-0.01,0.27,0.07,0.38C161.48,174.2,162.99,174.65,164.4,174.27z"/>
<path class="st4" d="M172.79,161.67c-0.48-1.09-1.88-3-5.55-2.42c-0.45,0.08-0.78,0.45-0.82,0.9l0,0c0,0.55,0.45,1,1,1
	c1.4-0.08,2.76,0.52,3.64,1.61c0.37,0.41,1,0.45,1.41,0.09c0.01-0.01,0.01-0.01,0.02-0.02l0.09-0.09
	C172.86,162.46,172.94,162.04,172.79,161.67z"/>
<path class="st4" d="M154.14,165.6c0-1.19,0.51-3.53,4.11-4.46c0.44-0.1,0.9,0.1,1.11,0.5l0,0c0.24,0.5,0.03,1.1-0.46,1.34
	c-0.01,0-0.02,0.01-0.03,0.01c-1.32,0.49-2.32,1.58-2.69,2.94c-0.17,0.53-0.73,0.81-1.26,0.64c0,0-0.01,0-0.01,0h-0.12
	C154.39,166.42,154.13,166.03,154.14,165.6z"/>
<path class="st4" d="M182.57,176.68c0.08,0.11,2.19,3.1,4.44,3.64l0,0l-0.36-2.29C185.19,177.96,183.78,177.49,182.57,176.68z"/>
<path class="st9" d="M183,168.78c0,0,3.09-6.7,7.21-2.82c3.39,3.2,0.53,14-5.33,11.75L183,168.78z"/>
<path class="st4" d="M185.08,175.84c0.23-0.05,0.38-0.26,0.35-0.49c-0.28-2.66,0.86-5.27,3-6.88c0.21-0.14,0.26-0.42,0.12-0.62
	s-0.42-0.26-0.62-0.12c-2.44,1.77-3.76,4.72-3.45,7.72c0.03,0.25,0.25,0.43,0.5,0.41L185.08,175.84z"/>
<path class="st4" d="M188.65,172.28c0.16-0.03,0.29-0.13,0.35-0.28c0.11-0.22,0.03-0.49-0.19-0.61c0,0,0,0-0.01,0
	c-0.2-0.1-2.06-1-3.32-0.4c-0.22,0.11-0.32,0.38-0.21,0.6s0.38,0.32,0.6,0.21c0.86-0.17,1.75-0.03,2.51,0.4
	C188.47,172.25,188.56,172.28,188.65,172.28z"/>
<path class="st4" d="M153.55,156.23c0.14,0.35,0.38,0.64,0.69,0.86c2.66,1.83,7.64-0.07,12.1-2.55c2.7-1.44,5.95-1.33,8.55,0.28
	c-0.37,4.85,4.21,4.27,4,7.94c-0.03,2.76,0.34,5.5,1.1,8.15l2.72-1c0.28-1.47,1.03-2.81,2.13-3.83l-1-6.36c0,0-1-11.62-12.16-11.42
	C163.5,148.49,156.4,151.34,153.55,156.23z"/>
<path class="st4" d="M237.09,309.18c0,0,10.68,42.13-44.69,42.13c-29.57,0-43.63-2.86-43.63-2.86s-0.71,26.12-2.08,37.13
	s-6.25,38.47-6.25,38.47l-23.29,1.8c0,0-3.73-95.6,10.55-104.4s34.8-9.07,70-12.45C197.74,309,229.38,303.65,237.09,309.18z"/>
<path class="st12" d="M137.25,416.41c-0.05,0.01-0.1,0.01-0.15,0c-0.34-0.08-0.55-0.42-0.47-0.76c0,0,0,0,0,0
	c3.22-13.45,4.5-32.71,5.53-48.19c1-15.26,1.61-23.29,3.2-24.69c1.75-1.55,6.93-1,15.52-0.08c10.65,1.13,26.74,2.84,44.08,0.85
	c8.62-1,15.22-4.36,19.63-10c7.92-10.16,6.1-24.43,6.08-24.58c-0.01-0.35,0.27-0.65,0.63-0.65c0.3-0.01,0.56,0.19,0.63,0.48
	c0.08,0.61,1.91,14.93-6.33,25.52c-4.63,5.95-11.52,9.49-20.49,10.52c-17.49,2-33.66,0.29-44.36-0.85
	c-7.39-0.79-13.22-1.41-14.55-0.23c-0.3,0.26-0.9,1.57-1.52,7.36c-0.45,4.28-0.83,9.93-1.26,16.46c-1,15.53-2.31,34.85-5.56,48.4
	C137.78,416.24,137.53,416.41,137.25,416.41z"/>
<path class="st12" d="M117.4,418.31c-0.35,0-0.63-0.28-0.63-0.63s0.28-0.63,0.63-0.63l0,0l23.82-1.44c0.35-0.02,0.65,0.24,0.67,0.59
	c0.02,0.35-0.24,0.65-0.59,0.67l-23.82,1.44H117.4z"/>
<path class="st2" d="M111.71,312.07h69.77c0.16,0,0.29,0.13,0.29,0.29v8.59c0,0.16-0.13,0.29-0.29,0.29h-69.77
	c-0.16,0-0.29-0.13-0.29-0.29v-8.59C111.42,312.2,111.55,312.07,111.71,312.07z"/>
<path class="st3" d="M104.07,321.24c-2.65,0-4.96-1.78-5.64-4.34l-13.16-49.27c-0.7-2.52,0.79-5.13,3.31-5.83
	c0.41-0.11,0.84-0.17,1.27-0.17h31.5c2.12,0,3.99,1.41,4.56,3.46l15.76,56.11L104.07,321.24z"/>
<path class="st2" d="M125.92,265.13l15.63,55.64h3.59l-15.63-55.64c-0.57-2.05-2.43-3.47-4.56-3.47h-3.6
	C123.48,261.67,125.34,263.08,125.92,265.13z"/>
<path class="st2" d="M117,292.25c0.71,2.27-0.55,4.69-2.82,5.41c-0.48,0.15-0.99,0.22-1.49,0.19c-3.28-0.15-6.08-2.42-6.9-5.6
	c-0.71-2.28,0.56-4.7,2.84-5.41c0.48-0.15,0.97-0.21,1.47-0.19C113.38,286.8,116.18,289.07,117,292.25z"/>
<path class="st9" d="M160,301.16c0,0-14.28,1-18.84,5.35l2.77,9.88c0,0,8.54-3.49,10.91-3.15s3.77,4.22,11.68,1.86L160,301.16z"/>
<path class="st9" d="M160.05,300.51l1.61-0.65l1.68-0.71c1.11-0.47,2.23-1,3.34-1.45c2.23-1,4.45-2,6.64-3.07
	c4.39-2.11,8.7-4.34,12.86-6.72c4.08-2.31,8.03-4.85,11.83-7.6c0.91-0.68,1.81-1.36,2.67-2.06s1.69-1.4,2.49-2.11
	c1.49-1.32,2.88-2.76,4.14-4.3c0.52-0.63,0.99-1.3,1.42-2c0.36-0.61,0.67-1.25,0.93-1.91c0.62-1.59,1.07-3.24,1.34-4.93
	c0.58-4.07,0.66-8.19,0.23-12.28c-0.44-4.5-1.18-8.96-2.23-13.35c-0.51-2.24-1.09-4.48-1.72-6.69c-0.31-1.11-0.64-2.21-1-3.29
	c-0.17-0.55-0.34-1.08-0.52-1.61l-0.27-0.77l-0.13-0.37l-0.06-0.17v-0.08l0,0c-2.84-6.36,0.01-13.83,6.38-16.67
	c6.12-2.73,13.31-0.2,16.37,5.76c0.29,0.6,0.53,1.22,0.72,1.86l0.38,1.31l0.1,0.34l0.08,0.29l0.14,0.53l0.28,1
	c0.17,0.69,0.34,1.37,0.5,2c0.31,1.35,0.61,2.69,0.89,4c0.55,2.69,1,5.38,1.45,8.1c0.85,5.55,1.32,11.16,1.41,16.78
	c0.05,2.92-0.06,5.83-0.32,8.74c-0.27,3.07-0.76,6.11-1.48,9.1c-0.77,3.28-1.91,6.45-3.4,9.47c-0.82,1.62-1.76,3.17-2.82,4.65
	c-1,1.37-2.09,2.67-3.25,3.91c-2.11,2.21-4.4,4.25-6.83,6.1c-2.31,1.78-4.64,3.37-7,4.84c-4.6,2.84-9.36,5.43-14.25,7.73
	c-4.79,2.28-9.61,4.34-14.47,6.25c-2.44,0.95-4.88,1.87-7.33,2.74c-1.23,0.44-2.46,0.87-3.7,1.29l-1.87,0.63l-1.95,0.63
	c-4.22,1.41-8.78-0.86-10.19-5.08c-1.36-4.05,0.68-8.45,4.65-10.03L160.05,300.51z"/>
<path class="st10" d="M218.48,273.4c-0.05,0.01-0.09,0.01-0.14,0c-3.37-0.92-6.85-1.34-10.34-1.26c-0.28,0-0.5-0.22-0.5-0.5
	s0.22-0.5,0.5-0.5c3.61-0.1,7.21,0.33,10.69,1.28c0.26,0.07,0.42,0.34,0.35,0.6c0,0.01,0,0.01-0.01,0.02
	C218.96,273.28,218.73,273.43,218.48,273.4z"/>
<path class="st10" d="M209.2,272.13c-0.28,0-0.5-0.23-0.5-0.5c0-0.14,0.07-0.28,0.18-0.38c1.24-1.02,2.66-1.8,4.19-2.29
	c0.26-0.08,0.53,0.06,0.61,0.32c0,0.01,0,0.01,0.01,0.02c0.08,0.26-0.07,0.54-0.33,0.62c-1.39,0.45-2.69,1.16-3.83,2.08
	C209.44,272.09,209.32,272.13,209.2,272.13z"/>
<path class="st5" d="M236.28,241.56l-10.35,2.84l-0.76,0.21l-7.15,2l-0.87,0.24l-9.2,2.52l-0.71-3.26l-0.16-0.79l-1.66-7.66
	l-0.17-0.76l-3.13-14.45c-0.97-3.56-1.29-7.26-0.94-10.93c1.02-6.64,6.58-11.66,13.29-12c1.4-0.08,2.8,0.13,4.11,0.61
	c0.26,0.08,0.52,0.18,0.77,0.3c2.63,1.33,4.86,3.34,6.45,5.83c0.15,0.21,0.29,0.42,0.42,0.64c3.5,5.32,5.89,12.76,7.49,19.71
	c0.07,0.28,0.13,0.55,0.19,0.82c0.74,3.31,1.3,6.5,1.72,9.26c0.07,0.42,0.13,0.84,0.18,1.26C236,239.24,236.16,240.48,236.28,241.56
	z"/>
<path class="st13" d="M235.62,236.61c-1.46-1.36-3.51-1.9-5.45-1.45c-3,0.54-5.43-0.43-6.39-2.63c-0.76-1.49-0.44-3.3,0.78-4.45
	c2.34-1.8,5.93-1.65,9.34-0.73c-0.06-0.27-0.12-0.54-0.19-0.82c-3.5-0.88-7.16-0.94-9.62,0.94c-1.12,0.95-1.66,2.41-1.43,3.86
	c0.06,0.52,0.2,1.04,0.41,1.52c1.12,2.53,3.83,3.68,7.24,3.06c2.06-0.48,4.22,0.3,5.49,2C235.75,237.46,235.69,237.03,235.62,236.61
	z"/>
<path class="st13" d="M224.81,214c-2.12-3.07-0.53-5.1,1.41-7.16c-0.13-0.22-0.27-0.43-0.42-0.64c-2.05,2.15-4.12,4.62-1.62,8.23
	c1.73,2.52,2.16,4.56,1.19,5.61s-3.71,0.89-6.36-0.66c-2.44-1.45-3.23-6.38-2.24-13.92c0.23-1.76,1-3.4,2.2-4.71l0.38-0.38
	c-0.25-0.12-0.51-0.22-0.77-0.3c-1.4,1.44-2.3,3.29-2.57,5.28c-0.53,3.38-0.53,6.82,0,10.2c0.43,2,1.24,3.66,2.64,4.49
	c1.67,1.12,3.68,1.61,5.68,1.39c0.62-0.11,1.19-0.42,1.63-0.88C227.17,219.2,226.76,216.82,224.81,214z"/>
<path class="st13" d="M205.44,237c-1.7-10.11-3.85-19.57-3.87-19.67c-0.03-0.21-0.22-0.36-0.42-0.33c-0.21,0.03-0.36,0.22-0.33,0.42
	c0,0.02,0.01,0.04,0.01,0.06c0,0.11,2.16,9.51,3.86,19.57C204.8,237.41,205.44,237.43,205.44,237z"/>
<path class="st13" d="M202.7,224.75c-0.07,0-0.14-0.02-0.2-0.06l-3.9-2.5c-0.18-0.1-0.23-0.33-0.13-0.51c0,0,0.01-0.01,0.01-0.01
	c0.11-0.17,0.35-0.22,0.52-0.11l3.9,2.5c0.18,0.1,0.23,0.33,0.13,0.51c0,0-0.01,0.01-0.01,0.01
	C202.95,224.69,202.83,224.75,202.7,224.75z"/>
<path class="st3" d="M177.42,225.83c-1.34-0.01-2.63-0.52-3.61-1.43c-6.16-5.43-6.14-25.17-6.13-26c0-0.4,0.32-0.72,0.72-0.72l0,0
	l0,0c0.39,0.01,0.71,0.33,0.71,0.72c0,0.2,0,19.92,5.65,24.93c0.87,0.81,2.06,1.17,3.23,1c7.58-1,11-23.09,11.73-31.52
	c0.03-0.39,0.37-0.68,0.76-0.65c0,0,0,0,0.01,0c0.39,0.03,0.69,0.38,0.66,0.77c-0.5,5.29-1.33,10.53-2.51,15.71
	c-2.55,10.77-6.07,16.53-10.47,17.11C177.92,225.8,177.67,225.82,177.42,225.83z"/>
<path class="st16" d="M234.75,410.21H160c-1.75,0.1-3.24-1.24-3.34-2.99c-0.1-1.75,1.24-3.24,2.99-3.34c0.12-0.01,0.24-0.01,0.36,0
	h74.78c1.75-0.1,3.24,1.24,3.34,2.99c0.1,1.75-1.24,3.24-2.99,3.34c-0.12,0.01-0.24,0.01-0.36,0H234.75z"/>
<path class="st17" d="M153.09,458.58h-0.42c-1.72-0.26-2.91-1.86-2.67-3.58l13.62-101.71c0.21-1.57,1.55-2.75,3.14-2.75h61
	c1.59,0,2.93,1.18,3.14,2.76L244.27,455c0.3,1.72-0.85,3.37-2.58,3.67s-3.37-0.85-3.67-2.58c-0.01-0.09-0.03-0.17-0.03-0.26
	l-13.05-98.95h-55.46l-13.25,99C156,457.43,154.66,458.58,153.09,458.58z"/>
<path class="st17" d="M184.38,353.71H224c12.55,0,26-6.87,27.92-19.27c2.43-15.67,3.27-31.55,2.5-47.39
	c-0.82-16.67-7.29-32.15-20.4-42.48l0,0c0,0,5.66,64.29,0.56,82.06C227.76,350.36,184.38,353.71,184.38,353.71z"/>
<path class="st17" d="M63.12,221.3v19c0,2.51,2.04,4.55,4.55,4.55l0,0h34.54l10.43,3.74c0.69,0.25,1.44-0.11,1.69-0.79
	c0.11-0.3,0.11-0.63-0.01-0.93l-3.94-10.19V221.3c0-2.52-2.04-4.56-4.56-4.56H67.67C65.16,216.75,63.12,218.79,63.12,221.3z"/>
<path class="st16" d="M93.12,231.35c0,1.82,1.48,3.3,3.3,3.3c1.82,0,3.3-1.48,3.3-3.3s-1.48-3.3-3.3-3.3
	c-1.82-0.01-3.29,1.46-3.3,3.28C93.12,231.34,93.12,231.34,93.12,231.35z"/>
<path class="st16" d="M82.7,231.35c0.01,1.82,1.48,3.29,3.3,3.28s3.29-1.48,3.28-3.3c-0.01-1.81-1.48-3.28-3.29-3.28
	c-1.82,0-3.29,1.47-3.29,3.29C82.7,231.34,82.7,231.35,82.7,231.35z"/>
<path class="st16" d="M72.27,231.35c0,1.82,1.48,3.3,3.3,3.3c1.82,0,3.3-1.48,3.3-3.3c0-1.82-1.48-3.3-3.3-3.3c0,0-0.01,0-0.01,0
	c-1.82,0-3.29,1.47-3.29,3.29C72.27,231.34,72.27,231.35,72.27,231.35z"/>
<ellipse class="st2" cx="644.36" cy="146.54" rx="26.93" ry="26.6"/>
<ellipse class="st6" cx="644.36" cy="143.08" rx="26.93" ry="26.6"/>
<ellipse class="st3" cx="644.36" cy="143.08" rx="21.9" ry="21.62"/>
<path class="st2" d="M666.26,143.08c0,0.58,0,1.15-0.07,1.71c-1.1-12.06-11.76-20.94-23.81-19.85
	c-10.54,0.96-18.89,9.31-19.85,19.85c0-0.56-0.07-1.13-0.07-1.71c0.01-12.1,9.82-21.89,21.92-21.88
	C656.46,121.2,666.25,131,666.26,143.08z"/>
<path class="st4" d="M644.36,145.33c-0.17,0-0.34-0.08-0.44-0.22l-10.74-14.28c-0.18-0.24-0.13-0.58,0.11-0.76c0,0,0,0,0,0
	c0.25-0.17,0.59-0.12,0.77,0.12l10.48,13.93l11.91-5.12c0.27-0.12,0.59,0,0.71,0.27c0,0,0,0.01,0.01,0.01c0.12,0.27,0,0.58-0.26,0.7
	c-0.01,0-0.01,0.01-0.02,0.01l-12.31,5.34C644.51,145.34,644.43,145.34,644.36,145.33z"/>
<path class="st17" d="M89.05,137.44h7.29c0.66,0,1.19,0.53,1.19,1.19v38.86c0,0.66-0.53,1.19-1.19,1.19h-7.29
	c-0.66,0-1.19-0.53-1.19-1.19v-38.86C87.86,137.97,88.39,137.44,89.05,137.44z"/>
<path class="st16" d="M90.5,156.65h4.39c0.65,0,1.17,0.52,1.17,1.17v0.48c0,0.65-0.52,1.17-1.17,1.17H90.5
	c-0.65,0-1.17-0.52-1.17-1.17v-0.48C89.33,157.17,89.85,156.65,90.5,156.65z"/>
<rect x="87.86" y="140.77" class="st16" width="9.67" height="1.59"/>
<rect x="87.86" y="144.1" class="st16" width="9.67" height="1.59"/>
<rect x="87.86" y="168.68" class="st16" width="9.67" height="1.59"/>
<rect x="87.86" y="172.01" class="st16" width="9.67" height="1.59"/>
<path class="st6" d="M68.83,137.44h9.07c0.17,0,0.3,0.13,0.3,0.3v40.64c0,0.17-0.13,0.3-0.3,0.3h-9.07c-0.17,0-0.3-0.13-0.3-0.3
	v-40.64C68.53,137.57,68.66,137.44,68.83,137.44z"/>
<path class="st11" d="M71.17,156.65h4.39c0.65,0,1.17,0.52,1.17,1.17v0.48c0,0.65-0.52,1.17-1.17,1.17h-4.39
	c-0.65,0-1.17-0.52-1.17-1.17v-0.48C70,157.17,70.52,156.65,71.17,156.65z"/>
<rect x="68.53" y="140.77" class="st11" width="9.67" height="1.59"/>
<rect x="68.53" y="144.1" class="st11" width="9.67" height="1.59"/>
<rect x="68.53" y="168.68" class="st11" width="9.67" height="1.59"/>
<rect x="68.53" y="172.01" class="st11" width="9.67" height="1.59"/>
<path class="st5" d="M79.39,137.44h7.29c0.66,0,1.19,0.53,1.19,1.19v38.86c0,0.66-0.53,1.19-1.19,1.19h-7.29
	c-0.66,0-1.19-0.53-1.19-1.19v-38.86C78.2,137.97,78.73,137.44,79.39,137.44z"/>
<path class="st13" d="M80.83,156.65h4.39c0.65,0,1.17,0.52,1.17,1.17v0.48c0,0.65-0.52,1.17-1.17,1.17h-4.39
	c-0.65,0-1.17-0.52-1.17-1.17v-0.48C79.66,157.17,80.18,156.65,80.83,156.65z"/>
<rect x="78.2" y="140.77" class="st13" width="9.67" height="1.59"/>
<rect x="78.2" y="144.1" class="st13" width="9.67" height="1.59"/>
<rect x="78.2" y="168.68" class="st13" width="9.67" height="1.59"/>
<rect x="78.2" y="172.01" class="st13" width="9.67" height="1.59"/>
<path class="st14" d="M97.72,137.95l8.95-1.44c0.16-0.03,0.32,0.08,0.34,0.25l6.47,40.12c0.03,0.16-0.08,0.32-0.25,0.34l-8.95,1.44
	c-0.16,0.03-0.32-0.08-0.34-0.25l-6.47-40.12C97.44,138.13,97.55,137.98,97.72,137.95z"/>
<path class="st15" d="M102.19,156.69l6.13-0.99c0.14-0.02,0.28,0.07,0.3,0.22l0.37,2.27c0.02,0.14-0.07,0.28-0.22,0.3l-6.13,0.99
	c-0.14,0.02-0.28-0.07-0.3-0.22l-0.37-2.27C101.95,156.85,102.05,156.71,102.19,156.69z"/>
<rect x="98.02" y="140.5" transform="matrix(0.9872 -0.1592 0.1592 0.9872 -21.182 18.1761)" class="st15" width="9.67" height="1.59"/>
<rect x="98.55" y="143.8" transform="matrix(0.9872 -0.1592 0.1592 0.9872 -21.6996 18.302)" class="st15" width="9.67" height="1.59"/>
<rect x="102.88" y="168.43" transform="matrix(0.9872 -0.1595 0.1595 0.9872 -25.6199 19.3554)" class="st15" width="9.7" height="1.59"/>
<rect x="103" y="171.34" transform="matrix(0.9872 -0.1592 0.1592 0.9872 -26.0274 19.3614)" class="st15" width="9.67" height="1.59"/>
<g class="st0">
	<polygon class="st2" points="138.1,189.73 50.53,189.73 48.61,184.64 140.29,184.64 	"/>
</g>
<rect x="48.61" y="178.59" class="st4" width="91.68" height="6.05"/>
<polygon class="st4" points="57.95,184.64 60.4,189.78 66.18,189.78 67.83,184.64 "/>
<polygon class="st4" points="130.95,184.64 128.5,189.78 122.72,189.78 121.08,184.64 "/>
<ellipse class="st2" cx="569.3" cy="455.91" rx="132.05" ry="7.77"/>
<path class="st4" d="M621.07,459.55c-41.26-1.45-83.93-7.08-106-83.1c-6.57-22.6-2.3-39.71,4.91-52.61c1.72-3.06,3.65-6,5.76-8.8
	l0,0c0.76-1,1.53-2,2.3-2.94c16.24-19.7,43.17-26.96,67.11-18.1c13.44,4.9,30.68,12.14,46.05,21.56
	c30.88,18.93,38.13,40.51,48.22,77.52c0.87,3.18,1.73,6.75,2.39,10.53c0.35,2,0.64,4.11,0.84,6.23
	C694.89,433.49,685.76,461.82,621.07,459.55z"/>
<path class="st12" d="M692.65,409.82c-1.45,4.08-3.44,7.94-5.92,11.49c-7.8,11.18-24.05,24.69-57.13,25.56
	c-1.46,0-2.9,0.06-4.31,0.06c-11.5,0.16-22.96-1.41-34-4.64c-10.37-3.1-20.03-8.2-28.44-15C548.69,415.84,537,399.11,525,373
	c-4.61-9.7-7.1-20.27-7.32-31c-0.05-6.13,0.73-12.24,2.32-18.16c1.72-3.06,3.65-6,5.76-8.8c-0.51,1.18-1,2.42-1.48,3.71
	c-4.32,11.85-7.3,30.71,3.07,53.21c21.09,45.77,45.54,73.83,102.21,72.35c32-0.84,47.64-13.77,55.1-24.46
	c3.45-4.89,5.89-10.42,7.18-16.26C692.16,405.61,692.45,407.7,692.65,409.82z"/>
<path class="st16" d="M633.64,269.53c0,0,25.9,35.15,31.81,52.65S657,352.12,657,352.12l-13.32,5
	C643.68,357.12,630,295.31,633.64,269.53z"/>
<path class="st3" d="M631.35,368c-11.32,3.75-39,13.59-51,9.61c-0.49-0.16-0.97-0.35-1.43-0.58c-1.25-0.57-2.33-1.48-3.1-2.62
	c-4.71-7.17-9.39-37.26-7.29-54.94c0.27-2.37,0.41-4.75,0.44-7.13c0.06-3.71-0.07-7.68-0.22-11.67c-0.6-15-3-25.39,3.46-29
	c5.58-3.08,11.54-5.43,17.72-7c2.88-0.69,7.6-2.14,10.91-2.07l14.32,2.6c0,0,12.36,2.07,15.22,4.17s4.31,11.37,9.46,19.86
	s6.27,17,1.35,26.33c-4.28,8.11-3.53,5-4.09,18.34C636.42,350.17,653.46,360.64,631.35,368z"/>
<g class="st0">
	<path class="st2" d="M593.33,291.6c11.64-2.45,23.65-2.55,35.33-0.31l0.47,13.69c0,0-21.78-2.42-35.49,1.07L593.33,291.6z"/>
</g>
<g class="st0">
	<path class="st2" d="M611.16,280h-0.64c-8.48-0.44-16.25-7.92-16.58-8.24c-0.23-0.23-0.23-0.59,0-0.82
		c0.22-0.23,0.58-0.23,0.81-0.01c0,0,0.01,0.01,0.01,0.01c0.08,0.07,7.79,7.5,15.83,7.91c7.71,0.41,8.64-7.24,8.67-7.56
		c0.04-0.32,0.32-0.55,0.65-0.51c0.32,0.04,0.55,0.32,0.51,0.64l0,0C620.4,271.51,619.38,280,611.16,280z"/>
</g>
<g class="st0">
	<path class="st2" d="M587.12,348.57c-0.06-0.04-0.11-0.1-0.15-0.17c-0.17-0.28-0.09-0.65,0.19-0.83c0,0,0,0,0.01,0
		c8.71-5.28,18.44-8.63,28.55-9.83c4.17-0.55,8.4-0.6,12.58-0.13c0.33,0.05,0.56,0.35,0.51,0.68c0,0,0,0,0,0
		c-0.05,0.33-0.36,0.56-0.69,0.51c-4.1-0.43-8.23-0.38-12.31,0.15c-9.92,1.19-19.46,4.48-28,9.66
		C587.59,348.74,587.32,348.73,587.12,348.57z"/>
</g>
<path class="st17" d="M601.54,373.42c-10.19-3.23-19.41-9.73-25.7-15.53c-0.5-0.46-1-0.91-1.44-1.36c-3.26-3.17-5.56-1.54-6.56-3.36
	c-3.81-7-1.65-34.33,0-44.37s-5.28-28.44-1.55-35s16.57-8.88,16.57-8.88s-1.81-2.12,1.64-4.55s12.63-1.42,12.63-1.42
	C597.57,302.4,603.72,342.78,601.54,373.42z"/>
<path class="st3" d="M591.52,361c-0.28-0.01-0.52-0.21-0.56-0.49c-4.64-30.15-0.05-86.86,0-87.43c0.02-0.31,0.29-0.54,0.6-0.52
	c0,0,0.01,0,0.01,0c0.31,0.03,0.54,0.3,0.52,0.61c-0.05,0.57-4.62,57.15,0,87.17c0.05,0.31-0.16,0.6-0.47,0.65L591.52,361z"/>
<path class="st16" d="M600.85,365.48c-0.27,0-0.51-0.2-0.56-0.47c-6.07-34.64-6.55-94.39-6.55-95c-0.01-0.31,0.24-0.56,0.55-0.57
	c0,0,0.01,0,0.01,0l0,0c0.31-0.01,0.56,0.24,0.57,0.55c0,0,0,0.01,0,0.01c0,0.6,0.49,60.26,6.54,94.8c0.05,0.31-0.15,0.6-0.46,0.66
	L600.85,365.48z"/>
<path class="st16" d="M590.78,269.67c-0.05,0.01-0.09,0.01-0.14,0c-2.92-0.77-5.62-2.22-7.87-4.23c-0.22-0.22-0.22-0.58,0-0.8
	c0.22-0.22,0.57-0.22,0.79-0.01c0,0,0.01,0.01,0.01,0.01l0,0c2.12,1.86,4.64,3.21,7.37,3.95c0.31,0.04,0.52,0.32,0.48,0.63
	s-0.32,0.52-0.63,0.48L590.78,269.67z"/>
<path class="st17" d="M645.69,354.44c-2.98,8.13-9.19,14.67-17.16,18.06c-1.67-33.16-5.48-71-10.39-111.31c0,0,5.17-0.91,7.32,2
	c0.63,1.05,1.01,2.22,1.13,3.43c1.91,0.42,3.77,1.04,5.54,1.86c2.89,1.35,2.56,3.2,3.25,7.9s8,12,10.31,21.82s-3.9,16.13-5.86,24.39
	S645.69,354.44,645.69,354.44z"/>
<path class="st3" d="M634.08,359.57c-0.31,0-0.56-0.24-0.57-0.55c-0.99-28.81-4.21-57.5-9.63-85.82c-0.04-0.31,0.19-0.6,0.5-0.63
	c0.29-0.03,0.55,0.15,0.62,0.43c5.42,28.38,8.64,57.13,9.65,86c0.01,0.31-0.23,0.58-0.55,0.59c0,0,0,0,0,0L634.08,359.57z"/>
<path class="st16" d="M621.64,270.92c-0.31,0.03-0.58-0.2-0.61-0.51s0.2-0.58,0.51-0.61l0,0c0,0,3.68-0.67,4.51-3.31
	c0.09-0.3,0.41-0.47,0.72-0.38c0.3,0.09,0.47,0.41,0.38,0.72c-1,3.31-5.23,4.06-5.41,4.09H621.64z"/>
<path class="st16" d="M632.76,359.57c-0.29,0-0.53-0.21-0.57-0.5c-4-33.26-10.32-86.41-10.38-86.94c-0.02-0.31,0.21-0.59,0.53-0.61
	c0.29-0.02,0.55,0.18,0.6,0.47c0.06,0.54,6.38,53.69,10.38,86.94c0.04,0.31-0.18,0.6-0.49,0.64H632.76z"/>
<path class="st6" d="M599.17,383.45c2.64,1.7,5.52,2.99,8.54,3.83c23.19,7.38,44.47-4.54,44.47-4.54
	c1.28-6.35,0.49-13.57-1.65-16.21c0.39-0.61,0.47-1.38,0.22-2.06l21.35-22.17c-12.14,10.07-27.16,13.36-38.85,20.42l0,0
	c-3.37,2-6.4,3.83-8.62,5.08c-3.39,1.9-7.71,2.09-12,1.5c-5.62-0.94-11.06-2.69-16.17-5.21c0,0-26.59-12-31.58-11.65
	C561.06,352.75,581.92,374.53,599.17,383.45z"/>
<path class="st9" d="M640.26,402c0,0-6.84-2-9-4.18l-4.7,11.18l16.19,5.05C642.75,414.05,643,404.25,640.26,402z"/>
<path class="st18" d="M679.33,434.38l-20.93-46.45c-0.98-0.01-1.95,0.17-2.85,0.55c-4.06,1.48-9.77,5.56-13.45,7.95
	c-0.43,0.29-0.83,0.54-1.2,0.77c-0.5,0.32-1.02,0.61-1.55,0.86c-3.22,1.46-1.52,3.2-1.52,3.2c6,3,2.35,11.93,6,14
	c0,0,1.56,0.91,6.54,3.1s10,7.48,14.63,11.81c6,5.6,9.75,6.25,11.9,5.74C677.87,435.72,678.74,435.17,679.33,434.38z"/>
<path class="st15" d="M679.33,434.38l-20.93-46.45c-0.98-0.01-1.95,0.17-2.85,0.55l21.37,47.44
	C677.89,435.72,678.74,435.17,679.33,434.38z"/>
<path class="st15" d="M660.54,392.67l-0.63-1.38c-1.24,2.71-3.51,4.82-6.31,5.85c-3.76,1.38-7.93,1.12-11.5-0.71
	c-0.43,0.29-0.83,0.54-1.2,0.77c4,2.26,8.79,2.65,13.1,1.07C656.78,397.24,659.09,395.25,660.54,392.67z"/>
<path class="st3" d="M652.77,416.35c-0.2-0.42-0.7-0.6-1.12-0.4c-0.34,0.16-0.53,0.52-0.47,0.89l0.59,3.23
	c0.08,0.46,0.51,0.76,0.97,0.69c0.01,0,0.02,0,0.03-0.01c0.46-0.09,0.77-0.53,0.68-0.99c0,0,0-0.01,0-0.01l-0.59-3.23
	C652.84,416.46,652.81,416.4,652.77,416.35z"/>
<path class="st3" d="M649.06,414.55c-0.16-0.35-0.54-0.55-0.92-0.48c-0.46,0.08-0.76,0.52-0.67,0.98c0,0.01,0,0.01,0,0.02l0.58,3.23
	c0.09,0.46,0.54,0.76,1,0.67c0,0,0,0,0,0c0.46-0.08,0.76-0.51,0.69-0.97c0-0.01,0-0.02-0.01-0.03l-0.59-3.23
	C649.12,414.67,649.1,414.61,649.06,414.55z"/>
<path class="st3" d="M655.77,418.49c-0.16-0.35-0.54-0.55-0.92-0.48c-0.45,0.08-0.76,0.51-0.68,0.96c0,0.01,0.01,0.03,0.01,0.04
	l0.58,3.22c0.06,0.46,0.47,0.79,0.94,0.73c0.46-0.06,0.79-0.47,0.73-0.94c0-0.03-0.01-0.07-0.02-0.1l-0.58-3.22L655.77,418.49z"/>
<path class="st3" d="M658.7,420.66c-0.16-0.35-0.54-0.55-0.92-0.48c-0.46,0.08-0.76,0.51-0.69,0.97c0,0.01,0,0.02,0.01,0.03
	l0.59,3.22c0.06,0.46,0.47,0.79,0.94,0.73c0.46-0.06,0.79-0.47,0.73-0.94c0-0.03-0.01-0.07-0.02-0.1l-0.58-3.22L658.7,420.66z"/>
<path class="st3" d="M661.62,423.15c-0.19-0.42-0.69-0.61-1.11-0.41c-0.35,0.16-0.54,0.54-0.48,0.91l0.59,3.22
	c0.08,0.46,0.51,0.76,0.97,0.69c0.01,0,0.02,0,0.03-0.01c0.46-0.09,0.77-0.53,0.68-0.99c0,0,0-0.01,0-0.01l-0.59-3.22
	C661.69,423.27,661.66,423.21,661.62,423.15z"/>
<path class="st3" d="M664.44,426c-0.15-0.36-0.53-0.56-0.91-0.49c-0.46,0.09-0.77,0.53-0.68,0.99c0,0,0,0.01,0,0.01l0.59,3.23
	c0.11,0.45,0.56,0.73,1.01,0.62c0.41-0.1,0.69-0.49,0.64-0.92l-0.58-3.23C664.49,426.14,664.47,426.07,664.44,426z"/>
<path class="st6" d="M564.93,352.44c0,0-16.82-9.08-26.57-2.06c-17.82,12.84,12.42,37.53,47,49.59s45.82,10.41,45.82,10.41
	s7.52-2.06,4.85-14.25c0,0-19.94-7.58-30.31-15.52S588.29,362.94,564.93,352.44z"/>
<path class="st11" d="M634.71,399.68c-7.26-1.75-22-8.53-39.55-18.14c-13.1-7.2-28.2-16.39-30.42-19.58c-1.2-1.72-1.5-3.13-0.9-4.18
	c0.9-1.58,3.5-1.75,4.68-1.73c0.28-0.01,0.52,0.22,0.52,0.5c0,0.02,0,0.04,0,0.06l0,0c-0.02,0.28-0.24,0.49-0.52,0.49
	c-1.17,0-3.19,0.19-3.76,1.2c-0.48,0.84,0.19,2.13,0.84,3.06c1.79,2.57,14.43,10.67,30.06,19.25c13.46,7.39,30.85,16,39.29,18
	L634.71,399.68z"/>
<path class="st11" d="M633.34,394.52c-0.81,6.4-2.47,12.22-6.09,16.68c0,0,3.1,2.23,5.92,0.63c2.17-1.22,6.33-11.22,4.74-16.56
	C636.11,394.28,634.55,393.94,633.34,394.52z"/>
<path class="st9" d="M589.44,400.76c0,0,6.88-1.33,8.82-3.69l5.5,10.86l-15.82,6.12C587.94,414.05,586.88,403.16,589.44,400.76z"/>
<path class="st18" d="M552.8,436.74L570.58,389c0.97-0.08,1.96,0.04,2.88,0.36c4.15,1.2,10.12,4.89,13.95,7
	c0.44,0.26,0.86,0.49,1.24,0.69c0.52,0.28,1.06,0.53,1.61,0.76c3.32,1.23,1.94,2.17,1.94,2.17c-6.54,3.06-1.75,13-5.27,15.3
	c0,0-1.5,1-6.32,3.53s-9.48,8.12-13.82,12.76c-5.59,6-9.3,6.89-11.48,6.52C554.34,437.96,553.44,437.48,552.8,436.74z"/>
<path class="st15" d="M552.8,436.74L570.58,389c0.97-0.08,1.96,0.04,2.88,0.36l-18.15,48.76
	C554.33,437.99,553.44,437.49,552.8,436.74z"/>
<path class="st15" d="M568.76,393.87l0.53-1.42c1.42,2.63,3.83,4.57,6.69,5.41c3.85,1.13,7.99,0.59,11.43-1.47
	c0.44,0.26,0.86,0.49,1.24,0.69c-3.84,2.53-8.59,3.24-13,1.94C572.81,398.18,570.37,396.35,568.76,393.87z"/>
<path class="st3" d="M578.09,417c0.13-0.37,0.5-0.59,0.88-0.54c0.46,0.05,0.79,0.47,0.74,0.93c0,0,0,0,0,0l-0.37,3.25
	c-0.05,0.46-0.47,0.79-0.93,0.74s-0.79-0.47-0.74-0.93l0.37-3.25C578.05,417.13,578.07,417.07,578.09,417z"/>
<path class="st3" d="M581.68,414.94c0.17-0.43,0.65-0.65,1.08-0.49c0.36,0.14,0.58,0.5,0.54,0.88l-0.37,3.25
	c-0.06,0.46-0.48,0.79-0.94,0.73c-0.45-0.06-0.77-0.46-0.73-0.91l0.37-3.26C581.64,415.07,581.66,415.01,581.68,414.94z"/>
<path class="st3" d="M575.25,419.31c0.17-0.43,0.65-0.65,1.08-0.49c0.36,0.14,0.58,0.5,0.54,0.88l-0.37,3.3
	c-0.05,0.46-0.47,0.79-0.93,0.74s-0.79-0.47-0.74-0.93l0.37-3.26C575.2,419.47,575.22,419.39,575.25,419.31z"/>
<path class="st3" d="M572.47,421.68c0.13-0.37,0.5-0.59,0.88-0.54c0.46,0.05,0.79,0.47,0.74,0.93c0,0,0,0,0,0l-0.37,3.25
	c-0.05,0.46-0.47,0.79-0.93,0.74s-0.79-0.47-0.74-0.93l0.37-3.25C572.43,421.81,572.45,421.75,572.47,421.68z"/>
<path class="st3" d="M569.72,424.35c0.17-0.43,0.65-0.65,1.08-0.49c0.36,0.14,0.58,0.5,0.54,0.88L571,428
	c-0.05,0.46-0.47,0.79-0.93,0.74s-0.79-0.47-0.74-0.93l0.37-3.26C569.7,424.48,569.71,424.42,569.72,424.35z"/>
<path class="st3" d="M567.09,427.39c0.17-0.43,0.65-0.65,1.08-0.49c0.36,0.14,0.58,0.5,0.54,0.88l-0.37,3.26
	c-0.05,0.46-0.47,0.79-0.93,0.74s-0.79-0.47-0.74-0.93l0.37-3.26C567.05,427.52,567.07,427.46,567.09,427.39z"/>
<path class="st6" d="M665.25,345.07c0,0,15.93-10.59,26.28-4.49c18.92,11.14-8.93,38.51-42.27,53.69s-44.68,14.57-44.68,14.57
	s-7.68-1.37-6.14-13.74c0,0,19.16-9.38,28.77-18.24S643,357.66,665.25,345.07z"/>
<path class="st11" d="M636.13,400c-1.83,0.6-3.7,1.21-5.63,1.82c-7.46,2.34-16,4.8-23.69,6.7v1.1c7-1.7,15.14-4,24-6.8
	c1.73-0.55,3.51-1.12,5.28-1.71L636.13,400z"/>
<path class="st11" d="M600.11,398.5c7.06-2.4,21.16-10.51,37.72-21.69c12.38-8.36,26.58-18.9,28.49-22.28
	c1-1.83,1.21-3.26,0.51-4.25c-1-1.49-3.64-1.42-4.82-1.3c-0.29,0.03-0.5,0.29-0.47,0.58c0,0.01,0,0.02,0,0.03l0,0
	c0.05,0.27,0.29,0.46,0.57,0.44c1.16-0.11,3.19-0.1,3.86,0.85c0.55,0.79,0,2.14-0.57,3.13c-1.54,2.72-13.39,11.95-28.16,21.93
	c-12.73,8.59-29.25,18.77-37.47,21.57L600.11,398.5z"/>
<path class="st11" d="M601,393.24c1.4,6.3,3.59,11.94,7.6,16.05c0,0-2.88,2.51-5.84,1.18c-2.27-1-7.33-10.6-6.24-16.06
	C598.22,393.26,599.74,392.77,601,393.24z"/>
<path class="st17" d="M598.84,342.72L597.56,361c0,0-21.72-3.1-32.39-5.82c-3.39-0.78-6.68-1.95-9.79-3.5
	c-5.88-3.13-10.77-8.58-10.41-19.2c0.21-4.05,0.92-8.06,2.11-11.93c5.15-16.97,12.11-33.33,20.76-48.81
	c16.73,7.16,15.33,19.08,15.33,19.08c-4.78,12.73-15.33,39.84-15.33,39.84C574,338.13,598.84,342.72,598.84,342.72z"/>
<path class="st16" d="M567.84,331.22c-0.11,0-0.21-0.03-0.3-0.09c-1.84-1.14-6.88-2.32-6.93-2.34c-0.29-0.11-0.44-0.44-0.33-0.74
	c0.09-0.24,0.33-0.39,0.59-0.36c2.04,0.48,4.05,1.1,6,1.86c-0.43-0.89-1-1.72-1.67-2.45c-0.23-0.21-0.25-0.57-0.04-0.81
	c0.21-0.23,0.57-0.25,0.81-0.04c0.03,0.03,0.06,0.06,0.08,0.09c1.15,1.16,1.95,2.62,2.31,4.21c0.04,0.22-0.06,0.44-0.24,0.56
	C568.04,331.18,567.94,331.21,567.84,331.22z"/>
<path class="st16" d="M555.38,351.67c-5.88-3.13-10.77-8.58-10.41-19.2C549.64,334.91,557.77,340.82,555.38,351.67z"/>
<path class="st16" d="M585.18,339.92c-0.05,0.01-0.1,0.01-0.15,0c-6.44-1.6-12.44-4.62-17.57-8.83c-0.19-0.17-0.24-0.45-0.12-0.68
	c7.67-15.09,12.53-27.07,15.28-37.71c0.06-0.31,0.36-0.51,0.67-0.45c0.31,0.06,0.51,0.36,0.45,0.67c0,0.02-0.01,0.05-0.02,0.07
	c-2.75,10.62-7.57,22.56-15.17,37.54c4.95,3.9,10.66,6.72,16.77,8.29c0.3,0.09,0.48,0.39,0.41,0.7
	C585.65,339.76,585.43,339.92,585.18,339.92z"/>
<path class="st16" d="M580.87,301.15c-0.13,0-0.26-0.05-0.36-0.13c-0.24-0.2-0.28-0.55-0.09-0.8l4-5c0.21-0.24,0.57-0.26,0.8-0.05
	c0.22,0.19,0.26,0.52,0.09,0.76l-4,5C581.2,301.07,581.04,301.15,580.87,301.15z"/>
<path class="st4" d="M599.47,255.09l19.3,2.76c12.54-1.25,16.53-6.23,18.58-16.77c0.86-4.48,0.63-9.09-0.66-13.46
	c-0.27-4-1.17-7.38-3-9.64c-8.47-10.21-15.93-9.81-15.93-9.81c-3.79-1.74-16.32-2.93-24.58,7.09l0,0c-0.26,0.22-5.3,5.55-6.46,16.76
	C585.57,242.71,592.7,256.35,599.47,255.09z"/>
<path class="st4" d="M610.25,211c0,0,2-17.8-13.79-15.54c-10.32,1.47-16.71,15.46-7.27,21.81S610.25,211,610.25,211z"/>
<path class="st18" d="M590.77,219.07c-0.09,0-0.17-0.02-0.24-0.07c-0.23-0.12-0.33-0.41-0.2-0.65c0-0.01,0.01-0.01,0.01-0.02
	c2.69-5.1,7.21-8.99,12.66-10.89c2.35-0.85,4.83-1.27,7.33-1.23c0.28,0.02,0.49,0.25,0.47,0.53c-0.02,0.28-0.25,0.49-0.53,0.47
	c-7.99,0.06-15.29,4.52-19,11.6C591.17,218.99,590.97,219.09,590.77,219.07z"/>
<path class="st4" d="M601,251.08c0,0-12.31-6.89-9.89-21.23s11.86-23,26.33-18.81C617.42,211,616,252.49,601,251.08z"/>
<path class="st4" d="M635.22,224.71c0,0,1.26,12.31-1,14.09s-4.44-3.08-4.44-3.08S632.85,224.85,635.22,224.71z"/>
<path class="st10" d="M629.55,239.92c0,0,3.67-3.23,4.89,0.73s-1.25,11.21-5.82,9.29L629.55,239.92z"/>
<path class="st6" d="M634.07,249c-0.51,0.46-1.07,0.86-1.67,1.19c-2.3,1.24-5.32,1.39-8.93-0.52c0,0-4.63-6,2.21-16.63
	c0,0,6.27-1.65,9.86,2.14c0.41,0.44,0.77,0.93,1.07,1.46c0.2,0.36,0.38,0.73,0.53,1.11C638.41,241,637.23,246.17,634.07,249z"/>
<path class="st3" d="M633.9,233.93c0.34-1.69,0.6-3.4,0.77-5.12c-0.09,0.04-0.18,0.06-0.27,0.07c-0.42,0.01-0.83-0.14-1.15-0.41
	c-0.17,1.82-0.43,3.48-0.69,4.84L633.9,233.93z"/>
<path class="st11" d="M634.07,249c-0.51,0.46-1.07,0.86-1.67,1.19c2.27-4.67,3.34-9.82,3.14-15c0.41,0.44,0.77,0.93,1.07,1.46
	C636.58,240.89,635.72,245.09,634.07,249z"/>
<path class="st9" d="M618.85,257.68l-1.52,10.18c0,0-6.23,8-20.65-5c1.64-4.15,4.15-9.47,3.51-13.55c0.9,0.78,1.86,1.48,2.87,2.11
	l1.19,0.75C608,254.4,613.72,257.32,618.85,257.68z"/>
<path class="st4" d="M618.85,257.68l-0.71,4.76c-4.21-1.61-11.49-5.12-15.08-11.06l1.19,0.75C608,254.4,613.72,257.32,618.85,257.68
	z"/>
<path class="st9" d="M632.68,240.37c-0.16,1-0.32,2-0.47,3c-1.16,7-2.22,10.8-4.17,12.3c-9.87,7.57-27.27-5.81-27.83-6.24l0,0
	c-0.06-0.81-0.1-1.62-0.13-2.42c-0.22-6.27,0.5-12.53,2.14-18.58c0.56-6.18,5.09-11.28,11.16-12.57c6.29-1.29,11.25,2.13,14.32,3.6
	c4.63,2.22,6.75,9,5.44,17.89C632.99,238.4,632.83,239.4,632.68,240.37z"/>
<path class="st4" d="M623.86,248.55c-5.52,0-7.73-5.28-7.75-5.34c-0.11-0.25,0.01-0.54,0.26-0.64c0,0,0.01,0,0.01-0.01
	c0.26-0.1,0.55,0.02,0.66,0.27l0,0c0.09,0.24,2.41,5.72,8.43,4.56c0.26-0.06,0.53,0.11,0.59,0.37c0,0.01,0,0.01,0,0.02
	c0.05,0.27-0.12,0.53-0.39,0.59c0,0-0.01,0-0.01,0C625.07,248.49,624.46,248.55,623.86,248.55z"/>
<path class="st4" d="M619.61,229.49c0.72-0.25,1.1-1.04,0.85-1.76c-0.18-0.52-0.66-0.89-1.22-0.92c-2.55-0.16-6.64-0.1-7,2
	c-0.5,3,4.27,1.76,7.27,0.75L619.61,229.49z"/>
<path class="st4" d="M627.14,230.38c-0.56-0.52-0.59-1.39-0.08-1.95c0.38-0.41,0.96-0.55,1.49-0.36c2.41,0.88,6.13,2.59,5.61,4.61
	c-0.75,3-4.6-0.11-6.95-2.24L627.14,230.38z"/>
<path class="st10" d="M619.79,251c0.63,0.16,1.28,0.18,1.92,0.05c0.18-0.04,0.28-0.22,0.24-0.4c-0.04-0.18-0.22-0.29-0.39-0.25
	c0,0,0,0-0.01,0l0,0c-1.03,0.2-2.09-0.07-2.91-0.73c-0.16-0.1-0.37-0.06-0.47,0.1c-0.08,0.12-0.07,0.29,0.02,0.4
	C618.65,250.57,619.2,250.85,619.79,251z"/>
<path class="st4" d="M623.25,244.15c-0.09-0.04-0.15-0.12-0.18-0.21c-0.06-0.19,0.04-0.39,0.22-0.46c0,0,0,0,0.01,0l2.41-0.79
	l-1.43-1.45c-0.08-0.08-0.12-0.19-0.11-0.3l0.45-4c0.02-0.2,0.2-0.34,0.4-0.32c0,0,0,0,0,0c0.2,0.02,0.35,0.2,0.33,0.41c0,0,0,0,0,0
	l-0.43,3.81l1.73,1.74c0.09,0.09,0.12,0.22,0.09,0.34c-0.03,0.13-0.12,0.23-0.24,0.27l-3,1
	C623.41,244.21,623.32,244.2,623.25,244.15z"/>
<path class="st10" d="M617,240.34c-0.13,0.83-1.93,1.25-4,0.93s-3.71-1.23-3.59-2.06s1.93-1.25,4-0.93S617.13,239.51,617,240.34z"/>
<g class="st0">
	<path class="st10" d="M632.68,241.34c-0.16,1-0.32,2-0.47,3c-1.92-0.36-3.33-1.23-3.22-2S630.73,241.12,632.68,241.34z"/>
</g>
<path class="st4" d="M619.06,237.38c-0.17,1.13-0.82,2-1.46,1.88s-1-1.09-0.85-2.22s0.83-2,1.46-1.89S619.23,236.24,619.06,237.38z"
	/>
<path class="st4" d="M630.3,239.05c-0.16,1.14-0.82,2-1.45,1.89s-1-1.09-0.85-2.23s0.82-2,1.46-1.89S630.47,237.92,630.3,239.05z"/>
<path class="st4" d="M604.6,245.35c-0.08,0.11-2.09,3.36-4.39,4.06l0,0l0,0c-0.06-0.81-0.1-1.62-0.13-2.42
	C601.71,246.87,603.27,246.3,604.6,245.35z"/>
<path class="st9" d="M603.69,237.14c0,0-3.64-6.78-7.68-2.48c-3.33,3.55,0.27,14.84,6.4,11.82L603.69,237.14z"/>
<path class="st4" d="M601.94,244.63c-0.24-0.04-0.41-0.25-0.4-0.49c0.13-2.81-1.24-5.48-3.61-7c-0.21-0.17-0.24-0.47-0.08-0.67
	c0.13-0.17,0.36-0.23,0.56-0.15c2.66,1.69,4.21,4.68,4.07,7.83c-0.01,0.26-0.23,0.46-0.49,0.45c0,0,0,0,0,0L601.94,244.63z"/>
<path class="st4" d="M598,241.14c-0.14-0.02-0.26-0.1-0.34-0.22c-0.13-0.22-0.06-0.51,0.16-0.64c0,0,0.01,0,0.01-0.01
	c0.21-0.12,2.08-1.2,3.43-0.63c0.24,0.1,0.35,0.38,0.25,0.62c0,0,0,0,0,0c-0.1,0.24-0.38,0.35-0.61,0.25c0,0,0,0-0.01,0
	c-0.77-0.32-2.16,0.32-2.58,0.57C598.22,241.14,598.11,241.16,598,241.14z"/>
<path class="st3" d="M615,243.35c-3.57-1.36-5.35-5.35-4-8.92c1.36-3.57,5.35-5.35,8.92-4c3.56,1.36,5.35,5.35,4,8.91
	C622.56,242.91,618.57,244.7,615,243.35z M619.57,231.35c-3.04-1.16-6.45,0.37-7.61,3.41c-1.16,3.04,0.37,6.45,3.41,7.61
	c3.04,1.16,6.45-0.37,7.61-3.41c1.13-3.05-0.41-6.44-3.45-7.59L619.57,231.35z"/>
<path class="st3" d="M611.19,235.35c-0.06,0.01-0.13,0.01-0.19,0c-2.3-1.02-4.89-1.16-7.28-0.4c-0.26,0.1-0.55-0.03-0.65-0.29
	c-0.1-0.26,0.03-0.55,0.29-0.65c2.64-0.87,5.52-0.72,8.06,0.42c0.25,0.1,0.37,0.39,0.26,0.64c0,0.01-0.01,0.02-0.01,0.03
	C611.57,235.27,611.39,235.37,611.19,235.35z"/>
<path class="st3" d="M630.25,245.08c-3.56-1.36-5.35-5.36-3.98-8.92s5.36-5.35,8.92-3.98c3.56,1.36,5.34,5.35,3.99,8.91
	C637.82,244.65,633.82,246.44,630.25,245.08z M634.82,233.08c-3.04-1.16-6.45,0.37-7.61,3.41c-1.16,3.04,0.37,6.45,3.41,7.61
	c3.04,1.16,6.45-0.37,7.61-3.41c1.14-3.04-0.38-6.42-3.41-7.59V233.08z"/>
<path class="st3" d="M623.56,236.43c-0.08-0.04-0.15-0.1-0.19-0.18c-0.15-0.23-0.08-0.54,0.15-0.69c1.11-0.64,2.5-0.53,3.5,0.27
	c0.22,0.17,0.26,0.48,0.1,0.7c-0.17,0.22-0.48,0.26-0.71,0.1l0,0c-0.67-0.54-1.59-0.62-2.35-0.22
	C623.91,236.51,623.72,236.51,623.56,236.43z"/>
<path class="st4" d="M627.26,213.21c4.23,1.85,7.49,5.39,9,9.75c0.93,2.73,1.7,6.34-2.14,5.87C623.6,227.56,618,216.69,618,216.69
	s-2,10-10.27,8.79s-8-7.43-3.3-10.94C608.24,211.68,618,209,627.26,213.21z"/>
<path class="st4" d="M608,224.33c0,0-4.68,5-3,10.44s1.79,9.75,0,12.66c-0.32-3.45-1.18-6.82-2.54-10
	c-1.71-3.55-3.31-6.25-2.07-10.34C601.31,224.26,603.37,221.57,608,224.33z"/>
<path class="st6" d="M600.43,248.87c-3.63,0.88-6.44,0.37-8.52-0.93c-0.33-0.21-0.64-0.44-0.94-0.69c-4.36-3.64-4.68-11.22-2-14.93
	c0.81-1.17,1.9-2.11,3.17-2.75c0.32-0.17,0.66-0.31,1-0.43c4.51-1.48,9.4,1.22,9.4,1.22C607.7,244.44,600.43,248.87,600.43,248.87z"
	/>
<path class="st3" d="M613.2,255c-6.28-1.17-11.82-4.84-15.33-10.18c-0.17-0.29-0.07-0.66,0.22-0.83c0,0,0.01,0,0.01-0.01
	c0.3-0.16,0.67-0.06,0.84,0.23c4.19,6.11,11.04,9.85,18.44,10.08c0.34,0.06,0.56,0.38,0.51,0.72c-0.05,0.28-0.29,0.5-0.58,0.51
	C615.93,255.45,614.56,255.27,613.2,255z"/>
<path class="st19" d="M620.76,255.39c-0.2,1.09-1.25,1.8-2.33,1.6s-1.8-1.25-1.6-2.33c0.2-1.09,1.25-1.8,2.33-1.6
	c0.02,0,0.05,0.01,0.07,0.01C620.28,253.3,620.96,254.33,620.76,255.39z"/>
<path class="st11" d="M591.91,247.94c-0.33-0.21-0.64-0.44-0.94-0.69c2.51-5.56,2.92-11.84,1.16-17.68c0.32-0.17,0.66-0.31,1-0.43
	C595.04,235.34,594.61,242.03,591.91,247.94z"/>
<path class="st3" d="M635,220.11c-0.65-1.2-1.45-2.32-2.37-3.33c-0.37-1.18-0.87-2.3-1.51-3.36c-2.22-3.52-5.73-5.67-10.45-6.4
	c-5.09-0.79-9.51,0.21-13.13,3c-1.11,0.86-2.12,1.85-3,2.94c-1.21,1.5-2.26,3.13-3.11,4.86c-1.82,3.76-3.05,7.78-3.63,11.92
	l-1.39-0.15c0.06-0.57,1.63-14.05,10.3-20.69c3.93-3,8.71-4.11,14.2-3.26c5.13,0.8,9,3.17,11.42,7.05
	C633.7,214.96,634.6,217.49,635,220.11z"/>
<path class="st4" d="M582.22,374l-4.84-9.2c-0.87-1.68-0.2-3.75,1.48-4.62c0.49-0.25,1.04-0.38,1.59-0.38l76,0.82l-2.24,11.78
	L582.22,374z"/>
<path class="st4" d="M652.92,371.42h-68c-1.44,0.03-2.64-1.11-2.67-2.55c0-0.15,0.01-0.3,0.03-0.45l4.64-42
	c0.2-1.68,1.61-2.96,3.3-3h68c1.44-0.04,2.64,1.1,2.68,2.54c0,0.15-0.01,0.31-0.03,0.46l-4.64,42
	C656.03,370.11,654.62,371.39,652.92,371.42z"/>
<path class="st20" d="M583.87,373.23h-0.07c-0.31-0.04-0.54-0.32-0.5-0.63c0,0,0-0.01,0-0.01l5.64-45c0.04-0.32,0.33-0.54,0.65-0.5
	c0.31,0.04,0.53,0.33,0.49,0.64l-5.64,45C584.4,373.01,584.16,373.23,583.87,373.23z"/>
<path class="st12" d="M617,348.18c-0.28,3.3,2.17,6.2,5.47,6.48c0.03,0,0.05,0,0.08,0.01c3.37,0.18,6.26-2.37,6.5-5.73
	c0.28-3.3-2.17-6.2-5.47-6.48c-0.03,0-0.06,0-0.09-0.01C620.12,342.27,617.24,344.82,617,348.18z"/>
<path class="st4" d="M653.25,375.08h-69c-1.38,0-2.5-1.12-2.5-2.5c0-0.11,0.01-0.23,0.02-0.34l0.66-4.81h74l-0.74,5.49
	C655.52,374.14,654.49,375.06,653.25,375.08z"/>
<path class="st18" d="M603.26,361.51l-0.49,2.4H605l-0.25,2.86h-2.63l-0.55,2.61h-3l0.55-2.61h-1.86l-0.55,2.61h-3l0.55-2.61H592
	l0.25-2.85h2.63l0.5-2.4h-2.27l0.25-2.86H596l0.55-2.6h3l-0.55,2.6h1.86l0.55-2.61h3l-0.56,2.61h2.28l-0.26,2.85H603.26z
	 M600.26,361.51h-1.86l-0.5,2.4h1.86L600.26,361.51z"/>
<path class="st5" d="M672,295.07c0,10.37,8.4,18.77,18.77,18.77c10.37,0,18.77-8.4,18.77-18.77c0-10.37-8.4-18.77-18.77-18.77
	c0,0-0.01,0-0.01,0c-10.36,0-18.76,8.4-18.76,18.76C672,295.06,672,295.07,672,295.07z"/>
<polygon class="st5" points="681.16,310.42 671.08,312.55 675.45,303.86 "/>
<path class="st3" d="M692.36,291c0-0.88-0.85-1.33-1.9-1.33c-1.29,0.01-2.45,0.76-3,1.92l-5-2.52c1.45-2.72,4.31-4.59,8.85-4.59
	s7.77,1.87,7.77,5.41c0,4.34-4.54,5.11-4.54,7.29h-5.84C688.7,293.79,692.36,292.77,692.36,291z M687.88,301.66
	c0.24-2.07,2.11-3.55,4.18-3.31c1.74,0.2,3.11,1.57,3.31,3.31c-0.19,2.07-2.01,3.59-4.08,3.41
	C689.48,304.91,688.04,303.47,687.88,301.66z"/>
<path class="st6" d="M485.46,401.72c0,0-7.66-12-26.28-23c-13.18-7.72-20.81-29.56-20.81-29.56s25.19,1.09,36.14,16.42
	S485.46,401.72,485.46,401.72z"/>
<path class="st4" d="M485.55,402.05c-0.17,0-0.32-0.11-0.37-0.28c-3.06-10.97-8.99-20.93-17.18-28.84c-3.6-3.62-7.63-6.78-12-9.43
	c-0.18-0.09-0.25-0.31-0.15-0.49c0-0.01,0.01-0.02,0.01-0.02c0.1-0.18,0.32-0.24,0.5-0.14c0,0,0,0,0.01,0
	c14.33,8.78,24.87,22.59,29.55,38.73c0.05,0.2-0.07,0.4-0.27,0.45c0,0,0,0,0,0L485.55,402.05z"/>
<path class="st6" d="M482.16,401.45c0,0-2.19-4.38-12.05-3.29s-15.33,6.57-32.85-3.28c0,0,13.14-10.95,27.38-8.76
	S480,393.78,482.16,401.45z"/>
<path class="st4" d="M482.21,401.82c-0.13,0-0.25-0.06-0.32-0.17c0-0.07-4.45-7-11.54-8.29c-12.39-2.25-20.83,1.71-20.91,1.75
	c-0.19,0.09-0.41,0.02-0.5-0.17s-0.02-0.41,0.17-0.5c0.09-0.05,8.73-4.11,21.37-1.82c7.42,1.35,11.86,8.33,12,8.63
	c0.11,0.18,0.06,0.41-0.12,0.52C482.31,401.8,482.26,401.81,482.21,401.82z"/>
<path class="st6" d="M486.46,400.39c0,0-0.86-4.82,7.7-9.83s16.23-3.89,24.39-22.26c0,0-17.08-0.93-27.19,9.33
	S483.64,392.93,486.46,400.39z"/>
<path class="st4" d="M486.42,400.79c-0.19,0-0.35-0.15-0.37-0.34c0-0.35-0.64-8.6,4.51-14.11c8.77-9.4,18.13-11.29,18.22-11.31
	c0.2-0.07,0.41,0.04,0.48,0.24c0.07,0.2-0.04,0.41-0.24,0.48c-0.03,0.01-0.07,0.02-0.1,0.02c-0.09,0-9.22,1.87-17.81,11.08
	c-4.92,5.27-4.32,13.46-4.31,13.54c0.02,0.2-0.12,0.38-0.32,0.4c-0.01,0-0.02,0-0.02,0H486.42z"/>
<path class="st5" d="M472.54,400.11h24.01c1.42,0,2.57,1.15,2.57,2.57v1.09c0,1.42-1.15,2.57-2.57,2.57h-24.01
	c-1.42,0-2.57-1.15-2.57-2.57v-1.09C469.97,401.26,471.12,400.11,472.54,400.11z"/>
<path class="st5" d="M484.66,460c-19.59,0-32.05-3.12-30-16.91c1.27-8.75,8.09-17.33,12.91-22.43c0.68-0.71,1.32-1.36,1.9-1.93
	c1.78-1.77,3-2.79,3-2.79l0.05-0.31l0.34-1.94l0.4-2.23l0.9-5.09l0.31-1.78l10.24-0.44l10.68,0.44l0.24,1.78l0.38,2.8l0.62,4.52
	l0.27,1.94v0.31c0,0,1.21,1,3,2.79c0.58,0.57,1.22,1.22,1.9,1.93c4.82,5.1,11.64,13.68,12.92,22.43
	C516.7,456.85,504.24,460,484.66,460z"/>
<polygon class="st13" points="496.85,415.6 472.47,415.6 472.81,413.66 496.58,413.66 "/>
<path class="st13" d="M501.78,420.63h-34.25c0.68-0.71,1.32-1.36,1.9-1.93h30.45C500.46,419.27,501.1,419.92,501.78,420.63z"/>
<polygon class="st13" points="495.96,409.14 473.21,411.43 474.11,406.34 495.58,406.34 "/>
<path class="st3" d="M274.88,268.05h9.24c0.92,0,1.66,0.74,1.66,1.66v6.37c0,0.92-0.74,1.66-1.66,1.66h-9.24
	c-0.92,0-1.66-0.74-1.66-1.66v-6.37C273.22,268.79,273.96,268.05,274.88,268.05z"/>
<polygon class="st3" points="289.42,268.05 289.42,277.74 285.51,274.45 285.51,271.34 "/>
<circle class="st21" cx="306.29" cy="272.9" r="8.07"/>
<path class="st3" d="M302.48,277.55c0.23,0,0.44-0.09,0.6-0.25l7.61-7.61c0.31-0.35,0.28-0.89-0.07-1.2c-0.32-0.29-0.81-0.29-1.13,0
	l-7.61,7.61c-0.33,0.33-0.33,0.87,0,1.2C302.04,277.46,302.25,277.55,302.48,277.55z"/>
<path class="st3" d="M310.09,277.55c0.23,0,0.44-0.09,0.6-0.25c0.33-0.33,0.33-0.87,0-1.2l-7.61-7.61c-0.35-0.31-0.89-0.28-1.2,0.07
	c-0.29,0.32-0.29,0.81,0,1.13l7.61,7.61C309.65,277.46,309.86,277.55,310.09,277.55z"/>
<path class="st3" d="M261.37,276.99h-0.78c-1.01,0-1.83-0.82-1.83-1.83v-7.91c0-1.01,0.82-1.83,1.83-1.83h0.78
	c1.01,0,1.83,0.82,1.83,1.83v7.91C263.2,276.17,262.38,276.99,261.37,276.99z"/>
<path class="st3" d="M261.05,279.73h-0.15c-0.21,0-0.38-0.17-0.38-0.38v-4.67c0-0.21,0.17-0.38,0.38-0.38h0.15
	c0.21,0,0.38,0.17,0.38,0.38v4.67C261.43,279.56,261.26,279.73,261.05,279.73z"/>
<path class="st3" d="M264.65,280.15h-7.34c-0.44,0-0.79-0.35-0.79-0.79v-0.33c0-0.44,0.35-0.79,0.79-0.79h7.34
	c0.44,0,0.79,0.35,0.79,0.79v0.33C265.44,279.8,265.09,280.15,264.65,280.15z"/>
<path class="st13" d="M225.89,244c-0.54-4.27-3.94-7.6-8.22-8.06c-3.39-0.48-6.83-0.41-10.2,0.19c-0.77,0.17-1.51,0.43-2.22,0.78
	l0.17,0.76c2.33-1.24,6.51-1.59,12.16-1c1.76,0.2,3.42,0.93,4.76,2.09c1.31,1.15,2.22,2.68,2.63,4.37c0.07,0.31,0.13,0.62,0.16,0.94
	c0.01,0.19,0.01,0.37,0,0.56l0.76-0.21C225.92,244.24,225.9,244.11,225.89,244z M208.76,244.29c-0.53,0.38-1.09,0.71-1.68,1
	l0.16,0.79c0.7-0.35,1.37-0.75,2-1.2c3.24-2.34,5.37-0.4,7.64,1.66l0.3,0.28l0.87-0.24l-0.66-0.6c-2.3-2.08-4.89-4.43-8.63-1.74
	V244.29z"/>
</svg>
