<?xml version="1.0" encoding="utf-8"?>
<!-- Generator: Adobe Illustrator 24.3.0, SVG Export Plug-In . SVG Version: 6.00 Build 0)  -->
<svg version="1.1" id="Layer_1" xmlns="http://www.w3.org/2000/svg" xmlns:xlink="http://www.w3.org/1999/xlink" x="0px" y="0px"
	 viewBox="0 0 512 512" style="enable-background:new 0 0 512 512;" xml:space="preserve">
<style type="text/css">
	.st0{fill:#6554C0;}
</style>
<g>
	<path class="st0" d="M476,64H36C20.5,64,8,76.5,8,92v328c0,15.5,12.5,28,28,28h440c15.5,0,28-12.5,28-28V92
		C504,76.5,491.5,64,476,64z M488,420c0,6.6-5.4,12-12,12H36c-6.6,0-12-5.4-12-12V92c0-6.6,5.4-12,12-12h440c6.6,0,12,5.4,12,12V420
		z"/>
	<path class="st0" d="M220.1,279c2.5,1.4,5.6,1.4,8.1-0.1l80-48c3.8-2.3,5-7.2,2.7-11c-0.7-1.1-1.6-2.1-2.7-2.7l-80-48
		c-3.8-2.3-8.7-1-11,2.7c-0.7,1.2-1.1,2.7-1.1,4.1v96C216,274.9,217.6,277.5,220.1,279L220.1,279z M232,190.1l56.5,33.9L232,257.9
		V190.1z"/>
	<path class="st0" d="M256,328c57.4,0,104-46.6,104-104s-46.6-104-104-104s-104,46.6-104,104C152.1,281.4,198.6,327.9,256,328z
		 M256,136c48.6,0,88,39.4,88,88s-39.4,88-88,88s-88-39.4-88-88C168.1,175.4,207.4,136.1,256,136z"/>
	<path class="st0" d="M384,376c0,4.4-3.6,8-8,8H176c0,4.4-3.6,8-8,8s-8-3.6-8-8h-24c-4.4,0-8-3.6-8-8s3.6-8,8-8h24c0-4.4,3.6-8,8-8
		s8,3.6,8,8h200C380.4,368,384,371.6,384,376z"/>
</g>
</svg>
