<svg xmlns="http://www.w3.org/2000/svg" viewBox="0 0 181.5 52.9"><defs><style>.a{fill:#fff;}.b{isolation:isolate;}</style></defs><path class="a" d="M29.7,15.47c1.38,1.38,2.08,3.46,2.08,6.24V32.48H26.33V22.55a5.1,5.1,0,0,0-.93-3.34,3.23,3.23,0,0,0-2.63-1.1,3.89,3.89,0,0,0-3,1.24A5.33,5.33,0,0,0,18.61,23v9.44H13.16V22.55q0-4.44-3.56-4.44a3.85,3.85,0,0,0-3,1.24A5.33,5.33,0,0,0,5.47,23v9.44H0V13.66H5.21v2.17A6.92,6.92,0,0,1,7.77,14a8.64,8.64,0,0,1,3.34-.63,8,8,0,0,1,3.6.79,6.28,6.28,0,0,1,2.58,2.29,7.7,7.7,0,0,1,2.92-2.27,9.12,9.12,0,0,1,3.87-.81A7.59,7.59,0,0,1,29.7,15.47Z"/><path class="a" d="M51,15.47c1.56,1.38,2.34,3.48,2.34,6.28V32.48H48.2V30.14q-1.55,2.63-5.73,2.62A8.76,8.76,0,0,1,38.71,32a5.7,5.7,0,0,1-2.43-2,5.27,5.27,0,0,1-.84-2.94,4.91,4.91,0,0,1,2-4.13c1.31-1,3.35-1.5,6.1-1.5h4.33a3.51,3.51,0,0,0-1.08-2.75,4.74,4.74,0,0,0-3.25-1,9.69,9.69,0,0,0-3,.47,7.72,7.72,0,0,0-2.46,1.27l-2-3.82A11.77,11.77,0,0,1,39.82,14a16.77,16.77,0,0,1,4.42-.6C47.17,13.39,49.4,14.07,51,15.47Zm-4.65,13a3.48,3.48,0,0,0,1.53-1.91V24.59H44.1c-2.24,0-3.35.74-3.35,2.2a2,2,0,0,0,.82,1.66,3.76,3.76,0,0,0,2.25.62A4.77,4.77,0,0,0,46.32,28.43Z"/><path class="a" d="M70.37,31.56a5.55,5.55,0,0,1-2,.89,9.93,9.93,0,0,1-2.46.29A7.32,7.32,0,0,1,60.74,31a6.57,6.57,0,0,1-1.84-5V18.26H56v-4.2h2.9V9.48h5.45v4.58H69v4.2H64.35v7.65A2.55,2.55,0,0,0,65,27.75a2.27,2.27,0,0,0,1.73.65,3.49,3.49,0,0,0,2.2-.7Z"/><path class="a" d="M85.16,31.56a5.55,5.55,0,0,1-2,.89,9.93,9.93,0,0,1-2.46.29A7.32,7.32,0,0,1,75.53,31a6.53,6.53,0,0,1-1.84-5V18.28h-2.9v-4.2h2.9V9.5h5.45v4.58h4.68v4.2H79.14v7.65a2.55,2.55,0,0,0,.62,1.84,2.27,2.27,0,0,0,1.73.65,3.49,3.49,0,0,0,2.2-.7Z"/><path class="a" d="M104.84,15.66Q107,17.72,107,21.78v10.7H102.6V22.33a5.19,5.19,0,0,0-1.15-3.68,4.27,4.27,0,0,0-3.29-1.24,5,5,0,0,0-3.81,1.45A5.8,5.8,0,0,0,93,23v9.44H88.58V6.53H93V16a7.34,7.34,0,0,1,2.68-1.77,10,10,0,0,1,3.55-.62A7.83,7.83,0,0,1,104.84,15.66Z"/><path class="a" d="M130.18,24.53H115.53a5.1,5.1,0,0,0,2,3.27,6.54,6.54,0,0,0,4,1.2,6.8,6.8,0,0,0,5.07-2l2.34,2.7a7.9,7.9,0,0,1-3.18,2.27,11.64,11.64,0,0,1-4.33.77,11.49,11.49,0,0,1-5.42-1.22,8.74,8.74,0,0,1-3.61-3.41,9.63,9.63,0,0,1-1.27-4.95,9.8,9.8,0,0,1,1.24-4.92,8.94,8.94,0,0,1,3.44-3.41,10,10,0,0,1,5-1.22,9.86,9.86,0,0,1,4.88,1.2,8.6,8.6,0,0,1,3.35,3.39,10.2,10.2,0,0,1,1.2,5C130.25,23.54,130.23,24,130.18,24.53Zm-12.91-6.2a5.27,5.27,0,0,0-1.77,3.3h10.59a5.12,5.12,0,0,0-5.28-4.55A5.35,5.35,0,0,0,117.27,18.33Z"/><path class="a" d="M150.7,15.66q2.13,2.06,2.13,6.12v10.7h-4.37V22.33a5.19,5.19,0,0,0-1.15-3.68A4.27,4.27,0,0,0,144,17.41a5,5,0,0,0-3.81,1.45,5.8,5.8,0,0,0-1.4,4.18v9.44h-4.37V13.8h4.16v2.41a7,7,0,0,1,2.73-2,9.87,9.87,0,0,1,3.7-.67A7.84,7.84,0,0,1,150.7,15.66Z"/><path class="a" d="M159.73,32.12a11.3,11.3,0,0,1-3.46-1.5L158,27.3a10.56,10.56,0,0,0,3,1.34,12.46,12.46,0,0,0,3.48.5c2.61,0,3.92-.69,3.92-2.06a1.36,1.36,0,0,0-1-1.36,18.37,18.37,0,0,0-3.2-.74,24.64,24.64,0,0,1-3.76-.81,5.62,5.62,0,0,1-2.51-1.59,4.44,4.44,0,0,1-1.07-3.16,5,5,0,0,1,2.22-4.25,10.12,10.12,0,0,1,6-1.59,17.48,17.48,0,0,1,3.85.43,10.71,10.71,0,0,1,3.15,1.17l-1.68,3.32A10.37,10.37,0,0,0,165,17.1a5.89,5.89,0,0,0-2.92.58,1.71,1.71,0,0,0-1,1.52,1.5,1.5,0,0,0,1.07,1.48,16.76,16.76,0,0,0,3.3.82,24,24,0,0,1,3.67.81,5.73,5.73,0,0,1,2.46,1.53,4.3,4.3,0,0,1,1,3.08,4.88,4.88,0,0,1-2.27,4.2,10.68,10.68,0,0,1-6.19,1.57A15.36,15.36,0,0,1,159.73,32.12Z"/><path class="a" d="M175.7,31.77a3.29,3.29,0,0,1-1-2.44,3.16,3.16,0,0,1,1-2.43,3.41,3.41,0,0,1,2.41-.93,3.35,3.35,0,0,1,2.41.93,3.19,3.19,0,0,1,1,2.43,3.41,3.41,0,0,1-5.8,2.44Z"/><g class="b"><path class="a" d="M.16,44a.16.16,0,0,1-.12,0,.16.16,0,0,1,0-.12V39.25a.16.16,0,0,1,0-.12.17.17,0,0,1,.12-.05H3.05a.17.17,0,0,1,.12.05.16.16,0,0,1,0,.12v.26a.14.14,0,0,1-.16.16H.68V41.2H2.91a.14.14,0,0,1,.16.16v.26a.14.14,0,0,1,0,.11.14.14,0,0,1-.12.06H.68v1.58H3.11a.14.14,0,0,1,.16.16v.27a.14.14,0,0,1,0,.11.16.16,0,0,1-.12,0H.16Z"/><path class="a" d="M6.26,44a.14.14,0,0,1-.14-.14.07.07,0,0,1,0-.05s0,0,0,0l1.61-2.26L6.23,39.31a.29.29,0,0,1,0-.09.14.14,0,0,1,.14-.14h.42a.18.18,0,0,1,.11,0A.36.36,0,0,1,7,39.2L8.19,41,9.41,39.2a.22.22,0,0,1,.07-.09.2.2,0,0,1,.11,0H10a.14.14,0,0,1,.14.14.16.16,0,0,1,0,.09L8.6,41.49l1.59,2.25a.05.05,0,0,1,0,0s0,0,0,0a.14.14,0,0,1-.14.14H9.66a.15.15,0,0,1-.11,0,.3.3,0,0,1-.08-.08L8.17,42,6.88,43.85a.3.3,0,0,1-.08.08.18.18,0,0,1-.1,0H6.26Z"/><path class="a" d="M13.46,44a.16.16,0,0,1-.12,0,.15.15,0,0,1,0-.11V39.26a.16.16,0,0,1,0-.12.17.17,0,0,1,.12,0h1.78a2.26,2.26,0,0,1,.9.17,1.4,1.4,0,0,1,.6.5,1.75,1.75,0,0,1,0,1.66,1.23,1.23,0,0,1-.6.49,2.33,2.33,0,0,1-.9.17H14v1.75a.14.14,0,0,1-.05.11.16.16,0,0,1-.12,0Zm.53-2.5H15.2a1.17,1.17,0,0,0,.78-.23.87.87,0,0,0,.26-.68.91.91,0,0,0-.25-.68,1.11,1.11,0,0,0-.79-.24H14Z"/><path class="a" d="M20.26,44a.16.16,0,0,1-.12,0,.15.15,0,0,1,0-.11V39.26a.16.16,0,0,1,0-.12.17.17,0,0,1,.12,0h2.89a.17.17,0,0,1,.12,0,.16.16,0,0,1,0,.12v.26a.14.14,0,0,1-.16.16H20.77v1.53H23a.14.14,0,0,1,.16.16v.26a.14.14,0,0,1,0,.11.17.17,0,0,1-.12,0H20.77v1.58H23.2a.14.14,0,0,1,.16.16v.27a.14.14,0,0,1,0,.11.16.16,0,0,1-.12,0H20.26Z"/><path class="a" d="M26.81,44a.14.14,0,0,1-.16-.16V39.25a.16.16,0,0,1,0-.12.17.17,0,0,1,.12-.05h1.71a1.92,1.92,0,0,1,1.25.37,1.56,1.56,0,0,1,.19,2,1.43,1.43,0,0,1-.73.47l1.08,1.86a.24.24,0,0,1,0,.08.14.14,0,0,1,0,.1.13.13,0,0,1-.1,0h-.33a.21.21,0,0,1-.17-.06l-.1-.12-1-1.78H27.34v1.81a.18.18,0,0,1,0,.11.16.16,0,0,1-.12,0Zm.53-2.56h1.15a1.18,1.18,0,0,0,.79-.22,1,1,0,0,0,0-1.31,1.17,1.17,0,0,0-.79-.22H27.35v1.75Z"/><path class="a" d="M33.71,44a.16.16,0,0,1-.12,0,.15.15,0,0,1,0-.11V39.25a.14.14,0,0,1,0-.11.17.17,0,0,1,.12,0h.37a.17.17,0,0,1,.12,0,.15.15,0,0,1,0,.11v4.58a.14.14,0,0,1,0,.11.16.16,0,0,1-.12,0Z"/><path class="a" d="M37.93,44a.16.16,0,0,1-.12,0,.15.15,0,0,1,0-.11V39.26a.16.16,0,0,1,0-.12.17.17,0,0,1,.12,0h2.89a.17.17,0,0,1,.12,0,.16.16,0,0,1,0,.12v.26a.14.14,0,0,1-.16.16H38.44v1.53h2.23a.14.14,0,0,1,.16.16v.26a.14.14,0,0,1,0,.11.17.17,0,0,1-.12,0H38.44v1.58h2.43a.14.14,0,0,1,.16.16v.27a.14.14,0,0,1,0,.11.16.16,0,0,1-.12,0H37.93Z"/><path class="a" d="M44.48,44a.16.16,0,0,1-.12,0,.15.15,0,0,1,0-.11V39.26a.16.16,0,0,1,0-.12.17.17,0,0,1,.12,0h.32c.06,0,.1,0,.12,0l0,.06,2.32,3.57v-3.5a.16.16,0,0,1,0-.12.17.17,0,0,1,.12,0h.33a.17.17,0,0,1,.17.17v4.56a.18.18,0,0,1-.05.12.16.16,0,0,1-.11.05h-.33a.12.12,0,0,1-.11,0s0-.05-.05-.05L45,40.37v3.47a.14.14,0,0,1,0,.11.16.16,0,0,1-.12,0h-.33Z"/><path class="a" d="M53.26,44.05a2.14,2.14,0,0,1-1.07-.24,1.59,1.59,0,0,1-.64-.67,2.41,2.41,0,0,1-.24-1c0-.19,0-.39,0-.62s0-.43,0-.63a2.27,2.27,0,0,1,.24-1,1.59,1.59,0,0,1,.64-.67A2.14,2.14,0,0,1,53.26,39a2.45,2.45,0,0,1,.85.13,2.12,2.12,0,0,1,.61.35,1.45,1.45,0,0,1,.36.5,1.59,1.59,0,0,1,.14.58.12.12,0,0,1,0,.1.15.15,0,0,1-.11,0h-.38a.15.15,0,0,1-.11,0,.22.22,0,0,1-.07-.12,1.13,1.13,0,0,0-.44-.75,1.54,1.54,0,0,0-.81-.2,1.27,1.27,0,0,0-.9.32,1.47,1.47,0,0,0-.35,1c0,.38,0,.78,0,1.18a1.42,1.42,0,0,0,.35,1,1.24,1.24,0,0,0,.9.32,1.54,1.54,0,0,0,.81-.2,1.11,1.11,0,0,0,.44-.75.18.18,0,0,1,.07-.12.21.21,0,0,1,.11,0h.38a.15.15,0,0,1,.11,0,.13.13,0,0,1,0,.1,1.82,1.82,0,0,1-.14.58,1.55,1.55,0,0,1-.36.5,1.58,1.58,0,0,1-.61.35A2.26,2.26,0,0,1,53.26,44.05Z"/><path class="a" d="M58.63,44a.16.16,0,0,1-.12,0,.15.15,0,0,1,0-.11V39.26a.16.16,0,0,1,0-.12.17.17,0,0,1,.12,0h2.89a.17.17,0,0,1,.12,0,.16.16,0,0,1,0,.12v.26a.14.14,0,0,1-.16.16H59.14v1.53h2.23a.14.14,0,0,1,.16.16v.26a.14.14,0,0,1,0,.11.17.17,0,0,1-.12,0H59.14v1.58h2.43a.14.14,0,0,1,.16.16v.27a.14.14,0,0,1,0,.11.16.16,0,0,1-.12,0H58.63Z"/><path class="a" d="M69.21,44a.14.14,0,0,1-.16-.16V39.24a.14.14,0,0,1,0-.11.17.17,0,0,1,.12-.05h.37a.17.17,0,0,1,.12.05.15.15,0,0,1,0,.11v4.58a.14.14,0,0,1,0,.11.16.16,0,0,1-.12,0h-.37Z"/><path class="a" d="M73.43,44a.14.14,0,0,1-.11,0,.15.15,0,0,1,0-.11V39.26a.15.15,0,0,1,.15-.17h.35c.06,0,.1,0,.12,0l.06.07L75.43,42l1.49-2.83,0-.07a.16.16,0,0,1,.12,0h.34a.17.17,0,0,1,.12,0,.16.16,0,0,1,0,.12v4.57a.18.18,0,0,1,0,.11.16.16,0,0,1-.12,0H77.1a.14.14,0,0,1-.11,0,.15.15,0,0,1,0-.11V40.39l-1.17,2.28a.31.31,0,0,1-.08.11.21.21,0,0,1-.14,0h-.21a.2.2,0,0,1-.14,0,.31.31,0,0,1-.08-.11L74,40.39v3.44a.14.14,0,0,1,0,.11.15.15,0,0,1-.11,0Z"/><path class="a" d="M81.29,44a.14.14,0,0,1-.11,0,.15.15,0,0,1,0-.11V39.26a.15.15,0,0,1,.15-.17h.35c.06,0,.1,0,.12,0l.06.07L83.29,42l1.49-2.83,0-.07a.16.16,0,0,1,.12,0h.34a.17.17,0,0,1,.12,0,.16.16,0,0,1,0,.12v4.57a.18.18,0,0,1,0,.11.16.16,0,0,1-.12,0H85a.14.14,0,0,1-.11,0,.15.15,0,0,1,0-.11V40.39l-1.17,2.28a.31.31,0,0,1-.08.11.21.21,0,0,1-.14,0H83.2a.2.2,0,0,1-.14,0,.31.31,0,0,1-.08-.11L81.8,40.39v3.44a.14.14,0,0,1,0,.11.15.15,0,0,1-.11,0Z"/><path class="a" d="M89.17,44a.16.16,0,0,1-.12,0,.13.13,0,0,1,0-.11V39.26a.16.16,0,0,1,0-.12.17.17,0,0,1,.12,0h2.89a.17.17,0,0,1,.12,0,.16.16,0,0,1,0,.12v.26a.14.14,0,0,1-.16.16H89.67v1.53H91.9a.14.14,0,0,1,.16.16v.26a.14.14,0,0,1,0,.11.17.17,0,0,1-.12,0H89.67v1.58H92.1a.14.14,0,0,1,.16.16v.27a.14.14,0,0,1,0,.11.16.16,0,0,1-.12,0H89.16v0Z"/><path class="a" d="M95.72,44a.16.16,0,0,1-.12,0,.15.15,0,0,1,0-.11V39.26a.16.16,0,0,1,0-.12.17.17,0,0,1,.12,0h1.71a1.92,1.92,0,0,1,1.25.37,1.56,1.56,0,0,1,.19,2,1.43,1.43,0,0,1-.73.47l1.08,1.86a.24.24,0,0,1,0,.08.18.18,0,0,1,0,.1.13.13,0,0,1-.1,0h-.33a.21.21,0,0,1-.17-.06l-.1-.12-1-1.78H96.27v1.81a.14.14,0,0,1,0,.11.16.16,0,0,1-.12,0h-.39Zm.52-2.56h1.15a1.18,1.18,0,0,0,.79-.22,1,1,0,0,0,0-1.31,1.17,1.17,0,0,0-.79-.22H96.25v1.75Z"/><path class="a" d="M104,44.05a2.38,2.38,0,0,1-1-.19,1.77,1.77,0,0,1-.64-.48,1,1,0,0,1-.23-.63.11.11,0,0,1,.05-.1.15.15,0,0,1,.11,0h.35a.15.15,0,0,1,.12,0,.19.19,0,0,1,0,.1,1,1,0,0,0,.17.33.93.93,0,0,0,.38.27,1.64,1.64,0,0,0,.64.11,1.52,1.52,0,0,0,.89-.21.67.67,0,0,0,.28-.58.53.53,0,0,0-.15-.39,1.3,1.3,0,0,0-.46-.27c-.2-.08-.47-.16-.8-.26a4.49,4.49,0,0,1-.85-.32,1.34,1.34,0,0,1-.5-.43,1.2,1.2,0,0,1-.16-.66,1.26,1.26,0,0,1,.2-.68,1.28,1.28,0,0,1,.59-.47A2.21,2.21,0,0,1,104,39a2.16,2.16,0,0,1,.76.12,2.22,2.22,0,0,1,.55.3,1.57,1.57,0,0,1,.33.41,1.21,1.21,0,0,1,.12.43.12.12,0,0,1,0,.09.13.13,0,0,1-.11.05h-.37l-.1,0a.16.16,0,0,1-.08-.1.7.7,0,0,0-.32-.48,1.26,1.26,0,0,0-.73-.19,1.47,1.47,0,0,0-.74.17.6.6,0,0,0-.28.55.56.56,0,0,0,.13.39,1.05,1.05,0,0,0,.42.27,7.24,7.24,0,0,0,.75.25,6,6,0,0,1,.92.32,1.07,1.07,0,0,1,.69,1.08,1.29,1.29,0,0,1-.23.76,1.39,1.39,0,0,1-.65.47A2.59,2.59,0,0,1,104,44.05Z"/><path class="a" d="M109.27,44a.16.16,0,0,1-.12,0,.15.15,0,0,1,0-.11V39.25a.14.14,0,0,1,0-.11.17.17,0,0,1,.12,0h.37a.17.17,0,0,1,.12,0,.15.15,0,0,1,0,.11v4.58a.14.14,0,0,1,0,.11.16.16,0,0,1-.12,0Z"/><path class="a" d="M114.79,44a.25.25,0,0,1-.16,0,.3.3,0,0,1-.09-.13L113,39.3a.22.22,0,0,1,0-.08.14.14,0,0,1,.14-.14h.36a.17.17,0,0,1,.13.05.33.33,0,0,1,.06.08l1.36,4,1.37-4a.33.33,0,0,1,.06-.08.17.17,0,0,1,.12-.05h.36a.14.14,0,0,1,.14.14.25.25,0,0,1,0,.08l-1.56,4.5a.25.25,0,0,1-.25.18Z"/><path class="a" d="M120.39,44a.16.16,0,0,1-.12,0,.15.15,0,0,1,0-.11V39.26a.16.16,0,0,1,0-.12.17.17,0,0,1,.12,0h2.9a.17.17,0,0,1,.12,0,.16.16,0,0,1,0,.12v.26a.14.14,0,0,1-.16.16h-2.38v1.53h2.23a.14.14,0,0,1,.16.16v.26a.14.14,0,0,1,0,.11.17.17,0,0,1-.12,0h-2.23v1.58h2.43a.14.14,0,0,1,.16.16v.27a.14.14,0,0,1,0,.11.16.16,0,0,1-.12,0h-3Z"/><path class="a" d="M131,44a.16.16,0,0,1-.12,0,.15.15,0,0,1,0-.11V39.25a.14.14,0,0,1,0-.11.17.17,0,0,1,.12,0h.37a.18.18,0,0,1,.12,0,.15.15,0,0,1,0,.11v4.13h2.32a.21.21,0,0,1,.12,0,.16.16,0,0,1,0,.12v.28a.18.18,0,0,1,0,.11.16.16,0,0,1-.12,0H131Z"/><path class="a" d="M137.22,44a.16.16,0,0,1-.12,0,.15.15,0,0,1,0-.11V39.26a.16.16,0,0,1,0-.12.17.17,0,0,1,.12,0h2.89a.17.17,0,0,1,.12,0,.16.16,0,0,1,0,.12v.26a.14.14,0,0,1-.16.16h-2.38v1.53H140a.14.14,0,0,1,.16.16v.26a.14.14,0,0,1,0,.11.17.17,0,0,1-.12,0h-2.23v1.58h2.43a.14.14,0,0,1,.16.16v.27a.14.14,0,0,1,0,.11.16.16,0,0,1-.12,0h-2.94v0Z"/><path class="a" d="M143.28,44a.14.14,0,0,1-.14-.14.25.25,0,0,1,0-.08l1.74-4.53a.23.23,0,0,1,.08-.11.22.22,0,0,1,.15,0h.47a.22.22,0,0,1,.15,0,.31.31,0,0,1,.08.11l1.73,4.53a.22.22,0,0,1,0,.08.14.14,0,0,1-.14.14h-.35c-.06,0-.1,0-.12,0a.18.18,0,0,1,0-.08l-.38-1h-2.29l-.38,1a.15.15,0,0,1,0,.08.16.16,0,0,1-.12,0Zm1.12-1.72h1.89l-.95-2.48Z"/><path class="a" d="M150.77,44a.16.16,0,0,1-.12,0,.15.15,0,0,1,0-.11V39.26a.16.16,0,0,1,0-.12.17.17,0,0,1,.12,0h1.71a1.92,1.92,0,0,1,1.25.37,1.56,1.56,0,0,1,.19,2,1.43,1.43,0,0,1-.73.47l1.08,1.86a.24.24,0,0,1,0,.08.18.18,0,0,1,0,.1.13.13,0,0,1-.1,0h-.33a.21.21,0,0,1-.17-.06l-.1-.12-1-1.78h-1.22v1.81a.14.14,0,0,1,0,.11.16.16,0,0,1-.12,0h-.39Zm.53-2.56h1.15a1.18,1.18,0,0,0,.79-.22,1,1,0,0,0,0-1.31,1.17,1.17,0,0,0-.79-.22h-1.15v1.75Z"/><path class="a" d="M157.67,44a.16.16,0,0,1-.12,0,.15.15,0,0,1,0-.11V39.26a.16.16,0,0,1,0-.12.17.17,0,0,1,.12,0H158c.06,0,.1,0,.12,0l0,.06,2.32,3.57v-3.5a.16.16,0,0,1,0-.12.17.17,0,0,1,.12,0H161a.17.17,0,0,1,.17.17v4.56a.15.15,0,0,1,0,.12A.16.16,0,0,1,161,44h-.33a.12.12,0,0,1-.11,0l0-.05-2.31-3.53v3.47a.18.18,0,0,1,0,.11.16.16,0,0,1-.12,0h-.35Z"/><path class="a" d="M164.84,44a.16.16,0,0,1-.12,0,.15.15,0,0,1,0-.11V39.25a.14.14,0,0,1,0-.11.17.17,0,0,1,.12,0h.37a.17.17,0,0,1,.12,0,.15.15,0,0,1,0,.11v4.58a.14.14,0,0,1,0,.11.16.16,0,0,1-.12,0Z"/><path class="a" d="M169.06,44a.16.16,0,0,1-.12,0,.15.15,0,0,1,0-.11V39.26a.16.16,0,0,1,0-.12.17.17,0,0,1,.12,0h.32a.15.15,0,0,1,.12,0l.05.06,2.32,3.57v-3.5a.16.16,0,0,1,0-.12.17.17,0,0,1,.12,0h.33a.17.17,0,0,1,.17.17v4.56a.18.18,0,0,1-.05.12.13.13,0,0,1-.11.05H172a.12.12,0,0,1-.11,0l-.05-.05-2.32-3.53v3.47a.14.14,0,0,1,0,.11.16.16,0,0,1-.12,0h-.34Z"/><path class="a" d="M177.86,44.05a2.23,2.23,0,0,1-1.05-.23,1.56,1.56,0,0,1-.66-.66,2.23,2.23,0,0,1-.25-1c0-.2,0-.42,0-.66s0-.45,0-.67a2.29,2.29,0,0,1,.25-1,1.62,1.62,0,0,1,.67-.65,2.26,2.26,0,0,1,1.05-.23,2.5,2.5,0,0,1,.86.14,1.94,1.94,0,0,1,.6.35,1.54,1.54,0,0,1,.35.44.89.89,0,0,1,.12.4.12.12,0,0,1,0,.1.18.18,0,0,1-.11,0h-.41a.13.13,0,0,1-.1,0,.29.29,0,0,1-.06-.1,1,1,0,0,0-.21-.35,1,1,0,0,0-.38-.29,1.38,1.38,0,0,0-.62-.11,1.3,1.3,0,0,0-.9.3,1.35,1.35,0,0,0-.36,1c0,.41,0,.83,0,1.24a1.4,1.4,0,0,0,.37,1,1.3,1.3,0,0,0,.9.3,1.64,1.64,0,0,0,.67-.14,1,1,0,0,0,.45-.42,1.43,1.43,0,0,0,.17-.73v-.29h-1a.14.14,0,0,1-.11-.05.17.17,0,0,1,0-.12v-.22a.17.17,0,0,1,0-.12.15.15,0,0,1,.11,0h1.58a.14.14,0,0,1,.16.16v.68a2.11,2.11,0,0,1-.23,1,1.65,1.65,0,0,1-.69.67A2.24,2.24,0,0,1,177.86,44.05Z"/></g></svg>