<?xml version="1.0" encoding="utf-8"?>
<!-- Generator: Adobe Illustrator 24.3.0, SVG Export Plug-In . SVG Version: 6.00 Build 0)  -->
<svg version="1.1" id="Layer_5" xmlns="http://www.w3.org/2000/svg" xmlns:xlink="http://www.w3.org/1999/xlink" x="0px" y="0px"
	 viewBox="0 0 512 512" style="enable-background:new 0 0 512 512;" xml:space="preserve">
<style type="text/css">
	.st0{fill:#FFAB00;}
</style>
<path class="st0" d="M328,246.6c0-16.9-13.7-30.6-30.6-30.6c-8.2,0-15.9,3.2-21.7,9l-71,71c-9.6,9.6-21.1,17.2-33.6,22.4
	c8.1-10.7,12.9-24,12.9-38.4c0-35.3-28.7-64-64-64s-64,28.7-64,64c0,20,9.2,37.8,23.6,49.6C38.9,337.3,8,373.1,8,416v88h184V401.4
	c0-3.9,1.5-7.6,4.3-10.3L319,268.3C324.8,262.5,328,254.8,328,246.6L328,246.6z M128,344l7.2-1c-2.1,9.7-8.1,17-15.2,17
	c-6.8,0-12.7-6.8-15-16H128z M72,280c0-26.5,21.5-48,48-48s48,21.5,48,48s-21.5,48-48,48S72,306.5,72,280z M307.7,257L185,379.7
	c-5.8,5.8-9,13.5-9,21.6V488H64v-96H48v96H24v-72c0-37.2,28.4-68,64.7-71.6c3.1,18,15.9,31.6,31.3,31.6c16.4,0,29.8-15.6,31.6-35.4
	c24.2-4.2,47-15.9,64.4-33.3l71-71c2.7-2.7,6.5-4.3,10.3-4.3c8.1,0,14.6,6.6,14.6,14.6C312,250.5,310.5,254.2,307.7,257L307.7,257z"
	/>
<path class="st0" d="M456.1,329.8C470.7,318,480,300.1,480,280c0-35.3-28.7-64-64-64s-64,28.7-64,64c0,30.5,21.4,56,50,62.4
	c-9.7,8-17.1,18.8-20.6,31.6l-11.5,42H292c-15.4,0-28,12.6-28,28s12.6,28,28,28h76v32h136V390.4C504,361,483.5,336.4,456.1,329.8z
	 M368,280c0-26.5,21.5-48,48-48s48,21.5,48,48s-21.5,48-48,48S368,306.5,368,280z M488,488H384v-16h6.7c13.8,0,26-8.8,30.4-21.9
	l26.5-79.6l-15.2-5.1L405.9,445c-2.2,6.6-8.3,10.9-15.2,10.9H292c-6.6,0-12-5.4-12-12s5.4-12,12-12h90.1l14.7-53.8
	c5.5-20.1,23.9-34.2,44.8-34.2c25.6,0,46.4,20.8,46.4,46.4V488z"/>
<path class="st0" d="M104,88h16v16h-16V88z"/>
<path class="st0" d="M136,88h96v16h-96V88z"/>
<path class="st0" d="M104,120h128v16H104V120z"/>
<path class="st0" d="M104,152h128v16H104V152z"/>
<path class="st0" d="M456,72h16v16h-16V72z"/>
<path class="st0" d="M280,72h160v16H280V72z"/>
<path class="st0" d="M280,104h192v16H280V104z"/>
<path class="st0" d="M280,136h192v16H280V136z"/>
<path class="st0" d="M464,8H288c-22.1,0-40,17.9-40,40v8H104c-17.6,0-32,14.4-32,32v80c0,17.6,14.4,32,32,32h72v39l58.4-39H248
	c12.3,0,23.3-7.3,28.6-17.9c3.6,1.1,7.4,1.9,11.4,1.9h21.6l58.4,39v-39h96c22.1,0,40-17.9,40-40V48C504,25.9,486.1,8,464,8z
	 M248,184h-18.4L192,209v-25h-88c-8.8,0-16-7.2-16-16V88c0-8.8,7.2-16,16-16h144v72c0,12.3,5.7,23.2,14.5,30.6
	C260,180.1,254.4,184,248,184z M488,144c0,13.2-10.8,24-24,24H352v25l-37.6-25H288c-13.2,0-24-10.8-24-24V48c0-13.2,10.8-24,24-24
	h176c13.2,0,24,10.8,24,24V144z"/>
<path class="st0" d="M280,40h16v16h-16V40z"/>
<path class="st0" d="M312,40h16v16h-16V40z"/>
<path class="st0" d="M344,40h128v16H344V40z"/>
</svg>
