<?xml version="1.0" encoding="utf-8"?>
<!-- Generator: Adobe Illustrator 24.3.0, SVG Export Plug-In . SVG Version: 6.00 Build 0)  -->
<svg version="1.1" id="Layer_1" xmlns="http://www.w3.org/2000/svg" xmlns:xlink="http://www.w3.org/1999/xlink" x="0px" y="0px"
	 viewBox="0 0 475 450" style="enable-background:new 0 0 475 450;" xml:space="preserve">
<style type="text/css">
	.st0{fill:#E0E0E0;}
	.st1{fill:#407BFF;}
	.st2{fill:#FAFAFA;}
	.st3{fill:#263238;}
	.st4{fill:#FFBE9D;}
	.st5{opacity:0.6;}
	.st6{fill:#FFFFFF;}
	.st7{fill:#EB996E;}
	.st8{fill:#455A64;}
	.st9{opacity:0.2;}
	.st10{opacity:0.3;}
	.st11{opacity:0.4;}
</style>
<g id="freepik--background-complete--inject-18">
	<path class="st0" d="M47.5,59.9c-0.1,0-0.2-12.3-0.2-27.4S47.3,5,47.5,5c0.1,0,0.2,12.3,0.2,27.4S47.6,59.9,47.5,59.9z"/>
	<path class="st0" d="M109.9,57.3c0,0.1-14.6,0.2-32.5,0.2s-32.5-0.1-32.5-0.2c0-0.1,14.6-0.2,32.5-0.2S109.9,57.2,109.9,57.3z"/>
	<path class="st0" d="M111.2,54.8c-0.1,0-0.3-10.5-0.3-23.6s0.1-23.6,0.3-23.6s0.2,10.5,0.2,23.6S111.3,54.8,111.2,54.8z"/>
	<path class="st0" d="M99.8,6.3c0,0.1-11.4,0.2-25.5,0.2S48.7,6.5,48.7,6.3c0-0.1,11.4-0.2,25.5-0.2S99.8,6.2,99.8,6.3z"/>
	<path class="st0" d="M109.4,5.5c0.1,0.1-13.8,11.7-31,25.9S47.2,57.1,47.1,57c-0.1-0.1,13.8-11.7,31-25.9S109.3,5.4,109.4,5.5z"/>
	<path class="st0" d="M111.5,53.4c-0.1,0.1-14.4-9.9-31.8-22.4S48.1,8.3,48.2,8.1S62.5,18.1,80,30.6S111.6,53.3,111.5,53.4z"/>
	<path class="st0" d="M281.9,91.7c-0.1,0-0.2-12.3-0.2-27.4s0.1-27.4,0.2-27.4c0.1,0,0.2,12.3,0.2,27.4S282,91.7,281.9,91.7z"/>
	<path class="st0" d="M344.3,89.2c0,0.1-14.6,0.2-32.5,0.2c-18,0-32.5-0.1-32.5-0.2c0-0.1,14.6-0.2,32.5-0.2
		C329.8,88.9,344.3,89,344.3,89.2z"/>
	<path class="st0" d="M345.6,86.6c-0.1,0-0.2-10.5-0.2-23.6s0.1-23.6,0.2-23.6s0.2,10.5,0.2,23.6S345.8,86.6,345.6,86.6z"/>
	<path class="st0" d="M334.1,38.2c0,0.1-11.4,0.2-25.5,0.2c-14.1,0-25.5-0.1-25.5-0.2c0-0.1,11.4-0.2,25.5-0.2
		C322.7,37.9,334.1,38,334.1,38.2z"/>
	<path class="st0" d="M76.1,391.8c-0.1,0-0.2-12.3-0.2-27.4s0.1-27.4,0.2-27.4c0.1,0,0.2,12.3,0.2,27.4S76.2,391.8,76.1,391.8z"/>
	<path class="st0" d="M167.5,389.2c0,0.1-21.3,0.2-47.6,0.2s-47.6-0.1-47.6-0.2s21.3-0.2,47.6-0.2S167.5,389.1,167.5,389.2z"/>
	<path class="st0" d="M169.4,386.7c-0.1,0-0.2-10.5-0.2-23.6s0.1-23.6,0.2-23.6s0.2,10.5,0.2,23.6S169.5,386.7,169.4,386.7z"/>
	<path class="st0" d="M152.6,338.2c0,0.1-16.7,0.2-37.3,0.2S78,338.4,78,338.2c0-0.1,16.7-0.2,37.3-0.2S152.6,338.1,152.6,338.2z"/>
	<path class="st0" d="M401.4,381.5c0-0.3,0.8-0.5,1.8-0.5l-0.5,0.5l0,0v-0.2c0-0.1,0-0.1,0-0.2s0-0.2,0-0.3c0-0.2,0.1-0.4,0.1-0.6
		c0.1-0.3,0.2-0.5,0.3-0.5c0.1,0,0.2,0.2,0.3,0.5c0,0.2,0.1,0.4,0.1,0.6c0,0.2,0,0.2,0,0.3v0.3l0,0c-0.2,0.2,0.5-0.5-0.5,0.5
		C402.2,382,401.4,381.7,401.4,381.5z"/>
	<path class="st0" d="M394.1,381.5c0-0.3,0.8-0.5,1.8-0.5c1,0,1.8,0.2,1.8,0.5s-0.8,0.5-1.8,0.5C394.9,382,394.1,381.7,394.1,381.5z
		"/>
	<path class="st0" d="M386.9,381.5c0-0.3,0.8-0.5,1.8-0.5c1,0,1.8,0.2,1.8,0.5s-0.8,0.5-1.8,0.5C387.7,382,386.9,381.7,386.9,381.5z
		"/>
	<path class="st0" d="M379.6,381.5c0-0.3,0.8-0.5,1.8-0.5s1.8,0.2,1.8,0.5s-0.8,0.5-1.8,0.5S379.6,381.7,379.6,381.5z"/>
	<path class="st0" d="M372.3,381.5c0-0.3,0.8-0.5,1.8-0.5c1,0,1.8,0.2,1.8,0.5s-0.8,0.5-1.8,0.5S372.3,381.7,372.3,381.5z"/>
	<path class="st0" d="M365.1,381.5c0-0.3,0.8-0.5,1.8-0.5s1.8,0.2,1.8,0.5s-0.8,0.5-1.8,0.5C365.9,382,365.1,381.7,365.1,381.5z"/>
	<path class="st0" d="M357.8,381.5c0-0.3,0.8-0.5,1.8-0.5c1,0,1.8,0.2,1.8,0.5s-0.8,0.5-1.8,0.5C358.6,382,357.8,381.7,357.8,381.5z
		"/>
	<path class="st0" d="M350.5,381.5c0-0.3,0.8-0.5,1.8-0.5s1.8,0.2,1.8,0.5s-0.8,0.5-1.8,0.5S350.5,381.7,350.5,381.5z"/>
	<path class="st0" d="M343.3,381.5c0-0.3,0.8-0.5,1.8-0.5c1,0,1.8,0.2,1.8,0.5s-0.8,0.5-1.8,0.5C344.1,382,343.3,381.7,343.3,381.5z
		"/>
	<path class="st0" d="M336,381.5c0-0.3,0.8-0.5,1.8-0.5c1,0,1.8,0.2,1.8,0.5s-0.8,0.5-1.8,0.5S336,381.7,336,381.5z"/>
	<path class="st0" d="M328.7,381.5c0-0.3,0.8-0.5,1.8-0.5s1.8,0.2,1.8,0.5s-0.8,0.5-1.8,0.5C329.5,382,328.7,381.7,328.7,381.5z"/>
	<path class="st0" d="M321.5,381.5c0-0.3,0.8-0.5,1.8-0.5s1.8,0.2,1.8,0.5s-0.8,0.5-1.8,0.5S321.5,381.7,321.5,381.5z"/>
	<path class="st0" d="M314.2,381.5c0-0.3,0.8-0.5,1.8-0.5c1,0,1.8,0.2,1.8,0.5S317,382,316,382C315,382,314.2,381.7,314.2,381.5z"/>
	<path class="st0" d="M306.9,381.5c0-0.3,0.8-0.5,1.8-0.5c1,0,1.8,0.2,1.8,0.5s-0.8,0.5-1.8,0.5C307.8,382,306.9,381.7,306.9,381.5z
		"/>
	<path class="st0" d="M299.7,381.5c0-0.3,0.8-0.5,1.8-0.5c1,0,1.8,0.2,1.8,0.5s-0.8,0.5-1.8,0.5C300.5,382,299.7,381.7,299.7,381.5z
		"/>
	<path class="st0" d="M294.2,379.7c0.3,0,0.5,0.8,0.5,1.8l-0.5-0.5h0.4h0.3c0.2,0,0.4,0,0.6,0.1c0.3,0.1,0.5,0.2,0.5,0.3
		c0,0.1-0.2,0.2-0.5,0.3c-0.2,0-0.4,0.1-0.6,0.1h-0.3h-0.4l-0.5-0.5C293.8,380.5,294,379.7,294.2,379.7z"/>
	<path class="st0" d="M294.2,372.4c0.3,0,0.5,0.8,0.5,1.8s-0.2,1.8-0.5,1.8c-0.3,0-0.5-0.8-0.5-1.8S294,372.4,294.2,372.4z"/>
	<path class="st0" d="M294.2,365.2c0.3,0,0.5,0.8,0.5,1.8s-0.2,1.8-0.5,1.8c-0.3,0-0.5-0.8-0.5-1.8S294,365.2,294.2,365.2z"/>
	<path class="st0" d="M294.2,358c0.3,0,0.5,0.8,0.5,1.8s-0.2,1.8-0.5,1.8c-0.3,0-0.5-0.8-0.5-1.8S294,358,294.2,358z"/>
	<path class="st0" d="M294.2,350.8c0.3,0,0.5,0.8,0.5,1.8s-0.2,1.8-0.5,1.8c-0.3,0-0.5-0.8-0.5-1.8S294,350.8,294.2,350.8z"/>
	<path class="st0" d="M294.2,343.6c0.3,0,0.5,0.8,0.5,1.8s-0.2,1.8-0.5,1.8c-0.3,0-0.5-0.8-0.5-1.8S294,343.6,294.2,343.6z"/>
	<path class="st0" d="M294.2,336.3c0.3,0,0.5,0.8,0.5,1.8s-0.2,1.8-0.5,1.8c-0.3,0-0.5-0.8-0.5-1.8S294,336.3,294.2,336.3z"/>
	<path class="st0" d="M294.2,329.1c0.3,0,0.5,0.8,0.5,1.8c0,1-0.2,1.8-0.5,1.8c-0.3,0-0.5-0.8-0.5-1.8
		C293.8,329.9,294,329.1,294.2,329.1z"/>
	<path class="st0" d="M294.2,321.9c0.3,0,0.5,0.8,0.5,1.8s-0.2,1.8-0.5,1.8c-0.3,0-0.5-0.8-0.5-1.8S294,321.9,294.2,321.9z"/>
	<path class="st0" d="M296,316.5c0,0.3-0.8,0.5-1.8,0.5l0.5-0.5l0,0v0.3c0,0.1,0,0.2,0,0.3c0,0.2-0.1,0.4-0.1,0.6
		c-0.1,0.3-0.2,0.5-0.3,0.5s-0.2-0.2-0.3-0.5c0-0.2-0.1-0.4-0.1-0.6c0-0.1,0-0.3,0-0.3v-0.3l0,0l0.5-0.5
		C295.2,316,296,316.2,296,316.5z"/>
	<path class="st0" d="M303.3,316.5c0,0.3-0.8,0.5-1.8,0.5s-1.8-0.2-1.8-0.5s0.8-0.5,1.8-0.5C302.5,316,303.3,316.2,303.3,316.5z"/>
	<path class="st0" d="M310.6,316.5c0,0.3-0.8,0.5-1.8,0.5c-1,0-1.8-0.2-1.8-0.5s0.8-0.5,1.8-0.5C309.8,316,310.6,316.2,310.6,316.5z
		"/>
	<path class="st0" d="M317.8,316.5c0,0.3-0.8,0.5-1.8,0.5c-1,0-1.8-0.2-1.8-0.5s0.8-0.5,1.8-0.5C317,316,317.8,316.2,317.8,316.5z"
		/>
	<path class="st0" d="M325.1,316.5c0,0.3-0.8,0.5-1.8,0.5s-1.8-0.2-1.8-0.5s0.8-0.5,1.8-0.5S325.1,316.2,325.1,316.5z"/>
	<path class="st0" d="M332.4,316.5c0,0.3-0.8,0.5-1.8,0.5s-1.8-0.2-1.8-0.5s0.8-0.5,1.8-0.5S332.4,316.2,332.4,316.5z"/>
	<path class="st0" d="M339.6,316.5c0,0.3-0.8,0.5-1.8,0.5s-1.8-0.2-1.8-0.5s0.8-0.5,1.8-0.5C338.8,316,339.6,316.2,339.6,316.5z"/>
	<path class="st0" d="M346.9,316.5c0,0.3-0.8,0.5-1.8,0.5c-1,0-1.8-0.2-1.8-0.5s0.8-0.5,1.8-0.5C346.1,316,346.9,316.2,346.9,316.5z
		"/>
	<path class="st0" d="M354.2,316.5c0,0.3-0.8,0.5-1.8,0.5s-1.8-0.2-1.8-0.5s0.8-0.5,1.8-0.5S354.2,316.2,354.2,316.5z"/>
	<path class="st0" d="M361.4,316.5c0,0.3-0.8,0.5-1.8,0.5c-1,0-1.8-0.2-1.8-0.5s0.8-0.5,1.8-0.5C360.6,316,361.4,316.2,361.4,316.5z
		"/>
	<path class="st0" d="M368.7,316.5c0,0.3-0.8,0.5-1.8,0.5c-1,0-1.8-0.2-1.8-0.5s0.8-0.5,1.8-0.5S368.7,316.2,368.7,316.5z"/>
	<path class="st0" d="M376,316.5c0,0.3-0.8,0.5-1.8,0.5s-1.8-0.2-1.8-0.5s0.8-0.5,1.8-0.5C375.2,316,376,316.2,376,316.5z"/>
	<path class="st0" d="M383.2,316.5c0,0.3-0.8,0.5-1.8,0.5s-1.8-0.2-1.8-0.5s0.8-0.5,1.8-0.5C382.4,316,383.2,316.2,383.2,316.5z"/>
	<path class="st0" d="M390.5,316.5c0,0.3-0.8,0.5-1.8,0.5c-1,0-1.8-0.2-1.8-0.5s0.8-0.5,1.8-0.5C389.7,316,390.5,316.2,390.5,316.5z
		"/>
	<path class="st0" d="M397.8,316.5c0,0.3-0.8,0.5-1.8,0.5c-1,0-1.8-0.2-1.8-0.5s0.8-0.5,1.8-0.5C396.9,316,397.8,316.2,397.8,316.5z
		"/>
	<path class="st0" d="M403.2,318.3c-0.3,0-0.5-0.8-0.5-1.8l0.5,0.5h-0.4h-0.3c-0.2,0-0.4-0.1-0.6-0.1c-0.3-0.1-0.5-0.2-0.5-0.3
		s0.2-0.2,0.5-0.3c0.2,0,0.4-0.1,0.6-0.1h0.3h0.4c0.2,0.2-0.5-0.5,0.5,0.5C403.7,317.5,403.5,318.3,403.2,318.3z"/>
	<path class="st0" d="M403.2,325.5c-0.3,0-0.5-0.8-0.5-1.8s0.2-1.8,0.5-1.8s0.5,0.8,0.5,1.8S403.5,325.5,403.2,325.5z"/>
	<path class="st0" d="M403.2,332.7c-0.3,0-0.5-0.8-0.5-1.8c0-1,0.2-1.8,0.5-1.8s0.5,0.8,0.5,1.8
		C403.7,331.9,403.5,332.7,403.2,332.7z"/>
	<path class="st0" d="M403.2,340c-0.3,0-0.5-0.8-0.5-1.8s0.2-1.8,0.5-1.8s0.5,0.8,0.5,1.8S403.5,340,403.2,340z"/>
	<path class="st0" d="M403.2,347.2c-0.3,0-0.5-0.8-0.5-1.8s0.2-1.8,0.5-1.8s0.5,0.8,0.5,1.8S403.5,347.2,403.2,347.2z"/>
	<path class="st0" d="M403.2,354.4c-0.3,0-0.5-0.8-0.5-1.8s0.2-1.8,0.5-1.8s0.5,0.8,0.5,1.8S403.5,354.4,403.2,354.4z"/>
	<path class="st0" d="M403.2,361.6c-0.3,0-0.5-0.8-0.5-1.8s0.2-1.8,0.5-1.8s0.5,0.8,0.5,1.8S403.5,361.6,403.2,361.6z"/>
	<path class="st0" d="M403.2,368.8c-0.3,0-0.5-0.8-0.5-1.8s0.2-1.8,0.5-1.8s0.5,0.8,0.5,1.8S403.5,368.8,403.2,368.8z"/>
	<path class="st0" d="M403.2,376.1c-0.3,0-0.5-0.8-0.5-1.8s0.2-1.8,0.5-1.8s0.5,0.8,0.5,1.8S403.5,376.1,403.2,376.1z"/>
	<rect x="291.6" y="378.4" class="st0" width="5.2" height="5.2"/>
	<rect x="291.6" y="313.9" class="st0" width="5.2" height="5.2"/>
	<rect x="400.6" y="313.9" class="st0" width="5.2" height="5.2"/>
	<rect x="400.6" y="378.1" class="st0" width="5.2" height="5.2"/>
	<rect x="346.1" y="378.1" class="st0" width="5.2" height="5.2"/>
	<rect x="346.1" y="313.9" class="st0" width="5.2" height="5.2"/>
	<rect x="291.6" y="346.4" class="st0" width="5.2" height="5.2"/>
	<rect x="400.6" y="346.4" class="st0" width="5.2" height="5.2"/>
</g>
<g id="freepik--Screens--inject-18">
	<path class="st1" d="M98.8,72.9c0,1.4-1.1,2.5-2.5,2.5c-1.4,0-2.5-1.1-2.5-2.5c0-1.4,1.1-2.5,2.5-2.5c0,0,0,0,0,0
		C97.7,70.4,98.8,71.6,98.8,72.9C98.8,72.9,98.8,72.9,98.8,72.9z"/>
	<path class="st1" d="M170.1,66.8c0,1.4-1.1,2.5-2.5,2.5c-1.4,0-2.5-1.1-2.5-2.5s1.1-2.5,2.5-2.5C169,64.3,170.1,65.4,170.1,66.8z"
		/>
	<path class="st1" d="M96.8,71.1h-1V50.5c0-9.2,6-16.8,13.4-16.8H132c7.4,0,13.4,7.5,13.4,16.8v9.6c0,3.4,2.2,6.2,4.8,6.2h17.1v1
		h-17c-3.2,0-5.7-3.2-5.7-7.1v-9.6c0-8.7-5.6-15.8-12.5-15.8h-22.8c-6.9,0-12.5,7.1-12.5,15.8L96.8,71.1z"/>
	<path class="st1" d="M241.5,25.2c0,1.4-1.1,2.5-2.5,2.5c-1.4,0-2.5-1.1-2.5-2.5s1.1-2.5,2.5-2.5S241.5,23.8,241.5,25.2L241.5,25.2z
		"/>
	<path class="st1" d="M374.1,77.9c0,1.4-1.1,2.5-2.5,2.5c-1.4,0-2.5-1.1-2.5-2.5c0-1.4,1.1-2.5,2.5-2.5c0,0,0,0,0,0
		C373,75.5,374.1,76.6,374.1,77.9z"/>
	<path class="st1" d="M372.1,77.9h-1V21c0-11-8.9-19.9-19.9-19.9h-91.9c-11,0-19.9,8.9-19.9,19.9v4.2h-1V21
		c0-11.5,9.3-20.8,20.8-20.8h91.9c11.5,0,20.8,9.3,20.8,20.8V77.9z"/>
	<path class="st2" d="M422,78.4l-18.6-0.1c-2.5,0-4.6,2.1-4.5,4.7c0,0,0,0,0,0v3.4c0,2.5-2,4.6-4.5,4.7c0,0,0,0,0,0l-36.2-0.2
		c-2.5-0.1-4.6-2.2-4.5-4.7c0,0,0,0,0,0v-3.4c0.1-2.5-1.9-4.7-4.5-4.7h-6.5L326.4,78c-8.1,0-14.6,6.5-14.7,14.5l-1,234.2
		c0,8.1,6.5,14.6,14.5,14.7l95.5,0.4c8.1,0,14.6-6.5,14.7-14.5c0,0,0,0,0,0l1-234.2C436.5,85,430,78.5,422,78.4z"/>
	<path class="st3" d="M435.5,87.5c-1.2-3-3.3-5.4-6.1-7.1c-1.7-1-3.5-1.7-5.5-1.9c-0.5-0.1-1-0.1-1.5-0.1H422h0.5
		c0.5,0,1,0.1,1.5,0.1c1.9,0.3,3.8,0.9,5.4,1.9c2.7,1.6,4.8,4.1,6,7.1c1.5,3.5,0.9,7.9,1,12.8c-0.1,19.5-0.2,47.6-0.4,82.4
		s-0.4,76.2-0.6,122.2c0,5.7,0,11.6-0.1,17.5v4.4c0,1.5-0.2,2.9-0.6,4.3c-0.4,1.4-1,2.8-1.8,4c-0.8,1.2-1.8,2.3-3,3.3
		c-2.3,1.9-5.2,3-8.2,3.1c-3,0.1-6.1,0-9.2,0l-18.6-0.1l-38.2-0.2l-19.5-0.1h-9.9c-3.3,0.2-6.5-0.7-9.2-2.6
		c-2.7-1.9-4.6-4.6-5.6-7.8c-0.4-1.6-0.6-3.2-0.6-4.8c0-1.6,0-3.3,0-4.9c0-6.6,0-13.1,0.1-19.5c0.1-12.9,0.1-25.6,0.2-38.2
		c0.1-25,0.2-49.2,0.3-72.2s0.2-44.9,0.2-65.3c0-10.2,0.1-20.1,0.1-29.6c0.1-2.4-0.2-4.8,0.4-7c0.5-2.2,1.6-4.3,3-6
		c2.9-3.4,7.2-5.3,11.7-5.1l12.7,0h6.1h3c1-0.1,1.9,0.2,2.7,0.8c0.8,0.5,1.4,1.3,1.7,2.2c0.3,0.9,0.4,1.8,0.3,2.8c0,1-0.1,1.9,0,2.9
		c0.1,1,0.5,1.9,1.1,2.6c0.6,0.7,1.4,1.2,2.4,1.5c0.5,0.1,0.9,0.2,1.4,0.1h1.3h5.3l19.2,0.1h8.5c0.7,0,1.3,0,2,0
		c0.7-0.1,1.3-0.3,1.9-0.7c1.1-0.7,1.9-1.8,2.1-3c0.1-0.6,0.1-1.2,0.1-1.8c0-0.6,0-1.2,0-1.7c0-0.6,0-1.1,0.1-1.7
		c0.1-0.5,0.3-1,0.5-1.5c0.5-0.9,1.3-1.6,2.3-2c0.9-0.3,1.9-0.4,2.9-0.3h9.5h5.8c1.3,0,2,0,2,0h-2l-5.8-0.1l-9.5-0.1
		c-1-0.1-1.9,0-2.9,0.3c-1,0.4-1.8,1.1-2.3,2.1c-0.3,0.5-0.5,1-0.6,1.6c-0.1,0.6-0.1,1.1-0.1,1.7c0,0.6,0,1.2,0,1.8
		c0,0.6,0,1.2-0.1,1.8c-0.3,1.2-1,2.2-2.1,2.9c-0.5,0.3-1.1,0.6-1.8,0.6c-0.6,0-1.3,0-2,0l-8.5-0.1l-19.3-0.1h-5.3
		c-0.9,0-1.8,0-2.7-0.1c-0.9-0.2-1.6-0.7-2.2-1.4c-0.6-0.7-1-1.5-1.1-2.4c-0.1-0.9,0-1.9,0-2.8c0.1-1,0-1.9-0.3-2.9
		c-0.3-1-1-1.8-1.8-2.4c-0.8-0.6-1.9-0.9-2.9-0.8h-3h-6.1l-12.7-0.1c-2.2-0.1-4.5,0.3-6.5,1.2c-2.1,0.9-4,2.3-5.4,4
		c-1.5,1.8-2.6,3.9-3.1,6.2c-0.2,0.6-0.2,1.2-0.3,1.7s-0.1,1.2-0.1,1.8c0,1.2,0,2.3,0,3.5c-0.1,9.5-0.1,19.4-0.1,29.6
		c-0.1,20.4-0.2,42.3-0.3,65.3c-0.1,23-0.2,47.1-0.3,72.2c-0.1,12.5-0.1,25.2-0.2,38.2c0,6.5,0,13-0.1,19.5v4.9
		c-0.1,1.7,0.1,3.3,0.6,5c1,3.3,3,6.1,5.7,8c2.8,1.9,6.1,2.8,9.5,2.7h9.9l19.5,0.1l38.2,0.2l18.6,0.1c3.1,0,6.1,0.1,9.2,0
		c3.1-0.2,6.1-1.3,8.5-3.2c1.2-1,2.2-2.1,3.1-3.4c0.8-1.3,1.5-2.7,1.9-4.1c0.4-1.5,0.6-3,0.6-4.5c0-1.5,0-3,0-4.4
		c0-5.9,0-11.7,0.1-17.4c0.2-46,0.3-87.4,0.5-122.2c0.1-34.8,0.2-62.9,0.3-82.4c0-2.4,0-4.7,0-6.9C436.7,91.4,436.3,89.4,435.5,87.5
		z"/>
	<path class="st3" d="M418.7,342.4h-2.9h-3.3l-86.1-0.4c-3.5,0.2-6.9-0.8-9.7-2.7c-2.9-2-4.9-4.9-5.9-8.2c-0.5-1.6-0.7-3.4-0.6-5.1
		l1-233.2c0-0.5,0-1,0.1-1.4v-0.4c0-0.2,0.1-0.4,0.1-0.6c0.1-0.4,0.1-0.8,0.2-1.2c0.5-2.3,1.6-4.5,3.2-6.3c3-3.6,7.5-5.6,12.2-5.4
		l21.8,0.1c1.1,0,2.2,0.3,3.1,0.9c0.9,0.6,1.6,1.5,1.9,2.5c0.3,0.8,0.4,1.7,0.3,2.5c0,0.2,0,0.3,0,0.5c0,0.3,0,0.7,0,1
		c0,0.6,0,1.2,0,1.8c0.1,0.8,0.4,1.6,1,2.2c0.5,0.6,1.2,1.1,2,1.3c0.6,0.1,1.2,0.2,1.7,0.1c0.3,0,0.6,0,0.9,0l33,0.2h0.7
		c0.4,0,0.8,0,1.2,0c0.6-0.1,1.1-0.3,1.6-0.6c1-0.6,1.7-1.6,1.9-2.7c0.1-0.5,0.1-0.9,0.1-1.4v-2.4c0-0.5,0-0.9,0.1-1.4
		c0.1-0.6,0.3-1.1,0.6-1.7c0.6-1,1.5-1.8,2.6-2.2c0.8-0.3,1.6-0.4,2.5-0.3h0.6L420,78h2h0.5c0.1,0,0.2,0,0.4,0c0.4,0,0.8,0,1.2,0.1
		c2,0.2,3.9,0.9,5.6,1.9c2.8,1.7,5,4.2,6.2,7.3l0,0c0.8,1.9,1.1,4,1.1,6.1v6.9l-0.3,101.4l-0.5,125.1c0,1.5-0.2,3.1-0.6,4.6
		c-0.4,1.5-1.1,2.9-1.9,4.2c-0.9,1.3-1.9,2.5-3.1,3.4c-2.5,2-5.5,3.2-8.7,3.3C420.8,342.4,419.7,342.4,418.7,342.4z M412.9,341.1h3
		c1.9,0,4,0,5.9,0c2.9-0.2,5.7-1.2,8-3.1c1.1-0.9,2.1-2,2.9-3.2c0.8-1.2,1.4-2.5,1.8-3.9c0.4-1.4,0.6-2.8,0.5-4.2l1.1-226.4
		c0-1.3,0-2.5,0-3.7c0.1-3.3,0.1-6.4-1-8.9c-1.2-2.9-3.2-5.3-5.9-6.9c-1.6-1-3.4-1.7-5.3-1.9c-0.3-0.1-0.7-0.1-1.1-0.1h-0.4H422h-2
		h-15.3c-0.2,0-0.4,0-0.6,0c-0.7-0.1-1.4,0-2.1,0.3c-0.9,0.4-1.6,1-2.1,1.8c-0.2,0.4-0.4,0.9-0.5,1.4c-0.1,0.4-0.1,0.8-0.1,1.2v2.4
		c0,0.5,0,1.1-0.1,1.6c-0.3,1.4-1.1,2.5-2.3,3.3c-0.6,0.4-1.3,0.6-2,0.7c-0.5,0-0.9,0-1.3,0h-0.7l-34.3-0.1c-0.5,0-1,0-1.5-0.2
		c-1-0.3-1.9-0.8-2.5-1.6c-0.7-0.8-1.1-1.8-1.2-2.8c-0.1-0.6-0.1-1.3,0-1.9c0-0.3,0-0.7,0-1c0-0.2,0-0.4,0-0.5
		c0.1-0.7,0-1.4-0.2-2.1c-0.3-0.8-0.8-1.5-1.6-2.1c-0.7-0.5-1.6-0.7-2.5-0.7l-21.9-0.1c-2.1-0.1-4.3,0.3-6.2,1.1
		c-2,0.9-3.8,2.2-5.2,3.8c-1.4,1.7-2.4,3.7-2.9,5.9c-0.3,1.6-0.5,3.3-0.4,4.9c0,0.7,0,1.3,0,2l-0.9,229.7c-0.1,1.6,0.1,3.2,0.6,4.7
		c0.9,3.1,2.8,5.7,5.4,7.6c2.6,1.8,5.8,2.7,9,2.5l86.2,0.4H412.9z"/>
	<path class="st1" d="M324.5,125.7c-0.3-0.1-0.5-0.3-0.7-0.5c-0.4-0.4-1.1-0.9-1.8-1.6c-1.5-1.3-3.6-3.3-5.8-5.5l-0.2-0.2l0.2-0.2
		l0.1-0.1c2.1-2.4,4-4.5,5.4-6c0.7-0.9,1.5-1.7,2.4-2.4c-0.6,0.9-1.3,1.8-2.1,2.6c-1.4,1.6-3.2,3.7-5.3,6.1l-0.1,0.1v-0.3
		c2.2,2.2,4.2,4.2,5.7,5.6C323,124.1,323.8,124.8,324.5,125.7z"/>
	<path class="st1" d="M333.3,129.6c-0.2-3.3-0.2-6.6,0-9.8c0-3.3,0.1-6.6,0.5-9.8c0.2,3.3,0.2,6.6,0,9.8
		C333.8,123.1,333.7,126.3,333.3,129.6z"/>
	<path class="st1" d="M416.5,110c0,0.1-18.5,0.2-41.2,0.1c-22.7-0.1-41.2-0.2-41.2-0.4c0-0.1,18.5-0.2,41.2-0.1
		S416.5,109.9,416.5,110z"/>
	<path class="st1" d="M416.9,125.5c-0.3-2.6-0.5-5.2-0.5-7.8c-0.2-2.6-0.2-5.2,0-7.8c0.3,2.6,0.5,5.2,0.5,7.8
		C417.1,120.3,417.1,122.9,416.9,125.5z"/>
	<path class="st1" d="M395.5,114.2c0.2-0.2,0.4-0.3,0.7-0.3c0.7-0.1,1.4,0,2,0.3c0.9,0.5,1.5,1.4,1.6,2.5c0,0.6-0.2,1.2-0.6,1.7
		c-0.4,0.5-1,0.9-1.6,1c-0.6,0.2-1.3,0.2-1.9,0c-0.6-0.2-1.1-0.6-1.4-1.1c-0.5-0.9-0.6-2-0.2-3c0.2-0.6,0.7-1.2,1.3-1.6
		c0.2-0.1,0.4-0.2,0.7-0.2c0,0-0.2,0.1-0.6,0.4c-0.5,0.4-0.8,0.9-1,1.5c-0.3,0.9-0.2,1.8,0.3,2.6c0.3,0.4,0.7,0.8,1.2,0.9
		c0.5,0.2,1.1,0.2,1.7,0c1.1-0.2,1.9-1.2,1.9-2.3c-0.1-1.6-1.5-2.7-3.1-2.7C395.8,114.1,395.5,114.2,395.5,114.2z"/>
	<path class="st1" d="M406.7,123.4c-1.7-0.8-3.3-1.8-4.8-2.9c-1.6-1-3.1-2.1-4.5-3.3C400.7,119,403.8,121.1,406.7,123.4L406.7,123.4
		z"/>
	<path class="st1" d="M326.5,198.7c-0.1,0-0.4-12.3-0.7-27.5c-0.2-15.2-0.3-27.5-0.2-27.5c0.1,0,0.4,12.3,0.7,27.5
		C326.5,186.3,326.6,198.7,326.5,198.7z"/>
	<path class="st1" d="M393.1,145.6c0,0.1-15.1,0.2-33.7,0.2c-18.6,0-33.7-0.1-33.7-0.2s15.1-0.2,33.7-0.2S393.1,145.5,393.1,145.6z"
		/>
	<path class="st1" d="M391.1,197.6c-0.1,0-0.2-11.2-0.2-25c0-13.8,0.1-25,0.2-25s0.2,11.2,0.2,25
		C391.4,186.4,391.2,197.6,391.1,197.6z"/>
	<path class="st1" d="M400.3,197.6c0,0.1-16.9,0.2-37.7,0.2s-37.7-0.1-37.7-0.2s16.9-0.2,37.7-0.2S400.3,197.5,400.3,197.6z"/>
	<path class="st1" d="M389.1,186.4c0,0.1-11.9,0.2-26.5,0.2s-26.5-0.1-26.5-0.2c0-0.1,11.9-0.2,26.5-0.2S389.1,186.3,389.1,186.4z"
		/>
	<path class="st1" d="M372.7,177.2c0,0.1-7.3,0.2-16.3,0.2c-9,0-16.3-0.1-16.3-0.2s7.3-0.2,16.3-0.2S372.7,177.1,372.7,177.2z"/>
	<path class="st1" d="M332.8,153.6c0,0,0.1-0.1,0.2-0.2c0.2-0.2,0.4-0.3,0.7-0.5c0.9-0.4,2-0.6,3-0.4c1.5,0.3,2.8,1.2,3.6,2.6
		c0.4,0.8,0.5,1.8,0.3,2.7c-0.4,1.9-1.9,3.4-3.8,3.9c-0.9,0.2-1.8,0.1-2.7-0.3c-1.4-0.7-2.3-2-2.6-3.5c-0.2-1-0.1-2,0.3-3
		c0.1-0.2,0.3-0.5,0.5-0.7c0.1-0.1,0.2-0.2,0.2-0.2c0,0-0.2,0.3-0.5,1c-0.8,2.3,0.1,4.8,2.3,6c0.7,0.3,1.6,0.4,2.4,0.2
		c1.7-0.5,3.1-1.8,3.5-3.6c0.2-0.8,0.1-1.6-0.2-2.3c-0.7-1.2-1.8-2.1-3.2-2.4c-0.9-0.2-1.9-0.1-2.8,0.2
		C333.1,153.4,332.9,153.7,332.8,153.6z"/>
	<path class="st1" d="M406.1,198.7c-0.1,0-0.4-12.3-0.6-27.5s-0.2-27.5-0.1-27.5s0.4,12.3,0.6,27.5
		C406.2,186.3,406.2,198.7,406.1,198.7z"/>
	<path class="st1" d="M462.7,145.6c0,0.1-12.8,0.2-28.6,0.2c-15.8,0-28.6-0.1-28.6-0.2s12.8-0.2,28.6-0.2
		C449.9,145.4,462.7,145.5,462.7,145.6z"/>
	<path class="st1" d="M461,197.6c-0.1,0-0.2-11.2-0.2-25c0-13.8,0.1-25,0.2-25s0.2,11.2,0.2,25C461.2,186.4,461.1,197.6,461,197.6z"
		/>
	<path class="st1" d="M461,197.6c0,0.1-12.6,0.2-28.1,0.2s-28.2-0.1-28.2-0.2s12.6-0.2,28.2-0.2C448.4,197.4,461,197.5,461,197.6z"
		/>
	<path class="st1" d="M459.2,186.4c0,0.1-10.1,0.2-22.5,0.2s-22.5-0.1-22.5-0.2c0-0.1,10.1-0.2,22.5-0.2
		C449.2,186.2,459.2,186.3,459.2,186.4z"/>
	<path class="st1" d="M452.6,177.2c0,0.1-7.3,0.2-16.3,0.2s-16.3-0.1-16.3-0.2s7.3-0.2,16.3-0.2C445.3,177,452.6,177.1,452.6,177.2z
		"/>
	<path class="st1" d="M412.7,153.6c0,0,0.1-0.1,0.2-0.2c0.2-0.2,0.4-0.3,0.7-0.5c0.9-0.4,2-0.6,3-0.4c1.5,0.3,2.8,1.2,3.6,2.6
		c0.4,0.8,0.5,1.8,0.3,2.7c-0.4,1.9-1.9,3.4-3.8,3.9c-0.9,0.2-1.8,0.1-2.7-0.3c-1.4-0.7-2.3-2-2.6-3.5c-0.2-1-0.1-2,0.3-3
		c0.1-0.2,0.3-0.5,0.5-0.7c0.1-0.1,0.2-0.2,0.2-0.2c0,0-0.2,0.3-0.5,1c-0.8,2.3,0.1,4.8,2.3,6c0.7,0.3,1.6,0.4,2.4,0.2
		c1.7-0.5,3.1-1.8,3.5-3.6c0.2-0.8,0.1-1.6-0.2-2.3c-1.2-2.1-3.7-3.1-6-2.2C413,153.4,412.7,153.7,412.7,153.6z"/>
	<path class="st1" d="M427.8,210.9c0,0.1-22.8,0.2-51,0.2c-28.2,0-51-0.1-51-0.2s22.8-0.2,51-0.2C405,210.6,427.8,210.8,427.8,210.9
		z"/>
	<path class="st1" d="M347.2,226.2c0,0.1-4.6,0.2-10.2,0.2c-5.6,0-10.2-0.1-10.2-0.2s4.6-0.2,10.2-0.2
		C342.7,225.9,347.2,226,347.2,226.2z"/>
	<path class="st1" d="M376.8,227.2c-3.2,0.3-6.5,0.3-9.7,0.2c-3.2,0.1-6.5,0-9.7-0.2c3.2-0.2,6.5-0.3,9.7-0.2
		C370.4,226.9,373.6,227,376.8,227.2z"/>
	<path class="st1" d="M411.5,225.2c-3.1,0.3-6.1,0.3-9.2,0.2c-3.1,0.1-6.1,0-9.2-0.2c3.1-0.2,6.1-0.3,9.2-0.2
		C405.4,224.8,408.4,224.9,411.5,225.2z"/>
	<path class="st1" d="M320.6,282.3c-0.1,0-0.2-9.8-0.2-21.9s0.1-21.9,0.2-21.9s0.2,9.8,0.2,21.9S320.8,282.3,320.6,282.3z"/>
	<path class="st1" d="M370.6,280.2c0,0.1-11.6,0.2-26,0.2s-26-0.1-26-0.2s11.6-0.2,26-0.2S370.6,280.1,370.6,280.2z"/>
	<path class="st1" d="M371.6,278.2c-0.1,0-0.2-8.5-0.2-18.9c0-10.4,0.1-18.9,0.2-18.9c0.1,0,0.2,8.4,0.2,18.9
		C371.9,269.8,371.8,278.2,371.6,278.2z"/>
	<path class="st1" d="M362.4,239.4c0,0.1-9.1,0.2-20.4,0.2c-11.3,0-20.4-0.1-20.4-0.2s9.1-0.2,20.4-0.2
		C353.3,239.2,362.4,239.3,362.4,239.4z"/>
	<path class="st1" d="M380.8,278.2c-0.1,0-0.2-8.2-0.2-18.4c0-10.1,0.1-18.4,0.2-18.4s0.2,8.2,0.2,18.4
		C381.1,270,380.9,278.2,380.8,278.2z"/>
	<path class="st1" d="M428.7,280.2c0,0.1-11.2,0.2-25,0.2s-25-0.1-25-0.2s11.2-0.2,25-0.2S428.7,280.1,428.7,280.2z"/>
	<path class="st1" d="M426.5,279.7c-0.1,0-0.2-8.6-0.2-19.4c0-10.8,0.1-19.4,0.2-19.4s0.2,8.7,0.2,19.4S426.6,279.7,426.5,279.7z"/>
	<path class="st1" d="M428.7,238.4c0,0.1-11,0.2-24.5,0.2s-24.5-0.1-24.5-0.2s11-0.2,24.5-0.2S428.7,238.3,428.7,238.4z"/>
	<path class="st1" d="M320.6,332.7c-0.1,0-0.2-9.8-0.2-21.9s0.1-21.9,0.2-21.9s0.2,9.8,0.2,21.9S320.8,332.7,320.6,332.7z"/>
	<path class="st1" d="M370.6,330.7c0,0.1-11.6,0.2-26,0.2s-26-0.1-26-0.2c0-0.1,11.6-0.2,26-0.2S370.6,330.6,370.6,330.7z"/>
	<path class="st1" d="M371.6,328.7c-0.1,0-0.2-8.5-0.2-18.9s0.1-18.9,0.2-18.9c0.1,0,0.2,8.4,0.2,18.9
		C371.9,320.2,371.8,328.7,371.6,328.7z"/>
	<path class="st1" d="M362.4,289.9c0,0.1-9.1,0.2-20.4,0.2c-11.3,0-20.4-0.1-20.4-0.2c0-0.1,9.1-0.2,20.4-0.2
		C353.3,289.7,362.4,289.8,362.4,289.9z"/>
	<path class="st1" d="M380.8,328.7c-0.1,0-0.2-8.2-0.2-18.4s0.1-18.4,0.2-18.4s0.2,8.2,0.2,18.4S380.9,328.7,380.8,328.7z"/>
	<path class="st1" d="M428.7,330.7c0,0.1-11.2,0.2-25,0.2s-25-0.1-25-0.2c0-0.1,11.2-0.2,25-0.2S428.7,330.6,428.7,330.7z"/>
	<path class="st1" d="M426.5,330.2c-0.1,0-0.2-8.7-0.2-19.4s0.1-19.4,0.2-19.4s0.2,8.7,0.2,19.4S426.6,330.2,426.5,330.2z"/>
	<path class="st1" d="M428.7,288.9c0,0.1-11,0.2-24.5,0.2s-24.5-0.1-24.5-0.2s11-0.2,24.5-0.2S428.7,288.8,428.7,288.9z"/>
	<path class="st1" d="M370.2,238.8c0.1,0.1-11,9.4-24.7,20.8c-13.8,11.4-25,20.5-25.1,20.4c-0.1-0.1,11-9.4,24.7-20.8
		C358.9,247.8,370.1,238.7,370.2,238.8z"/>
	<path class="st1" d="M371.9,277.1c-0.1,0.1-11.5-7.9-25.5-17.9c-14-10-25.3-18.2-25.2-18.3s11.5,7.9,25.5,17.9
		C360.7,268.8,372,277,371.9,277.1z"/>
	<path class="st1" d="M428.4,242.2c-0.1,0.2-0.3,0.3-0.4,0.5l-1.3,1.3c-1.1,1.1-2.7,2.7-4.8,4.6c-4.1,3.8-10,9-16.8,14.2
		s-13.4,9.5-18.2,12.4c-2.4,1.5-4.4,2.6-5.7,3.4l-1.6,0.9c-0.2,0.1-0.4,0.2-0.6,0.3c0.2-0.1,0.3-0.3,0.5-0.4l1.5-1
		c1.4-0.8,3.3-2,5.7-3.5c4.8-3,11.2-7.3,18.1-12.5c6.8-5.1,12.7-10.3,16.9-14c2.1-1.9,3.8-3.4,4.9-4.5l1.3-1.2
		C428,242.5,428.2,242.4,428.4,242.2z"/>
	<path class="st1" d="M427.9,279.2c-0.2-0.1-0.3-0.3-0.5-0.4l-1.3-1.2l-4.9-4.6c-4.1-3.8-10-9-16.6-14.5
		c-6.7-5.5-12.9-10.1-17.5-13.4c-2.3-1.6-4.1-2.9-5.5-3.9l-1.5-1.1c-0.2-0.1-0.3-0.2-0.5-0.4c0.2,0.1,0.4,0.2,0.6,0.3l1.5,1
		c1.3,0.9,3.2,2.1,5.5,3.7c4.6,3.2,11,7.9,17.6,13.3c6.7,5.5,12.5,10.7,16.6,14.6c2.1,1.9,3.7,3.6,4.8,4.7c0.5,0.5,1,1,1.3,1.3
		C427.6,278.9,427.7,279.1,427.9,279.2z"/>
	<path class="st1" d="M428.6,291c0.1,0.1-10.7,9-24.1,19.9c-13.4,10.9-24.4,19.6-24.5,19.5c-0.1-0.1,10.7-9,24.1-19.9
		C417.6,299.6,428.5,290.8,428.6,291z"/>
	<path class="st1" d="M429,330.9c-0.2-0.1-0.3-0.2-0.5-0.4l-1.3-1.2l-4.7-4.4c-3.9-3.7-9.5-8.8-15.8-14.1s-12.1-10.1-16.4-13.4
		l-5.1-3.9l-1.4-1.1c-0.2-0.1-0.3-0.3-0.5-0.4c0.2,0.1,0.4,0.2,0.5,0.3l1.4,1c1.2,0.9,3,2.2,5.2,3.8c4.3,3.3,10.2,7.9,16.5,13.3
		c6.3,5.4,11.8,10.5,15.7,14.2c1.9,1.9,3.5,3.4,4.6,4.5l1.2,1.3C428.9,330.7,429,330.9,429,330.9z"/>
	<path class="st1" d="M371.2,288.7c-0.1,0.2-0.3,0.3-0.5,0.5l-1.4,1.3c-1.2,1.1-3,2.8-5.3,4.7c-4.5,4-10.8,9.3-18,15
		c-7.2,5.7-13.8,10.7-18.7,14.2c-2.4,1.8-4.4,3.2-5.8,4.1l-1.6,1.1c-0.2,0.1-0.4,0.3-0.6,0.4c0.2-0.2,0.3-0.3,0.5-0.4l1.5-1.2
		l5.7-4.2c4.8-3.6,11.4-8.6,18.6-14.3s13.5-11,18.1-14.9l5.4-4.6l1.5-1.2C370.9,289,371,288.9,371.2,288.7z"/>
	<path class="st1" d="M373.9,328.8c-0.2-0.1-0.4-0.2-0.5-0.4l-1.4-1.2c-1.2-1-3-2.5-5.3-4.3c-4.5-3.6-10.8-8.5-18-13.4
		c-7.2-5-14-9.2-18.9-12.1c-2.5-1.5-4.5-2.6-5.9-3.4l-1.6-1c-0.2-0.1-0.4-0.2-0.5-0.4c0.2,0.1,0.4,0.2,0.6,0.3l1.6,0.9
		c1.4,0.7,3.5,1.9,6,3.3c5,2.9,11.8,7,19.1,12c7.2,5,13.5,9.9,18,13.6c2.2,1.8,4,3.4,5.2,4.4l1.4,1.2
		C373.6,328.5,373.7,328.7,373.9,328.8z"/>
	<path class="st2" d="M287.8,25.6l-18.6-0.1c-2.5,0-4.6,2.1-4.5,4.7c0,0,0,0,0,0v3.4c0,2.5-2,4.6-4.5,4.7c0,0,0,0,0,0L224,38.1
		c-2.5-0.1-4.5-2.2-4.5-4.7V30c0.1-2.5-1.9-4.7-4.5-4.7h-6.5l-16.2-0.1c-8.1,0-14.6,6.5-14.7,14.5c0,0,0,0,0,0l-1,234.2
		c0,8.1,6.5,14.6,14.5,14.7l95.5,0.4c8.1,0,14.6-6.5,14.7-14.5c0,0,0,0,0,0l1-234.2C302.3,32.3,295.8,25.7,287.8,25.6
		C287.8,25.6,287.8,25.6,287.8,25.6z"/>
	<path class="st3" d="M301.6,34.6c-1.2-3-3.4-5.6-6.2-7.3c-1.7-1-3.6-1.7-5.6-1.9c-0.4-0.1-0.8-0.1-1.2-0.1h-0.4h-0.5h-2l-15.3-0.1
		h-0.6c-0.8-0.1-1.7,0-2.5,0.3c-1.1,0.4-2,1.2-2.5,2.2c-0.3,0.5-0.5,1.1-0.6,1.7c-0.1,0.5-0.1,0.9-0.1,1.4v2.4c0,0.5,0,1-0.1,1.4
		c-0.3,1.1-0.9,2.1-1.9,2.7c-0.5,0.3-1,0.5-1.6,0.6c-0.4,0-0.8,0-1.2,0h-0.7l-33-0.2h-0.9c-0.6,0-1.2,0-1.7-0.1
		c-0.8-0.2-1.5-0.6-2-1.3c-0.5-0.6-0.9-1.4-1-2.2c0-0.6,0-1.2,0-1.8c0-0.3,0-0.7,0-1c0-0.2,0-0.3,0-0.5c0.1-0.8,0-1.7-0.3-2.5
		c-0.4-1-1-1.9-1.9-2.5c-0.9-0.6-2-0.9-3.1-0.9l-21.8-0.1c-4.7-0.2-9.2,1.8-12.2,5.4c-1.5,1.8-2.6,3.9-3.2,6.2
		c-0.1,0.4-0.2,0.8-0.2,1.2c0,0.2-0.1,0.4-0.1,0.6v0.4c0,0.5-0.1,1-0.1,1.4l-1,208.8l-0.1,24.4c-0.1,1.7,0.1,3.4,0.6,5.1
		c1,3.3,3.1,6.2,5.9,8.2c2.9,2,6.3,2.9,9.7,2.7l86.1,0.4c1.1,0,2.2,0,3.3,0h2.9c1,0,2.1,0,3.1,0c3.2-0.2,6.2-1.3,8.7-3.3
		c1.2-1,2.3-2.2,3.1-3.4c0.9-1.3,1.5-2.7,1.9-4.2c0.4-1.5,0.6-3,0.6-4.6l0.5-124.9l0.3-101.5v-6.9C302.8,38.6,302.4,36.6,301.6,34.6
		z M288.6,26.1c0.4,0,0.7,0,1.1,0.1c1.9,0.3,3.7,0.9,5.3,1.9c2.6,1.6,4.7,4,5.9,6.9c1.1,2.5,1.1,5.6,1,8.9c0,1.2,0,2.4,0,3.7
		L300.7,274c0,1.4-0.2,2.9-0.5,4.2c-0.4,1.4-1,2.7-1.8,3.9c-0.8,1.2-1.8,2.3-2.9,3.2c-2.3,1.8-5.1,2.9-8,3.1c-1.9,0-4,0-5.9,0h-3
		h-0.3l-86.2-0.4c-3.2,0.2-6.4-0.7-9-2.5c-2.6-1.8-4.5-4.5-5.4-7.6c-0.4-1.6-0.6-3.2-0.6-4.8l1-229.6c0-0.7,0-1.3,0-2
		c-0.1-1.7,0-3.3,0.4-4.9c0.5-2.2,1.5-4.2,2.9-5.9c2.8-3.3,7-5.2,11.4-5l21.9,0.1c0.9,0,1.8,0.2,2.5,0.7c0.7,0.5,1.3,1.2,1.6,2.1
		c0.2,0.7,0.3,1.4,0.2,2.1c0,0.2,0,0.3,0,0.5c0,0.3,0,0.7,0,1c0,0.6,0,1.3,0,1.9c0.1,1,0.6,2,1.2,2.8c0.7,0.8,1.6,1.3,2.5,1.6
		c0.5,0.1,1,0.2,1.5,0.2l34.4,0.1h0.7c0.4,0,0.9,0,1.3,0c0.7-0.1,1.4-0.4,2.1-0.8c1.2-0.7,2-1.9,2.3-3.3c0.1-0.5,0.2-1.1,0.1-1.6
		v-2.4c0-0.4,0-0.8,0.1-1.2c0.1-0.5,0.2-1,0.5-1.4c0.5-0.8,1.2-1.5,2.1-1.8c0.7-0.2,1.4-0.3,2.1-0.3h0.6h15.3h2h0.5L288.6,26.1z"/>
	<path class="st1" d="M194.3,66.8c-0.3-0.1-0.5-0.3-0.7-0.5c-0.4-0.4-1.1-0.9-1.8-1.6c-1.5-1.3-3.6-3.3-5.8-5.5l-0.2-0.2l0.2-0.2
		l0.1-0.1c2.1-2.4,4-4.5,5.4-6c0.7-0.9,1.5-1.7,2.4-2.4c-0.6,0.9-1.3,1.8-2.1,2.6c-1.4,1.6-3.2,3.7-5.3,6.1l-0.1,0.1v-0.3
		c2.2,2.2,4.2,4.2,5.7,5.6C192.8,65.2,193.6,66,194.3,66.8z"/>
	<path class="st1" d="M272.8,60.6c0,0.1-15.8,0.2-35.2,0.2s-35.2-0.1-35.2-0.2c0-0.1,15.8-0.2,35.2-0.2S272.8,60.5,272.8,60.6z"/>
	<path class="st1" d="M283.9,51.5c0.3-0.2,0.6-0.3,0.9-0.4c1.6-0.2,3.1,0.4,4,1.8c0.4,0.6,0.6,1.4,0.5,2.1c-0.1,1.7-1.2,3.2-2.9,3.7
		c-1.7,0.4-3.4-0.2-4.5-1.6c-0.5-0.6-0.7-1.3-0.8-2c-0.1-1.6,0.7-3,2-3.9c0.3-0.2,0.6-0.3,0.9-0.4c0,0-0.3,0.2-0.8,0.5
		c-0.7,0.5-1.2,1.2-1.5,2c-0.4,1.2-0.3,2.5,0.5,3.5c0.9,1.2,2.5,1.8,4,1.4c1.4-0.5,2.5-1.8,2.6-3.3c0.1-1.2-0.5-2.4-1.6-3
		c-0.7-0.5-1.6-0.7-2.4-0.6C284.3,51.4,283.9,51.6,283.9,51.5z"/>
	<path class="st1" d="M294.6,61.9c-1.4-0.8-2.7-1.7-3.9-2.7c-1.3-0.9-2.5-1.9-3.6-3.1c1.4,0.8,2.7,1.7,3.9,2.7
		C292.3,59.8,293.5,60.8,294.6,61.9z"/>
	<path class="st1" d="M190.5,163c-0.1,0-0.3-17.4-0.3-38.9s0.1-38.9,0.3-38.9s0.2,17.4,0.2,38.9S190.6,163,190.5,163z"/>
	<path class="st1" d="M230.2,163c0,0.1-8.9,0.2-19.8,0.2c-11,0-19.8-0.1-19.8-0.2s8.9-0.2,19.8-0.2S230.2,162.8,230.2,163z"/>
	<path class="st1" d="M234.8,79c0.1,0,0.2,18.6,0.2,41.5s-0.1,41.5-0.2,41.5c-0.1,0-0.2-18.6-0.2-41.5S234.6,79,234.8,79z"/>
	<path class="st1" d="M231.2,81.6c0,0.1-9,0.2-20.1,0.2c-11.1,0-20.1-0.1-20.1-0.2c0-0.1,9-0.2,20.1-0.2S231.2,81.5,231.2,81.6z"/>
	<path class="st1" d="M242.8,183.9c-0.1,0-0.2-17.4-0.2-38.9s0.1-38.9,0.2-38.9s0.2,17.4,0.2,38.9S242.9,183.9,242.8,183.9z"/>
	<path class="st1" d="M282.4,183.9c0,0.1-8.9,0.2-19.8,0.2c-10.9,0-19.8-0.1-19.8-0.2c0-0.1,8.9-0.2,19.8-0.2
		C273.5,183.6,282.4,183.7,282.4,183.9z"/>
	<path class="st1" d="M287,99.9c0.1,0,0.2,18.6,0.2,41.4s-0.1,41.5-0.2,41.5c-0.1,0-0.2-18.6-0.2-41.5S286.9,99.9,287,99.9z"/>
	<path class="st1" d="M283.4,102.5c0,0.1-9,0.3-20.1,0.3c-11.1,0-20.1-0.1-20.1-0.3s9-0.2,20.1-0.2
		C274.5,102.3,283.4,102.4,283.4,102.5z"/>
	<path class="st1" d="M242.8,278.9c-0.1,0-0.2-17.4-0.2-38.9s0.1-38.9,0.2-38.9s0.2,17.4,0.2,38.9S242.9,278.9,242.8,278.9z"/>
	<path class="st1" d="M282.4,278.9c0,0.1-8.9,0.2-19.8,0.2c-10.9,0-19.8-0.1-19.8-0.2s8.9-0.2,19.8-0.2
		C273.5,278.6,282.4,278.7,282.4,278.9z"/>
	<path class="st1" d="M287,194.9c0.1,0,0.2,18.6,0.2,41.5c0,22.9-0.1,41.5-0.2,41.5c-0.1,0-0.2-18.6-0.2-41.5
		C286.8,213.5,286.9,194.9,287,194.9z"/>
	<path class="st1" d="M283.4,197.5c0,0.1-9,0.2-20.1,0.2c-11.1,0-20.1-0.1-20.1-0.2c0-0.1,9-0.2,20.1-0.2
		C274.5,197.3,283.4,197.4,283.4,197.5z"/>
	<path class="st1" d="M190.5,260.9c-0.1,0-0.3-17.4-0.3-38.9s0.1-38.9,0.3-38.9s0.2,17.4,0.2,38.9S190.6,260.9,190.5,260.9z"/>
	<path class="st1" d="M230.2,260.9c0,0.1-8.9,0.2-19.8,0.2c-11,0-19.8-0.1-19.8-0.2c0-0.1,8.9-0.2,19.8-0.2S230.2,260.7,230.2,260.9
		z"/>
	<path class="st1" d="M234.8,176.9c0.1,0,0.2,18.6,0.2,41.5s-0.1,41.5-0.2,41.5c-0.1,0-0.2-18.6-0.2-41.5S234.6,176.9,234.8,176.9z"
		/>
	<path class="st1" d="M231.2,179.5c0,0.1-9,0.2-20.1,0.2c-11.1,0-20.1-0.1-20.1-0.2c0-0.1,9-0.2,20.1-0.2S231.2,179.4,231.2,179.5z"
		/>
	<path class="st1" d="M198.5,98.9c-0.2-0.9-0.3-1.8-0.2-2.7c-0.1-1.7-0.2-3.9-0.2-6.5c0-0.4,0-0.8,0-1.2h0.5
		c-0.2,1.9-0.7,3.8-1.5,5.6c-0.3,0.7-0.6,1.4-1.1,2.1c1-2.5,1.7-5,2.1-7.7h0.5c0,0.4,0,0.8,0,1.2c0.1,2.5,0.1,4.8,0.1,6.5
		C198.7,97.1,198.7,98,198.5,98.9z"/>
	<path class="st1" d="M201,99.8c-2.1,0.3-4.3,0.2-6.4-0.2c1.1-0.2,2.1-0.2,3.2-0.1C198.9,99.4,200,99.6,201,99.8z"/>
	<path class="st1" d="M256.3,117.4c-0.8,0.2-1.6,0.2-2.5,0.2c-1.5,0.1-3.7,0.2-6.1,0.3h-0.6l0.4-0.4c0.4-0.4,0.8-0.8,1.2-1.3
		c0.9-0.9,1.5-2.1,1.7-3.4c0.2-1-0.2-2.1-0.9-2.8c-0.5-0.5-1.2-0.7-1.9-0.7c-0.3,0-0.5,0.1-0.8,0.2c0,0,0.2-0.3,0.7-0.4
		c0.8-0.1,1.6,0.1,2.2,0.6c0.9,0.8,1.3,2,1.1,3.1c-0.2,1.4-0.8,2.7-1.8,3.7c-0.4,0.5-0.8,0.9-1.2,1.3l-0.2-0.4
		c2.4-0.1,4.6-0.1,6.1-0.1C254.7,117.2,255.5,117.2,256.3,117.4z"/>
	<path class="st1" d="M194,197.2c0.3,0,0.5,0.1,0.8,0.1c0.7,0.1,1.4-0.1,2.1-0.4c0.9-0.5,1.6-1.3,1.8-2.4c0.1-1.3-0.4-2.5-1.4-3.3
		c-0.2-0.2-0.5-0.3-0.7-0.4l-0.6-0.3l0.6-0.2c1.1-0.3,1.9-1.4,1.9-2.6c0-1-0.7-1.8-1.6-2c-0.6-0.1-1.3,0.1-1.7,0.6
		c-0.3,0.3-0.4,0.6-0.4,0.6s0-0.3,0.3-0.7c0.5-0.6,1.2-0.9,1.9-0.8c1.1,0.2,2,1.1,2,2.3c0,1.4-0.8,2.7-2.2,3.1v-0.4
		c0.3,0.1,0.6,0.3,0.8,0.5c1.2,0.9,1.8,2.3,1.6,3.8c-0.2,1.2-1,2.2-2.1,2.6c-0.7,0.3-1.5,0.4-2.3,0.3
		C194.5,197.5,194.3,197.3,194,197.2z"/>
	<path class="st1" d="M252.7,211.1c0,0,0,0.2-0.2,0.5c-0.3,0.4-0.7,0.6-1.1,0.7c-0.7,0.2-1.4,0.1-2-0.2c-0.8-0.4-1.3-1.1-1.6-1.9
		c-0.3-0.8-0.4-1.6-0.3-2.4c0.1-0.7,0.3-1.3,0.5-1.9c0.2-0.6,0.4-1.1,0.8-1.6c-0.1,0.6-0.2,1.2-0.5,1.7c-0.5,1.3-0.5,2.7-0.1,4
		c0.2,0.7,0.7,1.3,1.3,1.7c0.5,0.3,1.1,0.4,1.7,0.3C251.8,211.7,252.3,211.5,252.7,211.1z"/>
	<path class="st1" d="M252.3,223.7c-0.2-3-0.2-6-0.1-9c0-3,0.1-6,0.4-9c0.2,3,0.2,6,0.1,9C252.8,217.7,252.6,220.8,252.3,223.7z"/>
	<path class="st2" d="M143.3,79l-18.5-0.1c-2.5,0-4.6,2.1-4.5,4.7V87c0,2.5-2,4.6-4.5,4.7c0,0,0,0,0,0l-36.2-0.2
		c-2.5-0.1-4.6-2.2-4.5-4.7v-3.4c0.1-2.5-1.9-4.7-4.5-4.7H64l-16.3-0.1c-8,0-14.6,6.5-14.7,14.5l-1,234.2c0,8.1,6.5,14.6,14.5,14.7
		c0,0,0,0,0,0l95.5,0.4c8.1,0,14.6-6.5,14.7-14.5c0,0,0,0,0,0l1-234.2C157.8,85.6,151.3,79,143.3,79z"/>
	<path class="st3" d="M157.2,88c-1.2-3-3.4-5.6-6.2-7.3c-1.7-1-3.6-1.7-5.6-1.9c-0.4-0.1-0.8-0.1-1.2-0.1h-0.4h-0.5h-2L126,78.6
		h-0.6c-0.8-0.1-1.7,0-2.4,0.3c-1.1,0.4-2,1.2-2.5,2.2c-0.3,0.5-0.5,1.1-0.6,1.7c-0.1,0.5-0.1,0.9-0.1,1.4v2.4c0,0.5,0,1-0.1,1.4
		c-0.3,1.1-0.9,2.1-1.9,2.7c-0.5,0.3-1,0.5-1.6,0.6c-0.4,0-0.8,0-1.2,0h-0.7l-33-0.2c-0.3,0-0.6,0-0.9,0c-0.6,0-1.2,0-1.7-0.1
		c-0.8-0.2-1.5-0.7-2-1.3c-0.5-0.6-0.9-1.4-1-2.2c0-0.6,0-1.2,0-1.8c0-0.3,0-0.7,0-1v-0.5c0.1-0.8,0-1.7-0.3-2.5
		c-0.7-2.1-2.8-3.5-5-3.4l-21.8-0.1c-4.7-0.2-9.2,1.8-12.2,5.4c-1.5,1.8-2.6,3.9-3.2,6.3c-0.1,0.4-0.2,0.8-0.2,1.2
		c0,0.2-0.1,0.4-0.1,0.7V92c0,0.5-0.1,1-0.1,1.4l-1.1,233.2c-0.1,1.7,0.2,3.4,0.6,5.1c1,3.3,3.1,6.2,5.9,8.2c2.9,2,6.3,2.9,9.7,2.7
		l86.1,0.4h3.3h2.9c1,0,2.1,0,3.1,0c3.2-0.2,6.2-1.3,8.7-3.3c1.2-1,2.3-2.2,3.1-3.4c0.8-1.3,1.5-2.7,1.9-4.2c0.4-1.5,0.6-3,0.6-4.6
		l0.6-144.1l0.3-89.3C158.3,92,157.9,89.9,157.2,88z M144.2,79.4c0.4,0,0.7,0,1.1,0.1c1.9,0.3,3.7,0.9,5.3,1.9
		c2.6,1.6,4.7,4,5.9,6.9c1.1,2.5,1.1,5.6,1,8.9c0,1.2,0,2.4,0,3.7l-1.1,226.4c0,1.4-0.2,2.9-0.5,4.2c-0.4,1.4-1,2.7-1.8,3.9
		c-0.8,1.2-1.8,2.3-2.9,3.2c-2.3,1.8-5.1,2.9-8,3.1c-1.9,0-3.9,0-5.9,0h-3.3l-86.2-0.4c-3.2,0.2-6.4-0.7-9-2.5
		c-2.6-1.9-4.6-4.6-5.4-7.7c-0.4-1.5-0.6-3.1-0.6-4.7l1-229.7c0-0.7,0-1.3,0-2c-0.1-1.7,0-3.3,0.4-4.9c0.5-2.2,1.5-4.2,2.9-5.9
		c2.8-3.3,7-5.2,11.4-5l21.9,0.1c0.9,0,1.8,0.2,2.5,0.7c0.7,0.5,1.3,1.2,1.5,2.1c0.2,0.7,0.3,1.4,0.2,2.1v0.5c0,0.3,0,0.7,0,1
		c0,0.6,0,1.3,0,1.9c0.1,1,0.6,2,1.2,2.8c0.7,0.8,1.6,1.3,2.5,1.6c0.5,0.1,1,0.2,1.5,0.2l34.4,0.1c0.2,0,0.5,0,0.7,0
		c0.4,0,0.9,0,1.3,0c0.7-0.1,1.4-0.3,2-0.7c1.2-0.7,2-1.9,2.3-3.3c0.1-0.5,0.1-1.1,0.1-1.6V84c0-0.4,0-0.8,0.1-1.2
		c0.1-0.5,0.3-1,0.5-1.4c0.5-0.8,1.2-1.5,2.1-1.8c0.7-0.2,1.4-0.3,2.1-0.3h0.6h15.3c1.2,0,1.8,0,1.9,0h0.5
		C143.9,79.4,144,79.4,144.2,79.4z"/>
	<path class="st1" d="M44.3,302.3c-0.1,0-1.1-42.4-2-94.7c-1-52.3-1.7-94.7-1.5-94.7c0.1,0,1.1,42.4,2,94.7S44.5,302.3,44.3,302.3z"
		/>
	<path class="st1" d="M140.1,110.3c0,0.1-22.8,0.2-50.9,0.2s-50.9-0.1-50.9-0.2s22.8-0.2,50.9-0.2S140.1,110.1,140.1,110.3z"/>
	<path class="st1" d="M152.2,311.8c-0.1,0-0.3-47.1-0.3-105.2s0.1-105.2,0.3-105.2c0.1,0,0.2,47.1,0.2,105.2
		S152.4,311.8,152.2,311.8z"/>
	<path class="st1" d="M154.1,311.8c0,0.1-25.1,0.2-55.9,0.2s-56-0.1-56-0.2c0-0.1,25-0.2,56-0.2S154.1,311.7,154.1,311.8z"/>
	<path class="st1" d="M142,117.1c0.2,0,0.3,0.1,0.5,0.1c0.2,0.1,0.4,0.1,0.5,0.2c0.2,0.1,0.5,0.2,0.7,0.4c2.4,1.7,3.7,4.6,3.3,7.5
		c-0.2,1.4-0.8,2.6-1.8,3.6c-1,1.1-2.4,1.9-3.8,2.3c-3.2,1-6.7-0.4-8.4-3.3c-0.8-1.3-1.3-2.8-1.3-4.3c-0.1-1.4,0.3-2.7,1-3.9
		c0.6-1,1.4-1.9,2.4-2.6c1.4-1,3.1-1.5,4.8-1.6c0.3,0,0.5,0,0.8,0c0.2,0,0.4,0,0.6,0.1c0.2,0,0.3,0.1,0.5,0.1c0,0.1-0.7-0.1-1.8-0.1
		c-1.7,0.1-3.2,0.7-4.6,1.6c-0.9,0.7-1.7,1.5-2.3,2.5c-0.6,1.1-0.9,2.4-0.9,3.7c0,1.4,0.5,2.8,1.2,4c0.8,1.3,2,2.3,3.4,2.9
		c1.4,0.5,3,0.6,4.5,0.2c1.4-0.3,2.6-1,3.6-2c0.9-0.9,1.5-2.1,1.7-3.4c0.2-1.1,0.1-2.3-0.2-3.3c-0.5-1.6-1.4-3-2.8-4
		C143.1,117.6,142.5,117.3,142,117.1z"/>
	<path class="st1" d="M135.4,128.1c0.7-1.6,1.6-3.1,2.6-4.5c0.9-1.5,1.9-2.9,3.1-4.2c-0.7,1.6-1.6,3.1-2.6,4.5
		C137.6,125.3,136.5,126.8,135.4,128.1z"/>
	<path class="st1" d="M144.4,128.8c-1.8-1.2-3.4-2.5-5-3.9c-1.7-1.3-3.2-2.7-4.7-4.3c1.8,1.2,3.4,2.5,5,3.9
		C141.4,125.8,143,127.2,144.4,128.8z"/>
	<path class="st1" d="M59.8,224.3c-0.1,0-0.2-15.6-0.2-34.8s0.1-34.8,0.2-34.8c0.1,0,0.2,15.6,0.2,34.8S59.9,224.3,59.8,224.3z"/>
	<path class="st1" d="M136.7,223.7c0,0.1-17.1,0.2-38.3,0.2s-38.3-0.1-38.3-0.2s17.1-0.2,38.3-0.2S136.7,223.6,136.7,223.7z"/>
	<path class="st1" d="M135.7,159c0.1,0,0.2,14.4,0.2,32.2s-0.1,32.2-0.2,32.2c-0.1,0-0.2-14.4-0.2-32.2S135.6,159,135.7,159z"/>
	<path class="st1" d="M136.7,156.5c0,0.1-17.4,0.2-38.9,0.2s-38.9-0.1-38.9-0.2s17.4-0.3,38.9-0.3S136.7,156.4,136.7,156.5z"/>
	<path class="st1" d="M97.2,207.9c-0.1-0.1-0.2-0.3-0.3-0.5l-0.7-1.3c-0.6-1.2-1.5-2.9-2.7-4.9s-2.6-4.4-4.4-7
		c-0.8-1.3-1.8-2.6-2.8-3.9c-0.4-0.7-1.2-1-2-1c-0.8,0.2-1.5,0.7-2.1,1.3c-4.9,5.2-9,10.2-12,13.9l-3.4,4.4l-1,1.2
		c-0.1,0.1-0.2,0.3-0.4,0.4c0.1-0.2,0.2-0.3,0.3-0.5l0.9-1.2c0.8-1.1,1.9-2.6,3.3-4.5c2.9-3.7,7-8.8,11.9-14
		c0.6-0.7,1.5-1.2,2.4-1.4c0.5-0.1,1,0,1.4,0.2c0.4,0.2,0.8,0.5,1,0.9c1,1.4,1.9,2.7,2.8,4c1.7,2.6,3.1,5,4.3,7.1
		c1.1,2.1,2,3.8,2.5,5c0.3,0.6,0.5,1.1,0.6,1.4C97.1,207.6,97.2,207.8,97.2,207.9z"/>
	<path class="st1" d="M129.9,197.9c-0.1-0.1-0.3-0.2-0.4-0.4l-1-1.1l-3.5-4.1c-3-3.5-7.1-8.3-11.7-13.7h0.4l-1.5,1.5L98.6,194
		l-4.2,4.1l-1.1,1.1c-0.3,0.3-0.4,0.4-0.4,0.4c0.1-0.2,0.2-0.3,0.4-0.4l1.1-1.2l4.1-4.3c3.5-3.6,8.3-8.5,13.6-13.9l1.5-1.5l0.2-0.2
		l0.2,0.2l11.6,13.8l3.4,4.2l1,1.1C129.8,197.6,129.9,197.8,129.9,197.9z"/>
	<path class="st1" d="M95.1,169.8c0,0,0.1-0.1,0.2-0.2c0.2-0.1,0.5-0.2,0.8-0.2c1-0.2,2,0,2.9,0.5c0.6,0.4,1.1,0.9,1.5,1.5
		c0.4,0.7,0.6,1.5,0.5,2.4c-0.2,1.9-1.6,3.5-3.5,4c-1.9,0.3-3.8-0.7-4.7-2.4c-0.4-0.7-0.6-1.5-0.5-2.4c0.1-0.7,0.3-1.4,0.7-2
		c0.5-0.9,1.3-1.6,2.3-1.9c0.3-0.1,0.5-0.2,0.8-0.2c0.2,0,0.3,0,0.3,0s-0.4,0.1-1,0.4c-0.9,0.4-1.6,1.1-2.1,1.9
		c-0.3,0.6-0.5,1.2-0.6,1.8c0,0.7,0.1,1.5,0.5,2.1c0.9,1.5,2.5,2.3,4.3,2.1c1.7-0.4,2.9-1.8,3.2-3.5c0.1-0.7,0-1.5-0.4-2.1
		c-0.3-0.6-0.8-1-1.3-1.4c-0.8-0.5-1.8-0.8-2.7-0.7C95.5,169.7,95.1,169.9,95.1,169.8z"/>
	<path class="st1" d="M126.8,241.7c-0.2,0.1-0.4,0.1-0.6,0.1l-1.7,0.2l-6.4,0.5c-2.7,0.2-5.9,0.5-9.6,0.7c-0.9,0-1.9,0-2.8-0.2
		c-1-0.2-1.9-0.5-2.8-1c-0.9-0.4-1.8-0.8-2.7-1.2c-0.9-0.4-1.9-0.4-2.9-0.1c-1.9,0.7-3,2.6-4.9,3.5c-0.9,0.5-2,0.5-3,0.2
		c-0.9-0.4-1.7-0.8-2.5-1.4c-0.7-0.5-1.4-1-2.2-1.3c-0.7-0.3-1.5-0.4-2.3-0.2c-1.4,0.4-2.8,1-4,1.8c-1.1,0.7-2.3,1-3.5,1.1
		c-1-0.1-1.9-0.5-2.4-1.3c-0.4-0.5-0.5-1.1-0.5-1.7c0-0.2,0.1-0.4,0.2-0.6c0,0-0.1,0.2-0.1,0.6c0,0.6,0.1,1.1,0.5,1.6
		c0.5,0.7,1.4,1.2,2.3,1.2c1.2-0.1,2.4-0.4,3.4-1.1c1.2-0.8,2.6-1.5,4.1-1.9c0.9-0.2,1.7-0.1,2.5,0.2c0.8,0.4,1.6,0.8,2.3,1.3
		c0.7,0.5,1.5,1,2.3,1.3c0.9,0.3,1.8,0.3,2.6-0.1c1.7-0.8,2.8-2.7,4.9-3.5c1-0.3,2.2-0.3,3.2,0.1c0.9,0.3,1.9,0.8,2.8,1.2
		c0.8,0.4,1.7,0.8,2.7,1c0.9,0.2,1.8,0.2,2.7,0.2c3.6-0.2,6.8-0.4,9.6-0.6l6.4-0.4l1.8-0.1C126.5,241.7,126.6,241.7,126.8,241.7z"/>
	<path class="st1" d="M131.7,263.6c0,0.1-16.2,0.2-36.1,0.2s-36.1-0.1-36.1-0.2s16.2-0.2,36.1-0.2S131.7,263.5,131.7,263.6z"/>
	<path class="st1" d="M134.9,270.4c0,0.1-16.6,0.2-37.1,0.2s-37.1-0.1-37.1-0.2s16.6-0.2,37.1-0.2S134.9,270.2,134.9,270.4z"/>
	<path class="st1" d="M135.2,278.7c0,0.1-16.5,0.2-36.9,0.2s-36.9-0.1-36.9-0.2s16.5-0.2,36.9-0.2S135.2,278.6,135.2,278.7z"/>
	<path class="st1" d="M85.8,301.8c-0.6,0.3-1.1,0.8-1.5,1.4c-0.3,0.6-0.3,1.4-0.1,2.1c0.6,1.1,2.1,1.5,3.2,0.9
		c0.4-0.2,0.7-0.6,0.9-1c0.2-0.7,0.2-1.4-0.2-2.1c-0.3-0.6-0.9-1-1.5-1.3c0.2,0,0.4,0,0.6,0.1c0.5,0.2,1,0.6,1.2,1.1
		c0.5,0.7,0.6,1.6,0.3,2.4c-0.6,1.4-2.3,2-3.7,1.4c-0.6-0.3-1-0.7-1.3-1.2c-0.3-0.8-0.2-1.7,0.2-2.4c0.3-0.5,0.7-0.9,1.2-1.1
		C85.6,301.7,85.8,301.7,85.8,301.8z"/>
	<path class="st1" d="M94.3,301.3c0.2,0,0.4,0,0.6,0.1c0.6,0.2,1.1,0.6,1.4,1.1c0.5,0.8,0.6,1.7,0.4,2.6c-0.7,1.5-2.5,2.1-4,1.4
		c-0.6-0.3-1.1-0.8-1.4-1.4c-0.3-0.9-0.1-1.9,0.4-2.6c0.3-0.5,0.8-0.9,1.4-1.1c0.2-0.1,0.4-0.1,0.7-0.1c0,0-0.2,0.1-0.6,0.2
		c-0.5,0.2-0.9,0.6-1.2,1.1c-0.4,0.7-0.5,1.5-0.2,2.3c0.6,1.3,2.2,1.8,3.4,1.1c0.5-0.2,0.9-0.6,1.1-1.1c0.3-0.8,0.2-1.6-0.2-2.3
		c-0.3-0.5-0.7-0.9-1.2-1.1C94.5,301.4,94.3,301.3,94.3,301.3z"/>
	<path class="st1" d="M101.5,301.7c-0.6,0.3-1.1,0.8-1.4,1.4c-0.3,0.6-0.4,1.4-0.1,2c0.4,0.8,1.2,1.3,2,1.2c0.9,0,1.7-0.4,2.1-1.2
		c0.3-0.7,0.2-1.4-0.1-2c-0.3-0.6-0.8-1.1-1.4-1.4c0.2,0,0.4,0,0.6,0.1c0.5,0.2,0.9,0.6,1.2,1.1c0.4,0.7,0.5,1.6,0.2,2.4
		c-0.7,1.4-2.3,1.9-3.7,1.3c-0.5-0.3-1-0.7-1.3-1.3c-0.3-0.8-0.2-1.7,0.2-2.4c0.3-0.5,0.7-0.9,1.2-1.1
		C101.1,301.7,101.3,301.7,101.5,301.7z"/>
</g>
<g id="freepik--Character--inject-18">
	<polygon class="st4" points="260.8,399.2 264.3,415.7 275.9,416.7 280.7,411.3 276.3,391.6 	"/>
	<path class="st1" d="M283,409.4l0,1.3c0,0,22.1,8.1,22.5,12.3l-43.4,1l0.2-14.5C268.9,412.4,275.7,412.6,283,409.4z"/>
	<g class="st5">
		<path class="st6" d="M266.9,414.1c-0.9,0.3-1.4,1.2-1.2,2.1c0.3,0.9,1.1,1.4,2,1.2c0.9-0.3,1.4-1.2,1.2-2.2
			c-0.4-0.9-1.3-1.3-2.2-1"/>
	</g>
	<path class="st3" d="M262.1,424l0.1-3.5l41.6,0.3c0,0,2.3,1.2,2.1,3.4L262.1,424z"/>
	<path class="st3" d="M283.2,410.8c0,0.2-1.1,0.3-2.1,1s-1.6,1.6-1.8,1.5s0.1-1.3,1.3-2.1S283.3,410.6,283.2,410.8z"/>
	<path class="st3" d="M287.8,412.6c0.1,0.2-0.9,0.6-1.6,1.5s-0.9,1.9-1.1,1.9c-0.2,0-0.4-1.2,0.5-2.3
		C286.6,412.6,287.8,412.4,287.8,412.6z"/>
	<path class="st3" d="M290.5,418c-0.2,0-0.5-1,0-2.2c0.5-1.2,1.5-1.7,1.6-1.5s-0.5,0.8-0.9,1.8C290.8,417.1,290.7,418,290.5,418z"/>
	<path class="st4" d="M193.7,395.3c-0.2,0.5,0,21.1,0,21.1l6.5,3.8l8.5-5.1l1.8-19.9L193.7,395.3z"/>
	<path class="st1" d="M209.2,413.4c0,0-11.5,8.2-17.1,1.1l-1.5,3.4l-6.5,24.4c-0.5,1.6,0.3,3.3,1.8,3.9c1.1,0.5,2.5,0.2,3.4-0.6
		c4.7-4.5,22.1-21.2,21.9-23.4l-0.1-6C211.2,414.9,210.5,413.8,209.2,413.4L209.2,413.4z"/>
	<path class="st3" d="M186.5,446.5l24.7-26.3v1.3c0.1,1.1-0.3,2.2-1.2,2.9c-6.5,7.8-13.4,15.2-20.8,22.2
		C188.5,447.2,187.1,446.6,186.5,446.5L186.5,446.5z"/>
	<g class="st5">
		<path class="st6" d="M207.6,416.2c-0.8,0.6-1,1.7-0.5,2.5c0.5,0.8,1.6,1.1,2.5,0.6c0.8-0.6,1.1-1.8,0.6-2.7
			c-0.7-0.8-1.8-0.9-2.6-0.3"/>
	</g>
	<path class="st3" d="M193.6,433c-0.2,0.1-0.9-1.5-2.7-2.4c-1.8-0.9-3.5-0.5-3.6-0.7s0.4-0.3,1.1-0.4c1.9-0.2,3.8,0.7,4.8,2.4
		C193.7,432.5,193.7,433,193.6,433z"/>
	<path class="st3" d="M191.4,437.1c-0.1,0.1-1.1-0.9-2.7-1.3s-3-0.2-3-0.4c0-0.2,1.4-0.8,3.2-0.2C190.7,435.7,191.6,437,191.4,437.1
		z"/>
	<path class="st3" d="M197.8,427.7c-0.2,0.1-1.7-1.4-4.1-2.4s-4.6-0.9-4.6-1.1c0-0.2,2.3-0.6,4.8,0.5
		C196.5,425.7,197.9,427.6,197.8,427.7z"/>
	<path class="st3" d="M198.3,420.2c-0.1,0.2-1.8-0.5-4-0.6c-2.2-0.1-4,0.4-4.1,0.2c-0.1-0.2,1.7-1.1,4.1-1S198.4,420.1,198.3,420.2z
		"/>
	<path class="st3" d="M193,419.5c0-0.4,0-0.8,0.2-1.2c0.3-1,0.8-2,1.5-2.9c0.4-0.7,1.1-1.2,1.8-1.4c0.5-0.1,1.1,0.1,1.4,0.5
		c0.2,0.4,0.3,1,0.2,1.5c-0.5,2.1-2.5,3.5-4.6,3.4c-2.1-0.2-3.9-1.6-4.5-3.6c-0.2-0.5-0.1-1,0.2-1.5c0.3-0.4,0.9-0.6,1.4-0.4
		c0.7,0.3,1.3,0.8,1.8,1.4c0.7,0.8,1.3,1.7,1.6,2.8c0.2,0.4,0.3,0.7,0.3,1.1c-0.6-1.3-1.3-2.5-2.3-3.6c-0.4-0.5-1-0.9-1.6-1.2
		c-0.3-0.1-0.6,0-0.8,0.2c-0.2,0.3-0.2,0.6-0.1,1c0.6,1.7,2.1,2.9,4,3.1c1.8,0.1,3.5-1,4-2.8c0.1-0.3,0-0.7-0.1-1
		c-0.2-0.3-0.5-0.4-0.7-0.3c-0.6,0.2-1.2,0.6-1.6,1.2C194.2,416.9,193.5,418.2,193,419.5z"/>
	<path class="st3" d="M222.1,102.5c0.1-0.3,0.3-0.5,0.5-0.7c1.3-1.1,2-2.7,2.1-4.4c0-1.7-0.9-3.3-2.3-4.1c2.1-1.4,2.3-4.8,0.7-6.8
		c-1.8-1.9-4.6-2.5-7.1-1.5c0.4-1.6-0.2-3.2-1.6-4.1c-1.4-0.8-2.9-1.1-4.5-1c-2.1,0.1-4.5,1-5.2,3c-0.4-1.2-1.9-1.8-3.2-1.7
		c-3.6,0.1-6.5,2.9-6.8,6.5c-1.2-0.6-2.5-0.8-3.8-0.5c-1.3,0.3-2.3,1.4-2.4,2.8c-1-0.9-2.3-1.3-3.6-1c-0.9,0.1-1.8,0.5-2.6,1.1
		c-0.7,0.6-1,1.7-0.6,2.6c-2-0.3-3.8,1.2-4.1,3.2c-0.2,1.8,0.9,3.5,2.6,4c-1.9,1.8-2,4.7-0.2,6.6c0.5,0.5,1.1,0.9,1.8,1.2
		c-0.6,0.3-0.9,1.1-0.5,1.7c0,0.1,0.1,0.2,0.2,0.3c0.6,0.6,1.4,0.8,2.2,0.7l1.1,8.1c0.1,1.8,0.6,3.5,1.2,5.1
		c0.7,1.6,2.1,2.9,3.9,3.3l31.4-14.5c2-2.5,2.5-5.9,1.1-8.8C222.2,103.2,222.1,102.9,222.1,102.5z"/>
	<path class="st4" d="M220.2,104.5c-1.2-6.5-9.1-12.2-15.5-10.7l-19.1,6.5l0.5,3.5l5.1,42.7c0.8,6.8,5.4,12.1,12.2,11.4l0,0
		c6.9-0.7,12.1-6.8,11.4-13.8c0-0.3-0.1-0.5-0.1-0.8l-0.6-3.7c0,0,8.2-2.4,8.6-13.5C222.9,120.6,221.5,111.8,220.2,104.5z"/>
	<path class="st3" d="M218.8,113.1c0.1,0.8-0.4,1.5-1.2,1.6c-0.7,0.1-1.4-0.3-1.6-1.1c0,0,0,0,0,0c-0.1-0.8,0.4-1.5,1.2-1.6
		C217.9,111.9,218.6,112.4,218.8,113.1C218.8,113.1,218.8,113.1,218.8,113.1z"/>
	<path class="st3" d="M218.8,109.4c-0.2,0.2-1.3-0.5-2.8-0.3c-1.5,0.2-2.5,1.1-2.7,0.9c-0.2-0.2,0-0.4,0.5-0.8
		c1.2-1.1,3-1.3,4.4-0.5C218.7,109,218.9,109.3,218.8,109.4z"/>
	<path class="st3" d="M205.4,115.3c0.1,0.8-0.4,1.5-1.2,1.6c-0.7,0.1-1.4-0.3-1.6-1.1c0,0,0,0,0,0c-0.1-0.8,0.4-1.5,1.2-1.6
		C204.6,114.1,205.3,114.6,205.4,115.3C205.4,115.3,205.4,115.3,205.4,115.3z"/>
	<path class="st3" d="M204.1,111.8c-0.2,0.2-1.3-0.5-2.8-0.3c-1.5,0.2-2.5,1.1-2.7,0.9c-0.2-0.2,0-0.4,0.5-0.8
		c0.6-0.5,1.3-0.9,2.1-1c0.8-0.1,1.6,0.1,2.3,0.4C204,111.4,204.2,111.7,204.1,111.8z"/>
	<path class="st3" d="M210.9,122c0.8-0.3,1.6-0.6,2.4-0.7c0.4-0.1,0.7-0.2,0.8-0.5c0-0.4-0.1-0.8-0.4-1.1l-1.5-2.8
		c-2.1-4-3.7-7.3-3.5-7.4c0.2-0.1,2,3.1,4.1,7.1l1.4,2.8c0.3,0.4,0.4,1,0.4,1.5c-0.1,0.3-0.3,0.5-0.6,0.6c-0.2,0.1-0.4,0.1-0.6,0.2
		C212.6,121.9,211.7,122,210.9,122z"/>
	<path class="st7" d="M214.1,139.7c-5.1,0.7-10.4,0-15.1-2.1c0,0,4.8,7.2,15.6,4.8L214.1,139.7z"/>
	<path class="st7" d="M210.7,125.7c-0.7-0.7-1.6-0.9-2.6-0.7c-0.7,0.1-1.2,0.6-1.6,1.1c-0.4,0.6-0.3,1.3,0.1,1.8
		c0.6,0.5,1.4,0.6,2,0.3c0.7-0.3,1.3-0.8,1.8-1.4c0.2-0.1,0.3-0.3,0.4-0.5C210.9,126.1,210.9,125.9,210.7,125.7"/>
	<path class="st3" d="M206.6,123.6c0.2,0,0.4,1.6,2,2.6c1.5,1,3.3,0.6,3.3,0.8c0,0.2-0.4,0.4-1.1,0.5c-1,0.1-1.9-0.1-2.7-0.6
		c-0.8-0.5-1.3-1.3-1.6-2.2C206.3,124,206.5,123.6,206.6,123.6z"/>
	<path class="st8" d="M219.3,118.6c1.3-0.3,2.9-0.8,3.3-1.4c0.6-0.8,1-3.6,1.3-6.2c0-0.3,0.1-0.6,0.1-0.6l-0.5-0.1
		c0,0.2-0.1,0.5-0.1,0.7c-0.2,1.4-0.6,5.1-1.2,5.9s-7.7,2.3-8.4,1.9c-0.5-0.3-1.8-3.4-2.7-5.5l-0.1-0.2l-2.8,0.3v0.2
		c-0.3,1.5-1.5,5.7-2.6,6.6c-1.4,1.1-7.5,1.5-8,0.9c-1.1-2-2.1-4.2-3-6.4l-0.1-0.2l-8.5,1.4l0.1,0.5l8-1.4c0.5,1.1,2.4,5.7,3,6.3
		c0.9,0.9,7.3,0.3,8.7-0.8c1.4-1.1,2.5-5.7,2.8-6.7l2-0.2c0.5,1.2,2.1,5.1,2.9,5.5s4.1-0.3,4.5-0.4
		C218.5,118.8,218.8,118.7,219.3,118.6z"/>
	<path class="st8" d="M208.2,114.4l0.4-1c-4-1.6-10.7-1.7-14.5,1.1l0.6,0.9C198.2,112.9,204.4,112.9,208.2,114.4z"/>
	<path class="st8" d="M223.7,111.1l0.3-1.1c-4.7-1.2-10.4,0.1-13.5,3.2l0.8,0.8C214,111.2,219.4,110,223.7,111.1z"/>
	<path class="st3" d="M203.9,106.4c-0.1,0.4-1.6,0.4-3.4,0.8s-3.1,1.1-3.4,0.7c-0.1-0.2,0.1-0.6,0.6-1c1.4-1.2,3.3-1.6,5.2-1.2
		C203.6,105.9,204,106.2,203.9,106.4z"/>
	<path class="st3" d="M217.8,105.1c-0.2,0.4-1.3,0.1-2.6,0.3c-1.2,0.1-2.3,0.5-2.6,0.2c-0.1-0.2,0-0.5,0.4-1c0.6-0.5,1.3-0.8,2-0.8
		c0.7-0.1,1.5,0.1,2.1,0.5C217.7,104.6,217.9,104.9,217.8,105.1z"/>
	<path class="st3" d="M190.1,113.9c0.2,2.2,0,4.5-0.5,6.7c-0.2,1-0.6,2-1.5,2.3c-0.9,0.2-1.8-0.2-2.2-1c-0.4-0.7-0.7-1.6-0.7-2.5
		c-0.3-3.1-0.3-6.1-0.2-9.2"/>
	<path class="st4" d="M188,116.8c-0.1,0-5.7-1.3-5.2,4.3c0.6,5.6,6.1,3.8,6.1,3.7C188.9,124.7,188,116.8,188,116.8z"/>
	<path class="st7" d="M187,122.9c0,0-0.1,0.1-0.2,0.2c-0.2,0.1-0.5,0.2-0.7,0.1c-0.8-0.4-1.3-1.2-1.3-2.1c-0.1-0.5,0-1,0.1-1.4
		c0.1-0.4,0.3-0.7,0.7-0.8c0.2-0.1,0.5,0,0.6,0.2c0.1,0.1,0.1,0.3,0.1,0.3c0,0,0.1-0.1,0-0.3c0-0.1-0.1-0.3-0.3-0.3
		c-0.2-0.1-0.4-0.1-0.5-0.1c-0.5,0.1-0.8,0.5-1,1c-0.2,0.5-0.2,1.1-0.2,1.6c0.1,1,0.7,1.9,1.7,2.3c0.3,0.1,0.6,0,0.9-0.2
		C187,123,187,122.9,187,122.9z"/>
	<path class="st3" d="M214.2,92.5c1.3,2.6,0.2,5.9-2.4,7.2c-1.3,0.7-2.9,0.7-4.2,0.2c0.8,0.7,0.9,1.9,0.3,2.7
		c-0.6,0.8-1.6,1.3-2.6,1.4c-2.1,0.4-4.3-0.2-6-1.5c0,3-2.5,5.4-5.5,5.4c-0.6,0-1.1-0.1-1.7-0.3c2.2,1.6,2.6,4.8,1,6.9
		c-1.6,2.2-4.8,2.6-6.9,1c-0.8-0.6-1.3-1.3-1.7-2.2c-2.9-0.8-4.6-3.9-3.8-6.9c0.1-0.5,0.3-0.9,0.6-1.4c-1.2-0.3-2.1-1.1-2.4-2.3
		c-0.3-1.1-0.3-2.3-0.1-3.4c0.5-2.8,2.1-5.4,4.5-7c2.4-1.6,5.6-1.5,8,0.1c0.2,0.2,0.5,0.4,0.8,0.5c0.4,0,0.8-0.4,1-0.7
		c1.2-1.6,2.4-3.2,4.2-4c2.3-0.9,4.8-0.1,6.2,1.9c1-2.5,3.6-4,6.2-3.8c2.6,0.4,4.6,3.3,3.7,5.7"/>
	<path class="st6" d="M198.8,101.4c0,0,0.1,0,0.2,0h0.5c0.7,0,1.3-0.1,2-0.2c0.5-0.1,0.9-0.3,1.3-0.5c0.5-0.3,0.9-0.7,1.3-1.1
		c0.4-0.5,0.7-1.1,0.8-1.8c0.1-0.7,0-1.5-0.4-2.1l-0.2,0.2c1.4,0.8,3,1,4.6,0.8c0.9-0.1,1.7-0.4,2.5-0.8c0.4-0.2,0.8-0.5,1.1-0.8
		c0.3-0.3,0.6-0.8,0.7-1.2c0.1-0.5,0.1-1.1-0.1-1.6c-0.1-0.5-0.3-1-0.5-1.5c-0.2-0.5-0.4-0.9-0.7-1.3c-0.3-0.4-0.8-0.7-1.3-0.7v0.3
		c1,0.2,2,0,2.9-0.5c0.8-0.4,1.5-1,1.9-1.8c0.4-0.7,0.6-1.5,0.6-2.3c-0.1-1.6-1.1-3.1-2.6-3.8c-0.3-0.2-0.6-0.3-1-0.3
		c0.3,0.1,0.6,0.2,1,0.4c0.8,0.4,1.5,1.1,1.9,1.9c0.3,0.6,0.5,1.2,0.5,1.9c0,0.8-0.2,1.5-0.6,2.1c-0.4,0.7-1.1,1.3-1.8,1.7
		c-0.8,0.4-1.8,0.6-2.7,0.4v0.3c0.5,0,0.9,0.3,1.1,0.6c0.3,0.4,0.5,0.8,0.7,1.3c0.5,0.9,0.6,1.9,0.5,3c-0.2,0.8-0.8,1.5-1.6,1.9
		c-0.7,0.4-1.5,0.7-2.4,0.8c-1.5,0.2-3.1,0-4.5-0.7l-0.4-0.2l0.3,0.4c0.4,0.6,0.5,1.2,0.4,1.9c-0.1,0.6-0.3,1.2-0.7,1.7
		c-0.3,0.4-0.7,0.8-1.2,1.1c-0.4,0.2-0.8,0.4-1.3,0.5c-0.6,0.2-1.3,0.3-1.9,0.3C199.1,101.4,198.8,101.4,198.8,101.4z"/>
	<path class="st6" d="M215.8,96.9c0.1,0.1,0.3,0.1,0.4,0.1c0.4,0.1,0.8,0.1,1.1,0c0.6-0.1,1.1-0.4,1.5-0.8c0.3-0.3,0.4-0.6,0.4-1
		c0-0.4-0.3-0.8-0.6-1l-0.1,0.3h0.1c1.3,0.2,2.6-0.2,3.6-1.1c0.3-0.3,0.5-0.6,0.7-0.9c0.1-0.2,0.2-0.4,0.2-0.4
		c-0.3,0.4-0.7,0.8-1.1,1.1c-1,0.8-2.2,1.1-3.4,1h-0.1l-1.4-0.2l1.3,0.5c0.3,0.1,0.5,0.4,0.5,0.7c0,0.3-0.1,0.6-0.3,0.8
		c-0.4,0.4-0.8,0.7-1.4,0.8C216.8,97,216.3,97,215.8,96.9z"/>
	<path class="st7" d="M205.3,124.3c0,0,0.1-0.1,0.2-0.3c0.2-0.2,0.4-0.4,0.6-0.5c0.5-0.2,1.1-0.3,1.1-0.4c-0.4-0.1-0.8-0.1-1.2,0.1
		c-0.3,0.1-0.5,0.3-0.6,0.6C205.2,124.2,205.2,124.3,205.3,124.3z"/>
	<path class="st7" d="M204.3,125.3c0.1,0,0.2-0.4,0.3-1c0.2-0.5,0.3-0.9,0.3-1s-0.4,0.3-0.5,0.9
		C204.2,124.7,204.3,125.3,204.3,125.3z"/>
	<path class="st3" d="M181.5,225.6c-3.5,6.6-6.2,13.6-8.1,20.8c-3.6,12.8-7.6,19.3-6.1,43c0.7,12.1,11.2,44.9,13.6,56.4
		c2,9.5,8.2,54.1,11.3,65.9h18l1.8-132.1c0,0,28.6,77.1,32.3,86c3.7,8.9,16.4,44.2,16.4,44.2l22.4-5.7c0,0-13.7-63.2-17.1-78.9
		c-3.4-15.7-12.7-60.1-16.6-73.5c-3.9-13.4-7.7-27.5-7.7-27.5L181.5,225.6z"/>
	<path class="st8" d="M183.7,249c0,0.2-0.1,0.4-0.2,0.7c-0.2,0.6-0.5,1.1-0.8,1.7c-1.1,1.8-2.5,3.3-4.2,4.4c-1.7,1.2-3.6,2-5.6,2.3
		c-0.6,0.1-1.2,0.2-1.8,0.2c-0.4,0-0.7,0-0.7-0.1c0-0.1,1-0.1,2.5-0.5c3.9-0.9,7.3-3.3,9.6-6.6C183.2,249.8,183.6,248.9,183.7,249z"
		/>
	<path class="st8" d="M251.4,258.6c-0.2,0.1-0.4,0.2-0.7,0.2c-0.6,0.1-1.2,0.2-1.9,0.2c-0.9,0-1.9-0.1-2.8-0.3
		c-1.1-0.2-2.2-0.6-3.2-1.2c-1.8-1-3.4-2.3-4.7-3.9c-0.6-0.6-1-1.3-1.4-2.1c0.1,0,0.6,0.7,1.7,1.9c1.3,1.5,2.9,2.8,4.7,3.7
		c1.8,0.9,3.7,1.4,5.7,1.5C250.4,258.7,251.3,258.5,251.4,258.6z"/>
	<path class="st8" d="M212.4,251.1c0.1,0.3,0.2,0.7,0.2,1.1c0.1,0.7,0.2,1.7,0.3,2.9c0.2,2.5,0.4,5.9,0.4,9.7c0,3.8-0.3,7.2-0.5,9.7
		c-0.1,1.2-0.2,2.2-0.4,2.9c0,0.4-0.1,0.7-0.2,1.1c0-0.4,0-0.7,0-1.1c0.1-0.8,0.1-1.8,0.2-2.9c0.2-2.5,0.4-5.9,0.4-9.7
		s-0.1-7.2-0.2-9.7c-0.1-1.2-0.1-2.1-0.1-2.9C212.3,251.8,212.4,251.5,212.4,251.1z"/>
	<path class="st8" d="M248.8,249.2c0,0-9-61.5-10.1-69.6l-3.8-31.1l-15.4-0.8l-0.5-5.9l-30.7,1.9v5.5l-16.3,7.4l2.3,28.4
		c0,0,1.9,2.1,5,17.4c3.1,15.2-7.3,44.9-7.3,44.9L248.8,249.2z"/>
	<path class="st3" d="M192.2,150.7c-0.2-1.2-0.3-2.3-0.2-3.5c-0.1-1.2,0-2.4,0.2-3.5c0.3,1.2,0.3,2.3,0.2,3.5
		C192.5,148.4,192.5,149.5,192.2,150.7z"/>
	<path class="st3" d="M199.2,151.1c-0.2-1.3-0.3-2.6-0.2-4c-0.1-1.3,0-2.7,0.2-4c0.3,1.3,0.3,2.6,0.2,4
		C199.5,148.4,199.4,149.8,199.2,151.1z"/>
	<path class="st3" d="M206.3,150.2c-0.3-1.2-0.3-2.5-0.2-3.7c-0.1-1.2,0-2.5,0.2-3.7c0.2,1.2,0.3,2.5,0.2,3.7
		C206.7,147.7,206.6,149,206.3,150.2z"/>
	<path class="st3" d="M212.9,148.6c-0.3-2.1-0.3-4.3,0-6.5C213.2,144.2,213.2,146.4,212.9,148.6z"/>
	<path class="st3" d="M259.3,204.4c-0.2-0.5-0.3-1.1-0.2-1.7c0-2.8,1-5.5,2.8-7.6c0.7-0.8,1.2-1.2,1.3-1.1
		C260.6,196.9,259.2,200.6,259.3,204.4L259.3,204.4z"/>
	<g class="st9">
		<path d="M180.6,194.2c-0.4-2.3-1.4-4.4-1.9-6.7l-2.2,3.2c0.8,3.5,1.6,6.4,2.4,9.9C180.6,199.1,181,196.5,180.6,194.2z"/>
	</g>
	<path class="st8" d="M280.1,183.1l-17.2,10.8l-10.1-26l0.2-0.1c0,0-1.5-2.8-5.7-10.1c-5.5-9.6-12.5-9.1-12.5-9.1l-8.4,12.5
		l8.9,19.1c0,0,16.3,30.4,20.9,31.9c15.8,5.2,33.2-31,33.2-31L280.1,183.1z"/>
	<g class="st9">
		<path d="M241.6,205.4c0-1-0.6-1.9-1.5-2.4c-0.8-0.1-1.6,0.1-2.3,0.5l-64,32.6l-0.2,5c10.3,0.2,20.1-4.4,29.5-8.8
			c9.6-4.5,19.1-9,28.3-14.1c2.6-1.3,5-3,7.1-5C240.7,211.3,241.8,208.4,241.6,205.4z"/>
	</g>
	<path class="st1" d="M103.3,262.8L103.3,262.8c2.7,7.3,10.8,11,18.1,8.3c0.6-0.2,1.2-0.5,1.7-0.8l197.1-106.8l25.2-37.9l-43.3,6.9
		L109.5,244.2C103.2,248,100.5,255.9,103.3,262.8z"/>
	<g class="st10">
		<polygon points="302.1,132.4 109.5,244.1 111.8,248.6 305.4,138.2 		"/>
	</g>
	<g class="st10">
		<polygon points="316.8,157.4 120.9,266 123.1,270.3 320.2,163.5 		"/>
	</g>
	<g class="st10">
		<polygon points="309,144.4 115.1,254.9 118.2,260.8 312.6,150.4 		"/>
	</g>
	<path class="st3" d="M109.5,244.1c-6.4,3.8-9,11.7-6.3,18.6l0,0c2.7,7.3,10.8,11,18.1,8.3c0.6-0.2,1.2-0.5,1.7-0.8L109.5,244.1z"/>
	<g class="st11">
		<polygon class="st6" points="320.2,163.5 302.1,132.4 328.6,128.2 336.8,138.6 		"/>
	</g>
	<path class="st4" d="M280.4,185.1l3.8-4c0,0-0.5-9.2,1.1-11.5l0.8-1.4c0,0-0.8-4.5,1.6-5.5c0.7-1.7,1.6-2.4,2.8-1.4
		c0,0-0.7-3.4,2.5-3.8s4,13.8,4,13.8s1.6,6.4-2,6.4c0,0-2,2.3-4.3,2.5c0,0-0.7,3.8-3.8,3.6L280.4,185.1z"/>
	<path class="st7" d="M290.3,178.5c0,0,0.2,0.1,0.4,0.5c0.2,0.5,0.3,1,0.2,1.6c-0.1,0.8-0.6,1.5-1.2,2.1c-0.7,0.6-1.6,1.1-2.5,1.4
		c-1.6,0.6-3.3,0.9-5,1c-0.7,0.1-1.4,0.1-2.1-0.1c2.4-0.2,4.7-0.7,6.9-1.4c0.9-0.3,1.7-0.7,2.4-1.2c0.6-0.5,1-1.1,1.1-1.8
		C290.6,179.8,290.5,179.1,290.3,178.5z"/>
	<path class="st7" d="M293.1,173.4c-0.2,0-0.2-2.9-0.9-6.3c-0.7-3.4-1.7-6.1-1.6-6.2c0.4,0.5,0.6,1.1,0.8,1.7
		c1.1,2.8,1.7,5.8,1.8,8.9C293.2,172.2,293.2,172.8,293.1,173.4z"/>
	<path class="st7" d="M290.3,175c-0.2,0-0.4-2.8-1.1-6.2c-0.7-3.4-1.6-6.1-1.4-6.1c0.9,1.9,1.6,3.9,1.9,6
		C290.2,170.8,290.4,172.9,290.3,175z"/>
	<path class="st7" d="M295.4,174.9c0.1-0.1,0.6,0.8,0.3,1.9c-0.3,1.1-1.1,1.6-1.2,1.5s0.5-0.7,0.7-1.7
		C295.4,175.7,295.2,174.9,295.4,174.9z"/>
	<path class="st7" d="M286.6,175.5c-0.2-1.2-0.3-2.3-0.3-3.5c-0.2-1.2-0.2-2.3-0.1-3.5c0.4,1.1,0.7,2.3,0.6,3.5
		C286.9,173.2,286.9,174.4,286.6,175.5z"/>
	<path class="st4" d="M187.4,213.9c0.7-1.5,1.7-2.9,3-4c2.2-1.9,7-3.4,7.7-5.2c0.7-1.8,2.5-0.4,2,1.9c-0.3,1.5-3.3,5.3-3.3,5.3
		s3.5,0.9,5.8-0.5s10.5-3.8,11.4-2.6c0.8,1.1-1.1,1.7-2.1,2.2c-0.7,0.4-6.1,3.1-6.1,3.1s10.8-0.4,12.2,0.2c1.4,0.5,0,1.9-0.7,1.9
		c-0.4,0-2.3,1.7-3.6,2.9c-0.9,0.8-2.1,1.3-3.3,1.3H208l7.7,0.8c0,0,1.3,1.2-0.5,1.8c-0.8,0.3-24,3.6-25.8,3.7c-3.1,0.2-8,1-8,1
		l1.3-14.4L187.4,213.9z"/>
	<path class="st7" d="M217.5,216.3c-1.6,0.8-3.3,1.3-5.1,1.6c-1.8,0.4-3.6,0.5-5.4,0.3c0-0.1,2.4-0.3,5.3-0.8
		C215.2,216.8,217.5,216.2,217.5,216.3z"/>
	<path class="st3" d="M237.1,166.5c-0.2,0-0.6-2.2-1.5-4.8c-0.9-2.6-1.9-4.6-1.8-4.6c1,1.3,1.8,2.9,2.3,4.5
		C236.7,163.2,237,164.8,237.1,166.5z"/>
	<path class="st2" d="M331.3,131.6c-0.1,0.1-0.1,0.1-0.2,0.2l-0.6,0.6l-2.1,2c-1.8,1.7-4.2,4.1-7.1,6.6c-1.3,1.2-2.8,2.2-4.4,2.9
		c-1.4,0.5-2.8,0.9-4.2,1c-1,0.1-2,0.1-2.9-0.1c-0.4-0.1-0.7-0.2-1-0.3c0,0,0.4,0.1,1,0.2c1,0.1,1.9,0.1,2.9,0
		c1.4-0.2,2.8-0.5,4.2-1c1.6-0.7,3.1-1.7,4.4-2.9c2.8-2.5,5.3-4.8,7.1-6.5l2.2-2l0.6-0.5C331.1,131.7,331.2,131.7,331.3,131.6z"/>
	<path class="st2" d="M336.6,138.8c-0.3-0.3-0.6-0.5-1-0.6c-1-0.3-2-0.3-3,0.1c-1.4,0.5-2.7,1.3-3.8,2.3c-1.3,1.3-2.6,2.6-3.8,4
		c-1.2,1.4-2.6,2.6-4.2,3.6c-1.3,0.8-2.8,1.3-4.3,1.5c-1,0.1-2,0.1-3.1,0c-0.4,0-0.7-0.1-1.1-0.2h0.3l0.8,0.1c1,0.1,2,0.1,3-0.1
		c1.5-0.2,2.9-0.7,4.2-1.5c1.6-1,3-2.2,4.2-3.6c1.2-1.4,2.5-2.7,3.8-4c1.1-1,2.4-1.8,3.8-2.3c1-0.4,2-0.4,3-0.1
		c0.3,0.1,0.5,0.3,0.7,0.5C336.5,138.7,336.6,138.8,336.6,138.8z"/>
	<path class="st2" d="M323.9,152.8c-0.3,0.2-0.6,0.5-1,0.6c-1,0.5-2.1,0.6-3.1,0.6c-0.4,0-0.7-0.1-1.1-0.2c-0.4-0.1-0.7-0.5-0.8-0.9
		c0-0.4,0.2-0.9,0.5-1.1c0.3-0.3,0.7-0.5,1.1-0.7c1.7-0.9,3.8-1.2,5.7-0.9c0.5,0.1,1,0.3,1.4,0.7c0.3,0.4,0.4,1,0.3,1.5
		c-0.3,0.9-0.8,1.7-1.5,2.4c-1.2,1.1-2.6,1.9-4.2,2.3c-1,0.2-2.1,0.3-3.2,0.1c-0.3,0-0.6-0.1-0.9-0.2l-0.3-0.1c0,0,0.4,0.1,1.1,0.2
		c1.1,0.1,2.1,0.1,3.2-0.2c1.5-0.4,2.9-1.1,4.1-2.2c0.7-0.6,1.2-1.4,1.5-2.3c0.1-0.5,0-0.9-0.2-1.3c-0.3-0.4-0.8-0.6-1.3-0.7
		c-1.9-0.3-3.9,0-5.6,0.9c-0.4,0.2-0.7,0.4-1.1,0.7c-0.3,0.2-0.5,0.6-0.5,1c0.1,0.4,0.3,0.6,0.7,0.8c0.3,0.1,0.7,0.2,1,0.2
		c1.1,0.1,2.1-0.1,3.1-0.5c0.3-0.1,0.5-0.2,0.8-0.4C323.8,152.9,323.9,152.9,323.9,152.8z"/>
	<path class="st2" d="M322.3,160.1c-0.4,0.4-0.9,0.7-1.5,0.9c-0.6,0.2-1.2,0.2-1.8,0c0.6,0,1.1-0.1,1.7-0.2
		C321.2,160.5,321.7,160.3,322.3,160.1z"/>
	<path class="st2" d="M318.7,133.8c0-0.1,0.1-0.2,0.1-0.3c0.2-0.3,0.4-0.6,0.6-0.9c1-0.9,2.3-1.4,3.6-1.4c0.4,0,0.8,0,1.3,0
		c0.5,0,1,0,1.4,0.1c0.3,0.1,0.4,0.3,0.5,0.6c0,0.3,0,0.6-0.1,0.8c-0.3,0.4-0.7,0.8-1.1,1.1c-1.8,1.5-4,2.6-6.3,3.3
		c-1.2,0.3-2.4,0.5-3.6,0.6c-0.6,0-1.2,0-1.8-0.3c-0.5-0.3-0.9-0.7-1.1-1.3c-0.1-1.1,0.2-2.1,1-2.9c0.6-0.7,1.3-1.3,2.1-1.8
		c1.1-0.7,2.3-1.2,3.6-1.5l1-0.3l0.4-0.1l-0.3,0.1l-1,0.3c-1.2,0.4-2.4,0.9-3.5,1.6c-0.8,0.5-1.4,1.1-2,1.7c-0.7,0.8-1,1.8-0.9,2.8
		c0.1,0.5,0.5,1,1,1.2c0.5,0.2,1.1,0.3,1.7,0.2c1.2-0.1,2.4-0.3,3.6-0.6c2.3-0.6,4.4-1.7,6.2-3.2c0.4-0.3,0.8-0.7,1.1-1.1
		c0.3-0.4,0.2-0.9-0.2-1.1c0,0,0,0-0.1,0c-0.4-0.1-0.9-0.1-1.4-0.1c-0.4,0-0.9,0-1.3,0c-1.3,0-2.6,0.5-3.6,1.3
		C319.2,133,318.9,133.4,318.7,133.8z"/>
	<path class="st2" d="M305.5,137.5c0-0.1-0.1-0.2-0.1-0.2c-0.1-0.2-0.1-0.5-0.1-0.7c-0.1-0.8,0-1.6,0.3-2.3c0.3-0.7,0.7-1.4,1.2-2
		c0.2-0.2,0.3-0.3,0.5-0.5c0.1-0.1,0.2-0.1,0.2-0.1C305.9,133.1,305.1,135.3,305.5,137.5L305.5,137.5z"/>
	<path class="st8" d="M165.3,208l11.9-18.4l0,0l1.1-1.6l0,0l1.6-2.5l-6.7-29.3c0,0-6.2,3.6-9.6,8.1s-7.3,13-7.3,13
		s-11.7,26.7-13.6,30.7c-1.9,4-5,11.4,0,15.5c5,4.1,38.6,4.3,38.6,4.3l2.3-16.9L165.3,208z"/>
	<path class="st3" d="M180,182.5c-0.1,0,0.2-1.3,0.3-3.3c0.1-2.6-0.1-5.2-0.8-7.8c-0.7-2.5-1.7-5-3.1-7.2c-1.1-1.7-1.9-2.7-1.8-2.7
		c0.1-0.1,0.2,0.2,0.6,0.6c0.5,0.6,1,1.2,1.5,1.9c1.5,2.2,2.6,4.7,3.2,7.3c0.7,2.6,0.9,5.3,0.6,7.9c-0.1,0.8-0.2,1.6-0.4,2.4
		C180.2,181.9,180.1,182.2,180,182.5z"/>
</g>
<g id="freepik--Plant--inject-18">
	<path class="st3" d="M367.6,348.1c-0.1,0.1-0.7-0.3-1.5-0.9c-0.7-0.6-1.3-1.1-1.2-1.2s0.7,0.3,1.5,0.9
		C367.1,347.5,367.6,348,367.6,348.1z"/>
	<path class="st8" d="M387.6,318.2c0.1-2.8,0.2-5.7-0.7-8.3c-0.9-2.7-2.9-5.1-5.7-5.7c-3.1-0.7-6.3,1.3-8.1,4
		c-1.8,2.7-2.3,5.9-2.9,9.1c-3.6,21.7-4.9,43.8-3.9,65.8l12.8,1.8C384.8,361.9,386.6,341.8,387.6,318.2z"/>
	<path class="st3" d="M379.5,304.1c0,0.1,0,0.1-0.1,0.2c0,0.2-0.1,0.3-0.2,0.6c-0.2,0.5-0.5,1.3-0.9,2.2c-0.2,0.5-0.4,1-0.6,1.6
		c-0.2,0.6-0.4,1.2-0.6,1.9l-0.7,2.2l-0.7,2.5c-1.1,4.2-1.9,8.4-2.5,12.7c-0.7,4.8-1.1,10.1-1.5,15.7c-0.7,11.2-0.8,21.4-1,28.7
		c-0.1,3.7-0.3,6.6-0.4,8.7c-0.1,1-0.1,1.8-0.2,2.4c0,0.2,0,0.5-0.1,0.6c0,0.1,0,0.1,0,0.2c0-0.1,0-0.1,0-0.2c0-0.2,0-0.4,0-0.6
		c0-0.6,0-1.4,0.1-2.4c0.1-2.1,0.2-5,0.3-8.7c0.2-7.4,0.3-17.5,0.9-28.7c0.4-5.6,0.8-11,1.5-15.8c0.6-4.3,1.5-8.5,2.6-12.7
		c0.2-0.9,0.5-1.7,0.7-2.5c0.2-0.8,0.5-1.5,0.8-2.2l0.7-1.9c0.2-0.6,0.5-1.1,0.6-1.6l1-2.2l0.2-0.6
		C379.4,304.3,379.4,304.2,379.5,304.1z"/>
	<path class="st3" d="M380.6,304.2c0.7,0.8,1.2,1.7,1.6,2.6c1,2.6,1.4,5.5,1.2,8.3c-0.3,7.1-1,16.8-1.8,27.6
		c-0.9,10.8-1.8,20.5-2.5,27.5c-0.4,3.5-0.7,6.4-1,8.3c-0.1,1-0.2,1.7-0.3,2.3l-0.1,0.6c0,0.1,0,0.1,0,0.2c0,0,0-0.1,0-0.2
		s0-0.4,0-0.6c0.1-0.6,0.1-1.3,0.2-2.3c0.2-2,0.5-4.8,0.8-8.3c0.7-7,1.6-16.8,2.4-27.5c0.8-10.8,1.5-20.5,1.9-27.5
		c0.2-2.8-0.1-5.6-1-8.2C381.6,305.9,381.2,305,380.6,304.2z"/>
	<path class="st3" d="M389.5,337.3c-0.8-0.1-1.7-0.3-2.4-0.6c-0.8-0.2-1.6-0.6-2.3-1.1c0.8,0.1,1.7,0.3,2.4,0.6
		C388.1,336.4,388.8,336.8,389.5,337.3z"/>
	<path class="st3" d="M391.1,324.2c-0.7,0.6-1.5,1-2.3,1.3c-0.8,0.4-1.6,0.7-2.5,0.9c0.7-0.6,1.5-1,2.3-1.3
		C389.3,324.7,390.2,324.4,391.1,324.2z"/>
	<path class="st3" d="M390.2,313.6c0,0.1-0.9,0.2-1.9,0.1c-0.6,0-1.3-0.1-1.9-0.4c0.6-0.2,1.3-0.2,1.9-0.1
		C389,313.2,389.7,313.3,390.2,313.6z"/>
	<path class="st3" d="M377.1,306.8c-0.1,0.1-0.7-0.6-1.3-1.6c-0.4-0.5-0.7-1.1-0.9-1.8c0.1-0.1,0.7,0.6,1.2,1.6
		C376.6,305.5,376.9,306.1,377.1,306.8z"/>
	<path class="st3" d="M372.7,313.2c-1.2,0.3-2.4,0.3-3.6-0.1c0.6-0.2,1.2-0.3,1.8-0.2C371.9,313,372.7,313.1,372.7,313.2z"/>
	<path class="st3" d="M369.5,326.1c-0.7,0-1.3-0.2-1.9-0.5c-1-0.4-1.8-0.8-1.7-1c0.7,0,1.3,0.2,1.9,0.5
		C368.8,325.5,369.6,326,369.5,326.1z"/>
	<path class="st3" d="M369.2,336.9c0,0.1-0.7,0.4-1.6,0.6c-0.9,0.2-1.7,0.2-1.7,0.1s0.7-0.4,1.6-0.6S369.2,336.8,369.2,336.9z"/>
	<path class="st3" d="M367.7,354.6c0,0.1-0.8,0.4-1.7,0.5c-0.6,0.2-1.2,0.2-1.8,0.1c0-0.1,0.8-0.4,1.7-0.5
		C366.5,354.5,367.1,354.5,367.7,354.6z"/>
	<path class="st3" d="M366.8,364.4c0.1,0.1-0.6,0.6-1.4,1c-0.9,0.5-1.6,0.7-1.7,0.6c-0.1-0.1,0.6-0.6,1.4-1
		C366,364.5,366.7,364.3,366.8,364.4z"/>
	<path class="st3" d="M374.8,375.5c-0.1,0.1-0.7-0.7-1.3-1.7c-0.4-0.6-0.7-1.2-0.9-1.9c0.1-0.1,0.7,0.7,1.3,1.7
		C374.3,374.1,374.6,374.8,374.8,375.5z"/>
	<path class="st3" d="M377.1,357.1c0.1,0.1-0.5,0.8-1.4,1.7s-1.6,1.5-1.7,1.4c-0.1-0.1,0.5-0.9,1.4-1.7
		C376.2,357.6,377,357,377.1,357.1z"/>
	<path class="st3" d="M376.5,347.4c-0.1,0.1-0.7-0.4-1.3-1.1s-1.1-1.3-1-1.4c0.1-0.1,0.7,0.4,1.3,1.1
		C376.2,346.7,376.6,347.3,376.5,347.4z"/>
	<path class="st3" d="M378.1,335c0.1,0.1-0.4,0.8-1.2,1.6s-1.4,1.4-1.5,1.3c-0.1-0.1,0.4-0.8,1.2-1.6
		C377.4,335.6,378,334.9,378.1,335z"/>
	<path class="st3" d="M379,326c-0.1,0.1-0.8-0.5-1.6-1.3c-0.8-0.8-1.4-1.5-1.3-1.6c0.1-0.1,0.8,0.5,1.6,1.3
		C378.5,325.2,379.1,325.9,379,326z"/>
	<path class="st3" d="M380.8,314c-0.1,0.7-0.4,1.3-0.8,1.8c-0.6,1-1.1,1.6-1.2,1.6c-0.1-0.1,0.2-0.9,0.8-1.8S380.7,313.8,380.8,314z
		"/>
	<path class="st3" d="M384.1,302.7c-0.1,0.7-0.4,1.3-0.7,1.8c-0.5,1-1,1.7-1.1,1.6c0.1-0.7,0.4-1.3,0.7-1.8
		C383.5,303.3,384,302.6,384.1,302.7z"/>
	<path class="st3" d="M387.8,307.8c0.1,0.1-0.5,0.5-1.1,0.8c-0.7,0.3-1.3,0.5-1.3,0.4s0.5-0.5,1.1-0.8
		C387.1,307.8,387.7,307.7,387.8,307.8z"/>
	<path class="st3" d="M387.9,348.1c-0.9,0-1.7-0.2-2.5-0.6c-0.8-0.3-1.6-0.8-2.2-1.4c0.8,0.2,1.6,0.6,2.3,1
		C386.4,347.4,387.2,347.7,387.9,348.1z"/>
	<path class="st3" d="M386.3,356.7c0,0.1-0.7,0.4-1.7,0.6c-1,0.2-1.8,0.2-1.8,0.1c0-0.1,0.7-0.4,1.7-0.6
		C385.1,356.6,385.7,356.6,386.3,356.7z"/>
	<path class="st3" d="M384.5,371.3c-0.8-0.4-1.4-1-1.9-1.7c-0.6-0.6-1-1.4-1.2-2.3c0.6,0.6,1.1,1.3,1.6,2
		C383.5,370,384,370.6,384.5,371.3z"/>
	<path class="st3" d="M363.9,378.1c-0.1-0.1,0.4-0.7,1.2-1.3c0.7-0.6,1.4-1,1.5-1c0.1,0.1-0.4,0.7-1.2,1.3
		C364.7,377.7,364,378.2,363.9,378.1z"/>
	<path class="st8" d="M358,346.1c-0.8-2.6-2.4-5.6-5.1-5.7c-1.6,0.1-3.1,1.1-3.8,2.6c-0.7,1.5-1.1,3.1-1,4.7
		c0.3,11.6,2.3,23,5.9,34.1h10C363.8,369.6,361.8,357.6,358,346.1z"/>
	<path class="st8" d="M339.9,329.7c-1-5-5.3-8.7-10.4-8.9c-4.4,0.8-6.1,5.1-6.6,9.6s0.9,8.9,2.2,13.2c4.4,13.7,8.8,27.4,13.1,41.1
		l12.5-1.4C346.8,364.9,344.5,347.9,339.9,329.7z"/>
	<path class="st3" d="M352.9,340.4c-0.3,0.4-0.6,0.9-0.9,1.4c-0.5,1.4-0.7,2.9-0.5,4.4c0.2,1.9,0.4,4.2,0.7,6.7
		c0.3,2.5,0.8,5.3,1.3,8.1c1.1,5.7,2.4,10.9,3.2,14.6c0.4,1.9,0.7,3.4,1,4.5c0.1,0.5,0.2,0.9,0.2,1.2c0,0.1,0,0.3,0,0.4
		c-0.1-0.1-0.1-0.3-0.1-0.4l-0.3-1.2c-0.3-1.1-0.6-2.6-1.1-4.4c-0.9-3.7-2.2-8.9-3.3-14.6c-0.6-2.9-1-5.6-1.3-8.2
		c-0.2-1.3-0.3-2.5-0.4-3.6c-0.1-1.1-0.2-2.2-0.3-3.1c-0.2-1.5,0-3.1,0.6-4.5C352.1,341.2,352.4,340.8,352.9,340.4z"/>
	<path class="st3" d="M329.7,320.4c-0.6,0.6-1.1,1.3-1.5,2c-1.2,2-1.8,4.2-1.9,6.5c-0.1,3.4,0.5,6.8,1.5,10c1.1,3.7,2.3,7.8,3.5,12
		c2.5,8.5,4.7,16.2,6.4,21.9l1.9,6.6l0.5,1.8c0.1,0.2,0.1,0.4,0.1,0.6c-0.1-0.2-0.2-0.4-0.2-0.6l-0.6-1.8c-0.5-1.6-1.2-3.8-2-6.6
		l-6.5-21.8c-1.2-4.3-2.4-8.3-3.5-12c-1.1-3.3-1.6-6.7-1.5-10.1c0.1-2.3,0.8-4.6,2.1-6.6C328.5,321.6,329.1,321,329.7,320.4z"/>
	<path class="st3" d="M348,382c-0.1-0.2-0.2-0.4-0.3-0.6c-0.2-0.4-0.4-1-0.7-1.7c-0.6-1.5-1.4-3.8-2.1-6.6c-0.8-2.8-1.6-6.2-2.3-10
		c-0.7-3.8-1.5-8-2.3-12.4c-0.8-4.4-1.8-8.5-2.9-12.2c-1-3.3-2.2-6.5-3.6-9.6c-1-2.1-2.1-4.1-3.4-6c-0.4-0.7-0.8-1.2-1-1.6
		c-0.1-0.2-0.2-0.4-0.4-0.6c0.2,0.1,0.3,0.3,0.4,0.5c0.3,0.4,0.7,0.8,1.1,1.5c1.3,1.9,2.5,3.9,3.5,6c1.5,3.1,2.7,6.3,3.7,9.6
		c1.2,4,2.2,8.1,3,12.2c0.8,4.4,1.6,8.6,2.3,12.4c0.7,3.8,1.5,7.2,2.2,10c0.7,2.8,1.4,5.1,2,6.6c0.3,0.8,0.5,1.4,0.6,1.8
		C347.9,381.5,348,381.8,348,382z"/>
	<path class="st3" d="M325.3,341.5c0,0.1-0.7,0.4-1.5,0.6c-0.9,0.2-1.6,0.3-1.6,0.2s0.7-0.4,1.5-0.6
		C324.6,341.4,325.3,341.4,325.3,341.5z"/>
	<path class="st3" d="M324.1,333c-0.7,0.2-1.4,0.3-2.1,0.2c-0.7,0.1-1.4,0.1-2.1-0.1c0.7-0.3,1.4-0.4,2.1-0.4
		C322.7,332.7,323.4,332.7,324.1,333z"/>
	<path class="st3" d="M325.4,325.2c-0.1,0.1-0.8-0.3-1.5-1c-0.8-0.6-1.3-1.2-1.2-1.3s0.8,0.3,1.5,1
		C325,324.6,325.5,325.2,325.4,325.2z"/>
	<path class="st3" d="M329.2,318.1c0.1,0,0.1,0.6,0.1,1.4c0,0.7,0,1.3-0.2,1.4c-0.2,0-0.3-0.6-0.3-1.4
		C328.8,318.7,329.1,318.1,329.2,318.1z"/>
	<path class="st3" d="M337,321.5c0.1,0.1-0.2,0.7-0.7,1.4c-0.5,0.7-1,1.2-1.1,1.1s0.2-0.7,0.7-1.4
		C336.4,321.9,336.9,321.4,337,321.5z"/>
	<path class="st3" d="M342,330.2c0,0.1-0.6,0.5-1.4,0.8c-0.8,0.3-1.6,0.5-1.6,0.4c0-0.1,0.6-0.5,1.4-0.8S341.9,330.1,342,330.2z"/>
	<path class="st3" d="M345,339.2c-0.6,0.5-1.2,0.8-2,0.9c-0.7,0.2-1.4,0.3-2.1,0.1c0.7-0.3,1.3-0.4,2.1-0.5
		C343.6,339.4,344.3,339.2,345,339.2z"/>
	<path class="st3" d="M331,336.6c-0.1,0,0-0.7,0.2-1.4s0.5-1.3,0.6-1.3s0,0.7-0.2,1.4C331.5,336.1,331.2,336.7,331,336.6z"/>
	<path class="st3" d="M333,347.9c0-0.7,0.2-1.3,0.6-1.9c0.4-1,0.9-1.7,1-1.7c0,0.7-0.2,1.3-0.6,1.9C333.5,347.2,333.1,348,333,347.9
		z"/>
	<path class="st3" d="M328.2,351c0,0.1-0.8-0.1-1.8-0.4c-0.9-0.3-1.7-0.6-1.7-0.7c0.6-0.1,1.3,0,1.8,0.3
		C327.5,350.5,328.2,350.9,328.2,351z"/>
	<path class="st3" d="M330.9,360.2c0.1,0.1-0.5,0.6-1.2,1.1s-1.4,0.9-1.5,0.8c-0.1-0.1,0.5-0.6,1.2-1.1
		C330.2,360.4,330.9,360.1,330.9,360.2z"/>
	<path class="st3" d="M333.2,369.4c0,0.1-0.6,0.4-1.5,0.6c-0.8,0.2-1.5,0.3-1.6,0.2c0-0.1,0.6-0.4,1.5-0.6
		C332.4,369.3,333.1,369.2,333.2,369.4z"/>
	<path class="st3" d="M345.3,346.8c0.1,0.1-0.5,0.6-1.3,0.9c-0.8,0.3-1.5,0.3-1.6,0.2c0-0.1,0.6-0.4,1.4-0.7
		C344.6,347,345.2,346.7,345.3,346.8z"/>
	<path class="st3" d="M347.1,361.1c-0.1,0.1-0.7-0.1-1.5-0.5s-1.4-0.7-1.3-0.9c0-0.1,0.7,0.1,1.5,0.5
		C346.5,360.6,347.1,361,347.1,361.1z"/>
	<path class="st3" d="M350.1,371.3c-0.7,0-1.4-0.2-2-0.5c-0.7-0.2-1.3-0.5-1.8-1c0.7,0,1.4,0.2,2,0.5
		C348.9,370.5,349.5,370.9,350.1,371.3z"/>
	<path class="st3" d="M333.6,379.3c-0.1-0.1,0.7-0.7,1.7-1.4c0.9-0.7,1.7-1.4,1.8-1.3c0.1,0.1-0.5,0.9-1.5,1.7
		C335.1,378.8,334.4,379.2,333.6,379.3z"/>
	<path class="st3" d="M341.7,374.1c-0.1,0-0.3-0.7-0.6-1.5c-0.3-0.8-0.6-1.4-0.5-1.5c0.1-0.1,0.6,0.5,1,1.3
		C341.9,373.4,341.9,374.1,341.7,374.1z"/>
	<path class="st3" d="M339.6,361.9c-0.1,0.1-0.6-0.1-1.2-0.6c-0.6-0.4-1-0.8-0.9-1c0.1-0.1,0.6,0.1,1.2,0.6S339.7,361.7,339.6,361.9
		z"/>
	<path class="st3" d="M358.4,342.6c0.1,0.1-0.4,0.6-1.1,1.1s-1.3,0.9-1.4,0.8s0.4-0.6,1.1-1.1S358.3,342.5,358.4,342.6z"/>
	<path class="st3" d="M361.3,350.4c0,0.1-0.8,0.3-1.8,0.2c-1-0.1-1.7-0.4-1.7-0.6s0.8,0,1.7,0.1
		C360.1,350.1,360.7,350.2,361.3,350.4z"/>
	<path class="st3" d="M349.1,352.1c0,0.1-0.7,0.4-1.7,0.4s-1.7-0.1-1.7-0.2s0.8-0.2,1.7-0.2C348.3,352,349,352,349.1,352.1z"/>
	<path class="st3" d="M350.1,344.8c0,0.1-0.8,0.1-1.6-0.2c-0.8-0.4-1.3-1-1.2-1c0.1-0.1,0.7,0.3,1.4,0.6
		C349.5,344.5,350.1,344.6,350.1,344.8z"/>
	<path class="st3" d="M362.3,358.7c-0.1,0.1-0.8-0.2-1.7-0.8c-0.9-0.6-1.5-1.1-1.5-1.2c0.1-0.1,0.8,0.3,1.7,0.8
		S362.4,358.6,362.3,358.7z"/>
	<rect x="327" y="380.4" class="st1" width="65" height="11.5"/>
	<polygon class="st1" points="331.9,389.7 339.8,424.1 378.5,424.1 387.2,389.7 	"/>
	<path class="st3" d="M392,392c0,0.1-14.7,0.2-32.8,0.2c-18.1,0-32.8-0.1-32.8-0.2c0-0.1,14.7-0.2,32.8-0.2S392,391.9,392,392z"/>
	<path class="st3" d="M355.8,352.3c-0.1,0.1-0.6-0.5-1-1.2c-0.4-0.7-0.7-1.3-0.6-1.4s0.6,0.5,1,1.2
		C355.6,351.7,355.9,352.3,355.8,352.3z"/>
	<path class="st3" d="M355.9,361.6c0-0.6,0.1-1.2,0.3-1.8c0.3-1,0.7-1.6,0.8-1.6c0,0.6-0.1,1.2-0.3,1.7
		C356.3,360.9,356,361.7,355.9,361.6z"/>
	<path class="st3" d="M359,371.4c-0.1,0.1-0.6-0.7-1.1-1.7c-0.4-0.6-0.6-1.2-0.7-1.9c0.1-0.1,0.6,0.7,1.1,1.7
		C358.7,370,358.9,370.7,359,371.4z"/>
	<path class="st3" d="M352.2,379.2c-0.1-0.1,0.3-0.7,0.9-1.4c0.6-0.7,1.1-1.1,1.2-1s-0.3,0.7-0.9,1.3
		C352.8,378.8,352.3,379.3,352.2,379.2z"/>
	<path class="st3" d="M350.7,365c0,0.1-0.6,0.1-1.4,0c-0.8-0.1-1.3-0.3-1.3-0.5c0-0.1,0.6-0.1,1.4,0
		C350.2,364.6,350.7,364.8,350.7,365z"/>
</g>
<g id="freepik--Floor--inject-18">
	<path class="st3" d="M444.6,424.1c0,0.1-93,0.2-207.7,0.2s-207.7-0.1-207.7-0.2s93-0.2,207.7-0.2S444.6,424,444.6,424.1z"/>
</g>
</svg>
