<svg xmlns="http://www.w3.org/2000/svg" width="750" height="500" viewBox="0 0 750 500"><defs><style>.a{isolation:isolate;}.b,.e{fill:#fff;}.c{fill:#b4cffe;}.d{fill:#3c4d77;}.e{mix-blend-mode:soft-light;}.f{fill:#383c56;}.g{fill:#dee9fe;}.h{fill:#ebac3b;}.i{fill:#4361b7;}.j{fill:#7ba9fa;}.k{fill:#fefefe;}.l,.m,.n,.o{fill:none;}.l{stroke:#7ba9fa;}.l,.o{stroke-miterlimit:10;stroke-width:2px;}.m,.n{stroke:#ebac3b;stroke-linecap:round;stroke-linejoin:round;stroke-width:0.75px;}.n{stroke-dasharray:3.0736 3.0736;}.o{stroke:#fff;}</style></defs><g class="a"><circle class="b" cx="97.3285" cy="205.6336" r="25.9735"/><path class="c" d="M86.3159,211.6611a7.2323,7.2323,0,0,1-2.8364-2.69,7.8448,7.8448,0,0,1,0-7.7793,7.2316,7.2316,0,0,1,2.8364-2.69,8.4222,8.4222,0,0,1,4.0562-.97,8.51,8.51,0,0,1,3.4306.6675,6.8738,6.8738,0,0,1,2.5757,1.919L94.21,202.12a4.6654,4.6654,0,0,0-3.67-1.71,4.8706,4.8706,0,0,0-2.4195.5942,4.2217,4.2217,0,0,0-1.6577,1.6577,5.2189,5.2189,0,0,0,0,4.8389,4.2217,4.2217,0,0,0,1.6577,1.6577,4.8706,4.8706,0,0,0,2.4195.5942,4.6406,4.6406,0,0,0,3.67-1.7309l2.1689,2.0024a6.7642,6.7642,0,0,1-2.5859,1.9395,8.5883,8.5883,0,0,1-3.4414.6674A8.3773,8.3773,0,0,1,86.3159,211.6611Z"/><path class="c" d="M98.0464,204.4766a1.98,1.98,0,0,1-.584-1.4595,1.9051,1.9051,0,0,1,.584-1.45,2.1492,2.1492,0,0,1,2.8779,0,1.9051,1.9051,0,0,1,.584,1.45,1.98,1.98,0,0,1-.584,1.4595,2.065,2.065,0,0,1-2.8779,0Zm0,7.4873a1.9812,1.9812,0,0,1-.584-1.46,1.9034,1.9034,0,0,1,.584-1.4492,2.1495,2.1495,0,0,1,2.8779,0,1.9034,1.9034,0,0,1,.584,1.4492,1.9812,1.9812,0,0,1-.584,1.46,2.0648,2.0648,0,0,1-2.8779,0Z"/><path class="c" d="M109.5161,194.8208h2.8989l-6.8823,19.6455h-2.8984Z"/><circle class="b" cx="213.6343" cy="61.63" r="25.9735"/><path class="c" d="M208.2744,57.876,201.33,60.42l6.9448,2.5234v2.607l-9.9272-3.7749v-2.711l9.9272-3.7749Z"/><path class="c" d="M215.5317,69.8052,208.6494,50.16h2.8989l6.8824,19.6455Z"/><path class="c" d="M228.9414,59.0649v2.711l-9.9272,3.7749v-2.607L225.959,60.42l-6.9448-2.5444V55.29Z"/><circle class="b" cx="679.4124" cy="246.5" r="25.9735"/><path class="c" d="M668.6729,246.124a1.8654,1.8654,0,0,1-1.0635.751,1.87,1.87,0,0,1,1.0635.751,2.9976,2.9976,0,0,1,.3339,1.5849v3.337a1.5759,1.5759,0,0,0,.3858,1.1464,1.5175,1.5175,0,0,0,1.1367.3965h.375v2.544h-1.21a4.0929,4.0929,0,0,1-2.94-.959,3.6653,3.6653,0,0,1-1.001-2.7735v-3.7749a1.0182,1.0182,0,0,0-.2392-.73.8966.8966,0,0,0-.6787-.2505h-.6875v-2.544h.6875a.8966.8966,0,0,0,.6787-.2505,1.0174,1.0174,0,0,0,.2392-.73v-3.7749a3.6646,3.6646,0,0,1,1.001-2.7735,4.0931,4.0931,0,0,1,2.94-.9595h1.21v2.5445h-.375a1.5173,1.5173,0,0,0-1.1367.396,1.5771,1.5771,0,0,0-.3858,1.1474v3.3365A2.9951,2.9951,0,0,1,668.6729,246.124Z"/><path class="c" d="M672.51,252.1719a1.982,1.982,0,0,1-.584-1.4595,1.9051,1.9051,0,0,1,.584-1.4492,2.1492,2.1492,0,0,1,2.8779,0,1.9018,1.9018,0,0,1,.584,1.4492,1.9785,1.9785,0,0,1-.584,1.4595,2.0648,2.0648,0,0,1-2.8779,0Z"/><path class="c" d="M677.9736,252.1719a1.9824,1.9824,0,0,1-.584-1.4595,1.9054,1.9054,0,0,1,.584-1.4492,2.1493,2.1493,0,0,1,2.878,0,1.9018,1.9018,0,0,1,.5839,1.4492,1.9784,1.9784,0,0,1-.5839,1.4595,2.0649,2.0649,0,0,1-2.878,0Z"/><path class="c" d="M683.4375,252.1719a1.982,1.982,0,0,1-.584-1.4595,1.9051,1.9051,0,0,1,.584-1.4492,2.1492,2.1492,0,0,1,2.8779,0,1.9015,1.9015,0,0,1,.584,1.4492,1.9781,1.9781,0,0,1-.584,1.4595,2.0648,2.0648,0,0,1-2.8779,0Z"/><path class="c" d="M694.6787,245.603v2.544H693.99a.8928.8928,0,0,0-.6777.2505,1.014,1.014,0,0,0-.24.73v3.7749a3.6615,3.6615,0,0,1-1.001,2.7735,4.0913,4.0913,0,0,1-2.94.959h-1.209v-2.544h.375a1.519,1.519,0,0,0,1.1367-.3965,1.58,1.58,0,0,0,.3857-1.1464v-3.337a2.9879,2.9879,0,0,1,.334-1.5849,1.8632,1.8632,0,0,1,1.0635-.751,1.8587,1.8587,0,0,1-1.0635-.751,2.9855,2.9855,0,0,1-.334-1.5849v-3.3365a1.5813,1.5813,0,0,0-.3857-1.1474,1.5189,1.5189,0,0,0-1.1367-.396h-.375v-2.5445h1.209a4.0914,4.0914,0,0,1,2.94.9595,3.6608,3.6608,0,0,1,1.001,2.7735v3.7749a1.0132,1.0132,0,0,0,.24.73.8928.8928,0,0,0,.6777.2505Z"/><circle class="b" cx="510.2755" cy="75.9829" r="8.3528" transform="translate(95.7282 383.0741) rotate(-45)"/><circle class="b" cx="107.0727" cy="408.3283" r="8.3528" transform="translate(-265.9012 210.6239) rotate(-47.3796)"/><circle class="c" cx="178.9516" cy="137.1407" r="10.2334"/><circle class="c" cx="455.1893" cy="39.337" r="16.4562"/><ellipse class="c" cx="608.1661" cy="235.3104" rx="8.3384" ry="8.2437"/><path class="c" d="M664.6857,415.6248a11.2475,11.2475,0,1,1-11.2466-11.1191A11.1834,11.1834,0,0,1,664.6857,415.6248Z"/><path class="c" d="M52.0557,235.31a7.0231,7.0231,0,1,1-7.023-7.023A7.0231,7.0231,0,0,1,52.0557,235.31Z"/><path class="d" d="M174.6347,162.2516H572.5583A15.7685,15.7685,0,0,1,588.3268,178.02V429.6119a0,0,0,0,1,0,0h-429.46a0,0,0,0,1,0,0V178.02A15.7684,15.7684,0,0,1,174.6347,162.2516Z"/><path class="e" d="M441.7215,421.3748h-136.25a2.875,2.875,0,0,1-2.875-2.875h0a2.875,2.875,0,0,1,2.875-2.875h136.25a2.875,2.875,0,0,1,2.875,2.875h0A2.875,2.875,0,0,1,441.7215,421.3748Z"/><rect class="f" x="166.173" y="167.7957" width="414.8471" height="240.5327" rx="4.845"/><rect class="b" x="170.2634" y="171.7268" width="406.6663" height="233.1813" rx="4.2401"/><rect class="g" x="228.7054" y="321.104" width="86.2046" height="57.2556" rx="6.0826"/><rect class="h" x="327.5703" y="171.7268" width="249.3594" height="233.1813"/><path class="e" d="M458.7588,381.36H344.6174A2.6174,2.6174,0,0,1,342,378.7422h0a2.6174,2.6174,0,0,1,2.6174-2.6174H458.7588a2.6173,2.6173,0,0,1,2.6174,2.6174h0A2.6173,2.6173,0,0,1,458.7588,381.36Z"/><path class="e" d="M458.7589,395.097H344.6174A2.6174,2.6174,0,0,1,342,392.48h0a2.6174,2.6174,0,0,1,2.6174-2.6173H458.7589a2.6173,2.6173,0,0,1,2.6173,2.6173h0A2.6173,2.6173,0,0,1,458.7589,395.097Z"/><path class="e" d="M443.9529,194.2256h87.489a5.4529,5.4529,0,0,1,5.4529,5.4529v29.4087a5.4529,5.4529,0,0,1-5.4529,5.4529H443.953a5.453,5.453,0,0,1-5.453-5.453V199.6785A5.4529,5.4529,0,0,1,443.9529,194.2256Z"/><rect class="h" x="181.6667" y="185.0415" width="44.886" height="41.1841" rx="5.3509"/><rect class="g" x="181.6667" y="240.8082" width="42.4283" height="2.8677" rx="1.4338"/><rect class="g" x="181.6667" y="233.3748" width="62.9178" height="2.8677" rx="1.4338"/><path class="f" d="M133.253,429.6119H616.747a0,0,0,0,1,0,0v3.9047a19.9542,19.9542,0,0,1-19.9542,19.9542H153.2072a19.9542,19.9542,0,0,1-19.9542-19.9542v-3.9047a0,0,0,0,1,0,0Z"/><rect class="i" x="262.52" y="70.86" width="213.88" height="294.43" rx="13.07"/><path class="j" d="M262.52,352.22a13.0679,13.0679,0,0,0,13.07,13.07H463.33a13.0679,13.0679,0,0,0,13.07-13.07Z"/><path class="b" d="M361.63,358.7549a2.3333,2.3333,0,1,1-2.3333-2.3333A2.3334,2.3334,0,0,1,361.63,358.7549Z"/><path class="b" d="M371.7967,358.7549a2.3334,2.3334,0,1,1-2.3333-2.3333A2.3334,2.3334,0,0,1,371.7967,358.7549Z"/><path class="b" d="M381.9634,358.7549a2.3334,2.3334,0,1,1-2.3334-2.3333A2.3334,2.3334,0,0,1,381.9634,358.7549Z"/><path class="b" d="M292.9463,151.18q-4.79-4.7615-4.79-13.5972v-22.49h9.294v22.146q0,10.7871,8.95,10.7861a8.3894,8.3894,0,0,0,6.6553-2.61q2.2939-2.61,2.2949-8.1758v-22.146h9.18v22.49q0,8.8359-4.791,13.5972-4.79,4.7629-13.3965,4.7622T292.9463,151.18Z"/><path class="b" d="M333.709,115.0928h9.2949v40.1611H333.709Z"/><path class="b" d="M364.8057,106.9458H372.78l-18.9336,54.0454h-7.9746Z"/><path class="b" d="M379.4629,151.18q-4.79-4.7615-4.79-13.5972v-22.49h9.2939v22.146q0,10.7871,8.95,10.7861a8.3894,8.3894,0,0,0,6.6553-2.61q2.294-2.61,2.2949-8.1758v-22.146h9.18v22.49q0,8.8359-4.791,13.5972-4.79,4.7629-13.3965,4.7622T379.4629,151.18Z"/><path class="b" d="M444.9551,155.2539l-9.6963-13.9419-9.5234,13.9419H415.0635l14.8594-20.4248L415.81,115.0928h10.5566l9.2373,13.0234,9.0645-13.0234h10.04l-13.999,19.3921,14.9746,20.769Z"/><path class="h" d="M471.6624,83.216a7.2864,7.2864,0,1,1-7.34-7.2329A7.2863,7.2863,0,0,1,471.6624,83.216Z"/><polygon class="k" points="468.846 80.598 467.047 78.8 464.376 81.471 461.705 78.8 459.906 80.598 462.578 83.269 459.906 85.94 461.705 87.739 464.376 85.068 467.047 87.739 468.846 85.94 466.175 83.269 468.846 80.598"/><path class="j" d="M294.3574,240.2248H447.41a7.4456,7.4456,0,0,1,7.4456,7.4456v53.7755a7.4456,7.4456,0,0,1-7.4456,7.4456H294.3573a7.4456,7.4456,0,0,1-7.4456-7.4456V247.6705A7.4457,7.4457,0,0,1,294.3574,240.2248Z"/><circle class="h" cx="304.0502" cy="254.2982" r="8.1667"/><path class="b" d="M443.7585,256.4232h-123.25a2.125,2.125,0,0,1-2.125-2.125h0a2.125,2.125,0,0,1,2.125-2.125h123.25a2.125,2.125,0,0,1,2.125,2.125h0A2.125,2.125,0,0,1,443.7585,256.4232Z"/><circle class="h" cx="304.0502" cy="274.5581" r="8.1667" transform="translate(-82.2079 138.054) rotate(-22.6187)"/><path class="b" d="M443.7585,276.6831h-123.25a2.125,2.125,0,0,1-2.125-2.125h0a2.125,2.125,0,0,1,2.125-2.125h123.25a2.125,2.125,0,0,1,2.125,2.125h0A2.125,2.125,0,0,1,443.7585,276.6831Z"/><circle class="h" cx="304.0502" cy="294.8181" r="8.1666" transform="translate(-35.7692 547.5769) rotate(-80.7588)"/><path class="b" d="M443.7585,296.9431h-123.25a2.125,2.125,0,0,1-2.125-2.125h0a2.125,2.125,0,0,1,2.125-2.125h123.25a2.125,2.125,0,0,1,2.125,2.125h0A2.125,2.125,0,0,1,443.7585,296.9431Z"/><rect class="j" x="286.9117" y="196.4664" width="167.9437" height="26.0647" rx="4.5873"/><path class="b" d="M371.38,206.8207H294.0711A2.2709,2.2709,0,0,1,291.8,204.55h0a2.2709,2.2709,0,0,1,2.2709-2.2708H371.38a2.2708,2.2708,0,0,1,2.2708,2.2708h0A2.2709,2.2709,0,0,1,371.38,206.8207Z"/><rect class="b" x="291.8002" y="212.4584" width="158.1667" height="4.2601" rx="1.9749"/><path class="h" d="M385.0992,339.3578H353.8208a9.1269,9.1269,0,0,1-9.1269-9.1269h0a9.127,9.127,0,0,1,9.127-9.1269h31.2783a9.1268,9.1268,0,0,1,9.1269,9.1269h0A9.1268,9.1268,0,0,1,385.0992,339.3578Z"/><rect class="c" x="287.2455" y="174.2651" width="167.9437" height="3.0825" rx="1.5412"/><path class="j" d="M49.0359,65.4366h71.0567A11.0264,11.0264,0,0,1,131.119,76.463V147.52a11.0265,11.0265,0,0,1-11.0265,11.0265H49.0359A11.0264,11.0264,0,0,1,38.01,147.52V76.463A11.0264,11.0264,0,0,1,49.0359,65.4366Z"/><path class="h" d="M127.1274,75.1469a5.0131,5.0131,0,1,1-5.05-4.9762A5.0131,5.0131,0,0,1,127.1274,75.1469Z"/><polygon class="k" points="125.19 73.346 123.952 72.109 122.114 73.946 120.277 72.109 119.039 73.346 120.877 75.184 119.039 77.021 120.277 78.259 122.114 76.421 123.952 78.259 125.19 77.021 123.352 75.184 125.19 73.346"/><circle class="i" cx="84.5643" cy="111.9914" r="37.2049" transform="translate(-54.4216 92.5975) rotate(-45)"/><path class="b" d="M94.0307,99.3552a9.4684,9.4684,0,1,1-9.4683-9.4685A9.4685,9.4685,0,0,1,94.0307,99.3552Z"/><path class="b" d="M102.4722,126.2283H66.6579a17.8577,17.8577,0,0,1,5.3311-12.7416,5.3984,5.3984,0,0,1,3.8063-1.4953h17.54a5.3983,5.3983,0,0,1,3.8062,1.4953A17.8577,17.8577,0,0,1,102.4722,126.2283Z"/><path class="l" d="M141.8592,107.6986h86.8714c5.5261,0,14.7334,0,14.7334,13.8014v67.5784"/><path class="j" d="M247.32,189.0784a3.8563,3.8563,0,1,0-3.8563,3.8562A3.8562,3.8562,0,0,0,247.32,189.0784Z"/><path class="j" d="M146.378,107.6986a3.8563,3.8563,0,1,0-3.8563,3.8562A3.8562,3.8562,0,0,0,146.378,107.6986Z"/><path class="j" d="M551.1195,46.5292H665.2126a14.2,14.2,0,0,1,14.2,14.2V191.8523a14.2,14.2,0,0,1-14.2,14.2H551.12a14.2,14.2,0,0,1-14.2-14.2V60.7291A14.2,14.2,0,0,1,551.1195,46.5292Z"/><rect class="i" x="544.916" y="75.2102" width="126.5" height="85.5" rx="6.8004"/><line class="m" x1="571.041" y1="150.3851" x2="572.4368" y2="149.8358"/><polyline class="n" points="575.297 148.71 589.677 143.052 608.166 150.385 627.629 143.052 642.486 149.221"/><line class="m" x1="643.9056" y1="149.8099" x2="645.291" y2="150.3851"/><path class="b" d="M627.6286,106.8315c0,10.7489-19.4626,38.9251-19.4626,38.9251s-19.4625-28.1762-19.4625-38.9251a19.4626,19.4626,0,0,1,38.9251,0Z"/><circle class="i" cx="608.166" cy="106.7584" r="11.8165" transform="translate(158.5734 529.9955) rotate(-53.2268)"/><path class="j" d="M580.6882,126.4623c0,5.328-9.6472,19.2943-9.6472,19.2943s-9.6471-13.9663-9.6471-19.2943a9.6472,9.6472,0,1,1,19.2943,0Z"/><circle class="i" cx="571.041" cy="126.426" r="5.8572"/><path class="j" d="M654.9382,126.4623c0,5.328-9.6472,19.2943-9.6472,19.2943s-9.6471-13.9663-9.6471-19.2943a9.6472,9.6472,0,1,1,19.2943,0Z"/><circle class="i" cx="645.291" cy="126.426" r="5.8572"/><circle class="h" cx="668.8398" cy="56.9488" r="5.0131" transform="translate(36.291 281.6082) rotate(-24.42)"/><polygon class="k" points="671.915 55.111 670.677 53.874 668.84 55.711 667.002 53.874 665.765 55.111 667.602 56.949 665.765 58.787 667.002 60.024 668.84 58.186 670.677 60.024 671.915 58.787 670.077 56.949 671.915 55.111"/><path class="b" d="M629.592,66.9572l-82.09-.14a2.5905,2.5905,0,0,1-2.5861-2.5905h0a2.5905,2.5905,0,0,1,2.5949-2.59l82.09.14a2.59,2.59,0,0,1,2.5861,2.5905h0A2.5905,2.5905,0,0,1,629.592,66.9572Z"/><path class="b" d="M668.9158,173.6254,547.41,173.4825a2.4973,2.4973,0,0,1-2.4944-2.4973v-.1863a2.4974,2.4974,0,0,1,2.5-2.4974l121.5053.1428a2.4973,2.4973,0,0,1,2.4944,2.4973v.1864A2.4973,2.4973,0,0,1,668.9158,173.6254Z"/><path class="b" d="M587.1715,185.8565l-39.7661-.1273a2.4974,2.4974,0,0,1-2.4894-2.4974h0a2.4974,2.4974,0,0,1,2.5054-2.4973l39.7661.1273a2.4973,2.4973,0,0,1,2.4893,2.4974h0A2.4974,2.4974,0,0,1,587.1715,185.8565Z"/><line class="o" x1="504.308" y1="154.0872" x2="504.308" y2="206.5078"/><path class="l" d="M524.9746,102.5545H511.1667c-6.8587,0-6.8587,4.1365-6.8587,6.641v62.5313"/><path class="b" d="M504.308,210.3641a3.8563,3.8563,0,1,1,3.8562-3.8563A3.8563,3.8563,0,0,1,504.308,210.3641Z"/><path class="j" d="M524.9746,107.1286a3.8563,3.8563,0,1,1,3.8563-3.8562A3.8562,3.8562,0,0,1,524.9746,107.1286Z"/><rect class="j" x="52.8236" y="253.6375" width="161.5139" height="109.4976" rx="7.9284"/><path class="i" d="M65.4041,275.9488H201.7572a4.7442,4.7442,0,0,1,4.7442,4.7442V351.99a4.7442,4.7442,0,0,1-4.7442,4.7442H65.4041A4.7443,4.7443,0,0,1,60.66,351.99V280.6931A4.7443,4.7443,0,0,1,65.4041,275.9488Z"/><path class="j" d="M182.0566,287.4862h7.4958v30.9917a3.7479,3.7479,0,0,1-3.7479,3.7479h0a3.7479,3.7479,0,0,1-3.7479-3.7479Z"/><path class="j" d="M161.2224,287.4862h7.4958v28.1919a3.7479,3.7479,0,0,1-3.7479,3.7479h0a3.7479,3.7479,0,0,1-3.7479-3.7479Z"/><path class="j" d="M140.3882,297.4862h7.4958v36.01a3.7478,3.7478,0,0,1-3.7479,3.7478h0a3.7478,3.7478,0,0,1-3.7479-3.7478Z"/><path class="j" d="M119.5541,287.4862H127.05v58.4977a3.7479,3.7479,0,0,1-3.7479,3.7479h0a3.7479,3.7479,0,0,1-3.7479-3.7479Z"/><path class="j" d="M98.72,287.4862h7.4958v51.0212a3.7479,3.7479,0,0,1-3.7479,3.7479h0a3.7479,3.7479,0,0,1-3.7479-3.7479Z"/><path class="j" d="M77.8857,287.4862h7.4958v29.6422a3.7479,3.7479,0,0,1-3.7479,3.7479h0a3.7479,3.7479,0,0,1-3.7479-3.7479Z"/><path class="b" d="M85.3815,349.7318H77.8857V318.74a3.7479,3.7479,0,0,1,3.7479-3.7479h0a3.7479,3.7479,0,0,1,3.7479,3.7479Z"/><path class="b" d="M106.2157,349.7318H98.72V331.54a3.7479,3.7479,0,0,1,3.7479-3.7479h0a3.7479,3.7479,0,0,1,3.7479,3.7479Z"/><path class="b" d="M127.05,349.7318h-7.4958v-46.01a3.7478,3.7478,0,0,1,3.7479-3.7478h0a3.7478,3.7478,0,0,1,3.7479,3.7478Z"/><path class="b" d="M147.884,349.7318h-7.4958V291.2341a3.7479,3.7479,0,0,1,3.7479-3.7479h0a3.7479,3.7479,0,0,1,3.7479,3.7479Z"/><path class="b" d="M168.7182,349.7318h-7.4958V308.7106a3.7479,3.7479,0,0,1,3.7479-3.7479h0a3.7479,3.7479,0,0,1,3.7479,3.7479Z"/><path class="b" d="M189.5524,349.7318h-7.4958V320.09a3.7479,3.7479,0,0,1,3.7479-3.7479h0a3.7479,3.7479,0,0,1,3.7479,3.7479Z"/><path class="h" d="M211.5143,261.701a5.013,5.013,0,1,1-5.05-4.9763A5.013,5.013,0,0,1,211.5143,261.701Z"/><polygon class="k" points="209.576 259.9 208.339 258.663 206.501 260.5 204.664 258.663 203.426 259.9 205.264 261.738 203.426 263.576 204.664 264.813 206.501 262.975 208.339 264.813 209.576 263.576 207.739 261.738 209.576 259.9"/><rect class="g" x="60.6598" y="262.9737" width="113.4583" height="5.4637" rx="2.7318"/><path class="l" d="M124.8259,370.0519v13.6148c0,6,4.1365,7.0518,6.641,7.0518H262.1125"/><path class="j" d="M265.9688,390.7185a3.8563,3.8563,0,1,1-3.8563-3.8562A3.8563,3.8563,0,0,1,265.9688,390.7185Z"/><path class="j" d="M128.6821,370.0519a3.8562,3.8562,0,1,1-3.8562-3.8563A3.8562,3.8562,0,0,1,128.6821,370.0519Z"/><path class="j" d="M523.0224,291.4331H704.689a7.3015,7.3015,0,0,1,7.3015,7.3015v86.0609a7.3015,7.3015,0,0,1-7.3015,7.3015H523.0225a7.3015,7.3015,0,0,1-7.3015-7.3015v-86.061A7.3014,7.3014,0,0,1,523.0224,291.4331Z"/><circle class="h" cx="703.9601" cy="299.8169" r="5.0131"/><polygon class="k" points="707.035 297.979 705.798 296.742 703.96 298.579 702.122 296.742 700.885 297.979 702.723 299.817 700.885 301.655 702.122 302.892 703.96 301.054 705.798 302.892 707.035 301.655 705.197 299.817 707.035 297.979"/><rect class="b" x="524.6963" y="303.4662" width="32.8144" height="32.8144" rx="3.4661"/><path class="b" d="M681.9946,311.35H572.6426a3.9419,3.9419,0,0,1-3.9419-3.9419h0a3.9419,3.9419,0,0,1,3.9419-3.9419h109.352a3.9418,3.9418,0,0,1,3.9419,3.9419h0A3.9418,3.9418,0,0,1,681.9946,311.35Z"/><path class="b" d="M632.5468,323.4385H571.3142a2.6135,2.6135,0,0,1-2.6135-2.6135h0a2.6135,2.6135,0,0,1,2.6135-2.6135h61.2326a2.6135,2.6135,0,0,1,2.6135,2.6135h0A2.6135,2.6135,0,0,1,632.5468,323.4385Z"/><rect class="i" x="524.3468" y="343.7135" width="179.0179" height="38.1418" rx="7.4388"/><path class="h" d="M608.166,361.4v-9.5677a.9058.9058,0,0,1,1.307-.8122l9.5678,4.7261a.9058.9058,0,0,1,.0078,1.62l-9.5677,4.8417A.9059.9059,0,0,1,608.166,361.4Z"/><path class="b" d="M636.0319,360.038v-6.8439a.648.648,0,0,1,.9349-.581l6.844,3.3807a.6479.6479,0,0,1,.0056,1.159l-6.844,3.4634A.6479.6479,0,0,1,636.0319,360.038Z"/><path class="b" d="M645.85,352.5453h.4677a.4872.4872,0,0,1,.4872.4872v7.167a.4873.4873,0,0,1-.4873.4873H645.85a.4872.4872,0,0,1-.4872-.4872v-7.1671A.4872.4872,0,0,1,645.85,352.5453Z"/><path class="b" d="M591.68,360.038v-6.8439a.648.648,0,0,0-.9349-.581l-6.8439,3.3807a.6478.6478,0,0,0-.0056,1.159l6.8439,3.4634A.6479.6479,0,0,0,591.68,360.038Z"/><path class="b" d="M581.3941,352.5453h.4677a.4872.4872,0,0,1,.4872.4872v7.167a.4873.4873,0,0,1-.4873.4873h-.4675a.4873.4873,0,0,1-.4873-.4873v-7.167A.4872.4872,0,0,1,581.3941,352.5453Z" transform="translate(1163.2559 713.2321) rotate(180)"/><path class="b" d="M538.1969,370.2372a.7188.7188,0,1,1-.7187-.7187A.7188.7188,0,0,1,538.1969,370.2372Z"/><path class="b" d="M538.1969,372.7143a.7188.7188,0,1,1-.7187-.7187A.7188.7188,0,0,1,538.1969,372.7143Z"/><path class="b" d="M532.0059,369.5185h2.3507a.782.782,0,0,1,.782.782v2.3507a.7819.7819,0,0,1-.7819.7819h-2.3508a.7819.7819,0,0,1-.7819-.7819V370.3A.7819.7819,0,0,1,532.0059,369.5185Z"/><rect class="b" x="539.8177" y="369.5185" width="3.9146" height="3.9146" rx="0.7662"/><path class="b" d="M690.9521,370.2372a.7188.7188,0,1,1-.7187-.7187A.7188.7188,0,0,1,690.9521,370.2372Z"/><path class="b" d="M690.9521,372.7143a.7188.7188,0,1,1-.7187-.7187A.7188.7188,0,0,1,690.9521,372.7143Z"/><rect class="b" x="683.9792" y="369.5185" width="3.9146" height="3.9146" rx="0.7795"/><rect class="b" x="692.5729" y="369.5185" width="3.9146" height="3.9146" rx="0.7795"/><rect class="b" x="549.3551" y="371.2358" width="129.0013" height="0.7676"/><circle class="b" cx="615.5106" cy="371.5571" r="2.375"/><line class="o" x1="577.8333" y1="258.7903" x2="491.3008" y2="258.7903"/><path class="l" d="M628.5875,279.4569V266c0-7.21-4.1365-7.21-6.641-7.21H576.93"/><path class="b" d="M487.4446,258.79a3.8563,3.8563,0,1,1,3.8562,3.8562A3.8562,3.8562,0,0,1,487.4446,258.79Z"/><path class="j" d="M624.7313,279.4569a3.8562,3.8562,0,1,1,3.8562,3.8563A3.8562,3.8562,0,0,1,624.7313,279.4569Z"/></g></svg>