<svg xmlns="http://www.w3.org/2000/svg" xmlns:xlink="http://www.w3.org/1999/xlink" viewBox="0 0 145 253"><defs><style>.a{fill:none;}.b{clip-path:url(#a);}.c,.d{fill:#3d9b00;isolation:isolate;}.c{opacity:0.15;}.d{opacity:0.2;}</style><clipPath id="a"><rect class="a" width="145" height="253"/></clipPath></defs><g class="b"><path class="c" d="M88,34.42c22.78,14.86,26.48,29.11,30.17,36.66,9,18.46,3.68,51.36-7.25,80.33-9.4,24.93-24.17,46.51-22.92,57.32,1.88,16.37,18.58,27.31,30.17,28.52,27.34,2.86,39-2.89,42.67-11.2,22.12-49.77-9.47-251.24-9.47-251.24H-.2S6.22-2.9,27,11.61C45.9,24.82,65.17,19.55,88,34.42Z"/><path class="d" d="M32.1-25.53a32.16,32.16,0,0,0,17,22.17c13.08,6.46,33.15,2.1,50.7,16.11s19.35,30.86,19.51,39.92c.44,24.42-22.51,37.38-19.51,58s22.2,32.89,40,8.55S143.4-24.45,143.4-24.45Z"/></g></svg>