<?xml version="1.0" encoding="utf-8"?>
<!-- Generator: Adobe Illustrator 24.3.0, SVG Export Plug-In . SVG Version: 6.00 Build 0)  -->
<svg version="1.1" id="Layer_1" xmlns="http://www.w3.org/2000/svg" xmlns:xlink="http://www.w3.org/1999/xlink" x="0px" y="0px"
	 viewBox="0 0 145 253" style="enable-background:new 0 0 145 253;" xml:space="preserve">
<style type="text/css">
	.st0{clip-path:url(#SVGID_2_);}
	.st1{opacity:0.15;fill:#0052CC;enable-background:new    ;}
	.st2{opacity:0.2;fill:#0052CC;enable-background:new    ;}
</style>
<g>
	<defs>
		<rect id="SVGID_1_" width="145" height="253"/>
	</defs>
	<clipPath id="SVGID_2_">
		<use xlink:href="#SVGID_1_"  style="overflow:visible;"/>
	</clipPath>
	<g transform="translate(-4072 -8404)" class="st0">
		<g transform="translate(3689.901 8646.984) rotate(-90)">
			<path class="st1" d="M208.6,470c-14.9,22.8-29.1,26.5-36.7,30.2c-18.5,9-51.4,3.7-80.3-7.2c-24.9-9.4-46.5-24.2-57.3-22.9
				c-16.4,1.9-27.3,18.6-28.5,30.2c-2.9,27.3,2.9,39,11.2,42.7c49.8,22.1,251.2-9.5,251.2-9.5V381.9c0,0-22.3,6.4-36.8,27.2
				C218.2,428,223.4,447.3,208.6,470z"/>
			<path class="st2" d="M268.5,414.2c-9.6,2-17.8,8.2-22.2,17c-6.5,13.1-2.1,33.1-16.1,50.7c-14,17.6-30.9,19.4-39.9,19.5
				c-24.4,0.4-37.4-22.5-58-19.5c-20.7,3-32.9,22.2-8.5,40c24.3,17.8,143.7,3.6,143.7,3.6L268.5,414.2z"/>
		</g>
	</g>
</g>
</svg>
