<?xml version="1.0" encoding="utf-8"?>
<!-- Generator: Adobe Illustrator 24.3.0, SVG Export Plug-In . SVG Version: 6.00 Build 0)  -->
<svg version="1.1" id="Layer_1" xmlns="http://www.w3.org/2000/svg" xmlns:xlink="http://www.w3.org/1999/xlink" x="0px" y="0px"
	 viewBox="0 0 145 253" style="enable-background:new 0 0 145 253;" xml:space="preserve">
<style type="text/css">
	.st0{clip-path:url(#SVGID_2_);}
	.st1{opacity:0.15;fill:#FF00CF;enable-background:new    ;}
	.st2{opacity:0.2;fill:#FF00CF;enable-background:new    ;}
</style>
<g>
	<g>
		<defs>
			<rect id="SVGID_1_" width="145" height="253"/>
		</defs>
		<clipPath id="SVGID_2_">
			<use xlink:href="#SVGID_1_"  style="overflow:visible;"/>
		</clipPath>
		<g class="st0">
			<path class="st1" d="M88,34.42c22.78,14.86,26.48,29.11,30.17,36.66c9,18.46,3.68,51.36-7.25,80.33
				c-9.4,24.93-24.17,46.51-22.92,57.32c1.88,16.37,18.58,27.31,30.17,28.52c27.34,2.86,39-2.89,42.67-11.2
				c22.12-49.77-9.47-251.24-9.47-251.24H-0.2c0,0,6.42,22.29,27.2,36.8C45.9,24.82,65.17,19.55,88,34.42z"/>
			<path class="st2" d="M32.1-25.53c1.99,9.59,8.25,17.76,17,22.17c13.08,6.46,33.15,2.1,50.7,16.11s19.35,30.86,19.51,39.92
				c0.44,24.42-22.51,37.38-19.51,58s22.2,32.89,40,8.55s3.6-143.67,3.6-143.67L32.1-25.53z"/>
		</g>
	</g>
</g>
</svg>
